<?xml version="1.0" standalone="no"?>
<!DOCTYPE svg PUBLIC "-//W3C//DTD SVG 20010904//EN"
 "http://www.w3.org/TR/2001/REC-SVG-20010904/DTD/svg10.dtd">
<svg version="1.0" xmlns="http://www.w3.org/2000/svg"
 width="1018.000000pt" height="320.000000pt" viewBox="0 0 1018.000000 320.000000"
 preserveAspectRatio="xMidYMid meet">
<metadata>
Created by potrace 1.16, written by Peter Selinger 2001-2019
</metadata>
<g transform="translate(0.000000,320.000000) scale(0.100000,-0.100000)"
fill="#888d93" stroke="none">
<path d="M656 2673 c-19 -27 -32 -51 -28 -55 4 -3 122 -85 262 -182 l254 -176
15 25 c15 24 31 33 31 18 0 -5 7 -16 15 -27 15 -20 -24 -44 402 253 l132 92
-35 50 -36 50 -27 -17 c-14 -10 -122 -85 -239 -166 -118 -82 -220 -147 -227
-144 -7 2 -117 77 -245 165 -127 89 -233 161 -236 161 -2 0 -19 -21 -38 -47z"/>
<path d="M2880 1575 l0 -875 225 0 225 0 0 375 0 375 338 -2 337 -3 3 -372 2
-373 220 0 220 0 0 875 0 875 -220 0 -220 0 -2 -332 -3 -333 -337 -3 -338 -2
0 335 0 335 -225 0 -225 0 0 -875z"/>
<path d="M4900 1574 l0 -877 393 6 c399 6 485 12 639 48 303 71 531 301 592
599 65 319 -3 619 -186 816 -124 132 -276 214 -458 248 -146 27 -304 36 -647
36 l-333 0 0 -876z m822 517 c100 -26 150 -52 216 -114 96 -92 139 -194 149
-357 15 -244 -82 -437 -263 -522 -90 -42 -180 -58 -336 -58 l-138 0 0 542 0
541 148 -6 c97 -4 173 -13 224 -26z"/>
<path d="M6690 2285 l0 -165 293 -2 292 -3 3 -707 2 -708 220 0 220 0 2 708 3
707 293 3 292 2 0 165 0 165 -810 0 -810 0 0 -165z"/>
<path d="M8657 1603 c172 -467 318 -860 324 -876 l11 -27 267 0 266 0 319 863
c176 474 321 868 324 875 3 9 -45 12 -219 12 l-224 0 -230 -645 c-126 -355
-233 -645 -236 -645 -3 0 -104 273 -224 608 -120 334 -224 624 -233 645 l-14
37 -223 0 -222 0 314 -847z"/>
<path d="M105 2194 c-48 -25 -73 -53 -89 -102 -14 -39 -16 -123 -16 -581 0
-360 4 -549 11 -576 14 -51 73 -110 124 -124 27 -7 199 -11 513 -11 l472 0 0
-90 0 -90 60 0 60 0 0 90 0 90 473 0 c313 0 485 4 512 11 51 14 110 73 124
124 15 53 15 1094 1 1147 -14 48 -55 97 -97 114 -27 12 -217 14 -1075 14 -925
0 -1046 -2 -1073 -16z m2103 -120 l22 -15 0 -546 c0 -494 -2 -548 -17 -565
-15 -17 -60 -18 -1031 -18 -931 0 -1017 1 -1034 17 -17 15 -18 46 -18 560 0
530 0 543 20 563 20 20 33 20 1028 20 896 0 1010 -2 1030 -16z"/>
<path d="M760 545 l0 -65 420 0 420 0 0 65 0 65 -420 0 -420 0 0 -65z"/>
</g>
</svg>
