<?xml version="1.0" standalone="no"?>
<!DOCTYPE svg PUBLIC "-//W3C//DTD SVG 20010904//EN"
 "http://www.w3.org/TR/2001/REC-SVG-20010904/DTD/svg10.dtd">
<svg version="1.0" xmlns="http://www.w3.org/2000/svg"
 width="688.000000pt" height="320.000000pt" viewBox="0 0 688.000000 320.000000"
 preserveAspectRatio="xMidYMid meet">
<metadata>
Created by potrace 1.16, written by Peter Selinger 2001-2019
</metadata>
<g transform="translate(0.000000,320.000000) scale(0.100000,-0.100000)"
fill="#888d93" stroke="none">
<path d="M525 2813 c-91 -6 -264 -32 -353 -53 l-87 -20 3 -171 c3 -156 4 -170
20 -164 143 58 286 88 432 89 136 1 208 -18 270 -71 55 -48 73 -85 73 -158 0
-73 -18 -110 -73 -158 -61 -52 -129 -68 -320 -74 l-165 -6 0 -147 0 -148 175
-4 c147 -4 186 -8 244 -27 229 -75 253 -348 39 -444 -80 -36 -187 -51 -308
-43 -142 8 -253 38 -462 123 -8 3 -12 -43 -13 -175 l-1 -180 83 -22 c458 -125
958 -72 1164 122 100 94 141 184 151 328 6 103 -7 184 -46 265 -52 110 -135
180 -274 230 -49 18 -58 25 -42 30 143 48 236 117 280 210 35 74 50 184 37
268 -38 241 -215 365 -572 397 -112 10 -150 10 -255 3z"/>
<path d="M4160 2809 c-212 -28 -374 -128 -486 -301 -88 -135 -136 -298 -153
-524 -41 -541 139 -929 486 -1049 93 -32 228 -49 331 -41 405 33 641 298 692
776 45 432 -67 821 -287 995 -149 118 -369 172 -583 144z m179 -320 c107 -23
175 -122 207 -299 25 -134 25 -524 0 -665 -38 -224 -136 -328 -294 -312 -142
15 -214 112 -248 340 -22 143 -15 568 11 677 35 150 90 225 185 255 56 17 76
18 139 4z"/>
<path d="M2445 2795 c-348 -65 -580 -317 -652 -710 -23 -125 -23 -407 1 -530
68 -357 246 -571 534 -642 91 -23 310 -22 412 0 249 56 432 230 486 464 18 79
20 240 4 320 -39 192 -188 355 -383 420 -72 23 -99 26 -222 27 -161 1 -235
-16 -339 -79 -32 -19 -61 -33 -64 -31 -10 11 31 176 58 232 63 130 175 211
325 235 123 19 318 -13 458 -75 l57 -25 0 168 0 169 -78 21 c-183 49 -443 65
-597 36z m216 -976 c94 -52 137 -170 127 -346 -11 -190 -94 -282 -254 -283
-128 0 -199 52 -235 173 -31 99 -24 267 13 348 28 62 77 107 135 126 58 19
162 10 214 -18z"/>
<path d="M6147 2334 c-96 -23 -167 -64 -247 -141 -41 -40 -76 -73 -77 -73 -2
0 -3 45 -3 100 l0 100 -220 0 -220 0 0 -965 0 -965 220 0 220 0 0 370 0 369
73 -73 c139 -139 318 -192 509 -152 107 23 174 61 259 145 148 149 209 317
209 574 0 319 -127 565 -347 676 -98 49 -258 64 -376 35z m74 -315 c76 -23
139 -94 175 -199 15 -44 19 -83 19 -195 0 -159 -14 -221 -67 -301 -48 -71
-111 -106 -202 -112 -196 -12 -307 112 -323 363 -18 282 93 455 290 455 38 0
87 -5 108 -11z"/>
</g>
</svg>
