<?xml version="1.0" standalone="no"?>
<!DOCTYPE svg PUBLIC "-//W3C//DTD SVG 20010904//EN"
 "http://www.w3.org/TR/2001/REC-SVG-20010904/DTD/svg10.dtd">
<svg version="1.0" xmlns="http://www.w3.org/2000/svg"
 width="112.000000pt" height="80.000000pt" viewBox="0 0 112.000000 80.000000"
 preserveAspectRatio="xMidYMid meet">
<metadata>
Created by potrace 1.16, written by Peter Selinger 2001-2019
</metadata>
<g transform="translate(0.000000,80.000000) scale(0.100000,-0.100000)"
fill="#888d93" stroke="none">
<path d="M244 520 c-9 -117 -8 -121 11 -125 47 -10 63 -9 78 4 9 7 33 13 54
13 85 0 117 -119 42 -157 -42 -22 -68 -18 -99 15 -22 24 -36 30 -68 30 -37 0
-40 -2 -35 -22 15 -63 110 -115 185 -104 65 10 106 39 130 93 49 111 -34 228
-149 210 -20 -4 -44 -14 -54 -23 -18 -16 -19 -16 -19 22 0 84 0 84 111 84 l99
0 0 40 0 40 -138 0 -139 0 -9 -120z"/>
<path d="M757 604 c-54 -33 -57 -38 -57 -75 l0 -39 48 30 47 29 3 -184 2 -185
45 0 45 0 0 230 0 230 -38 0 c-26 0 -55 -11 -95 -36z"/>
<path d="M612 258 c-26 -26 0 -88 36 -88 17 0 52 37 52 54 0 37 -61 61 -88 34z"/>
</g>
</svg>
