<?xml version="1.0" standalone="no"?>
<!DOCTYPE svg PUBLIC "-//W3C//DTD SVG 20010904//EN"
 "http://www.w3.org/TR/2001/REC-SVG-20010904/DTD/svg10.dtd">
<svg version="1.0" xmlns="http://www.w3.org/2000/svg"
 width="978.000000pt" height="320.000000pt" viewBox="0 0 978.000000 320.000000"
 preserveAspectRatio="xMidYMid meet">
<metadata>
Created by potrace 1.16, written by Peter Selinger 2001-2019
</metadata>
<g transform="translate(0.000000,320.000000) scale(0.100000,-0.100000)"
fill="#888d93" stroke="none">
<path d="M785 2480 c-104 -14 -187 -40 -282 -85 -438 -212 -621 -742 -408
-1182 234 -482 841 -646 1290 -347 131 86 236 209 305 356 115 246 115 510 0
756 -140 297 -424 487 -760 506 -47 2 -112 1 -145 -4z m291 -130 c350 -90 587
-392 587 -750 0 -431 -341 -770 -773 -770 -432 0 -770 338 -770 770 0 356 236
661 580 750 105 27 270 27 376 0z"/>
<path d="M690 1603 c0 -184 4 -303 9 -301 22 7 531 293 531 298 0 3 -122 73
-270 156 l-270 152 0 -305z"/>
<path d="M8095 2345 l0 -125 153 0 152 0 0 125 0 125 -152 0 -153 0 0 -125z"/>
<path d="M2290 1760 l0 -660 213 0 c518 0 687 40 847 200 126 126 173 250 173
460 1 209 -46 334 -173 460 -160 160 -328 200 -847 200 l-213 0 0 -660z m642
380 c81 -25 142 -69 186 -134 50 -75 65 -140 61 -270 -4 -102 -7 -117 -37
-178 -71 -145 -219 -214 -437 -206 l-80 3 -3 395 c-1 217 0 401 3 409 8 21
220 9 307 -19z"/>
<path d="M3662 2363 c12 -32 121 -328 244 -658 l222 -600 200 -3 c183 -2 200
-1 207 15 4 10 109 295 235 633 125 338 233 627 239 643 l11 27 -168 0 -168 0
-174 -485 c-95 -267 -176 -485 -180 -485 -4 0 -85 218 -181 485 l-174 485
-167 0 -168 0 22 -57z"/>
<path d="M5200 1760 l0 -660 223 0 c509 1 671 38 833 192 123 117 184 272 184
468 0 194 -56 338 -178 460 -161 161 -327 200 -849 200 l-213 0 0 -660z m570
399 c134 -21 244 -99 291 -203 32 -73 44 -184 31 -273 -35 -227 -185 -333
-469 -333 l-83 0 0 410 0 410 83 0 c45 0 111 -5 147 -11z"/>
<path d="M6710 1761 l0 -661 165 0 165 0 0 250 0 250 85 0 c49 0 99 -6 118
-13 59 -25 106 -93 204 -293 l95 -194 174 0 c96 0 174 2 174 5 0 2 -44 96 -98
208 -137 283 -186 351 -282 389 l-35 14 57 26 c76 35 141 97 169 161 18 42 23
71 23 147 2 197 -69 290 -260 341 -71 20 -112 22 -416 27 l-338 4 0 -661z
m572 409 c21 -6 50 -22 66 -35 54 -45 64 -163 21 -233 -32 -53 -70 -66 -206
-70 l-123 -4 0 176 0 176 103 0 c56 0 119 -5 139 -10z"/>
<path d="M9249 2097 c-61 -18 -126 -57 -174 -106 -21 -23 -42 -41 -45 -41 -3
0 -5 30 -5 67 l0 68 -152 3 -153 3 0 -686 0 -686 153 3 152 3 0 258 c0 141 2
257 5 257 3 0 27 -23 54 -50 26 -27 74 -62 105 -77 51 -25 66 -28 166 -28 101
0 115 2 168 28 110 54 195 169 232 312 19 76 19 250 0 333 -34 144 -118 257
-230 313 -52 25 -79 32 -147 35 -50 2 -101 -1 -129 -9z m77 -226 c85 -39 125
-128 125 -281 0 -120 -24 -192 -81 -244 -43 -39 -87 -51 -161 -44 -63 6 -115
46 -149 114 -34 67 -41 234 -14 320 40 127 165 187 280 135z"/>
<path d="M8098 1595 l-3 -495 153 0 152 0 0 495 0 495 -150 0 -150 0 -2 -495z"/>
</g>
</svg>
