<?xml version="1.0" standalone="no"?>
<!DOCTYPE svg PUBLIC "-//W3C//DTD SVG 20010904//EN"
 "http://www.w3.org/TR/2001/REC-SVG-20010904/DTD/svg10.dtd">
<svg version="1.0" xmlns="http://www.w3.org/2000/svg"
 width="608.000000pt" height="320.000000pt" viewBox="0 0 608.000000 320.000000"
 preserveAspectRatio="xMidYMid meet">
<metadata>
Created by potrace 1.16, written by Peter Selinger 2001-2019
</metadata>
<g transform="translate(0.000000,320.000000) scale(0.100000,-0.100000)"
fill="#888d93" stroke="none">
<path d="M2130 2800 c-224 -28 -395 -122 -506 -277 -56 -79 -99 -196 -108
-295 l-5 -58 219 0 c235 0 230 -1 230 53 0 37 45 121 81 151 139 117 358 90
439 -54 38 -68 35 -165 -8 -251 -17 -35 -55 -90 -83 -122 -29 -33 -232 -216
-451 -409 l-398 -350 0 -164 0 -164 730 0 730 0 0 185 0 185 -420 0 c-330 0
-420 3 -419 13 0 6 89 86 197 177 221 186 423 377 489 462 106 138 145 299
113 469 -37 199 -227 372 -470 428 -99 23 -267 33 -360 21z"/>
<path d="M3715 2800 c-377 -47 -634 -342 -687 -789 -14 -119 -4 -402 17 -496
79 -353 267 -572 562 -657 114 -33 343 -33 458 0 292 84 483 309 560 662 22
101 31 379 16 495 -34 257 -111 427 -260 576 -139 138 -290 203 -498 213 -54
2 -129 1 -168 -4z m219 -384 c46 -19 110 -78 139 -129 75 -130 112 -385 88
-612 -26 -243 -88 -377 -203 -440 -44 -24 -65 -29 -123 -29 -160 0 -260 114
-312 355 -24 118 -24 400 0 518 29 135 63 208 126 271 31 31 72 61 91 67 51
16 155 15 194 -1z"/>
<path d="M90 2590 l0 -180 469 0 c259 0 472 -3 475 -8 2 -4 -174 -347 -391
-762 -218 -415 -398 -761 -400 -767 -4 -10 49 -13 243 -13 l249 0 388 775 387
775 0 180 0 180 -710 0 -710 0 0 -180z"/>
<path d="M5260 2246 c-111 -32 -203 -99 -266 -193 l-39 -58 -3 123 -3 122
-109 0 -110 0 0 -920 0 -920 110 0 110 0 0 345 c0 190 3 345 8 345 4 -1 24
-26 45 -56 46 -65 134 -133 215 -166 49 -19 75 -22 187 -22 113 0 138 3 190
23 135 53 238 153 306 297 62 130 73 193 73 389 -1 142 -4 183 -22 248 -58
211 -182 359 -359 428 -71 28 -260 36 -333 15z m251 -212 c111 -50 193 -165
225 -314 18 -85 17 -257 -1 -345 -45 -212 -186 -338 -380 -338 -153 0 -272 77
-343 223 -106 216 -73 530 70 687 110 118 281 153 429 87z"/>
</g>
</svg>
