<?xml version="1.0" standalone="no"?>
<!DOCTYPE svg PUBLIC "-//W3C//DTD SVG 20010904//EN"
 "http://www.w3.org/TR/2001/REC-SVG-20010904/DTD/svg10.dtd">
<svg version="1.0" xmlns="http://www.w3.org/2000/svg"
 width="694.000000pt" height="320.000000pt" viewBox="0 0 694.000000 320.000000"
 preserveAspectRatio="xMidYMid meet">
<metadata>
Created by potrace 1.16, written by Peter Selinger 2001-2019
</metadata>
<g transform="translate(0.000000,320.000000) scale(0.100000,-0.100000)"
fill="#888d93" stroke="none">
<path d="M2410 2809 c-273 -28 -444 -129 -513 -301 -32 -79 -31 -260 1 -340
35 -87 108 -161 207 -208 45 -22 87 -40 94 -40 7 0 9 -4 6 -10 -3 -5 -14 -10
-24 -10 -10 0 -55 -18 -99 -40 -174 -87 -252 -216 -252 -417 0 -269 132 -438
400 -513 185 -51 478 -49 665 5 115 34 176 67 246 135 95 93 139 209 139 370
0 204 -77 332 -252 420 -44 22 -89 40 -99 40 -37 0 -18 17 57 50 99 43 174
111 215 196 27 54 33 79 37 158 16 306 -163 469 -557 506 -119 11 -150 11
-271 -1z m241 -300 c94 -32 144 -110 143 -224 -1 -82 -18 -128 -64 -172 -87
-85 -267 -83 -352 4 -41 42 -52 66 -62 134 -23 153 78 269 234 269 37 0 82 -5
101 -11z m8 -765 c67 -20 134 -80 158 -142 12 -32 18 -73 18 -132 -1 -187 -92
-280 -275 -279 -137 0 -208 38 -256 134 -22 45 -27 71 -28 133 -1 102 17 163
68 218 69 77 195 104 315 68z"/>
<path d="M4220 2808 c-207 -26 -374 -127 -484 -293 -144 -216 -198 -586 -139
-944 57 -351 236 -576 520 -653 111 -30 325 -30 436 0 120 33 211 85 298 172
134 134 213 332 240 601 20 210 -3 455 -57 619 -100 298 -302 465 -602 500
-98 11 -108 11 -212 -2z m228 -337 c46 -24 84 -64 110 -116 95 -191 91 -823
-7 -1012 -76 -147 -266 -179 -382 -63 -89 89 -121 240 -121 575 0 427 59 592
227 636 44 12 131 1 173 -20z"/>
<path d="M707 2718 c-24 -35 -191 -283 -370 -551 l-327 -488 0 -204 0 -205
410 0 410 0 0 -170 0 -170 225 0 225 0 0 170 0 170 133 0 132 0 -3 170 -3 170
-129 0 -130 0 0 585 0 585 -264 0 -265 0 -44 -62z m120 -1105 c-2 -2 -122 -2
-265 -1 l-262 3 263 389 262 388 3 -387 c1 -214 1 -390 -1 -392z"/>
<path d="M6207 2334 c-96 -23 -167 -64 -247 -141 -41 -40 -76 -73 -77 -73 -2
0 -3 45 -3 100 l0 100 -220 0 -220 0 0 -965 0 -965 220 0 220 0 0 369 0 369
73 -72 c169 -170 416 -212 634 -110 71 34 196 155 241 236 70 123 102 262 102
441 0 319 -127 565 -347 676 -98 49 -258 64 -376 35z m74 -316 c132 -39 206
-201 196 -428 -6 -131 -23 -197 -70 -266 -47 -71 -110 -106 -201 -112 -198
-12 -308 111 -323 363 -17 286 91 455 290 455 38 0 87 -5 108 -12z"/>
</g>
</svg>
