<?xml version="1.0" standalone="no"?>
<!DOCTYPE svg PUBLIC "-//W3C//DTD SVG 20010904//EN"
 "http://www.w3.org/TR/2001/REC-SVG-20010904/DTD/svg10.dtd">
<svg version="1.0" xmlns="http://www.w3.org/2000/svg"
 width="685.000000pt" height="320.000000pt" viewBox="0 0 685.000000 320.000000"
 preserveAspectRatio="xMidYMid meet">
<metadata>
Created by potrace 1.16, written by Peter Selinger 2001-2019
</metadata>
<g transform="translate(0.000000,320.000000) scale(0.100000,-0.100000)"
fill="#888d93" stroke="none">
<path d="M494 2809 c-106 -9 -306 -48 -411 -80 l-73 -22 0 -197 0 -198 133 67
c161 82 270 114 387 115 100 0 149 -13 213 -54 118 -79 155 -244 86 -387 -39
-80 -99 -141 -458 -458 l-361 -318 0 -174 0 -173 670 0 670 0 0 170 0 170
-406 0 c-237 0 -404 4 -402 9 2 5 116 108 253 228 367 322 471 440 516 583 62
198 17 410 -117 543 -101 101 -242 157 -443 177 -113 11 -124 11 -257 -1z"/>
<path d="M4130 2809 c-383 -51 -605 -338 -640 -828 -38 -541 141 -926 487
-1046 93 -32 228 -49 331 -41 405 33 641 298 692 776 45 432 -67 821 -287 995
-149 118 -369 172 -583 144z m179 -320 c107 -23 175 -122 207 -299 25 -134 25
-524 0 -665 -38 -224 -136 -328 -294 -312 -142 15 -214 112 -248 340 -22 143
-15 568 11 677 35 150 90 225 185 255 56 17 76 18 139 4z"/>
<path d="M2217 2448 c-123 -183 -290 -432 -371 -553 l-146 -220 0 -202 0 -203
410 0 410 0 0 -170 0 -170 225 0 225 0 0 170 0 170 134 0 135 0 -2 168 -2 167
-132 3 -133 3 0 584 0 585 -265 0 -264 0 -224 -332z m305 -448 l-2 -390 -266
0 -265 0 262 390 c145 215 265 390 268 390 3 0 5 -175 3 -390z"/>
<path d="M6117 2334 c-96 -23 -167 -64 -247 -141 -41 -40 -76 -73 -77 -73 -2
0 -3 45 -3 100 l0 100 -220 0 -220 0 0 -965 0 -965 220 0 220 0 0 370 0 369
73 -73 c139 -139 318 -192 509 -152 107 23 174 61 259 145 148 149 209 317
209 574 0 319 -127 565 -347 676 -98 49 -258 64 -376 35z m74 -315 c76 -23
139 -94 175 -199 15 -44 19 -83 19 -195 0 -159 -14 -221 -67 -301 -48 -71
-111 -106 -202 -112 -196 -12 -307 112 -323 363 -18 282 93 455 290 455 38 0
87 -5 108 -11z"/>
</g>
</svg>
