<?xml version="1.0" standalone="no"?>
<!DOCTYPE svg PUBLIC "-//W3C//DTD SVG 20010904//EN"
 "http://www.w3.org/TR/2001/REC-SVG-20010904/DTD/svg10.dtd">
<svg version="1.0" xmlns="http://www.w3.org/2000/svg"
 width="322.000000pt" height="80.000000pt" viewBox="0 0 322.000000 80.000000"
 preserveAspectRatio="xMidYMid meet">
<metadata>
Created by potrace 1.16, written by Peter Selinger 2001-2019
</metadata>
<g transform="translate(0.000000,80.000000) scale(0.100000,-0.100000)"
fill="#888d93" stroke="none">
<path d="M170 461 l0 -251 53 0 c110 0 175 35 220 118 69 127 33 283 -81 349
-33 20 -62 27 -118 31 l-74 5 0 -252z"/>
<path d="M775 705 c-5 -2 -22 -6 -37 -9 -15 -4 -44 -21 -64 -39 -128 -111
-105 -348 40 -424 16 -8 64 -18 108 -20 l78 -6 0 252 0 251 -57 -1 c-32 0 -62
-2 -68 -4z"/>
<path d="M1710 690 c-23 -44 34 -88 71 -54 36 32 18 74 -33 74 -17 0 -31 -7
-38 -20z"/>
<path d="M2238 685 c-12 -28 0 -50 34 -61 23 -7 58 20 58 46 0 44 -73 57 -92
15z"/>
<path d="M1270 459 l0 -231 124 3 c119 4 126 5 167 34 63 44 89 101 89 192 0
89 -14 127 -67 174 -49 44 -107 59 -228 59 l-85 0 0 -231z m225 137 c50 -21
68 -63 63 -154 -3 -68 -6 -76 -34 -102 -23 -20 -47 -29 -88 -34 -30 -4 -60 -5
-66 -1 -6 4 -10 65 -10 156 l0 149 50 0 c28 0 66 -6 85 -14z"/>
<path d="M2950 460 l0 -230 45 0 45 0 0 230 0 230 -45 0 -45 0 0 -230z"/>
<path d="M2410 610 c0 -36 -2 -40 -25 -40 -21 0 -25 -5 -25 -29 0 -23 5 -30
23 -33 21 -3 22 -8 27 -119 3 -77 10 -122 19 -132 29 -36 150 -44 137 -10 -4
8 -6 20 -6 28 0 7 -13 15 -30 19 l-30 5 0 106 0 105 30 0 c27 0 30 3 30 30 0
27 -3 30 -30 30 -28 0 -30 2 -30 40 l0 40 -45 0 -45 0 0 -40z"/>
<path d="M1710 400 l0 -170 45 0 45 0 0 170 0 170 -45 0 -45 0 0 -170z"/>
<path d="M1906 549 c-42 -33 -60 -77 -60 -149 0 -86 21 -125 81 -152 40 -17
51 -19 85 -9 21 7 44 21 51 31 19 31 27 24 27 -25 0 -63 -35 -100 -87 -92 -20
4 -44 14 -54 23 -13 12 -28 15 -54 10 -19 -4 -35 -10 -35 -14 0 -21 35 -52 75
-68 55 -21 146 -14 184 14 54 39 61 70 61 270 l0 182 -45 0 c-44 0 -45 -1 -45
-32 l0 -32 -31 32 c-27 27 -39 32 -79 32 -33 0 -55 -6 -74 -21z m159 -70 c16
-15 20 -33 20 -80 0 -52 -3 -64 -24 -80 -73 -59 -152 25 -119 127 21 63 76 78
123 33z"/>
<path d="M2240 400 l0 -170 40 0 40 0 0 170 0 170 -40 0 -40 0 0 -170z"/>
<path d="M2674 560 c-21 -8 -64 -56 -64 -70 0 -4 16 -11 35 -14 27 -5 39 -2
55 14 24 24 72 26 94 4 36 -36 13 -57 -72 -68 -29 -4 -64 -12 -78 -18 -29 -14
-54 -56 -54 -92 0 -35 45 -84 85 -92 39 -7 104 11 112 32 8 21 23 17 23 -6 0
-17 7 -20 45 -20 l45 0 0 113 c0 141 -10 179 -54 206 -35 22 -130 28 -172 11z
m136 -200 c0 -58 -61 -96 -111 -70 -21 12 -26 52 -6 68 10 8 71 25 110 31 4 1
7 -13 7 -29z"/>
</g>
</svg>
