<?xml version="1.0" encoding="UTF-8" standalone="no"?>
<svg
   version="1.0"
   width="1228.000000pt"
   height="320.000000pt"
   viewBox="0 0 1228.000000 320.000000"
   preserveAspectRatio="xMidYMid meet"
   id="svg6"
   sodipodi:docname="grey-webdl.svg"
   inkscape:version="1.4.4 (dcaf3e7d9e, 2026-05-05)"
   xml:space="preserve"
   xmlns:inkscape="http://www.inkscape.org/namespaces/inkscape"
   xmlns:sodipodi="http://sodipodi.sourceforge.net/DTD/sodipodi-0.dtd"
   xmlns="http://www.w3.org/2000/svg"
   xmlns:svg="http://www.w3.org/2000/svg"><defs
     id="defs6" /><sodipodi:namedview
     id="namedview6"
     pagecolor="#505050"
     bordercolor="#ffffff"
     borderopacity="1"
     inkscape:showpageshadow="0"
     inkscape:pageopacity="0"
     inkscape:pagecheckerboard="1"
     inkscape:deskcolor="#505050"
     inkscape:document-units="pt"
     inkscape:zoom="0.74419788"
     inkscape:cx="657.0833"
     inkscape:cy="139.07591"
     inkscape:window-width="2560"
     inkscape:window-height="1380"
     inkscape:window-x="0"
     inkscape:window-y="0"
     inkscape:window-maximized="1"
     inkscape:current-layer="svg6" /><metadata
     id="metadata1">
Created by potrace 1.16, written by Peter Selinger 2001-2019
</metadata><text
     xml:space="preserve"
     style="font-weight:bold;font-size:255.838px;font-family:Monospace;-inkscape-font-specification:'Monospace Bold';letter-spacing:-3.75px;word-spacing:0px;writing-mode:lr-tb;direction:ltr;display:inline;fill:#888d93;stroke:#888d93;stroke-width:5;stroke-linecap:square;stroke-dasharray:none;stroke-opacity:1;fill-opacity:1"
     x="341.71536"
     y="251.56702"
     id="text6"><tspan
       sodipodi:role="line"
       id="tspan6"
       style="font-style:normal;font-variant:normal;font-weight:bold;font-stretch:normal;font-family:System-ui;-inkscape-font-specification:'System-ui Bold';letter-spacing:-3.75px;fill:#888d93;stroke:#888d93;stroke-width:5;stroke-linecap:square;stroke-dasharray:none;stroke-opacity:1;fill-opacity:1"
       x="341.71536"
       y="251.56702">WebDL</tspan></text><g
     style="fill:#888d93;fill-opacity:1"
     id="g6"
     transform="matrix(16.56906,0,0,16.56906,11.687286,1.4322531)"><path
       d="m 16.417,9.57 a 7.917,7.917 0 1 1 -8.144,-7.908 1.758,1.758 0 0 1 0.451,0 7.913,7.913 0 0 1 7.693,7.907 z M 5.85,15.838 q 0.254,0.107 0.515,0.193 A 11.772,11.772 0 0 1 4.793,10.111 H 1.713 A 6.816,6.816 0 0 0 5.85,15.838 Z M 2.226,6.922 A 6.727,6.727 0 0 0 1.715,9.004 h 3.078 a 11.83,11.83 0 0 1 1.55,-5.89 Q 6.094,3.197 5.85,3.3 A 6.834,6.834 0 0 0 2.226,6.922 Z m 8.87,2.082 A 14.405,14.405 0 0 0 10.835,6.694 9.847,9.847 0 0 0 10.122,4.434 C 9.675,3.482 9.113,2.861 8.625,2.767 a 8.468,8.468 0 0 0 -0.253,0 C 7.884,2.861 7.322,3.482 6.875,4.435 A 9.847,9.847 0 0 0 6.163,6.695 14.404,14.404 0 0 0 5.902,9.004 Z m -0.974,5.676 a 9.844,9.844 0 0 0 0.713,-2.26 14.413,14.413 0 0 0 0.26,-2.309 H 5.903 a 14.412,14.412 0 0 0 0.261,2.31 9.844,9.844 0 0 0 0.712,2.259 c 0.487,1.036 1.109,1.68 1.624,1.68 0.515,0 1.137,-0.644 1.623,-1.68 z m 4.652,-2.462 a 6.737,6.737 0 0 0 0.513,-2.107 h -3.082 a 11.77,11.77 0 0 1 -1.572,5.922 q 0.261,-0.086 0.517,-0.194 a 6.834,6.834 0 0 0 3.624,-3.621 z M 11.15,3.3 a 6.82,6.82 0 0 0 -0.496,-0.187 11.828,11.828 0 0 1 1.55,5.89 h 3.081 A 6.815,6.815 0 0 0 11.15,3.3 Z"
       id="path1-6"
       style="fill:#888d93;fill-opacity:1" /></g></svg>
