<?xml version="1.0" standalone="no"?>
<!DOCTYPE svg PUBLIC "-//W3C//DTD SVG 20010904//EN"
 "http://www.w3.org/TR/2001/REC-SVG-20010904/DTD/svg10.dtd">
<svg version="1.0" xmlns="http://www.w3.org/2000/svg"
 width="686.000000pt" height="320.000000pt" viewBox="0 0 686.000000 320.000000"
 preserveAspectRatio="xMidYMid meet">
<metadata>
Created by potrace 1.16, written by Peter Selinger 2001-2019
</metadata>
<g transform="translate(0.000000,320.000000) scale(0.100000,-0.100000)"
fill="#888d93" stroke="none">
<path d="M4272 2799 c-309 -36 -543 -212 -658 -494 -52 -127 -74 -238 -81
-415 -19 -501 147 -835 473 -953 279 -101 633 -36 819 150 126 126 182 286
172 492 -8 173 -45 266 -152 380 -117 124 -266 181 -469 181 -136 0 -215 -18
-315 -70 -41 -22 -77 -37 -80 -34 -11 11 30 172 59 231 75 152 221 233 420
233 114 0 279 -40 383 -92 l37 -18 0 169 0 170 -54 15 c-86 25 -193 45 -305
56 -115 11 -144 11 -249 -1z m125 -975 c54 -20 106 -77 129 -145 28 -81 26
-263 -5 -341 -43 -110 -151 -171 -269 -153 -147 22 -215 127 -216 330 0 198
65 303 203 324 56 9 102 5 158 -15z"/>
<path d="M80 2261 l0 -520 60 24 c185 72 387 101 523 74 76 -16 165 -67 204
-118 99 -128 76 -333 -48 -431 -77 -61 -132 -75 -284 -74 -155 1 -246 24 -418
107 l-107 52 0 -182 0 -182 56 -21 c185 -69 336 -94 564 -94 167 1 195 3 282
27 317 84 487 295 488 604 0 168 -50 321 -141 426 -155 179 -462 255 -777 191
l-33 -7 3 144 3 144 408 3 407 2 0 175 0 175 -595 0 -595 0 0 -519z"/>
<path d="M1760 2605 l0 -175 448 -2 449 -3 -339 -743 c-187 -409 -338 -746
-336 -748 2 -2 105 -4 228 -4 l223 -1 363 793 363 793 1 133 0 132 -700 0
-700 0 0 -175z"/>
<path d="M6111 2324 c-87 -23 -171 -74 -243 -147 l-68 -68 0 101 0 100 -220 0
-220 0 0 -960 0 -960 220 0 220 0 0 365 c0 201 1 365 3 365 1 0 34 -31 73 -69
137 -133 309 -185 499 -150 210 39 381 215 450 464 26 94 32 340 11 444 -55
269 -212 461 -421 516 -74 19 -232 19 -304 -1z m130 -331 c103 -58 148 -156
156 -343 8 -180 -32 -310 -117 -383 -52 -44 -110 -60 -203 -56 -92 5 -156 40
-205 113 -53 79 -67 142 -67 296 0 164 22 241 87 315 65 74 119 96 224 91 58
-2 82 -9 125 -33z"/>
</g>
</svg>
