<?xml version="1.0" standalone="no"?>
<!DOCTYPE svg PUBLIC "-//W3C//DTD SVG 20010904//EN"
 "http://www.w3.org/TR/2001/REC-SVG-20010904/DTD/svg10.dtd">
<svg version="1.0" xmlns="http://www.w3.org/2000/svg"
 width="921.000000pt" height="320.000000pt" viewBox="0 0 921.000000 320.000000"
 preserveAspectRatio="xMidYMid meet">
<metadata>
Created by potrace 1.16, written by Peter Selinger 2001-2019
</metadata>
<g transform="translate(0.000000,320.000000) scale(0.100000,-0.100000)"
fill="#888d93" stroke="none">
<path d="M0 1600 l0 -930 195 0 195 0 0 385 0 385 405 0 405 0 0 -385 0 -385
190 0 190 0 0 930 0 930 -190 0 -190 0 0 -385 0 -385 -405 0 -405 0 0 385 0
385 -195 0 -195 0 0 -930z"/>
<path d="M1810 1600 l0 -930 345 0 c466 0 597 16 757 95 165 80 274 190 359
360 81 163 93 223 93 470 1 188 -1 219 -22 300 -93 360 -360 585 -742 625 -52
5 -251 10 -442 10 l-348 0 0 -930z m841 573 c167 -49 263 -154 315 -345 25
-90 25 -355 1 -453 -26 -101 -59 -167 -113 -226 -58 -61 -106 -90 -199 -119
-59 -19 -101 -23 -262 -27 l-193 -6 0 603 0 603 193 -6 c148 -4 207 -9 258
-24z"/>
<path d="M3570 1601 l0 -931 195 0 195 0 0 330 0 330 148 0 147 -1 175 -329
174 -330 214 0 214 0 -29 53 c-113 200 -365 669 -362 671 2 1 29 17 60 34 113
64 197 171 239 307 27 88 30 267 5 360 -53 205 -200 346 -422 407 -73 20 -107
22 -515 26 l-438 4 0 -931z m809 590 c82 -26 124 -59 158 -128 24 -50 28 -70
28 -143 0 -109 -27 -169 -99 -217 -72 -49 -105 -55 -313 -60 l-193 -5 0 286 0
286 179 0 c148 0 190 -3 240 -19z"/>
<path d="M5360 2331 l0 -190 48 -3 47 -3 3 -722 2 -723 210 0 210 0 0 909 0
908 -67 6 c-38 4 -155 7 -260 7 l-193 0 0 -189z"/>
<path d="M6565 2504 c-11 -2 -45 -9 -75 -15 -184 -38 -314 -156 -377 -342
l-28 -82 0 -460 c0 -410 2 -467 18 -525 55 -201 182 -323 392 -375 60 -16 135
-19 530 -22 502 -5 638 2 760 41 233 74 325 231 325 557 l0 129 -198 0 -199 0
-6 -122 c-3 -68 -11 -138 -18 -156 -22 -62 -20 -62 -526 -62 -587 0 -613 4
-656 98 -21 46 -22 59 -22 432 0 371 1 387 21 431 15 33 32 51 60 65 37 18 71
19 778 22 l738 2 -6 28 c-13 55 -68 152 -111 196 -60 62 -125 102 -220 134
l-80 27 -540 1 c-297 1 -549 0 -560 -2z"/>
<path d="M8260 2235 l0 -265 -275 0 -275 0 0 -205 0 -205 275 0 275 0 0 -265
0 -265 205 0 205 0 0 265 0 265 265 0 265 0 0 205 0 205 -265 0 -265 0 0 265
0 265 -205 0 -205 0 0 -265z"/>
</g>
</svg>
