<?xml version="1.0" standalone="no"?>
<!DOCTYPE svg PUBLIC "-//W3C//DTD SVG 20010904//EN"
 "http://www.w3.org/TR/2001/REC-SVG-20010904/DTD/svg10.dtd">
<svg version="1.0" xmlns="http://www.w3.org/2000/svg"
 width="1228.000000pt" height="320.000000pt" viewBox="0 0 1228.000000 320.000000"
 preserveAspectRatio="xMidYMid meet">
<metadata>
Created by potrace 1.16, written by Peter Selinger 2001-2019
</metadata>
<g transform="translate(0.000000,320.000000) scale(0.100000,-0.100000)"
fill="#888d93" stroke="none">
<path d="M1360 2870 c-490 -45 -915 -378 -1084 -848 -92 -258 -92 -586 0 -844
132 -365 417 -651 782 -782 258 -92 586 -92 844 0 365 132 651 417 782 782 92
258 92 586 0 844 -132 365 -417 651 -782 782 -155 55 -371 82 -542 66z m209
-230 c108 -85 219 -328 270 -590 18 -94 41 -281 41 -331 0 -18 -14 -19 -400
-19 l-400 0 0 23 c0 53 31 284 51 373 73 340 233 597 361 581 22 -3 55 -19 77
-37z m-459 -34 c0 -2 -18 -42 -40 -90 -101 -218 -167 -477 -177 -693 l-6 -123
-242 0 -242 0 9 58 c53 352 273 652 598 814 67 34 100 45 100 34z m855 -41
c209 -104 387 -287 491 -502 38 -80 79 -215 92 -305 l9 -58 -242 0 -242 0 -6
123 c-10 218 -75 477 -173 685 -24 52 -44 97 -44 98 0 12 35 -1 115 -41z
m-1072 -1188 c10 -218 75 -477 173 -686 24 -52 42 -96 39 -99 -9 -9 -129 47
-207 97 -256 164 -441 450 -486 754 l-9 57 242 0 242 0 6 -123z m987 100 c0
-53 -31 -284 -51 -373 -76 -351 -239 -605 -373 -580 -74 14 -178 149 -245 316
-63 158 -110 374 -126 578 l-7 82 401 0 401 0 0 -23z m668 -34 c-48 -323 -239
-606 -523 -775 -71 -42 -163 -83 -171 -75 -3 3 7 29 21 58 105 207 181 493
192 727 l6 122 242 0 242 0 -9 -57z"/>
<path d="M3424 2533 c3 -10 109 -416 236 -903 127 -487 238 -909 246 -938 l15
-52 236 2 236 3 151 573 c83 314 155 571 160 569 5 -2 77 -261 160 -575 l150
-572 236 0 236 0 247 948 c136 521 247 950 247 955 0 4 -110 7 -244 7 l-244 0
-5 -23 c-4 -12 -61 -288 -127 -612 -130 -636 -128 -625 -139 -625 -3 0 -76
284 -161 630 l-154 630 -203 0 c-202 0 -203 0 -208 -22 -107 -449 -305 -1233
-312 -1235 -7 -3 -263 1216 -263 1250 0 4 -113 7 -251 7 -234 0 -250 -1 -245
-17z"/>
<path d="M7360 1595 l0 -955 230 0 230 0 0 125 c0 69 3 125 8 125 4 0 18 -20
31 -45 53 -100 132 -165 251 -206 88 -30 246 -31 337 -1 175 56 300 203 365
427 21 73 23 99 23 300 -1 195 -3 229 -23 300 -79 288 -267 445 -532 445 -194
0 -339 -81 -416 -232 -13 -27 -29 -48 -34 -48 -6 0 -10 131 -10 360 l0 360
-230 0 -230 0 0 -955z m858 113 c96 -46 152 -173 152 -342 0 -181 -52 -294
-159 -348 -101 -52 -205 -34 -287 47 -74 74 -99 151 -98 305 0 94 4 125 23
171 40 105 95 159 191 190 38 13 130 1 178 -23z"/>
<path d="M8960 1596 l0 -956 393 0 c558 1 648 12 832 100 163 79 272 187 355
355 82 167 118 365 106 588 -15 287 -88 472 -250 632 -97 97 -215 162 -364
203 l-97 26 -487 4 -488 3 0 -955z m810 564 c246 -39 390 -241 390 -548 0
-269 -89 -456 -253 -533 -86 -40 -146 -49 -318 -49 l-149 0 0 570 0 570 133 0
c72 0 161 -5 197 -10z"/>
<path d="M10790 1595 l0 -955 635 0 635 0 0 195 0 195 -395 0 -395 0 0 760 0
760 -240 0 -240 0 0 -955z"/>
<path d="M6374 2096 c-208 -47 -360 -167 -449 -351 -62 -129 -80 -218 -78
-395 2 -248 56 -395 197 -536 142 -143 299 -199 546 -197 154 2 248 21 358 75
129 63 262 223 300 361 l10 37 -206 -1 -207 0 -30 -42 c-104 -143 -363 -141
-458 2 -30 44 -57 130 -57 178 l0 33 485 0 485 0 0 94 c0 377 -158 622 -465
723 -68 22 -102 26 -225 29 -99 3 -164 -1 -206 -10z m314 -337 c53 -26 97 -78
122 -147 33 -89 54 -82 -245 -82 l-265 0 6 28 c12 50 51 127 80 155 76 76 200
94 302 46z"/>
</g>
</svg>
