<?xml version="1.0" standalone="no"?>
<!DOCTYPE svg PUBLIC "-//W3C//DTD SVG 20010904//EN"
 "http://www.w3.org/TR/2001/REC-SVG-20010904/DTD/svg10.dtd">
<svg version="1.0" xmlns="http://www.w3.org/2000/svg"
 width="504.000000pt" height="320.000000pt" viewBox="0 0 504.000000 320.000000"
 preserveAspectRatio="xMidYMid meet">
<metadata>
Created by potrace 1.16, written by Peter Selinger 2001-2019
</metadata>
<g transform="translate(0.000000,320.000000) scale(0.100000,-0.100000)"
fill="#888d93" stroke="none">
<path d="M0 1600 l0 -930 195 0 195 0 0 385 0 385 405 0 405 0 0 -385 0 -385
190 0 190 0 0 930 0 930 -190 0 -190 0 0 -385 0 -385 -405 0 -405 0 0 385 0
385 -195 0 -195 0 0 -930z"/>
<path d="M1810 1600 l0 -930 345 0 c466 0 597 16 757 95 165 80 274 190 359
360 81 163 93 223 93 470 1 188 -1 219 -22 300 -93 360 -360 585 -742 625 -52
5 -251 10 -442 10 l-348 0 0 -930z m841 573 c167 -49 263 -154 315 -345 25
-90 25 -355 1 -453 -26 -101 -59 -167 -113 -226 -58 -61 -106 -90 -199 -119
-59 -19 -101 -23 -262 -27 l-193 -6 0 603 0 603 193 -6 c148 -4 207 -9 258
-24z"/>
<path d="M3570 1601 l0 -931 195 0 195 0 0 330 0 330 148 0 147 -1 175 -329
174 -330 214 0 214 0 -29 53 c-113 200 -365 669 -362 671 2 1 29 17 60 34 113
64 197 171 239 307 27 88 30 267 5 360 -53 205 -200 346 -422 407 -73 20 -107
22 -515 26 l-438 4 0 -931z m809 590 c82 -26 124 -59 158 -128 24 -50 28 -70
28 -143 0 -109 -27 -169 -99 -217 -72 -49 -105 -55 -313 -60 l-193 -5 0 286 0
286 179 0 c148 0 190 -3 240 -19z"/>
</g>
</svg>
