<?xml version="1.0" standalone="no"?>
<!DOCTYPE svg PUBLIC "-//W3C//DTD SVG 20010904//EN"
 "http://www.w3.org/TR/2001/REC-SVG-20010904/DTD/svg10.dtd">
<svg version="1.0" xmlns="http://www.w3.org/2000/svg"
 width="1221.000000pt" height="320.000000pt" viewBox="0 0 1221.000000 320.000000"
 preserveAspectRatio="xMidYMid meet">
<metadata>
Created by potrace 1.16, written by Peter Selinger 2001-2019
</metadata>
<g transform="translate(0.000000,320.000000) scale(0.100000,-0.100000)"
fill="#888d93" stroke="none">
<path d="M1260 2870 c-490 -45 -915 -378 -1084 -848 -92 -258 -92 -586 0 -844
132 -365 417 -651 782 -782 258 -92 586 -92 844 0 365 132 651 417 782 782 92
258 92 586 0 844 -132 365 -417 651 -782 782 -155 55 -371 82 -542 66z m209
-230 c108 -85 219 -328 270 -590 18 -94 41 -281 41 -331 0 -18 -14 -19 -400
-19 l-400 0 0 23 c0 53 31 284 51 373 73 340 233 597 361 581 22 -3 55 -19 77
-37z m-459 -34 c0 -2 -18 -42 -40 -90 -101 -218 -167 -477 -177 -693 l-6 -123
-242 0 -242 0 9 58 c53 352 273 652 598 814 67 34 100 45 100 34z m855 -41
c209 -104 387 -287 491 -502 38 -80 79 -215 92 -305 l9 -58 -242 0 -242 0 -6
123 c-10 218 -75 477 -173 685 -24 52 -44 97 -44 98 0 12 35 -1 115 -41z
m-1072 -1188 c10 -218 75 -477 173 -686 24 -52 42 -96 39 -99 -9 -9 -129 47
-207 97 -256 164 -441 450 -486 754 l-9 57 242 0 242 0 6 -123z m987 100 c0
-53 -31 -284 -51 -373 -76 -351 -239 -605 -373 -580 -74 14 -178 149 -245 316
-63 158 -110 374 -126 578 l-7 82 401 0 401 0 0 -23z m668 -34 c-48 -323 -239
-606 -523 -775 -71 -42 -163 -83 -171 -75 -3 3 7 29 21 58 105 207 181 493
192 727 l6 122 242 0 242 0 -9 -57z"/>
<path d="M6870 1755 l0 -826 185 1 185 2 0 84 c0 46 1 84 3 84 2 0 31 -27 65
-61 76 -73 159 -115 260 -129 240 -34 449 107 530 357 46 141 49 348 6 493
-63 216 -229 364 -423 377 -156 11 -276 -33 -382 -140 l-59 -60 0 322 0 321
-185 0 -185 0 0 -825z m742 94 c53 -27 96 -85 120 -162 17 -58 20 -87 16 -190
-3 -85 -10 -134 -22 -162 -46 -107 -107 -154 -211 -163 -121 -9 -213 59 -253
187 -26 86 -22 268 7 344 48 124 140 184 261 170 25 -3 61 -14 82 -24z"/>
<path d="M10100 2425 l0 -155 185 0 185 0 0 155 0 155 -185 0 -185 0 0 -155z"/>
<path d="M2975 2478 c4 -18 88 -372 186 -786 99 -414 179 -755 179 -757 0 -2
105 -3 232 -2 l233 2 139 595 c77 327 141 597 143 599 2 2 5 2 7 0 3 -2 69
-273 147 -602 l143 -597 228 0 c185 0 230 3 234 14 3 7 87 362 188 787 l182
774 -184 3 c-102 1 -187 0 -190 -3 -3 -3 -66 -258 -139 -567 -74 -310 -136
-565 -139 -567 -2 -2 -6 -2 -8 0 -2 2 -63 259 -136 572 l-134 567 -192 0
c-175 0 -193 -2 -198 -17 -2 -10 -61 -261 -131 -558 -138 -588 -135 -578 -141
-573 -3 4 -274 1134 -274 1145 0 1 -86 3 -191 3 l-191 0 7 -32z"/>
<path d="M8440 1721 l0 -792 200 1 200 2 0 299 0 299 91 0 c195 0 223 -26 386
-357 l118 -238 212 -2 211 -2 -58 122 c-102 217 -192 391 -230 447 -58 85
-149 160 -195 160 -8 0 -15 5 -15 10 0 6 6 10 13 10 6 0 36 11 64 25 67 31
148 106 178 165 52 102 58 269 14 385 -31 82 -112 163 -194 194 -133 50 -166
54 -592 58 l-403 5 0 -791z m693 488 c51 -14 104 -63 117 -107 16 -57 12 -142
-9 -187 -39 -85 -87 -104 -268 -105 l-133 0 0 205 0 205 128 0 c70 0 144 -5
165 -11z"/>
<path d="M5790 2125 c-295 -59 -461 -255 -476 -560 -13 -249 80 -453 255 -560
201 -122 539 -133 869 -28 l82 26 0 143 0 143 -32 -19 c-55 -32 -209 -87 -290
-104 -98 -20 -249 -21 -315 -1 -94 28 -169 114 -188 218 l-7 37 447 0 448 0
-7 113 c-9 144 -27 223 -73 311 -73 141 -216 247 -378 281 -85 18 -247 18
-335 0z m243 -236 c80 -22 156 -121 157 -201 l0 -38 -250 0 -250 0 6 28 c12
55 56 132 92 162 63 52 162 72 245 49z"/>
<path d="M11480 2126 c-79 -21 -143 -59 -207 -123 l-63 -63 0 85 0 85 -185 0
-185 0 0 -740 0 -740 185 0 185 0 0 235 c0 129 2 235 5 235 2 0 24 -21 47 -46
79 -86 159 -127 279 -144 256 -36 472 130 540 416 30 127 24 332 -15 450 -58
179 -184 308 -341 350 -62 17 -185 17 -245 0z m100 -280 c50 -24 102 -92 122
-159 21 -67 17 -281 -6 -346 -24 -69 -95 -145 -151 -160 -211 -58 -349 101
-332 382 10 178 79 283 198 306 59 11 115 4 169 -23z"/>
<path d="M10100 1520 l0 -590 183 2 182 3 3 588 2 587 -185 0 -185 0 0 -590z"/>
</g>
</svg>
