<?xml version="1.0" standalone="no"?>
<!DOCTYPE svg PUBLIC "-//W3C//DTD SVG 20010904//EN"
 "http://www.w3.org/TR/2001/REC-SVG-20010904/DTD/svg10.dtd">
<svg version="1.0" xmlns="http://www.w3.org/2000/svg"
 width="585.000000pt" height="320.000000pt" viewBox="0 0 585.000000 320.000000"
 preserveAspectRatio="xMidYMid meet">
<metadata>
Created by potrace 1.16, written by Peter Selinger 2001-2019
</metadata>
<g transform="translate(0.000000,320.000000) scale(0.100000,-0.100000)"
fill="#888d93" stroke="none">
<path d="M3450 2315 l0 -165 200 0 200 0 0 165 0 165 -200 0 -200 0 0 -165z"/>
<path d="M55 2373 c10 -16 131 -194 270 -398 138 -203 255 -376 259 -382 4 -8
-99 -169 -277 -430 -156 -230 -287 -424 -291 -430 -6 -10 40 -13 216 -13 l223
1 195 289 c107 159 197 290 200 289 3 0 93 -130 200 -289 l195 -289 223 -1
c123 0 221 4 218 8 -3 5 -132 195 -287 423 -155 228 -283 419 -286 424 -2 6
113 182 255 390 142 209 266 392 276 408 l18 27 -223 0 -224 0 -180 -266 c-98
-146 -182 -267 -185 -269 -3 -1 -86 117 -186 264 l-181 266 -223 3 -223 2 18
-27z"/>
<path d="M4260 1559 l0 -842 358 6 c498 8 636 27 810 113 161 80 297 229 359
393 66 176 73 425 17 621 -43 150 -164 311 -301 400 -188 124 -345 150 -893
150 l-350 0 0 -841z m782 502 c188 -48 298 -153 343 -328 22 -83 20 -261 -4
-345 -35 -130 -108 -220 -223 -279 -89 -45 -165 -59 -325 -59 l-143 0 0 515 0
515 138 0 c105 0 158 -5 214 -19z"/>
<path d="M1790 1973 c0 -5 110 -287 244 -628 l244 -620 219 -3 218 -2 245 621
c135 342 247 625 248 630 2 5 -82 9 -195 9 l-198 0 -148 -413 c-81 -226 -150
-422 -154 -434 -3 -13 -8 -23 -12 -23 -4 0 -77 195 -163 433 l-156 432 -196 3
c-108 1 -196 -1 -196 -5z"/>
<path d="M3450 1350 l0 -630 200 0 200 0 0 630 0 630 -200 0 -200 0 0 -630z"/>
</g>
</svg>
