<?xml version="1.0" standalone="no"?>
<!DOCTYPE svg PUBLIC "-//W3C//DTD SVG 20010904//EN"
 "http://www.w3.org/TR/2001/REC-SVG-20010904/DTD/svg10.dtd">
<svg version="1.0" xmlns="http://www.w3.org/2000/svg"
 width="737.000000pt" height="320.000000pt" viewBox="0 0 737.000000 320.000000"
 preserveAspectRatio="xMidYMid meet">
<metadata>
Created by potrace 1.16, written by Peter Selinger 2001-2019
</metadata>
<g transform="translate(0.000000,320.000000) scale(0.100000,-0.100000)"
fill="#888d93" stroke="none">
<path d="M3240 2469 c-110 -12 -222 -33 -337 -66 l-93 -26 0 -178 c0 -99 1
-179 3 -179 2 0 50 24 108 54 148 77 252 108 364 109 103 0 166 -21 223 -76
57 -54 77 -102 77 -187 0 -91 -28 -159 -99 -237 -26 -29 -188 -177 -361 -329
l-315 -278 0 -158 0 -158 610 0 610 0 0 155 0 155 -370 0 c-203 0 -370 3 -369
8 0 4 102 95 225 202 403 349 487 460 501 661 15 206 -80 372 -262 459 -131
63 -328 90 -515 69z"/>
<path d="M5018 2460 c-168 -30 -274 -85 -390 -201 -74 -74 -93 -101 -137 -190
-81 -167 -96 -243 -96 -499 0 -188 3 -226 22 -302 45 -178 121 -312 225 -399
123 -102 244 -141 438 -141 211 0 361 54 481 172 114 111 163 236 163 415 0
119 -15 188 -61 279 -35 69 -136 167 -209 204 -177 89 -402 91 -574 5 -41 -21
-78 -39 -81 -41 -8 -3 5 79 21 138 30 111 113 210 213 256 52 23 79 28 168 32
122 5 217 -12 337 -59 40 -16 75 -29 77 -29 3 0 5 67 5 150 l0 149 -53 16
c-121 35 -199 46 -347 50 -85 2 -176 0 -202 -5z m171 -890 c85 -43 122 -129
122 -278 0 -104 -5 -131 -39 -195 -65 -121 -248 -144 -348 -43 -54 53 -74 119
-74 241 0 146 37 232 118 275 52 27 168 27 221 0z"/>
<path d="M213 2442 l-213 -2 0 -840 0 -840 215 0 215 0 2 357 3 358 325 0 325
0 3 -358 2 -357 215 0 215 0 0 840 0 839 -215 3 -215 3 0 -322 0 -323 -330 0
-330 0 -2 323 -3 322 -212 -3z"/>
<path d="M6876 2440 l-239 -5 -333 -495 -333 -495 -1 -187 0 -188 375 0 375 0
0 -155 0 -155 200 0 199 0 3 152 3 153 123 3 122 3 0 149 0 149 -122 3 -123 3
-5 535 -5 535 -239 -5z m-161 -1057 c-3 -10 -60 -13 -238 -13 -129 0 -237 3
-240 6 -3 4 36 68 87 143 51 75 160 235 242 356 l149 220 3 -350 c1 -192 0
-356 -3 -362z"/>
<path d="M1980 975 l0 -215 200 0 200 0 0 215 0 215 -200 0 -200 0 0 -215z"/>
</g>
</svg>
