<?xml version="1.0" standalone="no"?>
<!DOCTYPE svg PUBLIC "-//W3C//DTD SVG 20010904//EN"
 "http://www.w3.org/TR/2001/REC-SVG-20010904/DTD/svg10.dtd">
<svg version="1.0" xmlns="http://www.w3.org/2000/svg"
 width="337.000000pt" height="320.000000pt" viewBox="0 0 337.000000 320.000000"
 preserveAspectRatio="xMidYMid meet">
<metadata>
Created by potrace 1.16, written by Peter Selinger 2001-2019
</metadata>
<g transform="translate(0.000000,320.000000) scale(0.100000,-0.100000)"
fill="#888d93" stroke="none">
<path d="M0 1620 l0 -940 240 0 240 0 0 356 0 356 128 -4 c220 -6 246 -32 441
-430 l136 -278 253 0 c138 0 252 2 252 5 0 3 -70 145 -156 317 -202 406 -246
466 -378 529 -48 23 -56 30 -40 35 126 44 232 128 281 221 42 80 57 151 56
268 -3 312 -174 460 -570 494 -65 6 -290 11 -500 11 l-383 0 0 -940z m866 563
c85 -46 122 -128 111 -249 -16 -166 -96 -214 -359 -214 l-138 0 0 246 0 246
173 -4 c154 -3 176 -5 213 -25z"/>
<path d="M2030 2034 c0 -417 3 -525 13 -521 176 67 318 98 452 99 118 1 190
-17 261 -64 124 -83 167 -258 99 -401 -37 -80 -131 -146 -237 -168 -81 -18
-247 -5 -351 25 -67 20 -254 101 -307 133 -3 2 -4 -81 -3 -184 l2 -188 73 -26
c195 -71 472 -108 666 -89 223 22 378 86 497 205 117 117 165 243 165 435 0
200 -52 342 -165 456 -149 148 -434 223 -683 180 -50 -9 -94 -16 -97 -16 -3 0
-5 68 -5 150 l0 150 410 0 410 0 0 175 0 175 -600 0 -600 0 0 -526z"/>
</g>
</svg>
