<?xml version="1.0" standalone="no"?>
<!DOCTYPE svg PUBLIC "-//W3C//DTD SVG 20010904//EN"
 "http://www.w3.org/TR/2001/REC-SVG-20010904/DTD/svg10.dtd">
<svg version="1.0" xmlns="http://www.w3.org/2000/svg"
 width="314.000000pt" height="80.000000pt" viewBox="0 0 314.000000 80.000000"
 preserveAspectRatio="xMidYMid meet">
<metadata>
Created by potrace 1.16, written by Peter Selinger 2001-2019
</metadata>
<g transform="translate(0.000000,80.000000) scale(0.100000,-0.100000)"
fill="#888d93" stroke="none">
<path d="M140 400 l0 -253 80 5 c66 4 87 10 127 34 126 78 147 281 40 396 -40
43 -86 61 -169 66 l-78 5 0 -253z"/>
<path d="M755 645 c-5 -2 -22 -6 -37 -9 -41 -9 -98 -65 -124 -121 -18 -37 -24
-68 -24 -119 0 -84 23 -138 80 -190 45 -40 92 -56 173 -56 l57 0 0 250 0 250
-57 -1 c-32 0 -62 -2 -68 -4z"/>
<path d="M1701 633 c-39 -27 -20 -73 31 -73 33 0 54 31 39 59 -14 25 -45 32
-70 14z"/>
<path d="M2194 640 c-47 -18 -35 -80 15 -80 51 0 68 49 26 75 -13 8 -28 10
-41 5z"/>
<path d="M1214 603 c3 -10 39 -112 78 -228 l73 -210 61 -3 61 -3 77 223 c42
123 76 226 76 231 0 4 -21 7 -48 7 l-47 0 -55 -175 c-30 -96 -58 -175 -61
-175 -4 0 -33 79 -64 175 l-56 175 -50 0 c-43 0 -50 -2 -45 -17z"/>
<path d="M1910 500 c-79 -19 -109 -114 -51 -163 16 -13 47 -28 68 -31 78 -14
103 -26 103 -51 0 -26 -17 -35 -66 -35 -23 0 -38 6 -46 20 -14 22 -81 29 -93
10 -10 -16 21 -57 57 -76 40 -21 136 -21 176 0 55 28 78 88 52 135 -11 22 -67
46 -128 56 -52 9 -76 29 -62 55 16 29 59 34 91 11 34 -25 99 -29 99 -6 0 25
-44 62 -86 74 -44 12 -64 12 -114 1z"/>
<path d="M2405 495 c-83 -29 -123 -125 -95 -227 32 -112 197 -151 277 -65 65
71 67 180 6 248 -51 56 -113 71 -188 44z m119 -88 c26 -35 27 -113 3 -151 -55
-83 -154 -3 -133 108 15 78 87 101 130 43z"/>
<path d="M2843 503 c-12 -2 -34 -18 -48 -34 l-25 -31 0 31 c0 30 -1 31 -45 31
l-45 0 0 -170 0 -170 45 0 45 0 0 113 c0 139 10 160 73 155 57 -4 67 -26 67
-160 l0 -108 45 0 45 0 -1 118 c0 64 -5 132 -12 151 -20 56 -81 87 -144 74z"/>
<path d="M1680 330 l0 -170 45 0 45 0 0 170 0 170 -45 0 -45 0 0 -170z"/>
<path d="M2170 330 l0 -170 40 0 40 0 0 170 0 170 -40 0 -40 0 0 -170z"/>
</g>
</svg>
