<?xml version="1.0" standalone="no"?>
<!DOCTYPE svg PUBLIC "-//W3C//DTD SVG 20010904//EN"
 "http://www.w3.org/TR/2001/REC-SVG-20010904/DTD/svg10.dtd">
<svg version="1.0" xmlns="http://www.w3.org/2000/svg"
 width="764.000000pt" height="320.000000pt" viewBox="0 0 764.000000 320.000000"
 preserveAspectRatio="xMidYMid meet">
<metadata>
Created by potrace 1.16, written by Peter Selinger 2001-2019
</metadata>
<g transform="translate(0.000000,320.000000) scale(0.100000,-0.100000)"
fill="#888d93" stroke="none">
<path d="M1958 2800 c-378 -47 -638 -348 -688 -795 -49 -442 70 -823 320
-1016 127 -99 257 -146 431 -156 457 -26 768 241 854 734 18 101 20 366 4 479
-44 318 -209 572 -446 685 -127 60 -320 89 -475 69z m227 -389 c143 -64 225
-281 225 -591 0 -270 -65 -482 -172 -563 -109 -82 -255 -70 -349 30 -107 112
-162 370 -139 651 27 329 136 492 330 492 41 0 80 -7 105 -19z"/>
<path d="M3590 2799 c-261 -32 -472 -156 -552 -325 -29 -60 -33 -81 -36 -164
-3 -79 0 -105 18 -153 42 -111 179 -227 318 -268 23 -7 42 -16 42 -20 0 -4
-24 -12 -52 -19 -29 -7 -87 -28 -128 -48 -94 -44 -193 -140 -236 -227 -27 -57
-29 -67 -29 -185 0 -106 4 -134 23 -180 67 -167 262 -303 512 -357 119 -25
409 -25 530 1 245 52 415 166 498 334 33 67 37 84 40 172 3 71 0 113 -12 154
-46 156 -184 280 -373 332 -35 9 -63 20 -63 24 0 4 19 13 43 20 127 38 241
127 298 233 33 60 34 66 34 172 0 105 -2 114 -33 178 -75 151 -246 267 -462
311 -97 19 -284 27 -380 15z m290 -355 c72 -38 112 -101 118 -184 10 -144
-101 -250 -264 -250 -159 0 -264 97 -264 244 0 85 40 150 115 188 64 33 85 38
165 35 61 -3 86 -9 130 -33z m16 -796 c101 -53 148 -132 142 -244 -4 -83 -32
-135 -100 -184 -81 -59 -222 -77 -327 -43 -63 20 -137 83 -162 138 -23 50 -25
152 -3 203 27 65 99 125 184 153 14 5 68 7 120 6 80 -3 103 -7 146 -29z"/>
<path d="M5290 2804 c-215 -26 -391 -118 -513 -269 -67 -83 -142 -240 -172
-357 -62 -248 -52 -581 25 -809 77 -227 244 -408 448 -486 210 -79 480 -68
672 29 106 53 235 176 299 284 53 91 106 239 128 357 23 125 23 407 0 534 -67
368 -280 621 -587 696 -67 17 -238 28 -300 21z m206 -398 c85 -39 144 -129
186 -281 19 -71 22 -105 22 -300 1 -251 -11 -323 -69 -441 -44 -89 -104 -147
-176 -168 -66 -20 -92 -20 -156 -1 -103 31 -179 133 -224 302 -29 110 -37 389
-15 525 42 258 148 388 315 388 48 0 80 -7 117 -24z"/>
<path d="M335 2606 l-240 -163 -3 -202 c-1 -110 0 -201 3 -201 3 0 107 68 231
151 124 82 232 153 240 156 12 4 14 -99 14 -741 l0 -746 240 0 240 0 0 955 0
955 -243 0 -242 0 -240 -164z"/>
<path d="M6788 2241 c-103 -33 -217 -124 -264 -212 l-19 -34 -3 123 -3 122
-114 0 -115 0 0 -920 0 -920 115 0 115 0 1 348 0 347 22 -30 c115 -155 248
-225 427 -225 160 0 266 43 376 154 82 82 141 190 175 321 31 117 31 344 0
470 -34 141 -81 227 -170 315 -83 83 -146 121 -236 145 -82 21 -234 19 -307
-4z m188 -182 c152 -28 258 -143 305 -329 18 -72 18 -288 0 -360 -34 -139
-116 -252 -215 -299 -105 -49 -235 -47 -335 4 -96 48 -181 167 -216 300 -21
81 -22 259 -1 349 32 134 114 249 215 300 88 45 148 53 247 35z"/>
</g>
</svg>
