<?xml version="1.0" standalone="no"?>
<!DOCTYPE svg PUBLIC "-//W3C//DTD SVG 20010904//EN"
 "http://www.w3.org/TR/2001/REC-SVG-20010904/DTD/svg10.dtd">
<svg version="1.0" xmlns="http://www.w3.org/2000/svg"
 width="732.000000pt" height="320.000000pt" viewBox="0 0 732.000000 320.000000"
 preserveAspectRatio="xMidYMid meet">
<metadata>
Created by potrace 1.16, written by Peter Selinger 2001-2019
</metadata>
<g transform="translate(0.000000,320.000000) scale(0.100000,-0.100000)"
fill="#888d93" stroke="none">
<path d="M2579 1600 l-326 -880 222 0 c203 0 223 2 230 18 4 9 27 75 51 146
25 71 49 137 55 148 9 17 30 18 364 18 l353 0 38 -112 c20 -62 45 -137 56
-166 l19 -52 223 0 223 0 -326 880 -325 880 -266 0 -266 0 -325 -880z m714
127 c64 -189 117 -348 117 -355 0 -9 -60 -12 -241 -12 -230 0 -240 1 -237 19
5 31 233 691 238 691 3 0 58 -154 123 -343z"/>
<path d="M3960 2473 c0 -5 145 -399 323 -878 l322 -870 267 -3 266 -2 10 27
c5 16 146 395 312 843 166 448 308 832 316 853 l13 37 -223 0 -223 0 -228
-637 c-125 -351 -231 -645 -236 -653 -7 -13 -8 -13 -13 0 -4 8 -109 301 -234
650 l-228 635 -222 3 c-122 1 -222 -1 -222 -5z"/>
<path d="M6305 2439 c-99 -21 -190 -41 -202 -44 -23 -5 -23 -8 -23 -155 l0
-150 23 5 c81 19 361 75 373 75 12 0 14 -86 14 -570 l0 -570 -200 0 -200 0 0
-155 0 -155 610 0 609 0 3 155 3 155 -202 0 -203 0 0 725 0 725 -212 -1 c-207
-1 -218 -3 -393 -40z"/>
<path d="M425 2020 l-420 -420 423 -423 422 -422 422 422 423 423 -420 420
c-231 231 -422 420 -425 420 -3 0 -194 -189 -425 -420z m743 -103 l312 -312
-315 -315 -315 -315 -312 312 -313 313 310 313 c171 173 312 315 315 315 3 1
146 -139 318 -311z"/>
</g>
</svg>
