<?xml version="1.0" standalone="no"?>
<!DOCTYPE svg PUBLIC "-//W3C//DTD SVG 20010904//EN"
 "http://www.w3.org/TR/2001/REC-SVG-20010904/DTD/svg10.dtd">
<svg version="1.0" xmlns="http://www.w3.org/2000/svg"
 width="563.000000pt" height="320.000000pt" viewBox="0 0 563.000000 320.000000"
 preserveAspectRatio="xMidYMid meet">
<metadata>
Created by potrace 1.16, written by Peter Selinger 2001-2019
</metadata>
<g transform="translate(0.000000,320.000000) scale(0.100000,-0.100000)"
fill="#888d93" stroke="none">
<path d="M0 2025 l0 -525 165 0 165 0 0 525 0 525 -165 0 -165 0 0 -525z"/>
<path d="M580 2025 l0 -525 145 0 145 0 2 383 3 382 30 0 c34 0 21 23 274
-492 l133 -273 122 0 121 0 190 382 c187 377 190 383 220 383 l30 0 3 -382 2
-383 145 0 145 0 0 525 0 525 -267 -2 -268 -3 -157 -310 c-86 -170 -159 -310
-163 -310 -4 0 -77 140 -163 310 l-157 310 -267 3 -268 2 0 -525z"/>
<path d="M2807 2368 c-160 -310 -437 -857 -437 -863 0 -3 76 -5 170 -5 l169 0
47 90 46 90 342 -2 341 -3 45 -87 45 -88 173 0 173 0 -265 523 -265 522 -245
3 -245 2 -94 -182z m459 -255 l105 -203 -226 0 c-124 0 -225 2 -225 5 0 3 45
95 100 206 85 170 104 200 121 197 15 -2 47 -54 125 -205z"/>
<path d="M4051 2533 c8 -10 101 -120 206 -246 l192 -229 -156 -176 c-87 -98
-197 -221 -245 -274 -48 -54 -88 -100 -88 -103 0 -3 94 -5 210 -5 l209 0 172
196 173 196 25 -31 c14 -17 89 -105 166 -195 l140 -165 214 0 c202 -1 213 0
200 16 -8 10 -119 136 -247 281 l-233 262 192 228 c106 125 199 235 207 245
14 16 5 17 -180 17 l-196 0 -142 -170 c-79 -93 -145 -170 -149 -169 -3 0 -68
77 -144 170 l-139 169 -200 0 c-189 0 -200 -1 -187 -17z"/>
<path d="M5489 2533 c-13 -17 -13 -17 6 -3 11 8 22 16 24 17 2 2 0 3 -6 3 -6
0 -17 -8 -24 -17z"/>
<path d="M5511 2478 c1 -24 3 -35 6 -25 2 9 13 17 23 17 10 0 21 -8 23 -17 3
-10 4 -7 4 8 -1 21 -5 25 -24 21 -17 -3 -23 0 -23 13 0 13 6 16 25 13 14 -3
25 -1 25 3 0 5 -13 9 -30 9 -29 0 -30 -2 -29 -42z"/>
<path d="M5612 2480 c0 -14 2 -19 5 -12 2 6 2 18 0 25 -3 6 -5 1 -5 -13z"/>
<path d="M5470 2453 c0 -5 10 -18 23 -29 l22 -19 -20 25 c-11 14 -21 27 -22
29 -2 2 -3 0 -3 -6z"/>
<path d="M5538 2403 c7 -3 16 -2 19 1 4 3 -2 6 -13 5 -11 0 -14 -3 -6 -6z"/>
<path d="M3792 1329 c-58 -11 -137 -56 -174 -98 -17 -19 -43 -60 -57 -91 -22
-47 -26 -69 -26 -150 0 -81 4 -103 26 -150 35 -76 80 -124 143 -155 108 -53
238 -52 338 2 63 35 83 56 65 71 -10 9 -21 6 -47 -13 -79 -58 -226 -76 -313
-37 -56 25 -114 76 -136 121 -63 125 -48 278 36 371 101 112 286 131 410 41
36 -26 43 -28 54 -15 10 12 8 17 -7 29 -47 37 -84 55 -139 70 -64 16 -106 17
-173 4z"/>
<path d="M0 990 l0 -340 240 0 240 0 0 25 0 25 -215 0 -215 0 0 140 0 140 200
0 c193 0 200 1 200 20 0 19 -7 20 -200 20 l-200 0 0 135 0 135 210 0 c203 0
210 1 210 20 0 19 -7 20 -235 20 l-235 0 0 -340z"/>
<path d="M650 992 c0 -334 0 -342 20 -342 19 0 20 8 22 286 l3 285 228 -280
c126 -154 233 -283 238 -286 5 -4 9 128 9 334 0 334 0 341 -20 341 -20 0 -20
-7 -20 -281 0 -166 -4 -279 -9 -277 -5 2 -102 118 -216 258 -114 140 -218 266
-231 280 l-24 25 0 -343z"/>
<path d="M1380 990 c0 -333 0 -340 20 -340 19 0 20 7 20 160 l0 160 220 0 220
0 0 -160 0 -160 25 0 25 0 0 340 0 340 -25 0 -25 0 0 -165 0 -165 -220 0 -220
0 0 165 c0 158 -1 165 -20 165 -20 0 -20 -7 -20 -340z"/>
<path d="M2337 1303 c-29 -56 -287 -639 -287 -646 0 -5 10 -7 22 -5 18 2 30
21 57 86 l35 82 211 0 211 0 35 -82 c27 -65 39 -84 57 -86 12 -2 22 0 22 5 0
4 -67 157 -148 338 -137 305 -150 330 -174 333 -21 3 -30 -3 -41 -25z m132
-224 c50 -114 91 -210 91 -213 0 -3 -83 -6 -185 -6 -108 0 -185 4 -185 9 0 5
34 88 76 183 42 95 83 188 91 207 8 18 16 32 18 30 2 -2 44 -97 94 -210z"/>
<path d="M2840 990 c0 -333 0 -340 20 -340 20 0 20 7 20 279 0 154 3 282 8
284 4 3 111 -123 237 -279 127 -156 233 -284 238 -284 4 0 7 153 7 340 l0 340
-25 0 -25 0 -2 -282 -3 -283 -229 283 c-126 155 -233 282 -238 282 -4 0 -8
-153 -8 -340z"/>
<path d="M4270 990 l0 -340 240 0 240 0 0 25 0 25 -215 0 -215 0 0 140 0 140
200 0 c193 0 200 1 200 20 0 19 -7 20 -200 20 l-200 0 0 135 0 135 210 0 c203
0 210 1 210 20 0 19 -7 20 -235 20 l-235 0 0 -340z"/>
<path d="M4910 991 l0 -341 123 0 c196 0 279 22 352 95 130 130 131 375 3 490
-20 19 -61 47 -90 62 -51 27 -60 28 -220 31 l-168 4 0 -341z m357 279 c61 -26
116 -82 147 -149 16 -35 21 -65 20 -126 0 -101 -28 -169 -91 -225 -65 -57
-114 -70 -265 -70 l-128 0 0 293 c0 162 3 297 8 301 4 5 63 6 132 4 101 -4
135 -9 177 -28z"/>
</g>
</svg>
