<?xml version="1.0" standalone="no"?>
<!DOCTYPE svg PUBLIC "-//W3C//DTD SVG 20010904//EN"
 "http://www.w3.org/TR/2001/REC-SVG-20010904/DTD/svg10.dtd">
<svg version="1.0" xmlns="http://www.w3.org/2000/svg"
 width="559.000000pt" height="320.000000pt" viewBox="0 0 559.000000 320.000000"
 preserveAspectRatio="xMidYMid meet">
<metadata>
Created by potrace 1.16, written by Peter Selinger 2001-2019
</metadata>
<g transform="translate(0.000000,320.000000) scale(0.100000,-0.100000)"
fill="#888d93" stroke="none">
<path d="M587 2649 c-366 -39 -581 -249 -581 -569 0 -203 79 -346 240 -436 92
-52 213 -90 411 -129 194 -40 278 -67 353 -115 128 -82 175 -265 106 -415
-116 -254 -578 -289 -1012 -76 l-94 47 0 -137 0 -137 94 -30 c395 -128 774
-129 1031 -3 138 68 233 184 271 332 20 78 22 242 4 319 -35 152 -131 273
-275 347 -101 52 -176 75 -389 118 -313 64 -392 101 -447 206 -19 36 -23 60
-24 129 0 74 4 93 29 143 68 139 236 206 486 194 158 -8 275 -39 498 -134 9
-4 12 24 12 124 l0 129 -98 27 c-131 36 -224 53 -362 66 -127 12 -140 12 -253
0z"/>
<path d="M1860 1604 l0 -1017 388 6 c401 6 491 13 659 56 443 113 653 421 653
958 0 234 -30 388 -104 538 -79 159 -173 255 -326 334 -217 112 -412 141 -947
141 l-323 0 0 -1016z m922 763 c259 -69 405 -215 470 -472 20 -80 23 -113 22
-295 -1 -178 -4 -215 -23 -285 -75 -274 -226 -416 -511 -480 -56 -13 -144 -18
-342 -22 l-268 -5 0 797 0 797 278 -4 c258 -5 284 -7 374 -31z"/>
<path d="M4010 1605 l0 -1015 135 0 135 0 0 430 0 430 199 0 c376 0 399 -19
659 -540 l158 -315 142 -3 c78 -1 142 1 142 4 0 16 -336 664 -377 728 -55 85
-135 167 -194 196 -44 23 -44 23 -19 33 181 75 274 179 309 345 29 139 4 344
-55 453 -34 62 -125 149 -190 182 -142 72 -262 87 -706 87 l-338 0 0 -1015z
m814 766 c34 -14 81 -43 107 -68 66 -61 91 -125 97 -240 10 -214 -87 -346
-282 -382 -33 -6 -151 -11 -263 -11 l-203 0 0 366 0 366 243 -4 c226 -3 246
-5 301 -27z"/>
</g>
</svg>
