<?xml version="1.0" standalone="no"?>
<!DOCTYPE svg PUBLIC "-//W3C//DTD SVG 20010904//EN"
 "http://www.w3.org/TR/2001/REC-SVG-20010904/DTD/svg10.dtd">
<svg version="1.0" xmlns="http://www.w3.org/2000/svg"
 width="518.000000pt" height="320.000000pt" viewBox="0 0 518.000000 320.000000"
 preserveAspectRatio="xMidYMid meet">
<metadata>
Created by potrace 1.16, written by Peter Selinger 2001-2019
</metadata>
<g transform="translate(0.000000,320.000000) scale(0.100000,-0.100000)"
fill="#888d94" stroke="none">
<path d="M2830 1620 l0 -750 85 0 85 0 0 81 0 82 60 -65 c67 -73 117 -100 223
-118 130 -23 275 26 362 122 51 57 106 164 126 248 20 80 18 308 -4 388 -40
150 -129 267 -245 324 -62 31 -74 33 -167 33 -55 0 -119 -6 -142 -13 -58 -17
-132 -70 -168 -119 -16 -23 -33 -42 -37 -42 -5 -1 -8 130 -8 289 l0 290 -85 0
-85 0 0 -750z m617 174 c58 -36 104 -95 134 -171 31 -80 39 -289 15 -383 -43
-166 -145 -254 -292 -254 -91 1 -161 36 -216 109 -124 163 -113 511 20 648 65
68 118 88 219 83 60 -2 81 -8 120 -32z"/>
<path d="M4090 2260 l0 -110 85 0 85 0 0 110 0 110 -85 0 -85 0 0 -110z"/>
<path d="M1694 2315 c-197 -43 -341 -192 -403 -415 -43 -155 -50 -381 -16
-555 63 -324 258 -497 560 -498 174 -1 299 45 401 147 127 128 194 334 194
601 0 316 -112 567 -298 668 -113 61 -296 83 -438 52z m199 -236 c81 -22 132
-97 158 -229 19 -98 16 -445 -4 -539 -31 -141 -84 -206 -176 -218 -116 -16
-195 50 -231 192 -30 122 -28 508 4 621 30 102 77 157 149 174 46 11 57 11
100 -1z"/>
<path d="M148 2267 l-148 -31 0 -123 c0 -123 0 -123 23 -118 36 8 310 65 314
65 1 0 3 -211 3 -470 l0 -470 -165 0 -165 0 0 -125 0 -125 500 0 500 0 0 125
0 125 -162 2 -163 3 -3 588 -2 587 -193 -1 c-175 -1 -205 -4 -339 -32z"/>
<path d="M4640 2095 l0 -155 -65 0 -65 0 0 -65 0 -65 65 0 65 0 0 -328 c0
-338 7 -417 40 -483 47 -91 120 -118 343 -126 l157 -6 0 70 0 71 -137 4 c-102
3 -146 8 -169 20 -57 31 -59 39 -62 426 l-3 352 186 0 185 0 0 65 0 65 -185 0
-185 0 0 155 0 155 -85 0 -85 0 0 -155z"/>
<path d="M4090 1405 l0 -535 85 0 85 0 0 535 0 535 -85 0 -85 0 0 -535z"/>
</g>
</svg>
