<?xml version="1.0" standalone="no"?>
<!DOCTYPE svg PUBLIC "-//W3C//DTD SVG 20010904//EN"
 "http://www.w3.org/TR/2001/REC-SVG-20010904/DTD/svg10.dtd">
<svg version="1.0" xmlns="http://www.w3.org/2000/svg"
 width="344.000000pt" height="80.000000pt" viewBox="0 0 344.000000 80.000000"
 preserveAspectRatio="xMidYMid meet">
<metadata>
Created by potrace 1.16, written by Peter Selinger 2001-2019
</metadata>
<g transform="translate(0.000000,80.000000) scale(0.100000,-0.100000)"
fill="#888d93" stroke="none">
<path d="M160 399 l0 -252 78 6 c44 2 92 12 108 20 110 57 157 220 100 343
-42 90 -119 134 -235 134 l-51 0 0 -251z"/>
<path d="M745 641 c-45 -11 -83 -39 -114 -85 -53 -78 -65 -163 -36 -247 36
-101 104 -149 223 -157 l72 -5 0 252 0 251 -57 -1 c-32 -1 -72 -4 -88 -8z"/>
<path d="M1250 590 l0 -40 70 0 70 0 0 -190 0 -190 45 0 45 0 0 190 0 190 70
0 70 0 0 40 0 40 -185 0 -185 0 0 -40z"/>
<path d="M2590 400 l0 -230 45 0 44 0 3 93 3 92 103 3 102 3 0 -96 0 -95 108
0 c96 0 114 3 160 26 68 34 102 90 109 177 9 112 -27 186 -111 229 -32 17 -64
22 -153 26 l-112 4 -3 -98 -3 -99 -100 0 -100 0 -3 98 -3 97 -44 0 -45 0 0
-230z m541 125 c70 -63 64 -221 -10 -260 -17 -8 -55 -17 -84 -18 l-52 -2 -3
154 -3 153 65 -4 c46 -3 71 -10 87 -23z"/>
<path d="M1630 340 l0 -170 40 0 40 0 0 94 c0 51 5 107 10 123 12 32 45 53 85
53 22 0 25 5 25 35 0 33 -2 35 -34 35 -27 0 -40 -7 -60 -32 l-26 -33 0 33 c0
31 -2 32 -40 32 l-40 0 0 -170z"/>
<path d="M1862 376 c3 -152 15 -181 79 -203 47 -15 83 -6 119 30 l30 31 0 -32
c0 -31 2 -32 40 -32 l40 0 0 170 0 170 -39 0 -39 0 -4 -114 c-3 -131 -16 -156
-74 -156 -54 0 -64 26 -64 157 l0 113 -46 0 -46 0 4 -134z"/>
<path d="M2282 475 c-62 -55 -78 -143 -42 -222 44 -98 191 -124 267 -48 18 18
33 37 33 43 0 5 -16 12 -36 15 -27 5 -40 1 -55 -14 -30 -30 -92 -26 -118 7
-12 15 -21 35 -21 45 0 18 10 19 121 19 l121 0 -7 48 c-14 97 -68 142 -169
142 -50 0 -60 -4 -94 -35z m158 -45 c11 -11 20 -29 20 -40 0 -18 -7 -20 -75
-20 -84 0 -95 11 -50 55 30 31 77 33 105 5z"/>
</g>
</svg>
