<?xml version="1.0" standalone="no"?>
<!DOCTYPE svg PUBLIC "-//W3C//DTD SVG 20010904//EN"
 "http://www.w3.org/TR/2001/REC-SVG-20010904/DTD/svg10.dtd">
<svg version="1.0" xmlns="http://www.w3.org/2000/svg"
 width="668.000000pt" height="320.000000pt" viewBox="0 0 668.000000 320.000000"
 preserveAspectRatio="xMidYMid meet">
<metadata>
Created by potrace 1.16, written by Peter Selinger 2001-2019
</metadata>
<g transform="translate(0.000000,320.000000) scale(0.100000,-0.100000)"
fill="#888d93" stroke="none">
<path d="M6021 2469 c-316 -33 -552 -182 -680 -429 -130 -249 -131 -630 -1
-878 133 -257 364 -398 706 -432 185 -19 405 16 567 89 l67 30 0 172 0 171
-32 -21 c-161 -106 -371 -158 -541 -133 -207 30 -347 162 -403 382 -23 91 -15
331 14 410 70 196 198 304 389 332 170 25 380 -27 541 -133 l32 -21 0 171 0
172 -67 30 c-91 41 -227 76 -345 89 -108 11 -127 11 -247 -1z"/>
<path d="M213 2442 l-213 -2 0 -840 0 -840 215 0 215 0 2 357 3 358 325 0 325
0 3 -358 2 -357 213 0 212 0 0 840 0 839 -213 3 -212 3 0 -322 0 -323 -330 0
-330 0 -2 323 -3 322 -212 -3z"/>
<path d="M1950 1603 l0 -843 600 0 600 0 0 160 0 160 -385 0 -385 0 0 200 0
200 350 0 350 0 0 160 0 160 -350 0 -350 0 0 160 0 160 370 0 370 0 0 163 0
162 -585 0 -585 0 0 -842z"/>
<path d="M3343 2435 c2 -5 142 -385 312 -843 l308 -832 260 2 259 3 309 835
c170 458 309 835 309 837 0 2 -96 3 -214 3 l-214 0 -15 -42 c-75 -216 -428
-1192 -432 -1196 -3 -3 -6 -3 -8 -1 -2 2 -102 279 -222 614 -120 336 -221 615
-224 620 -4 6 -88 10 -219 10 -137 0 -211 -4 -209 -10z"/>
</g>
</svg>
