<?xml version="1.0" standalone="no"?>
<!DOCTYPE svg PUBLIC "-//W3C//DTD SVG 20010904//EN"
 "http://www.w3.org/TR/2001/REC-SVG-20010904/DTD/svg10.dtd">
<svg version="1.0" xmlns="http://www.w3.org/2000/svg"
 width="1193.000000pt" height="320.000000pt" viewBox="0 0 1193.000000 320.000000"
 preserveAspectRatio="xMidYMid meet">
<metadata>
Created by potrace 1.16, written by Peter Selinger 2001-2019
</metadata>
<g transform="translate(0.000000,320.000000) scale(0.100000,-0.100000)"
fill="#888d93" stroke="none">
<path d="M786 2479 c-110 -15 -185 -37 -281 -84 -182 -88 -316 -222 -405 -400
-127 -255 -127 -535 0 -790 214 -431 729 -610 1169 -404 246 115 420 330 488
605 23 94 23 294 0 388 -69 275 -242 490 -490 606 -146 69 -333 99 -481 79z
m277 -125 c275 -62 504 -284 579 -561 28 -108 28 -278 0 -386 -75 -277 -304
-499 -579 -561 -102 -23 -260 -21 -359 4 -479 121 -724 652 -505 1095 99 199
284 349 501 405 96 24 263 26 363 4z"/>
<path d="M690 1603 c0 -181 4 -303 9 -301 23 8 531 293 531 298 0 3 -122 73
-270 157 l-270 151 0 -305z"/>
<path d="M8355 2459 c-194 -32 -333 -126 -399 -269 -38 -81 -49 -151 -44 -272
4 -99 7 -113 41 -182 80 -160 193 -219 599 -311 186 -42 253 -86 265 -173 9
-64 -4 -105 -43 -145 -116 -116 -415 -99 -741 43 l-113 48 0 -178 0 -178 83
-26 c200 -63 359 -88 562 -88 157 0 248 13 350 50 133 47 210 114 265 227 40
85 53 164 48 297 -6 140 -28 205 -98 282 -89 96 -205 143 -506 206 -228 48
-283 71 -314 135 -39 80 -6 161 82 206 122 62 420 37 652 -56 35 -14 66 -25
69 -25 4 0 7 76 7 169 0 149 -2 170 -17 175 -38 15 -197 46 -307 61 -124 16
-357 18 -441 4z"/>
<path d="M2290 1600 l0 -842 403 5 c433 5 515 12 666 63 194 64 367 220 447
401 48 108 67 215 68 373 0 115 -4 163 -21 231 -41 163 -105 273 -221 380 -87
80 -159 123 -264 160 -156 53 -235 61 -675 66 l-403 5 0 -842z m815 490 c223
-71 328 -229 328 -490 0 -172 -34 -271 -130 -371 -100 -105 -234 -149 -458
-149 l-125 0 0 521 0 522 158 -6 c124 -4 172 -9 227 -27z"/>
<path d="M4066 2323 c24 -65 164 -443 311 -841 l268 -722 260 2 259 3 308 830
c169 457 308 833 308 838 0 4 -96 7 -213 7 l-212 0 -221 -617 c-122 -340 -225
-618 -229 -618 -5 0 -108 277 -229 615 l-221 615 -217 3 -216 2 44 -117z"/>
<path d="M6020 1600 l0 -842 403 5 c315 3 423 8 497 21 117 21 242 63 318 107
81 48 221 190 265 269 142 256 140 642 -4 888 -44 73 -188 217 -261 261 -76
44 -201 86 -318 107 -74 13 -182 18 -497 21 l-403 5 0 -842z m799 496 c86 -24
158 -64 212 -118 94 -93 133 -205 133 -378 0 -174 -34 -269 -131 -371 -100
-105 -234 -149 -458 -149 l-125 0 0 521 0 522 158 -6 c93 -3 179 -12 211 -21z"/>
<path d="M10115 2044 c-323 -48 -517 -204 -581 -470 -23 -94 -23 -287 0 -374
30 -116 79 -205 153 -279 38 -37 91 -80 118 -95 200 -111 495 -130 773 -50
l52 15 0 160 c0 87 -2 159 -5 159 -3 0 -23 -11 -43 -25 -81 -54 -147 -70 -282
-70 -154 0 -203 18 -280 102 -70 76 -94 157 -88 291 6 126 32 195 98 262 118
117 328 130 523 31 l77 -39 -2 161 -3 161 -45 13 c-105 31 -192 45 -310 48
-69 2 -138 1 -155 -1z"/>
<path d="M11702 2039 c-103 -20 -205 -85 -267 -169 -20 -28 -40 -50 -43 -50
-4 0 -6 45 -4 100 l3 100 -200 0 -201 0 0 -630 0 -630 199 0 200 0 3 362 3
363 29 63 c54 118 157 182 290 182 55 0 137 -15 189 -35 16 -7 17 5 17 168 l0
175 -31 6 c-42 8 -134 6 -187 -5z"/>
</g>
</svg>
