<?xml version="1.0" standalone="no"?>
<!DOCTYPE svg PUBLIC "-//W3C//DTD SVG 20010904//EN"
 "http://www.w3.org/TR/2001/REC-SVG-20010904/DTD/svg10.dtd">
<svg version="1.0" xmlns="http://www.w3.org/2000/svg"
 width="325.000000pt" height="80.000000pt" viewBox="0 0 325.000000 80.000000"
 preserveAspectRatio="xMidYMid meet">
<metadata>
Created by potrace 1.16, written by Peter Selinger 2001-2019
</metadata>
<g transform="translate(0.000000,80.000000) scale(0.100000,-0.100000)"
fill="#888d93" stroke="none">
<path d="M140 400 l0 -253 80 5 c66 4 87 10 127 34 126 78 147 281 40 396 -40
43 -86 61 -169 66 l-78 5 0 -253z"/>
<path d="M755 645 c-5 -2 -22 -6 -37 -9 -41 -9 -98 -65 -124 -121 -18 -37 -24
-68 -24 -119 0 -84 23 -138 80 -190 45 -40 92 -56 173 -56 l57 0 0 250 0 250
-57 -1 c-32 0 -62 -2 -68 -4z"/>
<path d="M1288 405 l-77 -225 49 0 49 0 14 47 14 48 90 3 89 3 15 -48 c15 -48
15 -48 62 -51 26 -2 47 0 47 4 0 7 -127 378 -145 427 -6 14 -19 17 -69 17
l-61 0 -77 -225z m172 40 c13 -38 25 -76 28 -82 3 -10 -12 -13 -57 -13 -42 0
-61 4 -61 12 0 28 53 169 60 161 4 -4 18 -39 30 -78z"/>
<path d="M1690 560 c0 -36 -2 -40 -25 -40 -22 0 -25 -4 -25 -35 0 -31 3 -35
25 -35 l25 0 0 -109 c0 -60 3 -117 6 -126 10 -24 58 -45 104 -45 40 0 41 1 38
32 -2 24 -9 34 -23 36 -36 6 -45 31 -45 124 l0 88 35 0 c33 0 35 2 35 35 0 33
-2 35 -35 35 -34 0 -35 1 -35 40 l0 40 -40 0 -40 0 0 -40z"/>
<path d="M1890 350 l0 -170 40 0 40 0 0 103 c0 114 11 147 52 161 22 8 32 6
48 -9 18 -16 20 -30 20 -137 l0 -118 45 0 45 0 0 120 c0 116 1 120 25 136 33
21 73 11 85 -22 6 -14 10 -72 10 -130 l0 -104 40 0 40 0 0 139 c0 124 -2 141
-20 164 -38 47 -122 48 -165 1 l-23 -25 -30 31 c-42 41 -92 42 -134 0 -16 -16
-31 -30 -34 -30 -2 0 -4 14 -4 30 0 28 -2 30 -40 30 l-40 0 0 -170z"/>
<path d="M2524 506 c-17 -8 -44 -31 -60 -52 -26 -33 -29 -45 -29 -110 0 -81
15 -110 76 -152 29 -20 44 -23 94 -20 71 4 114 30 139 82 22 47 21 142 -3 186
-35 67 -141 99 -217 66z m112 -64 c33 -22 46 -115 23 -166 -24 -53 -98 -50
-127 4 -18 35 -10 124 13 150 18 20 69 27 91 12z"/>
<path d="M2883 513 c-28 -5 -69 -47 -77 -78 -8 -32 8 -71 37 -90 14 -9 55 -23
93 -33 52 -13 70 -22 73 -36 8 -43 -73 -62 -109 -26 -13 13 -33 20 -60 20 -44
0 -50 -11 -24 -49 52 -73 230 -67 269 10 36 69 4 119 -91 139 -95 20 -131 55
-85 80 31 16 70 12 88 -10 12 -13 30 -20 55 -20 42 0 48 12 22 49 -30 42 -108
60 -191 44z"/>
</g>
</svg>
