<?xml version="1.0" standalone="no"?>
<!DOCTYPE svg PUBLIC "-//W3C//DTD SVG 20010904//EN"
 "http://www.w3.org/TR/2001/REC-SVG-20010904/DTD/svg10.dtd">
<svg version="1.0" xmlns="http://www.w3.org/2000/svg"
 width="894.000000pt" height="320.000000pt" viewBox="0 0 894.000000 320.000000"
 preserveAspectRatio="xMidYMid meet">
<metadata>
Created by potrace 1.16, written by Peter Selinger 2001-2019
</metadata>
<g transform="translate(0.000000,320.000000) scale(0.100000,-0.100000)"
fill="#888d93" stroke="none">
<path d="M262 2530 c-58 -12 -137 -57 -174 -99 -17 -19 -43 -60 -57 -91 l-26
-55 0 -685 0 -685 26 -55 c37 -80 81 -125 157 -162 l67 -33 675 0 c627 0 679
1 727 18 70 24 145 93 180 165 l28 57 3 248 c3 226 5 247 20 242 9 -3 244
-101 522 -219 l505 -213 3 318 c1 176 1 463 0 639 l-3 319 -510 -215 c-280
-119 -515 -218 -522 -221 -8 -3 -12 59 -15 244 l-3 248 -28 57 c-34 68 -108
139 -175 164 -44 17 -94 19 -702 20 -360 1 -674 -2 -698 -6z m1382 -154 c24
-14 52 -42 66 -68 l25 -43 0 -665 0 -665 -25 -43 c-14 -26 -42 -54 -66 -68
l-41 -24 -667 0 c-555 0 -672 2 -694 14 -31 16 -74 61 -91 93 -8 15 -11 216
-11 693 0 558 2 676 14 698 15 29 59 73 91 90 14 8 221 11 689 12 l669 0 41
-24z"/>
<path d="M4154 2456 c-152 -29 -276 -79 -375 -152 -71 -52 -173 -165 -213
-237 -78 -139 -108 -270 -108 -467 0 -264 63 -446 209 -601 115 -122 232 -191
401 -237 89 -24 113 -26 297 -26 221 0 271 9 438 77 l82 33 3 173 2 172 -42
-26 c-139 -86 -276 -127 -433 -128 -132 -1 -209 18 -295 74 -147 95 -220 257
-220 489 0 180 33 288 120 399 90 113 216 166 395 164 157 -1 294 -42 433
-128 l42 -26 -2 172 -3 173 -82 33 c-151 62 -221 75 -408 79 -115 2 -193 -1
-241 -10z"/>
<path d="M5672 2413 c-11 -31 -597 -1607 -607 -1635 -7 -17 7 -18 208 -18
l215 0 38 108 c20 59 45 127 53 152 l17 45 345 3 344 2 54 -155 54 -155 213 0
c118 0 214 2 214 4 0 3 -596 1610 -615 1659 -7 16 -29 17 -265 17 l-258 0 -10
-27z m389 -698 c64 -184 113 -337 111 -340 -3 -3 -108 -5 -234 -5 -176 0 -228
3 -228 13 0 18 224 667 230 667 3 0 58 -151 121 -335z"/>
<path d="M7060 1600 l0 -840 200 0 200 0 0 615 c0 338 3 615 8 615 4 -1 94
-205 201 -456 l193 -455 136 3 135 3 191 447 c106 246 195 450 199 454 4 4 7
-270 7 -609 l0 -617 205 0 205 0 0 840 0 840 -278 0 -277 0 -192 -447 c-105
-247 -194 -448 -198 -448 -5 0 -227 512 -357 823 l-30 72 -274 0 -274 0 0
-840z"/>
</g>
</svg>
