<?xml version="1.0" standalone="no"?>
<!DOCTYPE svg PUBLIC "-//W3C//DTD SVG 20010904//EN"
 "http://www.w3.org/TR/2001/REC-SVG-20010904/DTD/svg10.dtd">
<svg version="1.0" xmlns="http://www.w3.org/2000/svg"
 width="801.000000pt" height="320.000000pt" viewBox="0 0 801.000000 320.000000"
 preserveAspectRatio="xMidYMid meet">
<metadata>
Created by potrace 1.16, written by Peter Selinger 2001-2019
</metadata>
<g transform="translate(0.000000,320.000000) scale(0.100000,-0.100000)"
fill="#888d93" stroke="none">
<path d="M1255 2550 c-188 -10 -311 -25 -488 -61 -324 -64 -556 -165 -677
-295 l-45 -48 48 41 c429 367 1941 337 2511 -50 74 -50 138 -113 166 -163 l21
-39 -4 97 c-4 89 -7 101 -38 149 -96 151 -401 282 -789 339 -124 18 -447 41
-530 38 -19 0 -98 -4 -175 -8z"/>
<path d="M4644 2521 c-23 -10 -54 -36 -70 -57 l-29 -37 -5 -291 -5 -291 -280
-6 c-242 -5 -290 -9 -358 -27 -279 -76 -450 -288 -450 -557 1 -226 138 -417
377 -525 144 -66 138 -65 726 -65 529 0 535 0 575 22 47 25 85 64 111 113 17
32 19 70 24 445 l5 410 180 0 180 0 5 -315 c5 -292 7 -319 27 -367 69 -171
192 -273 364 -303 44 -7 333 -10 919 -8 l855 3 55 31 c130 73 185 239 124 371
-10 21 -84 106 -165 189 -88 89 -150 161 -155 178 -11 44 1 121 24 153 34 47
84 66 190 71 114 5 122 13 122 115 l0 68 -497 -3 c-496 -3 -498 -3 -549 -26
-105 -47 -169 -147 -168 -262 1 -105 23 -142 193 -314 124 -126 150 -158 156
-189 15 -79 -10 -140 -75 -185 -32 -21 -41 -22 -267 -22 -176 0 -242 3 -267
14 -51 21 -107 76 -132 131 -23 49 -24 57 -24 358 l0 307 119 0 c117 0 120 1
140 26 16 21 21 41 21 90 l0 64 -140 0 -140 0 0 305 c0 168 -1 305 -2 305 -2
0 -165 -71 -363 -158 l-360 -158 -3 -147 -3 -147 -179 0 -180 0 0 355 0 355
-292 0 c-265 0 -297 -2 -334 -19z m-109 -1269 c0 -338 -2 -394 -15 -402 -8 -5
-43 -10 -76 -10 -218 0 -348 172 -331 438 7 106 27 174 70 238 59 89 158 135
282 131 l70 -2 0 -393z"/>
<path d="M1270 2304 c-381 -22 -760 -104 -970 -209 -80 -40 -183 -109 -214
-144 -26 -29 -32 -27 -55 17 l-20 37 -1 -89 c0 -111 19 -156 97 -225 143 -128
442 -229 822 -278 172 -22 680 -25 841 -5 213 27 530 94 530 112 0 5 -15 14
-34 20 -27 9 -51 8 -111 -5 -42 -8 -138 -23 -213 -31 -175 -21 -614 -15 -802
10 -248 34 -579 110 -548 127 18 9 191 37 308 49 125 13 440 13 615 0 177 -13
366 -41 520 -75 344 -77 642 -227 725 -363 14 -23 29 -42 34 -42 12 0 -4 149
-21 192 -23 57 -127 148 -229 200 -288 148 -698 218 -1204 205 -297 -7 -530
-38 -750 -99 -99 -27 -101 -29 -54 -49 72 -32 15 -19 -79 17 -102 41 -203 89
-211 102 -6 11 164 73 275 101 395 98 1024 92 1504 -14 344 -76 633 -217 726
-354 19 -28 38 -51 42 -51 5 0 5 37 2 83 -5 62 -14 94 -35 132 -83 153 -403
292 -800 349 -578 83 -1291 5 -1675 -183 l-80 -39 -30 18 c-16 10 -47 37 -68
58 l-39 40 54 41 c158 119 441 200 808 232 162 14 511 6 719 -16 434 -47 818
-171 1008 -325 61 -49 123 -126 123 -152 0 -10 3 -9 10 2 13 19 2 153 -15 196
-19 45 -80 110 -148 156 -162 110 -440 194 -772 233 -130 15 -464 26 -585 19z"/>
<path d="M4 1737 c-3 -9 -2 -55 4 -102 8 -68 16 -94 38 -127 111 -159 439
-287 889 -344 168 -22 669 -25 830 -6 224 27 412 67 565 119 94 32 250 110
250 124 0 16 -37 7 -156 -35 -284 -101 -734 -147 -1121 -115 -621 51 -1136
241 -1272 468 -16 28 -21 32 -27 18z"/>
<path d="M4 1487 c-3 -10 -2 -55 4 -101 15 -130 67 -193 235 -281 294 -156
813 -236 1329 -207 363 21 633 76 871 178 86 37 228 126 262 165 23 26 10 20
-57 -28 -202 -145 -697 -237 -1179 -219 -669 23 -1275 220 -1430 465 -22 34
-30 40 -35 28z"/>
<path d="M10 1188 c0 -107 23 -163 94 -233 219 -213 792 -336 1423 -305 545
27 969 146 1159 325 57 54 53 53 -38 -8 -119 -80 -354 -156 -591 -191 -659
-98 -1494 33 -1870 293 -80 55 -111 86 -151 145 l-26 39 0 -65z"/>
</g>
</svg>
