<?xml version="1.0" standalone="no"?>
<!DOCTYPE svg PUBLIC "-//W3C//DTD SVG 20010904//EN"
 "http://www.w3.org/TR/2001/REC-SVG-20010904/DTD/svg10.dtd">
<svg version="1.0" xmlns="http://www.w3.org/2000/svg"
 width="363.000000pt" height="80.000000pt" viewBox="0 0 363.000000 80.000000"
 preserveAspectRatio="xMidYMid meet">
<metadata>
Created by potrace 1.16, written by Peter Selinger 2001-2019
</metadata>
<g transform="translate(0.000000,80.000000) scale(0.100000,-0.100000)"
fill="#888d93" stroke="none">
<path d="M180 460 l0 -250 58 0 c80 0 127 16 172 56 112 101 114 282 6 382
-50 46 -96 62 -178 62 l-58 0 0 -250z"/>
<path d="M756 695 c-188 -67 -202 -368 -21 -463 16 -8 65 -17 108 -20 l77 -5
0 252 0 251 -62 0 c-35 -1 -80 -7 -102 -15z"/>
<path d="M1732 698 c-19 -19 -14 -45 10 -62 29 -20 34 -20 58 4 24 24 25 34 4
54 -18 19 -55 21 -72 4z"/>
<path d="M2262 698 c-18 -18 -15 -43 8 -63 29 -27 70 -7 70 34 0 39 -50 57
-78 29z"/>
<path d="M1290 461 l0 -231 108 0 c96 0 114 3 160 26 68 34 102 90 109 177 9
112 -27 186 -111 229 -32 17 -64 22 -153 26 l-113 5 0 -232z m241 124 c70 -63
64 -221 -9 -259 -17 -9 -55 -19 -86 -22 l-56 -7 0 158 0 157 64 -4 c46 -3 71
-10 87 -23z"/>
<path d="M2970 460 l0 -230 45 0 45 0 0 230 0 230 -45 0 -45 0 0 -230z"/>
<path d="M2420 610 c0 -33 -3 -40 -20 -40 -16 0 -20 -7 -20 -30 0 -23 5 -30
19 -30 17 0 19 -10 22 -114 4 -103 6 -117 27 -139 39 -42 132 -46 132 -7 0 30
-11 49 -25 44 -7 -3 -20 2 -29 12 -14 13 -16 33 -14 108 l3 91 33 3 c28 3 32
7 32 33 0 27 -3 29 -35 29 -34 0 -35 1 -35 40 l0 40 -45 0 -45 0 0 -40z"/>
<path d="M1720 400 l0 -170 45 0 45 0 0 170 0 170 -45 0 -45 0 0 -170z"/>
<path d="M1928 555 c-76 -42 -92 -221 -25 -283 51 -48 148 -47 181 0 14 19 16
20 22 4 8 -22 -2 -84 -16 -101 -17 -21 -68 -28 -101 -15 -16 7 -29 16 -29 21
0 11 -47 11 -74 0 -17 -6 -16 -9 9 -39 44 -53 145 -68 222 -33 68 31 73 51 73
271 l0 190 -40 0 c-35 0 -40 -3 -40 -23 0 -36 -8 -37 -40 -6 -23 23 -37 29
-72 29 -24 -1 -55 -7 -70 -15z m153 -76 c41 -47 27 -155 -22 -173 -59 -21
-109 23 -109 96 1 88 81 136 131 77z"/>
<path d="M2250 400 l0 -170 45 0 45 0 0 170 0 170 -45 0 -45 0 0 -170z"/>
<path d="M2676 551 c-17 -11 -36 -31 -43 -44 -12 -24 -11 -25 24 -30 29 -5 42
-2 58 13 24 22 75 26 93 8 10 -10 18 -57 10 -58 -112 -16 -165 -32 -185 -55
-27 -31 -31 -90 -8 -122 19 -28 78 -47 118 -39 17 4 44 18 59 33 l28 27 0 -27
c0 -25 3 -27 40 -27 l40 0 0 135 c0 134 0 135 -29 167 -27 30 -34 33 -102 36
-61 2 -79 -1 -103 -17z m134 -246 c-14 -17 -63 -28 -89 -20 -44 14 -36 69 12
84 69 22 82 19 85 -17 2 -18 -2 -40 -8 -47z"/>
<path d="M3260 510 l0 -60 -60 0 -60 0 0 -40 0 -40 60 0 60 0 0 -60 0 -60 35
0 35 0 0 60 0 60 60 0 60 0 0 40 0 40 -60 0 -60 0 0 60 0 60 -35 0 -35 0 0
-60z"/>
</g>
</svg>
