<?xml version="1.0" standalone="no"?>
<!DOCTYPE svg PUBLIC "-//W3C//DTD SVG 20010904//EN"
 "http://www.w3.org/TR/2001/REC-SVG-20010904/DTD/svg10.dtd">
<svg version="1.0" xmlns="http://www.w3.org/2000/svg"
 width="112.000000pt" height="80.000000pt" viewBox="0 0 112.000000 80.000000"
 preserveAspectRatio="xMidYMid meet">
<metadata>
Created by potrace 1.16, written by Peter Selinger 2001-2019
</metadata>
<g transform="translate(0.000000,80.000000) scale(0.100000,-0.100000)"
fill="#888d93" stroke="none">
<path d="M309 618 c-20 -14 -45 -46 -62 -80 -25 -49 -29 -69 -29 -141 0 -65 5
-93 21 -124 81 -160 325 -117 325 57 -1 65 -27 108 -81 132 -57 25 -105 18
-145 -23 -16 -16 -32 -29 -35 -29 -8 0 9 83 23 111 19 37 66 55 104 39 16 -7
32 -21 35 -31 5 -15 16 -19 51 -19 51 0 55 11 21 61 -46 69 -159 92 -228 47z
m145 -227 c9 -10 19 -35 23 -54 5 -31 1 -40 -25 -67 -36 -35 -69 -38 -105 -10
-33 27 -43 70 -23 108 18 35 28 40 77 41 23 1 42 -6 53 -18z"/>
<path d="M758 602 c-54 -34 -58 -40 -58 -75 0 -36 1 -37 23 -26 12 7 34 20 49
30 14 11 29 19 32 19 3 0 6 -83 6 -185 l0 -185 45 0 45 0 0 230 0 230 -42 -1
c-32 0 -58 -10 -100 -37z"/>
<path d="M610 250 c-15 -28 -4 -59 26 -72 19 -9 28 -8 44 7 22 20 26 55 8 73
-20 20 -66 15 -78 -8z"/>
</g>
</svg>
