<?xml version="1.0" standalone="no"?>
<!DOCTYPE svg PUBLIC "-//W3C//DTD SVG 20010904//EN"
 "http://www.w3.org/TR/2001/REC-SVG-20010904/DTD/svg10.dtd">
<svg version="1.0" xmlns="http://www.w3.org/2000/svg"
 width="1200.000000pt" height="320.000000pt" viewBox="0 0 1200.000000 320.000000"
 preserveAspectRatio="xMidYMid meet">
<metadata>
Created by potrace 1.16, written by Peter Selinger 2001-2019
</metadata>
<g transform="translate(0.000000,320.000000) scale(0.100000,-0.100000)"
fill="#888d93" stroke="none">
<path d="M1330 2870 c-490 -45 -915 -378 -1084 -848 -92 -258 -92 -586 0 -844
132 -365 417 -651 782 -782 258 -92 586 -92 844 0 365 132 651 417 782 782 92
258 92 586 0 844 -132 365 -417 651 -782 782 -155 55 -371 82 -542 66z m-396
-747 l225 -228 28 17 c104 65 157 83 248 86 106 4 179 -17 255 -73 81 -59 143
-162 156 -257 4 -26 12 -52 19 -58 7 -6 136 -11 331 -12 l319 -3 3 -42 c8
-111 -61 -354 -137 -482 -53 -90 -128 -189 -158 -208 -24 -16 -25 -16 -251
210 -125 125 -231 227 -235 227 -5 0 -29 -14 -54 -31 -100 -69 -247 -91 -358
-54 -140 48 -252 180 -271 319 -4 25 -12 50 -19 56 -7 6 -138 11 -331 12
l-319 3 2 76 c3 137 56 316 135 451 50 87 154 218 173 218 8 0 116 -102 239
-227z"/>
<path d="M1388 1826 c-205 -56 -235 -337 -45 -435 135 -69 304 10 336 159 37
171 -122 322 -291 276z"/>
<path d="M3480 1596 l0 -956 240 0 240 0 0 330 0 330 128 0 127 0 165 -330
165 -330 267 0 c148 0 268 1 268 3 0 1 -86 166 -190 366 -105 200 -189 365
-188 366 2 2 23 13 48 25 25 13 73 51 107 86 150 153 206 395 147 629 -51 198
-206 344 -433 408 -72 20 -102 21 -583 25 l-508 3 0 -955z m894 574 c60 -23
118 -78 144 -139 22 -51 21 -165 -1 -223 -24 -61 -93 -123 -160 -143 -37 -11
-99 -15 -224 -15 l-173 0 0 270 0 270 180 0 c156 0 186 -3 234 -20z"/>
<path d="M5610 2095 c-238 -48 -421 -213 -495 -447 -48 -153 -52 -374 -9 -542
43 -171 174 -336 324 -409 124 -61 212 -79 380 -79 232 0 372 48 500 169 92
87 137 158 174 281 l7 22 -210 0 c-200 0 -210 -1 -216 -20 -11 -35 -92 -96
-151 -115 -70 -22 -174 -16 -231 13 -82 43 -139 134 -150 238 l-6 54 487 0
486 0 0 108 c0 249 -60 412 -203 554 -82 82 -209 148 -329 172 -92 19 -267 19
-358 1z m299 -331 c20 -8 49 -27 65 -42 33 -31 86 -136 86 -169 l0 -23 -264 0
-264 0 9 41 c26 114 96 183 214 213 31 7 114 -3 154 -20z"/>
<path d="M7339 2097 c-103 -29 -209 -121 -255 -222 -14 -31 -30 -53 -35 -50
-5 4 -9 62 -9 131 l0 124 -230 0 -230 0 0 -720 0 -720 229 0 230 0 3 463 c3
512 2 504 71 575 75 77 222 77 294 0 52 -56 53 -62 53 -568 l0 -470 225 0 225
0 0 468 0 468 26 52 c37 74 95 107 184 106 89 0 141 -29 175 -98 l25 -50 0
-473 0 -473 235 0 235 0 0 508 c0 296 -4 533 -10 570 -22 131 -79 232 -174
304 -77 57 -145 80 -263 85 -124 7 -208 -15 -303 -78 -68 -46 -109 -95 -148
-179 -28 -59 -24 -62 -57 33 -25 70 -109 157 -187 193 -54 24 -78 29 -163 31
-60 2 -118 -2 -146 -10z"/>
<path d="M8900 1593 c0 -269 5 -518 10 -556 35 -242 175 -386 408 -418 212
-29 400 57 487 224 17 32 33 57 38 57 4 0 7 -58 7 -130 l0 -130 230 0 230 0 0
720 0 720 -230 0 -229 0 -3 -452 c-3 -411 -5 -457 -21 -493 -51 -114 -181
-170 -310 -134 -53 14 -100 60 -128 121 -24 53 -24 55 -27 506 l-4 452 -229 0
-229 0 0 -487z"/>
<path d="M10363 2067 c3 -8 98 -170 211 -361 l207 -348 -202 -336 c-112 -186
-209 -347 -217 -359 l-14 -23 239 0 240 0 117 240 c64 132 120 240 124 240 4
0 61 -108 127 -240 l120 -240 247 0 c137 0 248 3 248 6 0 3 -94 165 -210 360
-115 195 -210 359 -210 364 0 5 90 158 199 339 109 181 204 338 210 350 l12
21 -248 0 -248 0 -105 -230 c-58 -126 -109 -228 -115 -226 -5 1 -57 105 -114
229 l-105 227 -259 0 c-211 0 -258 -2 -254 -13z"/>
</g>
</svg>
