<?xml version="1.0" standalone="no"?>
<!DOCTYPE svg PUBLIC "-//W3C//DTD SVG 20010904//EN"
 "http://www.w3.org/TR/2001/REC-SVG-20010904/DTD/svg10.dtd">
<svg version="1.0" xmlns="http://www.w3.org/2000/svg"
 width="575.000000pt" height="320.000000pt" viewBox="0 0 575.000000 320.000000"
 preserveAspectRatio="xMidYMid meet">
<metadata>
Created by potrace 1.16, written by Peter Selinger 2001-2019
</metadata>
<g transform="translate(0.000000,320.000000) scale(0.100000,-0.100000)"
fill="#888d93" stroke="none">
<path d="M1910 2315 l0 -165 195 0 195 0 0 165 0 165 -195 0 -195 0 0 -165z"/>
<path d="M0 1559 l0 -842 358 6 c371 6 491 15 629 47 278 65 486 263 565 536
20 69 23 101 23 259 0 158 -3 190 -23 259 -71 247 -252 436 -492 515 -141 47
-221 54 -652 58 l-408 5 0 -843z m822 492 c141 -45 253 -154 294 -284 25 -79
30 -268 10 -359 -39 -175 -166 -300 -348 -343 -40 -9 -115 -15 -205 -15 l-143
0 0 516 0 516 163 -4 c131 -4 175 -9 229 -27z"/>
<path d="M4093 2393 c3 -5 127 -187 277 -407 149 -219 269 -405 266 -412 -4
-10 -470 -700 -558 -826 l-19 -28 223 0 224 0 195 290 c107 159 196 289 199
289 3 0 93 -128 200 -286 107 -157 200 -287 205 -289 6 -3 106 -3 223 -2 l213
3 -292 429 -291 428 49 72 c64 92 465 683 488 719 l17 27 -223 0 -224 -1 -180
-268 c-99 -148 -183 -267 -186 -265 -3 2 -87 123 -185 268 l-179 265 -223 1
c-123 0 -221 -3 -219 -7z"/>
<path d="M1910 1350 l0 -630 195 0 195 0 0 630 0 630 -195 0 -195 0 0 -630z"/>
<path d="M2789 1353 l247 -628 219 0 219 0 246 625 246 625 -194 3 c-107 1
-196 1 -198 -1 -3 -3 -177 -484 -310 -857 -5 -13 -6 -13 -14 0 -6 11 -187 510
-302 833 l-10 27 -198 0 -197 0 246 -627z"/>
</g>
</svg>
