<?xml version="1.0" standalone="no"?>
<!DOCTYPE svg PUBLIC "-//W3C//DTD SVG 20010904//EN"
 "http://www.w3.org/TR/2001/REC-SVG-20010904/DTD/svg10.dtd">
<svg version="1.0" xmlns="http://www.w3.org/2000/svg"
 width="814.000000pt" height="320.000000pt" viewBox="0 0 814.000000 320.000000"
 preserveAspectRatio="xMidYMid meet">
<metadata>
Created by potrace 1.16, written by Peter Selinger 2001-2019
</metadata>
<g transform="translate(0.000000,320.000000) scale(0.100000,-0.100000)"
fill="#888d93" stroke="none">
<path d="M0 1600 l0 -930 195 0 195 0 0 385 0 385 405 0 405 0 0 -385 0 -385
190 0 190 0 0 930 0 930 -190 0 -190 0 0 -385 0 -385 -405 0 -405 0 0 385 0
385 -195 0 -195 0 0 -930z"/>
<path d="M1810 1600 l0 -930 345 0 c466 0 597 16 757 95 165 80 274 190 359
360 81 163 93 223 93 470 1 188 -1 219 -22 300 -93 360 -360 585 -742 625 -52
5 -251 10 -442 10 l-348 0 0 -930z m841 573 c167 -49 263 -154 315 -345 25
-90 25 -355 1 -453 -26 -101 -59 -167 -113 -226 -58 -61 -106 -90 -199 -119
-59 -19 -101 -23 -262 -27 l-193 -6 0 603 0 603 193 -6 c148 -4 207 -9 258
-24z"/>
<path d="M3570 1601 l0 -931 195 0 195 0 0 330 0 330 148 0 147 -1 175 -329
174 -330 214 0 214 0 -29 53 c-113 200 -365 669 -362 671 2 1 29 17 60 34 113
64 197 171 239 307 27 88 30 267 5 360 -53 205 -200 346 -422 407 -73 20 -107
22 -515 26 l-438 4 0 -931z m809 590 c82 -26 124 -59 158 -128 24 -50 28 -70
28 -143 0 -109 -27 -169 -99 -217 -72 -49 -105 -55 -313 -60 l-193 -5 0 286 0
286 179 0 c148 0 190 -3 240 -19z"/>
<path d="M5360 2325 l0 -195 50 0 50 0 0 -725 0 -725 215 0 215 0 0 914 0 913
-82 6 c-46 4 -165 7 -265 7 l-183 0 0 -195z"/>
<path d="M6619 2500 c-146 -10 -238 -34 -310 -82 -104 -70 -166 -156 -201
-284 -21 -76 -22 -97 -22 -529 -1 -492 3 -537 60 -652 31 -65 123 -159 191
-195 114 -63 120 -63 768 -63 533 0 596 2 654 18 135 37 244 125 305 247 56
113 61 164 61 645 0 470 -5 519 -61 633 -54 110 -182 210 -308 241 -28 7 -109
16 -180 21 -150 11 -799 10 -957 0z m961 -391 c64 -14 104 -47 127 -107 16
-42 18 -83 18 -412 l0 -365 -25 -50 c-20 -40 -35 -55 -75 -75 l-50 -25 -470 0
-470 0 -50 25 c-40 20 -55 35 -75 75 l-25 50 0 370 c0 401 2 419 54 469 54 52
79 55 553 55 280 1 455 -3 488 -10z"/>
</g>
</svg>
