<?xml version="1.0" standalone="no"?>
<!DOCTYPE svg PUBLIC "-//W3C//DTD SVG 20010904//EN"
 "http://www.w3.org/TR/2001/REC-SVG-20010904/DTD/svg10.dtd">
<svg version="1.0" xmlns="http://www.w3.org/2000/svg"
 width="1196.000000pt" height="320.000000pt" viewBox="0 0 1196.000000 320.000000"
 preserveAspectRatio="xMidYMid meet">
<metadata>
Created by potrace 1.16, written by Peter Selinger 2001-2019
</metadata>
<g transform="translate(0.000000,320.000000) scale(0.100000,-0.100000)"
fill="#888d93" stroke="none">
<path d="M1340 2950 c-488 -45 -917 -381 -1084 -848 -92 -259 -92 -586 0 -844
130 -362 421 -653 782 -782 259 -92 586 -92 844 0 362 130 653 421 782 782 92
259 92 586 0 844 -153 424 -518 741 -952 827 -119 23 -259 31 -372 21z m389
-169 c405 -103 719 -413 828 -816 24 -91 27 -117 27 -280 1 -199 -13 -279 -75
-433 -127 -319 -421 -577 -764 -669 -91 -24 -117 -27 -280 -27 -199 -1 -279
13 -433 75 -319 127 -577 421 -669 764 -24 91 -27 117 -27 280 -1 155 2 192
22 268 65 257 203 472 401 625 144 111 300 184 476 222 123 27 370 22 494 -9z"/>
<path d="M874 2466 c-33 -24 -69 -54 -81 -67 l-22 -25 158 -158 159 -159 41
32 c36 29 40 35 29 54 -47 90 -212 367 -218 367 -4 0 -34 -20 -66 -44z"/>
<path d="M1353 2036 c-104 -34 -185 -106 -232 -205 -22 -48 -26 -69 -26 -151
0 -87 3 -101 32 -161 39 -79 102 -140 181 -177 49 -23 70 -27 152 -27 82 0
103 4 152 27 79 37 142 98 181 177 29 60 32 74 32 161 0 87 -3 101 -32 161
-63 128 -176 200 -318 206 -49 2 -96 -3 -122 -11z m178 -137 c55 -17 108 -65
135 -123 55 -118 8 -247 -110 -302 -118 -55 -247 -8 -302 110 -84 181 84 372
277 315z"/>
<path d="M3490 1675 l0 -957 528 5 c500 4 531 5 611 26 108 28 209 81 283 149
113 105 173 284 149 439 -29 186 -189 341 -389 375 -40 7 -72 15 -72 19 0 4
18 10 41 14 70 12 173 71 228 130 73 80 103 151 109 255 8 149 -31 253 -132
348 -59 56 -117 88 -221 123 -69 23 -75 24 -602 27 l-533 3 0 -956z m831 615
c71 -14 138 -56 167 -105 19 -34 22 -52 20 -116 -3 -63 -8 -82 -31 -117 -54
-82 -176 -116 -397 -110 l-105 3 -3 228 -2 227 148 0 c82 0 174 -5 203 -10z
m-6 -750 c111 -13 182 -45 218 -98 74 -108 52 -255 -48 -324 -66 -46 -138 -58
-337 -58 l-178 0 0 245 0 245 128 0 c70 0 168 -5 217 -10z"/>
<path d="M5150 1675 l0 -955 230 0 230 0 0 955 0 955 -230 0 -230 0 0 -955z"/>
<path d="M7310 1676 l0 -956 240 0 240 0 0 330 0 330 125 0 125 0 165 -330
165 -330 271 0 271 0 -55 103 c-221 415 -329 631 -319 635 39 13 140 93 178
141 96 121 134 237 134 407 0 196 -45 318 -160 435 -49 49 -86 76 -150 107
-156 75 -153 75 -722 79 l-508 4 0 -955z m876 579 c109 -32 174 -125 174 -249
0 -124 -38 -193 -134 -244 -50 -26 -56 -27 -243 -30 l-193 -4 0 271 0 271 173
0 c124 0 188 -4 223 -15z"/>
<path d="M9417 2180 c-186 -33 -328 -118 -407 -241 -36 -56 -70 -150 -70 -196
l0 -33 205 0 205 0 11 28 c32 85 149 134 267 112 99 -18 141 -68 150 -177 6
-75 26 -68 -229 -83 -102 -6 -227 -19 -277 -30 -107 -22 -220 -73 -283 -129
-164 -144 -164 -441 0 -594 93 -87 213 -130 361 -130 156 0 286 58 370 165 23
29 46 55 51 56 5 2 9 -44 9 -102 l0 -106 230 0 230 0 0 523 c0 440 -2 532 -15
582 -41 156 -190 286 -390 341 -69 19 -340 28 -418 14z m363 -897 c0 -83 -16
-129 -62 -179 -52 -57 -112 -79 -208 -78 -133 1 -197 55 -188 156 6 61 42 101
107 122 39 13 185 29 319 35 l32 1 0 -57z"/>
<path d="M5740 1648 c0 -403 3 -527 14 -580 51 -238 222 -371 476 -371 198 0
320 68 412 230 l33 58 3 -132 3 -133 234 0 235 0 0 720 0 720 -235 0 -235 0 0
-444 c0 -473 -1 -488 -50 -557 -12 -16 -42 -41 -68 -56 -41 -24 -58 -28 -127
-28 -110 0 -157 26 -200 109 l-30 60 -3 458 -3 458 -229 0 -230 0 0 -512z"/>
<path d="M10245 2143 c37 -98 485 -1416 485 -1430 0 -30 -37 -81 -72 -100 -27
-15 -55 -18 -150 -17 l-118 1 0 -162 0 -162 38 -6 c230 -36 494 -1 626 83 81
52 149 131 200 233 33 66 111 296 281 828 129 405 235 739 235 743 0 3 -109 6
-242 6 l-243 0 -127 -541 c-70 -298 -130 -544 -133 -547 -3 -3 -8 -3 -11 1 -4
3 -64 248 -134 544 l-127 538 -258 3 c-242 2 -257 1 -250 -15z"/>
</g>
</svg>
