<?xml version="1.0" standalone="no"?>
<!DOCTYPE svg PUBLIC "-//W3C//DTD SVG 20010904//EN"
 "http://www.w3.org/TR/2001/REC-SVG-20010904/DTD/svg10.dtd">
<svg version="1.0" xmlns="http://www.w3.org/2000/svg"
 width="972.000000pt" height="320.000000pt" viewBox="0 0 972.000000 320.000000"
 preserveAspectRatio="xMidYMid meet">
<metadata>
Created by potrace 1.16, written by Peter Selinger 2001-2019
</metadata>
<g transform="translate(0.000000,320.000000) scale(0.100000,-0.100000)"
fill="#888d93" stroke="none">
<path d="M9534 2509 c-18 -5 -46 -25 -63 -44 -26 -30 -31 -44 -31 -87 0 -45 4
-54 39 -89 36 -36 43 -39 94 -39 51 0 60 3 91 35 40 40 53 88 37 138 -14 41
-34 61 -84 82 -41 17 -40 17 -83 4z m96 -24 c86 -44 76 -185 -15 -215 -101
-33 -191 58 -151 154 27 65 104 93 166 61z"/>
<path d="M9520 2381 c0 -41 4 -71 10 -71 6 0 10 12 10 26 0 23 3 25 33 22 24
-2 33 -8 35 -25 5 -31 22 -29 22 2 0 14 -5 25 -11 25 -8 0 -8 4 0 14 7 8 11
27 9 43 -3 26 -6 28 -55 31 l-53 3 0 -70z m88 27 c3 -26 1 -28 -32 -28 -33 0
-36 2 -36 31 0 28 2 30 33 27 27 -2 33 -8 35 -30z"/>
<path d="M0 1595 l0 -915 290 0 290 0 0 915 0 915 -290 0 -290 0 0 -915z"/>
<path d="M990 1595 l0 -915 255 0 255 0 0 665 0 666 57 -3 57 -3 321 -655 321
-655 218 0 218 0 322 657 321 658 58 0 57 0 0 -665 0 -665 255 0 255 0 0 915
0 915 -465 0 -464 0 -273 -545 c-150 -300 -277 -544 -281 -542 -5 1 -133 246
-285 545 l-277 542 -462 0 -463 0 0 -915z"/>
<path d="M4974 2458 c-73 -146 -654 -1287 -771 -1515 l-134 -263 305 0 305 0
83 158 83 157 580 2 580 3 81 -158 81 -157 307 -3 307 -2 -260 512 c-143 282
-352 693 -464 913 l-204 400 -426 3 -427 2 -26 -52z m661 -708 l175 -350 -386
0 -385 0 177 350 177 350 34 0 33 0 175 -350z"/>
<path d="M6977 2488 c11 -13 168 -198 348 -413 181 -214 334 -397 342 -406 12
-15 -33 -69 -404 -486 -230 -258 -424 -476 -432 -486 -13 -16 9 -17 362 -17
l376 0 291 330 c160 182 295 330 300 330 4 0 137 -148 295 -330 l288 -330 374
0 c361 0 374 1 361 18 -7 10 -197 227 -423 481 -225 255 -410 469 -410 476 0
7 136 174 301 372 166 197 325 386 354 421 l52 62 -349 0 -348 -1 -245 -294
c-135 -162 -249 -294 -255 -294 -5 0 -118 133 -249 295 l-239 294 -355 0 -355
0 20 -22z"/>
</g>
</svg>
