<?xml version="1.0" standalone="no"?>
<!DOCTYPE svg PUBLIC "-//W3C//DTD SVG 20010904//EN"
 "http://www.w3.org/TR/2001/REC-SVG-20010904/DTD/svg10.dtd">
<svg version="1.0" xmlns="http://www.w3.org/2000/svg"
 width="864.000000pt" height="320.000000pt" viewBox="0 0 864.000000 320.000000"
 preserveAspectRatio="xMidYMid meet">
<metadata>
Created by potrace 1.16, written by Peter Selinger 2001-2019
</metadata>
<g transform="translate(0.000000,320.000000) scale(0.100000,-0.100000)"
fill="#888d93" stroke="none">
<path d="M745 2590 c-340 -32 -575 -220 -617 -493 -25 -167 23 -319 137 -425
114 -108 250 -162 546 -221 293 -58 382 -106 408 -222 16 -72 -3 -134 -58
-189 -62 -62 -136 -90 -257 -97 -237 -15 -411 75 -448 230 l-6 27 -185 0 -185
0 0 -22 c1 -51 30 -159 60 -218 102 -203 330 -321 650 -337 274 -13 506 53
650 185 79 72 126 149 155 250 l22 75 18 -54 c71 -218 234 -374 451 -429 108
-28 310 -28 418 0 163 41 305 148 376 281 l34 64 17 -58 c45 -151 166 -256
335 -292 124 -26 252 -12 354 40 51 26 134 101 177 160 l22 30 0 -112 1 -113
190 0 190 0 0 518 c0 562 -2 586 -56 677 -59 102 -189 192 -334 231 -97 27
-337 24 -442 -4 -215 -58 -355 -200 -383 -385 l-7 -47 175 0 175 0 7 31 c17
77 126 139 244 139 162 0 240 -74 241 -227 0 -69 -1 -73 -22 -73 -13 0 -118
-7 -234 -15 -303 -22 -418 -56 -529 -156 -61 -56 -103 -132 -113 -206 l-7 -48
-163 -3 c-161 -2 -163 -3 -172 -26 -13 -36 -72 -90 -126 -117 -63 -31 -188
-38 -266 -15 -63 18 -128 70 -163 129 -24 41 -55 150 -55 195 l0 22 491 0 492
0 -6 143 c-6 156 -26 245 -76 346 -115 227 -365 358 -646 338 -181 -13 -307
-68 -425 -187 -116 -115 -181 -261 -197 -438 l-6 -74 -30 56 c-89 165 -247
248 -624 326 -201 42 -287 69 -348 111 -103 71 -105 229 -4 311 111 90 359
100 488 20 57 -35 108 -101 122 -158 l11 -44 185 0 185 0 -7 56 c-16 134 -65
235 -156 324 -60 59 -172 124 -264 153 -105 34 -279 49 -410 37z m1669 -801
c82 -38 148 -135 169 -246 l7 -33 -307 0 -306 0 6 45 c7 51 43 127 82 173 26
31 93 69 149 83 49 13 150 2 200 -22z m1404 -602 c-3 -79 -8 -100 -31 -140
-53 -90 -147 -137 -275 -137 -84 0 -141 20 -179 61 -64 70 -55 176 19 233 47
35 135 54 298 65 74 4 143 9 154 10 17 1 18 -6 14 -92z"/>
<path d="M4300 1606 l0 -956 363 0 c524 0 652 16 823 100 204 101 351 294 417
545 l24 89 7 -89 c18 -240 103 -419 251 -532 129 -97 212 -124 411 -130 131
-5 161 -3 235 16 122 31 202 74 286 157 71 69 130 167 149 247 l6 27 -176 0
c-139 0 -176 -3 -176 -13 0 -25 -72 -98 -124 -125 -46 -25 -61 -27 -161 -27
-103 0 -113 2 -164 30 -29 16 -69 49 -87 74 -38 49 -74 153 -74 212 l0 39 492
0 491 0 -7 127 c-13 245 -66 385 -195 514 -121 120 -248 175 -436 185 -276 15
-492 -94 -623 -315 -15 -25 -41 -88 -58 -139 l-31 -94 -6 128 c-13 293 -89
488 -252 650 -68 68 -99 90 -186 133 -190 94 -194 94 -731 99 l-468 3 0 -955z
m824 619 c206 -44 333 -172 393 -395 25 -93 24 -327 -1 -435 -36 -157 -118
-281 -231 -345 -95 -54 -183 -70 -397 -70 l-188 0 0 630 0 630 178 0 c117 0
201 -5 246 -15z m1633 -441 c29 -14 64 -39 79 -57 35 -41 71 -121 80 -174 l7
-43 -307 0 -307 0 7 38 c9 56 51 143 87 180 87 91 235 114 354 56z"/>
<path d="M7200 2066 c0 -3 97 -161 215 -351 118 -191 215 -351 215 -356 0 -9
-228 -376 -407 -656 l-34 -53 200 0 199 0 133 250 c74 137 138 248 142 247 5
-1 70 -114 144 -250 l135 -247 204 0 c112 0 204 2 204 4 0 2 -97 162 -215 355
-118 193 -215 356 -215 361 0 6 97 164 215 351 118 187 215 342 215 345 0 2
-91 4 -203 4 l-203 0 -124 -240 c-69 -131 -129 -238 -135 -236 -5 1 -66 108
-135 237 l-125 234 -213 3 c-116 1 -212 0 -212 -2z"/>
</g>
</svg>
