<?xml version="1.0" standalone="no"?>
<!DOCTYPE svg PUBLIC "-//W3C//DTD SVG 20010904//EN"
 "http://www.w3.org/TR/2001/REC-SVG-20010904/DTD/svg10.dtd">
<svg version="1.0" xmlns="http://www.w3.org/2000/svg"
 width="894.000000pt" height="320.000000pt" viewBox="0 0 894.000000 320.000000"
 preserveAspectRatio="xMidYMid meet">
<metadata>
Created by potrace 1.16, written by Peter Selinger 2001-2019
</metadata>
<g transform="translate(0.000000,320.000000) scale(0.100000,-0.100000)"
fill="#ffffff" stroke="none">
<path d="M205 2515 c-79 -32 -154 -109 -183 -188 -22 -57 -22 -66 -22 -727 0
-659 0 -670 21 -727 30 -80 113 -162 193 -192 58 -21 62 -22 740 -19 l681 3
50 25 c70 34 139 108 164 175 19 51 21 77 21 290 0 163 3 235 11 235 6 0 237
-95 512 -211 276 -117 510 -214 519 -217 17 -4 18 33 18 637 0 502 -3 641 -13
641 -6 0 -241 -97 -521 -215 -281 -118 -513 -215 -518 -215 -4 0 -8 106 -8
235 0 213 -2 239 -21 290 -25 67 -94 141 -164 175 l-50 25 -685 2 -685 3 -60
-25z m1421 -134 c23 -10 54 -36 70 -57 l29 -37 0 -687 0 -687 -29 -37 c-59
-78 -30 -76 -760 -76 -642 0 -650 0 -694 21 -26 13 -54 38 -70 62 l-27 41 0
676 0 676 27 41 c15 23 44 49 70 62 43 21 48 21 693 21 613 0 652 -1 691 -19z"/>
<path d="M4210 2469 c-311 -36 -565 -209 -680 -463 -58 -126 -75 -221 -74
-411 0 -144 3 -183 23 -254 53 -200 157 -353 311 -458 269 -183 681 -212 1021
-72 l79 33 0 173 c0 95 -2 173 -5 173 -3 0 -24 -12 -48 -27 -213 -135 -510
-163 -689 -66 -105 57 -194 182 -229 323 -18 72 -18 288 0 360 35 141 124 266
229 323 179 97 476 69 689 -66 24 -15 45 -27 48 -27 3 0 5 78 5 173 l0 174
-92 36 c-195 77 -375 100 -588 76z"/>
<path d="M5675 2433 c-3 -10 -139 -376 -302 -813 -162 -437 -301 -810 -309
-828 l-13 -32 222 2 222 3 51 145 50 145 345 3 344 2 51 -147 51 -148 220 -3
220 -2 -214 577 c-118 318 -259 697 -313 843 l-98 265 -260 3 c-240 2 -260 1
-267 -15z m387 -732 c59 -173 108 -315 108 -317 0 -2 -104 -4 -231 -4 -216 0
-231 1 -224 18 3 9 51 145 105 302 120 347 121 349 128 330 3 -8 54 -156 114
-329z"/>
<path d="M7057 2443 c-4 -3 -7 -384 -7 -845 l0 -838 210 0 210 0 0 613 0 612
193 -450 193 -450 139 -3 140 -2 189 442 c104 244 193 447 198 452 4 6 8 -265
8 -602 l0 -612 205 0 205 0 0 845 0 845 -278 0 -277 0 -189 -442 c-104 -244
-192 -447 -196 -451 -4 -5 -94 194 -200 442 l-192 451 -273 0 c-149 0 -275 -3
-278 -7z"/>
</g>
</svg>
