<?xml version="1.0" standalone="no"?>
<!DOCTYPE svg PUBLIC "-//W3C//DTD SVG 20010904//EN"
 "http://www.w3.org/TR/2001/REC-SVG-20010904/DTD/svg10.dtd">
<svg version="1.0" xmlns="http://www.w3.org/2000/svg"
 width="972.000000pt" height="320.000000pt" viewBox="0 0 972.000000 320.000000"
 preserveAspectRatio="xMidYMid meet">
<metadata>
Created by potrace 1.16, written by Peter Selinger 2001-2019
</metadata>
<g transform="translate(0.000000,320.000000) scale(0.100000,-0.100000)"
fill="#ffffff" stroke="none">
<path d="M0 1600 l0 -920 290 0 290 0 0 920 0 920 -290 0 -290 0 0 -920z"/>
<path d="M2754 1968 l-276 -551 -165 324 c-91 178 -217 424 -280 547 l-114
222 -465 0 -464 0 0 -915 0 -915 260 0 260 0 0 665 0 665 48 0 48 0 325 -662
325 -663 218 0 219 0 323 660 322 660 51 3 51 3 0 -665 0 -666 260 0 260 0 0
920 0 920 -465 0 -464 0 -277 -552z"/>
<path d="M4964 2448 c-20 -40 -230 -452 -465 -916 -236 -463 -429 -844 -429
-847 0 -3 138 -5 308 -5 l307 0 80 155 80 155 580 0 580 0 80 -155 80 -155
307 0 c170 0 308 3 308 8 0 4 -209 417 -464 917 l-463 910 -426 3 -427 2 -36
-72z m663 -693 c95 -187 172 -343 172 -347 1 -5 -168 -8 -374 -8 -206 0 -375
2 -375 5 0 7 125 256 247 493 99 192 107 203 132 200 24 -3 42 -35 198 -343z"/>
<path d="M6960 2510 c0 -6 160 -199 356 -431 195 -231 353 -426 351 -432 -3
-7 -150 -174 -327 -372 -177 -198 -369 -413 -427 -477 l-104 -118 383 0 384 0
289 328 c158 180 291 328 294 329 3 1 134 -146 291 -327 l285 -330 384 0 385
0 -26 27 c-14 16 -209 235 -432 487 -358 405 -405 461 -392 475 85 99 706 843
706 846 0 3 -157 5 -350 5 l-349 0 -232 -276 c-127 -152 -241 -287 -253 -301
l-22 -25 -244 301 -245 301 -352 0 c-230 0 -353 -4 -353 -10z"/>
<path d="M9514 2506 c-73 -32 -104 -141 -58 -204 63 -85 194 -77 239 15 24 49
19 106 -11 143 -49 58 -107 73 -170 46z m119 -28 c24 -12 57 -68 57 -96 0 -31
-25 -77 -52 -96 -30 -21 -107 -20 -134 2 -111 89 2 255 129 190z"/>
<path d="M9517 2453 c-4 -3 -7 -37 -7 -75 0 -52 3 -68 14 -68 8 0 16 10 18 23
2 16 10 22 28 22 16 0 28 -8 35 -22 5 -13 15 -23 22 -23 16 0 17 32 1 48 -9 9
-9 15 0 24 17 17 15 44 -4 62 -15 16 -94 23 -107 9z m88 -48 c0 -15 -8 -21
-32 -23 -30 -3 -33 -1 -33 23 0 24 3 26 33 23 24 -2 32 -8 32 -23z"/>
</g>
</svg>
