<?xml version="1.0" standalone="no"?>
<!DOCTYPE svg PUBLIC "-//W3C//DTD SVG 20010904//EN"
 "http://www.w3.org/TR/2001/REC-SVG-20010904/DTD/svg10.dtd">
<svg version="1.0" xmlns="http://www.w3.org/2000/svg"
 width="1221.000000pt" height="320.000000pt" viewBox="0 0 1221.000000 320.000000"
 preserveAspectRatio="xMidYMid meet">
<metadata>
Created by potrace 1.16, written by Peter Selinger 2001-2019
</metadata>
<g transform="translate(0.000000,320.000000) scale(0.100000,-0.100000)"
fill="#ffffff" stroke="none">
<path d="M1235 2874 c-316 -48 -543 -160 -756 -373 -188 -188 -299 -391 -355
-651 -26 -118 -26 -381 -1 -498 113 -518 490 -896 1007 -1008 118 -26 381 -26
498 -1 518 113 896 490 1008 1007 26 118 26 381 1 498 -59 269 -179 485 -374
673 -174 168 -372 275 -613 330 -83 19 -344 34 -415 23z m206 -220 c96 -49
215 -272 274 -517 28 -116 55 -301 55 -383 l0 -54 -392 0 -391 0 6 103 c25
392 180 783 342 858 40 19 58 17 106 -7z m-476 -136 c-97 -209 -155 -432 -177
-675 l-12 -143 -233 0 c-192 0 -233 2 -233 14 0 44 36 193 66 269 99 258 280
456 530 582 49 24 92 44 96 45 4 0 -13 -42 -37 -92z m888 47 c247 -124 427
-320 527 -571 31 -77 69 -227 70 -271 l0 -23 -233 0 -233 0 -11 133 c-22 251
-80 475 -176 680 -25 53 -43 97 -39 97 4 0 47 -20 95 -45z m-1066 -1197 c22
-252 80 -476 176 -680 25 -54 44 -98 41 -98 -16 0 -144 66 -206 105 -191 124
-333 297 -418 511 -31 77 -69 227 -70 272 l0 22 233 0 233 0 11 -132z m983 79
c0 -131 -43 -368 -96 -526 -50 -150 -107 -255 -179 -327 -91 -92 -138 -93
-226 -5 -64 65 -113 148 -164 279 -61 160 -114 422 -115 570 l0 62 390 0 390
0 0 -53z m675 1 c-40 -294 -218 -576 -466 -741 -71 -47 -205 -117 -223 -117
-3 0 16 43 40 97 97 205 155 430 176 671 l12 142 234 0 234 0 -7 -52z"/>
<path d="M6870 1755 l0 -825 190 0 190 0 0 81 0 81 54 -54 c217 -217 563 -175
733 89 76 120 108 259 100 438 -11 253 -117 445 -292 530 -182 90 -391 57
-535 -82 l-60 -59 0 313 0 313 -190 0 -190 0 0 -825z m738 89 c98 -49 138
-144 136 -334 -1 -127 -21 -201 -71 -261 -82 -97 -256 -98 -344 -2 -61 65 -84
155 -77 310 4 96 8 117 35 175 45 97 106 136 214 137 40 1 69 -6 107 -25z"/>
<path d="M10090 2425 l0 -155 190 0 190 0 0 155 0 155 -190 0 -190 0 0 -155z"/>
<path d="M2987 2408 c13 -57 97 -411 186 -788 l163 -685 236 -3 236 -2 32 137
c18 76 81 341 139 590 59 249 109 455 112 457 2 3 65 -248 138 -557 74 -309
138 -577 143 -594 l9 -33 234 0 235 0 5 23 c66 279 365 1550 365 1553 0 2 -87
4 -193 4 l-193 0 -134 -565 c-74 -310 -137 -561 -141 -557 -3 4 -61 241 -128
527 -67 286 -126 537 -132 558 l-10 37 -197 0 -197 0 -129 -553 c-71 -303
-132 -560 -136 -570 -3 -11 -64 225 -141 550 l-135 568 -196 3 -196 2 25 -102z"/>
<path d="M8440 1721 l0 -791 205 0 205 0 0 300 0 300 78 0 c190 0 226 -34 389
-365 l115 -235 214 0 c118 0 214 2 214 5 0 2 -54 115 -119 250 -166 340 -222
420 -330 468 l-45 20 50 18 c108 41 199 138 230 247 26 87 16 259 -18 334 -49
106 -143 176 -290 215 -53 14 -131 17 -480 20 l-418 4 0 -790z m724 469 c67
-33 90 -79 90 -175 0 -96 -23 -142 -90 -175 -43 -22 -65 -25 -181 -28 l-133
-4 0 207 0 207 133 -4 c116 -3 138 -6 181 -28z"/>
<path d="M5850 2139 c-164 -19 -291 -80 -390 -186 -105 -111 -150 -240 -150
-429 0 -291 128 -488 376 -577 193 -69 485 -59 756 26 l73 23 3 146 3 147 -73
-33 c-269 -124 -536 -138 -660 -36 -38 32 -82 112 -92 168 l-5 32 444 0 445 0
0 89 c0 204 -59 360 -179 473 -138 130 -326 184 -551 157z m208 -264 c70 -30
117 -95 129 -180 l6 -45 -248 0 -247 0 7 37 c15 79 75 157 145 187 46 20 160
20 208 1z"/>
<path d="M11526 2139 c-89 -13 -178 -59 -252 -130 l-64 -62 0 87 0 86 -187 -2
-188 -3 -3 -742 -2 -743 190 0 190 0 0 230 c0 127 2 230 4 230 3 0 29 -24 59
-54 145 -145 377 -178 559 -79 63 34 154 132 195 208 72 135 99 333 69 502
-21 121 -55 203 -119 288 -108 145 -272 212 -451 184z m17 -280 c124 -34 193
-207 168 -417 -19 -155 -83 -240 -196 -261 -98 -18 -190 16 -240 90 -69 104
-81 327 -25 458 50 114 165 166 293 130z"/>
<path d="M10090 1525 l0 -595 190 0 190 0 0 595 0 595 -190 0 -190 0 0 -595z"/>
</g>
</svg>
