<?xml version="1.0" standalone="no"?>
<!DOCTYPE svg PUBLIC "-//W3C//DTD SVG 20010904//EN"
 "http://www.w3.org/TR/2001/REC-SVG-20010904/DTD/svg10.dtd">
<svg version="1.0" xmlns="http://www.w3.org/2000/svg"
 width="685.000000pt" height="320.000000pt" viewBox="0 0 685.000000 320.000000"
 preserveAspectRatio="xMidYMid meet">
<metadata>
Created by potrace 1.16, written by Peter Selinger 2001-2019
</metadata>
<g transform="translate(0.000000,320.000000) scale(0.100000,-0.100000)"
fill="#ffffff" stroke="none">
<path d="M443 2810 c-96 -12 -250 -44 -348 -73 l-80 -23 -3 -207 -2 -208 38
25 c243 153 505 206 656 132 144 -71 197 -246 121 -402 -40 -81 -113 -153
-489 -484 l-336 -295 0 -178 0 -177 678 2 677 3 0 175 0 175 -403 0 c-221 0
-402 3 -402 6 0 3 105 98 233 210 387 340 484 450 532 601 30 94 34 230 10
321 -49 188 -195 319 -420 378 -92 24 -341 34 -462 19z"/>
<path d="M4080 2806 c-247 -53 -418 -199 -513 -438 -120 -299 -115 -783 12
-1062 89 -197 252 -340 446 -392 94 -25 294 -30 396 -9 324 65 526 319 580
730 15 117 6 444 -16 540 -46 205 -108 328 -225 446 -91 93 -172 140 -295 174
-83 22 -301 29 -385 11z m285 -342 c81 -42 134 -158 156 -344 15 -136 6 -526
-15 -630 -22 -105 -70 -197 -124 -235 -41 -28 -49 -30 -135 -30 -80 0 -96 3
-127 24 -75 50 -115 133 -142 295 -17 96 -17 528 0 626 28 166 81 262 166 302
55 25 164 21 221 -8z"/>
<path d="M2065 2229 l-375 -560 2 -202 3 -202 413 -3 412 -2 0 -170 0 -170
225 0 225 0 0 170 0 170 135 0 135 0 0 175 0 175 -135 0 -135 0 0 590 0 590
-264 0 -265 0 -376 -561z m455 -234 l0 -385 -260 0 c-143 0 -260 2 -260 5 0 7
511 765 516 765 2 0 4 -173 4 -385z"/>
<path d="M6080 2327 c-92 -31 -156 -71 -222 -139 -32 -32 -59 -58 -60 -58 -2
0 -3 42 -3 92 l0 93 -222 3 -223 2 0 -965 0 -965 225 0 226 0 -3 364 -3 364
61 -60 c118 -118 237 -168 401 -168 277 0 490 187 563 494 41 170 35 375 -15
533 -63 200 -211 360 -383 413 -93 29 -254 28 -342 -3z m107 -312 c88 -26 155
-111 184 -232 16 -66 16 -256 0 -323 -28 -116 -95 -202 -177 -231 -22 -7 -70
-13 -109 -13 -122 0 -208 62 -257 183 -20 50 -23 73 -23 221 0 148 3 171 23
221 62 155 199 222 359 174z"/>
</g>
</svg>
