<?xml version="1.0" standalone="no"?>
<!DOCTYPE svg PUBLIC "-//W3C//DTD SVG 20010904//EN"
 "http://www.w3.org/TR/2001/REC-SVG-20010904/DTD/svg10.dtd">
<svg version="1.0" xmlns="http://www.w3.org/2000/svg"
 width="322.000000pt" height="80.000000pt" viewBox="0 0 322.000000 80.000000"
 preserveAspectRatio="xMidYMid meet">
<metadata>
Created by potrace 1.16, written by Peter Selinger 2001-2019
</metadata>
<g transform="translate(0.000000,80.000000) scale(0.100000,-0.100000)"
fill="#ffffff" stroke="none">
<path d="M1720 702 c-46 -37 9 -106 59 -75 23 15 27 64 5 80 -24 18 -38 16
-64 -5z"/>
<path d="M2252 704 c-41 -29 -23 -84 28 -84 49 0 68 51 32 83 -23 21 -32 21
-60 1z"/>
<path d="M160 460 l0 -250 64 0 c102 0 126 8 181 64 56 57 75 103 75 186 0 73
-17 123 -59 171 -48 57 -99 79 -188 79 l-73 0 0 -250z"/>
<path d="M711 688 c-82 -41 -139 -159 -127 -262 9 -69 56 -149 108 -183 36
-24 54 -28 130 -31 l88 -4 0 251 0 251 -77 0 c-60 0 -88 -5 -122 -22z"/>
<path d="M1262 459 l3 -234 116 1 c136 1 193 21 235 83 55 84 55 223 -1 296
-50 67 -86 80 -228 84 l-127 3 2 -233z m246 125 c36 -24 55 -80 49 -145 -8
-96 -47 -129 -148 -129 l-49 0 0 143 c0 79 3 147 8 151 11 12 114 -3 140 -20z"/>
<path d="M2950 454 l0 -235 48 3 47 3 3 233 2 232 -50 0 -50 0 0 -236z"/>
<path d="M2407 653 c-4 -3 -7 -24 -7 -45 0 -31 -3 -38 -20 -38 -16 0 -20 -7
-20 -35 0 -28 4 -35 20 -35 19 0 20 -7 20 -94 0 -110 12 -151 51 -171 32 -17
105 -20 114 -5 4 6 4 24 0 40 -5 22 -13 30 -33 32 l-27 3 -3 98 -3 97 36 0
c33 0 35 2 35 35 0 33 -2 35 -35 35 -35 0 -35 0 -35 45 l0 45 -43 0 c-24 0
-47 -3 -50 -7z"/>
<path d="M1920 563 c-93 -48 -109 -226 -28 -301 45 -41 128 -42 168 -2 20 20
20 20 20 -30 0 -38 -4 -52 -19 -60 -30 -16 -88 -12 -107 7 -15 16 -75 20 -96
7 -16 -10 18 -57 54 -75 48 -24 146 -26 195 -2 67 31 73 54 73 271 l0 192 -50
0 c-45 0 -50 -2 -50 -22 l0 -21 -24 22 c-33 31 -92 37 -136 14z m140 -85 c31
-33 28 -121 -5 -153 -13 -14 -33 -25 -45 -25 -11 0 -32 11 -45 25 -33 32 -35
110 -4 149 26 33 70 35 99 4z"/>
<path d="M2673 561 c-35 -16 -73 -61 -73 -86 0 -15 84 -3 110 17 39 28 85 16
85 -22 0 -26 -10 -30 -109 -46 -86 -13 -126 -108 -73 -170 19 -22 34 -28 78
-32 49 -4 59 -1 87 23 l32 27 0 -26 c0 -24 3 -26 45 -26 l45 0 0 139 c0 135
-1 140 -26 170 -43 51 -128 65 -201 32z m127 -210 c0 -16 -7 -37 -16 -45 -21
-22 -90 -21 -98 0 -11 27 4 54 32 60 15 3 32 7 37 9 32 11 45 4 45 -24z"/>
<path d="M1702 398 l3 -173 48 -3 47 -3 0 175 0 176 -50 0 -50 0 2 -172z"/>
<path d="M2232 398 l3 -173 45 0 45 0 3 173 2 172 -50 0 -50 0 2 -172z"/>
</g>
</svg>
