<?xml version="1.0" encoding="UTF-8" standalone="no"?>
<svg
   version="1.0"
   width="732.000000pt"
   height="320.000000pt"
   viewBox="0 0 732.000000 320.000000"
   preserveAspectRatio="xMidYMid meet"
   id="svg4"
   sodipodi:docname="white-disney-plus.svg"
   inkscape:version="1.4.4 (dcaf3e7d9e, 2026-05-05)"
   xmlns:inkscape="http://www.inkscape.org/namespaces/inkscape"
   xmlns:sodipodi="http://sodipodi.sourceforge.net/DTD/sodipodi-0.dtd"
   xmlns:xlink="http://www.w3.org/1999/xlink"
   xmlns="http://www.w3.org/2000/svg"
   xmlns:svg="http://www.w3.org/2000/svg">
  <defs
     id="defs4">
    <radialGradient
       id="disney-plus_svg__a"
       cx="463.58899"
       cy="533.71301"
       r="374.05801"
       gradientTransform="matrix(1.0885105,0,0,1.0885105,61.352771,-397.39295)"
       gradientUnits="userSpaceOnUse">
      <stop
         offset="0.007"
         style="stop-color:#ffffff;stop-opacity:1;"
         id="stop1" />
      <stop
         offset="0.03"
         style="stop-color:#ffffff;stop-opacity:1;"
         id="stop2" />
      <stop
         offset="0.057"
         style="stop-color:#ffffff;stop-opacity:1;"
         id="stop3" />
      <stop
         offset="0.084"
         style="stop-color:#ffffff;stop-opacity:1;"
         id="stop4" />
      <stop
         offset="0.111"
         style="stop-color:#ffffff;stop-opacity:1;"
         id="stop5" />
      <stop
         offset="0.138"
         style="stop-color:#ffffff;stop-opacity:1;"
         id="stop6" />
      <stop
         offset="0.16500001"
         style="stop-color:#ffffff;stop-opacity:1;"
         id="stop7" />
      <stop
         offset="0.191"
         style="stop-color:#fffffe;stop-opacity:1;"
         id="stop8" />
      <stop
         offset="0.21600001"
         style="stop-color:#ffffff;stop-opacity:1;"
         id="stop9" />
      <stop
         offset="1"
         style="stop-color:#ffffff;stop-opacity:0;"
         id="stop10" />
    </radialGradient>
    <linearGradient
       inkscape:collect="always"
       xlink:href="#linearGradient1"
       id="linearGradient12"
       x1="470.57568"
       y1="186.05003"
       x2="89.193024"
       y2="186.05003"
       gradientUnits="userSpaceOnUse"
       gradientTransform="matrix(1.0885105,0,0,1.0885105,61.352771,-93.698527)" />
    <linearGradient
       id="linearGradient1"
       inkscape:collect="always">
      <stop
         style="stop-color:#ffffff;stop-opacity:1;"
         offset="0"
         id="stop11" />
      <stop
         style="stop-color:#ffffff;stop-opacity:0;"
         offset="1"
         id="stop12" />
    </linearGradient>
  </defs>
  <sodipodi:namedview
     id="namedview4"
     pagecolor="#505050"
     bordercolor="#ffffff"
     borderopacity="1"
     inkscape:showpageshadow="0"
     inkscape:pageopacity="0"
     inkscape:pagecheckerboard="1"
     inkscape:deskcolor="#505050"
     inkscape:document-units="pt"
     inkscape:zoom="0.88279674"
     inkscape:cx="276.39432"
     inkscape:cy="158.02052"
     inkscape:window-width="2560"
     inkscape:window-height="1380"
     inkscape:window-x="0"
     inkscape:window-y="0"
     inkscape:window-maximized="1"
     inkscape:current-layer="svg4" />
  <metadata
     id="metadata1">
Created by potrace 1.16, written by Peter Selinger 2001-2019
</metadata>
  <g
     id="g5"
     transform="matrix(1.0469722,0,0,1.0469722,-17.191828,-33.357935)">
    <path
       d="m 481.32573,229.48023 c -7.72842,1.74161 -27.97472,2.83012 -27.97472,2.83012 l -2.61242,8.05498 c 0,0 10.12315,-0.87081 17.52502,-0.10885 0,0 2.39472,-0.2177 2.72127,2.72128 0.10885,2.83012 -0.2177,5.7691 -0.2177,5.7691 0,0 -0.10885,1.85047 -2.72128,2.28587 -2.83012,0.43541 -21.87906,1.19737 -21.87906,1.19737 l -3.15668,10.4497 c 0,0 -1.08851,2.39472 1.41507,1.74161 2.39472,-0.6531 22.42331,-4.35404 25.03574,-3.80978 2.83012,0.6531 5.87795,4.35404 5.00715,7.83727 -1.08851,4.13634 -21.00826,16.98076 -33.19957,16.0011 0,0 -6.42221,0.43541 -11.75592,-8.16382 -5.00714,-8.16383 1.95932,-23.72953 1.95932,-23.72953 0,0 -3.15668,-7.29302 -0.87081,-9.68774 0,0 1.41507,-1.19737 5.33371,-1.52392 l 4.89829,-10.12315 c 0,0 -5.5514,0.32656 -8.92578,-3.70093 -3.15668,-3.91864 -3.37438,-5.66026 -0.97966,-6.74877 2.50357,-1.19736 25.68884,-5.44255 41.68995,-4.89829 0,0 5.5514,-0.54426 10.34085,9.14348 -0.10885,-0.32655 2.28587,3.59209 -1.63277,4.4629 m -60.08577,38.96867 c -2.06817,4.78945 -7.40188,10.0143 -14.15064,6.74877 -6.63991,-3.26554 -17.19847,-24.81804 -17.19847,-24.81804 0,0 -4.02748,-8.05498 -4.78944,-7.83728 0,0 -0.87081,-1.52391 -1.41507,7.18417 -0.54425,8.70808 0.10886,25.90655 -3.37438,28.51897 -3.37438,2.72128 -7.29302,1.63277 -9.47004,-1.52391 -1.85047,-3.15668 -2.72127,-10.4497 -1.63276,-23.51183 1.19736,-12.95327 4.24519,-26.77735 8.05497,-31.13139 3.80979,-4.24519 6.96647,-1.19737 8.16383,0 0,0 5.116,4.68059 13.60638,18.39582 l 1.52392,2.50358 c 0,0 7.72842,12.95327 8.49038,12.95327 0,0 0.6531,0.54426 1.19736,0.10885 0.76196,-0.2177 0.4354,-4.35404 0.4354,-4.35404 0,0 -1.63276,-14.04178 -8.59923,-37.98901 0,0 -1.08851,-3.04783 -0.32655,-5.76911 0.6531,-2.83013 3.48323,-1.52391 3.48323,-1.52391 0,0 10.88511,5.44255 16.21881,23.29412 5.3337,17.85157 1.85046,33.85267 -0.2177,38.75097 m -53.66357,-45.71744 c -0.87081,1.85047 -1.41506,4.4629 -6.09566,5.116 0,0 -44.08467,3.04783 -46.15284,6.09566 0,0 -1.52392,1.85047 0.87081,2.39472 2.39472,0.43541 12.40902,1.85047 17.19846,2.06817 5.116,0 22.53217,0.2177 28.73668,7.94613 0,0 3.70093,3.70093 3.48323,12.08246 -0.10885,8.59924 -1.63276,11.53822 -5.00715,14.6949 -3.48323,2.93897 -33.41727,16.32765 -52.6839,-4.24519 0,0 -8.92579,-9.90545 3.04783,-17.41617 0,0 8.59923,-5.22485 30.47829,0.87081 0,0 6.63991,2.39472 6.31336,4.78944 -0.32655,2.61243 -5.44255,5.3337 -12.84442,5.116 -7.18417,-0.2177 -12.40902,-3.59208 -11.42936,-3.15668 0.97966,0.32655 -7.72843,-4.13634 -10.34085,-1.08851 -2.72128,2.83013 -2.06817,4.57174 0.54425,6.42221 6.74877,3.80979 32.54647,2.50358 40.27489,-6.09566 0,0 3.04783,-3.48323 -1.63277,-6.31336 -4.68059,-2.72127 -17.96042,-4.24519 -23.18527,-4.57174 -5.00715,-0.2177 -23.51182,0 -26.2331,-4.8983 0,0 -2.72128,-3.37438 0.2177,-12.73557 3.15668,-9.90544 24.70919,-13.60638 33.96153,-14.47719 0,0 25.68884,-0.87081 30.36944,4.35404 0.2177,0 0.87081,1.30622 0.10885,3.04783 m -72.82135,57.79991 c -3.15668,2.28587 -9.68774,1.30621 -11.53821,-1.30622 -1.85047,-2.28587 -2.50357,-11.42936 -2.17702,-25.79769 0.32655,-14.47719 0.65311,-32.54647 3.80979,-35.37659 3.37438,-2.93898 5.3337,-0.32656 6.63991,1.63276 1.41506,1.95932 3.04783,4.02749 3.37438,8.59924 0.32656,4.57174 1.41507,28.41012 1.41507,28.41012 0,0 1.41506,21.5525 -1.52392,23.83838 m 6.63992,-77.06654 c -9.03464,3.04783 -15.23915,1.95932 -20.464,-0.2177 -2.28587,4.02748 -3.59208,5.22485 -5.44255,5.5514 -2.61243,0.2177 -4.8983,-3.80979 -5.3337,-5.22485 -0.43541,-0.97966 -1.63277,-2.72128 -0.10885,-6.74877 -5.116,-4.57174 -5.55141,-10.77625 -4.6806,-15.02144 1.30621,-4.78945 10.0143,-23.18527 36.35625,-25.25344 0,0 12.95327,-0.97966 15.13029,5.98681 h 0.32656 c 0,0 12.51787,0 12.30017,11.21165 -0.10886,10.99396 -13.93294,24.92689 -28.08357,29.71634 m -24.60034,-24.81804 c -2.72128,4.24519 -2.83013,6.85762 -1.52391,8.59923 3.04782,-4.68059 8.59923,-11.97361 16.87191,-17.52502 -6.42221,0.54426 -11.75592,3.26554 -15.348,8.92579 m 36.4651,-7.18417 c -8.27268,1.19736 -21.1171,12.40902 -27.21276,21.44366 9.36119,1.74161 25.90655,1.08851 33.30842,-13.82409 -0.2177,0 3.37438,-9.25233 -6.09566,-7.61957 M 538.6903,257.7815 c -5.00714,8.70808 -18.94015,26.77736 -37.55368,22.53216 -6.20451,14.9126 -11.32051,30.04289 -14.25949,52.57506 0,0 -0.6531,4.35404 -4.24519,2.83013 -3.59208,-1.30622 -9.57889,-7.29302 -10.77625,-15.5657 -1.30621,-10.88511 3.59208,-29.38979 13.49753,-50.61574 -2.93898,-4.68059 -4.8983,-11.42936 -3.15668,-21.00825 0,0 2.50357,-17.74272 20.35514,-33.85267 0,0 2.17703,-1.85047 3.37439,-1.30622 1.41506,0.54426 0.76195,6.42221 -0.32656,9.14349 -1.08851,2.83013 -9.14348,16.65421 -9.14348,16.65421 0,0 -5.00715,9.36119 -3.59209,16.65421 9.36119,-14.36834 30.696,-43.54042 43.9759,-34.28808 4.46289,3.15668 6.53106,10.12315 6.53106,17.52502 -0.32655,6.63991 -1.85061,13.49753 -4.6806,18.72238 m -3.91863,-22.74987 c 0,0 -0.76196,-5.7691 -6.31344,0.54426 -4.78944,5.3337 -13.49753,15.34799 -20.46399,28.84552 7.29302,-0.76195 14.36833,-4.78944 16.54536,-6.85761 3.48323,-3.04783 11.53813,-11.42936 10.23192,-22.53217 m -260.04507,7.18417 c -0.97966,12.95327 -5.98681,34.72348 -41.25455,45.49974 -23.29412,6.96646 -45.28203,3.59208 -57.3645,0.54425 -0.21771,4.78945 -0.76196,6.74877 -1.52392,7.61957 -0.97966,0.97966 -8.59923,5.44256 -12.84442,-0.76195 -1.85047,-2.93898 -2.83013,-8.27268 -3.37438,-13.06213 -26.99506,-12.40902 -39.40408,-30.36944 -39.94834,-31.1314 -0.54425,-0.54425 -6.74876,-6.96646 -0.54425,-14.91259 5.7691,-7.07532 24.70919,-14.25949 41.68995,-17.08961 0.54425,-14.58604 2.28587,-25.58 4.35404,-30.58715 2.50357,-5.87795 5.5514,-0.54425 8.27268,3.37438 2.28587,2.93898 3.59208,15.67456 3.70093,25.7977 11.10282,-0.54425 17.74273,0.2177 30.15175,2.50358 16.2188,2.93897 26.99506,11.21165 26.0154,20.57284 -0.65311,9.25234 -9.14349,13.06213 -12.40902,13.27983 -3.37438,0.2177 -8.59923,-2.17702 -8.59923,-2.17702 -3.59209,-1.74162 -0.21771,-3.26553 4.02749,-5.116 4.68059,-2.28587 3.59208,-4.68059 3.59208,-4.68059 -1.74162,-5.116 -22.74987,-8.70809 -43.64927,-8.70809 -0.10885,11.53821 0.4354,30.58715 0.76195,41.7988 14.58605,2.83013 25.58,2.28588 25.58,2.28588 0,0 53.33702,-1.52392 54.96978,-35.5943 1.63277,-34.07037 -53.22816,-66.83454 -93.72075,-77.28424 -40.49259,-10.55855 -63.460162,-3.26553 -65.419481,-2.17702 -2.17702,1.08851 -0.108851,1.41507 -0.108851,1.41507 0,0 2.177021,0.32655 5.986812,1.63276 4.02748,1.30621 0.8708,3.37438 0.8708,3.37438 -6.857612,2.17702 -14.694886,0.76196 -16.2188,-2.39472 -1.523915,-3.15668 0.979659,-5.98681 3.918637,-10.12315 2.938977,-4.24519 6.095658,-4.13634 6.095658,-4.13634 50.071485,-17.30731 111.136925,14.04179 111.136925,14.04179 57.1468,29.06323 66.94339,63.02475 65.85488,76.19573 m -151.19411,-1.74162 c -5.66025,2.83013 -1.74161,6.74877 -1.74161,6.74877 10.6674,11.42936 23.72952,18.61353 36.24739,23.07642 1.41507,-19.81089 1.19737,-26.77736 1.41507,-36.6828 -19.48434,1.41506 -30.696,4.57174 -35.92085,6.85761 m 521.17888,-4.02749 v 7.07532 c 0,1.52392 -1.19736,2.83013 -2.83013,2.83013 h -33.74382 v 4.78944 c 0,10.44971 -0.4354,18.94009 -1.41506,28.51898 -0.10885,1.41506 -1.30622,2.50357 -2.72128,2.50357 h -7.18417 c -0.76196,0 -1.41506,-0.32655 -1.95932,-0.87081 -0.4354,-0.54425 -0.76195,-1.30621 -0.6531,-2.06817 0.97966,-9.57889 1.52391,-17.96042 1.52391,-28.19242 v -4.78944 h -33.30856 c -1.52392,0 -2.83013,-1.19736 -2.83013,-2.83013 v -7.07532 c 0,-1.52391 1.19736,-2.83012 2.83013,-2.83012 h 32.87316 c -0.65311,-11.53821 -2.06817,-22.64102 -4.35404,-33.85268 -0.10886,-0.65311 0,-1.41506 0.4354,-1.95932 0.43526,-0.54425 1.08851,-0.87081 1.74162,-0.87081 h 7.83713 c 1.1975,0 2.28601,0.87081 2.50372,2.06817 2.17702,11.64707 3.59208,22.96757 4.24519,34.50578 h 34.07023 c 1.63276,0.21771 2.93912,1.52392 2.93912,3.04783"
       style="fill:#ffffff;fill-opacity:1;stroke:#74c7ec;stroke-width:0;stroke-dasharray:none;stroke-opacity:1"
       id="path1-3" />
    <path
       d="M 572.8439,180.38841 C 555.42773,137.60995 526.03781,101.14485 487.83116,74.911743 448.64479,48.025536 402.8185,33.8749 355.14174,33.8749 c -78.80815,0 -152.06491,39.186376 -195.71418,104.82356 -0.4354,0.6531 -0.54425,1.63276 -0.32655,2.39472 0.2177,0.87081 0.87081,1.41506 1.74161,1.74162 l 6.09566,2.06817 c 0.32656,0.10885 0.76196,0.10885 1.08851,0.10885 1.08851,0 2.17702,-0.54426 2.83013,-1.52392 20.02859,-29.49863 47.13251,-53.990117 78.37276,-70.862028 32.32876,-17.416168 68.90271,-26.777357 105.80321,-26.777357 44.62893,0 87.62509,13.170976 124.52559,37.989014 35.92078,24.273781 63.89564,58.126461 80.76755,97.965941 0.43526,1.19736 1.63277,1.95932 2.93898,1.95932 h 7.29287 c 0.87096,0 1.63277,-0.43541 2.06832,-1.08851 0.4354,-0.65311 0.54425,-1.52392 0.21756,-2.28587 M 167.91794,143.16135 c -0.10885,0 -0.32655,0 -0.4354,-0.10885 0.10885,0 0.2177,0.10885 0.4354,0.10885 0.10885,0 0,0 0,0 m 393.7143,39.73063 c 0.10885,0.10885 0.32641,0.2177 0.43541,0.2177 -0.10885,-0.10885 -0.32656,-0.10885 -0.43541,-0.2177"
       style="fill:url(#disney-plus_svg__a);stroke:url(#linearGradient12);stroke-width:0;stroke-dasharray:none;stroke-opacity:1"
       id="path10" />
  </g>
</svg>
