<?xml version="1.0" standalone="no"?>
<!DOCTYPE svg PUBLIC "-//W3C//DTD SVG 20010904//EN"
 "http://www.w3.org/TR/2001/REC-SVG-20010904/DTD/svg10.dtd">
<svg version="1.0" xmlns="http://www.w3.org/2000/svg"
 width="272.000000pt" height="320.000000pt" viewBox="0 0 272.000000 320.000000"
 preserveAspectRatio="xMidYMid meet">
<metadata>
Created by potrace 1.16, written by Peter Selinger 2001-2019
</metadata>
<g transform="translate(0.000000,320.000000) scale(0.100000,-0.100000)"
fill="#ffffff" stroke="none">
<path d="M407 1953 l-387 -608 0 -202 0 -203 465 0 465 0 0 -150 0 -150 255 0
255 0 0 246 0 245 67 87 c37 48 77 99 88 113 l22 27 214 -359 214 -358 313 -1
312 0 -48 77 c-327 522 -612 983 -612 987 0 3 141 192 313 419 172 226 317
418 321 425 6 9 -56 12 -296 12 l-303 -1 -289 -390 c-159 -214 -294 -388 -300
-386 -8 3 -12 117 -14 390 l-2 387 -334 0 -333 0 -386 -607z m550 -600 c-2 -2
-99 -2 -215 -1 l-211 3 180 285 c99 157 194 308 212 335 l32 50 3 -334 c1
-184 1 -336 -1 -338z"/>
</g>
</svg>
