<?xml version="1.0" standalone="no"?>
<!DOCTYPE svg PUBLIC "-//W3C//DTD SVG 20010904//EN"
 "http://www.w3.org/TR/2001/REC-SVG-20010904/DTD/svg10.dtd">
<svg version="1.0" xmlns="http://www.w3.org/2000/svg"
 width="1196.000000pt" height="320.000000pt" viewBox="0 0 1196.000000 320.000000"
 preserveAspectRatio="xMidYMid meet">
<metadata>
Created by potrace 1.16, written by Peter Selinger 2001-2019
</metadata>
<g transform="translate(0.000000,320.000000) scale(0.100000,-0.100000)"
fill="#ffffff" stroke="none">
<path d="M1315 2954 c-303 -46 -537 -158 -739 -354 -191 -185 -315 -408 -372
-670 -26 -118 -26 -381 -1 -498 113 -518 490 -896 1007 -1008 118 -26 381 -26
498 -1 518 113 896 490 1008 1007 26 118 26 381 1 498 -56 253 -163 456 -339
638 -179 185 -395 307 -648 365 -83 19 -344 34 -415 23z m285 -154 c120 -16
228 -48 339 -101 330 -157 553 -444 633 -814 18 -86 15 -341 -5 -432 -52 -230
-148 -405 -311 -569 -155 -156 -353 -265 -566 -310 -111 -24 -352 -24 -457 -1
-274 62 -513 213 -674 426 -57 76 -137 228 -168 320 -134 393 -38 828 252
1137 157 168 397 298 617 334 41 6 82 13 90 15 35 7 181 4 250 -5z"/>
<path d="M904 2494 c-63 -43 -134 -105 -134 -118 0 -6 72 -83 159 -170 l159
-159 45 38 44 37 -113 195 c-62 107 -114 197 -117 199 -2 2 -21 -8 -43 -22z"/>
<path d="M1373 2045 c-77 -21 -125 -48 -177 -101 -217 -217 -103 -574 202
-634 245 -49 481 187 432 432 -31 157 -144 274 -298 307 -67 14 -94 13 -159
-4z m182 -163 c193 -94 159 -382 -50 -421 -216 -40 -356 212 -206 372 65 70
172 91 256 49z"/>
<path d="M3487 2634 c-4 -4 -7 -437 -7 -961 l0 -954 543 3 c521 4 545 5 620
26 266 74 427 267 427 512 0 81 -22 170 -57 230 -61 105 -197 199 -320 222
-89 16 -92 19 -36 34 168 44 285 163 319 325 16 79 13 135 -12 229 -41 148
-170 259 -361 312 -74 21 -102 22 -593 26 -283 2 -519 0 -523 -4z m909 -371
c82 -44 121 -117 111 -210 -7 -64 -29 -105 -78 -145 -56 -45 -122 -58 -301
-58 l-158 0 0 221 0 221 193 -4 c175 -3 196 -5 233 -25z m-11 -738 c122 -31
185 -106 185 -219 -1 -109 -48 -178 -150 -218 -49 -18 -77 -21 -250 -22 l-195
-1 -3 238 -2 237 178 0 c127 0 195 -4 237 -15z"/>
<path d="M5147 2633 c-4 -3 -7 -435 -7 -960 l0 -953 235 0 235 0 0 960 0 960
-228 0 c-126 0 -232 -3 -235 -7z"/>
<path d="M7307 2633 c-4 -3 -7 -435 -7 -960 l0 -953 245 0 245 0 0 330 0 330
123 0 122 0 165 -330 165 -330 272 0 c150 0 273 2 273 5 0 3 -83 165 -185 359
-102 194 -185 358 -185 363 0 6 15 17 33 24 17 7 66 47 108 89 58 57 85 93
112 150 103 217 83 501 -47 674 -108 143 -260 220 -486 246 -95 11 -943 14
-953 3z m895 -386 c52 -24 105 -73 131 -121 31 -59 31 -193 0 -252 -28 -53
-92 -110 -140 -125 -21 -6 -120 -14 -220 -16 l-183 -5 0 272 0 272 188 -4
c147 -3 195 -8 224 -21z"/>
<path d="M9450 2189 c-267 -36 -456 -182 -505 -390 -25 -109 -44 -99 194 -99
l208 0 24 48 c64 126 298 140 376 23 18 -26 23 -48 23 -97 0 -45 -4 -64 -12
-64 -95 -1 -441 -35 -504 -50 -176 -42 -304 -131 -360 -253 -26 -56 -29 -72
-28 -167 0 -84 4 -116 22 -160 65 -164 219 -265 423 -277 183 -12 326 50 432
187 l27 35 0 -102 0 -103 235 0 235 0 0 534 c0 612 0 611 -85 719 -109 138
-284 212 -523 222 -59 2 -141 -1 -182 -6z m320 -929 c0 -148 -90 -229 -255
-229 -117 -1 -181 41 -191 126 -7 54 22 102 79 131 46 24 144 37 300 41 l67 1
0 -70z"/>
<path d="M5734 2156 c-3 -7 -4 -247 -2 -532 4 -452 6 -527 21 -577 68 -234
231 -356 474 -357 190 0 323 70 408 216 l40 68 3 -127 3 -127 234 0 235 0 0
725 0 725 -235 0 -235 0 0 -438 c0 -485 -3 -510 -62 -578 -49 -56 -101 -78
-183 -78 -100 1 -157 32 -199 109 -20 39 -21 54 -26 510 l-5 470 -233 3 c-193
2 -233 0 -238 -12z"/>
<path d="M10240 2158 c0 -6 110 -333 245 -726 l246 -714 -18 -37 c-10 -19 -34
-46 -53 -59 -33 -23 -42 -24 -157 -20 l-123 4 0 -168 0 -168 28 -7 c15 -5 106
-8 202 -8 198 0 289 15 400 68 95 44 195 147 249 257 27 56 123 341 281 834
132 413 240 751 240 753 0 2 -110 3 -245 3 -245 0 -245 0 -254 -22 -5 -13 -64
-258 -132 -545 -67 -288 -126 -523 -130 -523 -4 0 -26 78 -48 173 -23 94 -81
339 -129 542 l-88 370 -257 3 c-196 2 -257 -1 -257 -10z"/>
</g>
</svg>
