<?xml version="1.0" standalone="no"?>
<!DOCTYPE svg PUBLIC "-//W3C//DTD SVG 20010904//EN"
 "http://www.w3.org/TR/2001/REC-SVG-20010904/DTD/svg10.dtd">
<svg version="1.0" xmlns="http://www.w3.org/2000/svg"
 width="344.000000pt" height="80.000000pt" viewBox="0 0 344.000000 80.000000"
 preserveAspectRatio="xMidYMid meet">
<metadata>
Created by potrace 1.16, written by Peter Selinger 2001-2019
</metadata>
<g transform="translate(0.000000,80.000000) scale(0.100000,-0.100000)"
fill="#ffffff" stroke="none">
<path d="M150 401 l0 -251 78 0 c99 0 153 25 199 93 65 96 66 214 3 309 -49
72 -89 92 -192 96 l-88 4 0 -251z"/>
<path d="M714 631 c-52 -24 -108 -90 -124 -147 -16 -55 -9 -168 13 -211 23
-43 73 -91 114 -108 20 -9 67 -15 109 -15 l74 0 0 250 0 250 -72 0 c-49 0 -86
-6 -114 -19z"/>
<path d="M1240 590 l0 -40 70 0 70 0 2 -192 3 -193 48 -3 47 -3 0 195 0 196
70 0 70 0 0 40 0 40 -190 0 -190 0 0 -40z"/>
<path d="M2590 394 l0 -235 48 3 47 3 3 98 3 97 94 0 94 0 3 -97 3 -98 115 1
c95 1 123 5 155 22 82 41 117 106 117 215 0 92 -29 150 -97 192 -46 28 -55 30
-172 33 l-123 4 0 -96 0 -96 -95 0 -95 0 0 95 0 95 -50 0 -50 0 0 -236z m535
130 c62 -40 69 -185 11 -242 -20 -20 -38 -27 -86 -30 l-60 -4 0 152 0 153 56
-7 c30 -3 66 -13 79 -22z"/>
<path d="M1765 508 c-11 -6 -25 -19 -32 -27 -11 -14 -12 -13 -13 7 0 20 -5 22
-50 22 l-50 0 2 -172 3 -173 45 0 45 0 5 118 c6 132 13 147 77 147 32 0 33 1
33 45 0 40 -2 45 -22 45 -13 0 -32 -6 -43 -12z"/>
<path d="M2314 502 c-61 -29 -88 -73 -92 -153 -5 -83 22 -140 80 -170 46 -24
128 -25 175 -2 35 16 77 69 67 85 -10 16 -76 8 -101 -12 -26 -20 -58 -25 -88
-14 -14 6 -45 53 -45 69 0 3 55 5 121 5 l121 0 -4 55 c-10 122 -124 188 -234
137z m129 -84 c9 -11 17 -24 17 -29 0 -5 -34 -9 -75 -9 -72 0 -75 1 -65 19 28
52 87 62 123 19z"/>
<path d="M1860 380 c0 -147 9 -179 62 -206 43 -22 102 -13 139 22 l29 28 0
-33 c0 -32 1 -32 43 -29 l42 3 3 173 2 172 -50 0 -50 0 0 -115 c0 -102 -2
-117 -20 -135 -24 -24 -48 -25 -78 -4 -21 14 -22 22 -22 135 l0 119 -50 0 -50
0 0 -130z"/>
</g>
</svg>
