<?xml version="1.0" standalone="no"?>
<!DOCTYPE svg PUBLIC "-//W3C//DTD SVG 20010904//EN"
 "http://www.w3.org/TR/2001/REC-SVG-20010904/DTD/svg10.dtd">
<svg version="1.0" xmlns="http://www.w3.org/2000/svg"
 width="585.000000pt" height="320.000000pt" viewBox="0 0 585.000000 320.000000"
 preserveAspectRatio="xMidYMid meet">
<metadata>
Created by potrace 1.16, written by Peter Selinger 2001-2019
</metadata>
<g transform="translate(0.000000,320.000000) scale(0.100000,-0.100000)"
fill="#ffffff" stroke="none">
<path d="M3450 2315 l0 -165 200 0 200 0 0 165 0 165 -200 0 -200 0 0 -165z"/>
<path d="M30 2405 c0 -3 125 -189 279 -414 l278 -409 -293 -431 -293 -431 229
0 228 0 193 285 c106 157 195 285 198 285 3 0 93 -129 200 -285 l194 -285 224
0 c123 0 223 2 223 5 0 3 -130 197 -290 431 l-289 426 93 137 c260 380 466
683 466 687 0 2 -102 3 -227 2 l-228 -3 -180 -267 c-99 -147 -182 -267 -185
-268 -3 0 -88 122 -189 270 l-183 270 -224 0 c-123 0 -224 -2 -224 -5z"/>
<path d="M4260 1565 l0 -847 388 5 c488 6 607 23 777 106 203 100 349 288 401
516 26 110 26 330 0 440 -65 285 -280 505 -561 575 -140 34 -231 41 -622 47
l-383 6 0 -848z m745 500 c210 -37 353 -176 384 -375 41 -256 -43 -476 -217
-568 -97 -51 -154 -64 -319 -69 l-153 -6 0 517 0 516 113 0 c61 -1 148 -7 192
-15z"/>
<path d="M1784 1973 c4 -10 116 -296 249 -636 l242 -617 223 2 224 3 244 620
c134 341 244 625 244 632 0 10 -43 13 -195 13 -181 0 -195 -1 -205 -19 -5 -11
-76 -203 -156 -428 -81 -224 -149 -411 -153 -415 -3 -4 -76 187 -162 425
l-156 432 -203 3 c-190 2 -202 1 -196 -15z"/>
<path d="M3450 1355 l0 -635 200 0 200 0 0 635 0 635 -200 0 -200 0 0 -635z"/>
</g>
</svg>
