<?xml version="1.0" standalone="no"?>
<!DOCTYPE svg PUBLIC "-//W3C//DTD SVG 20010904//EN"
 "http://www.w3.org/TR/2001/REC-SVG-20010904/DTD/svg10.dtd">
<svg version="1.0" xmlns="http://www.w3.org/2000/svg"
 width="112.000000pt" height="80.000000pt" viewBox="0 0 112.000000 80.000000"
 preserveAspectRatio="xMidYMid meet">
<metadata>
Created by potrace 1.16, written by Peter Selinger 2001-2019
</metadata>
<g transform="translate(0.000000,80.000000) scale(0.100000,-0.100000)"
fill="#ffffff" stroke="none">
<path d="M246 573 c-4 -38 -9 -93 -13 -124 l-5 -56 41 -7 c30 -5 48 -2 64 9
26 18 76 19 98 2 64 -49 37 -147 -40 -147 -42 0 -54 7 -70 38 -9 18 -20 22
-56 22 -53 0 -59 -17 -22 -71 45 -68 148 -89 234 -48 60 29 87 82 81 157 -4
49 -9 59 -46 94 -35 33 -48 38 -87 38 -25 0 -60 -7 -77 -16 -31 -16 -31 -16
-25 8 4 12 7 38 7 56 l0 32 105 0 105 0 0 40 0 40 -144 0 -144 0 -6 -67z"/>
<path d="M748 603 c-57 -35 -58 -37 -58 -81 l0 -44 28 17 c15 10 36 24 47 32
11 7 23 13 27 13 5 0 8 -83 8 -186 l0 -185 48 3 47 3 3 233 2 232 -47 0 c-37
-1 -61 -9 -105 -37z"/>
<path d="M610 260 c-11 -11 -20 -26 -20 -33 0 -24 31 -57 55 -57 52 0 74 65
33 94 -30 21 -44 20 -68 -4z"/>
</g>
</svg>
