<?xml version="1.0" standalone="no"?>
<!DOCTYPE svg PUBLIC "-//W3C//DTD SVG 20010904//EN"
 "http://www.w3.org/TR/2001/REC-SVG-20010904/DTD/svg10.dtd">
<svg version="1.0" xmlns="http://www.w3.org/2000/svg"
 width="575.000000pt" height="320.000000pt" viewBox="0 0 575.000000 320.000000"
 preserveAspectRatio="xMidYMid meet">
<metadata>
Created by potrace 1.16, written by Peter Selinger 2001-2019
</metadata>
<g transform="translate(0.000000,320.000000) scale(0.100000,-0.100000)"
fill="#ffffff" stroke="none">
<path d="M1900 2315 l0 -165 205 0 205 0 0 165 0 165 -205 0 -205 0 0 -165z"/>
<path d="M0 1565 l0 -847 388 5 c391 5 479 12 616 47 215 55 392 192 489 379
126 240 126 592 1 831 -97 185 -281 328 -491 380 -138 34 -230 41 -620 47
l-383 6 0 -848z m743 500 c254 -45 397 -225 397 -500 0 -204 -84 -367 -228
-443 -97 -51 -154 -64 -319 -69 l-153 -6 0 517 0 516 113 0 c61 -1 147 -7 190
-15z"/>
<path d="M4086 2398 c4 -7 131 -194 281 -415 l273 -401 -290 -427 c-159 -235
-290 -429 -290 -431 0 -3 102 -3 227 -2 l226 3 191 282 c105 155 193 283 196
283 3 0 93 -128 200 -285 l195 -285 227 0 226 0 -289 426 c-159 234 -289 430
-289 436 0 5 124 192 275 414 151 222 275 406 275 409 0 3 -102 4 -226 3
l-227 -3 -181 -267 c-99 -148 -183 -268 -186 -268 -3 1 -86 121 -186 268
l-180 267 -228 3 c-182 2 -226 0 -220 -10z"/>
<path d="M1907 1984 c-4 -4 -7 -290 -7 -636 l0 -628 205 0 205 0 -2 633 -3
632 -196 3 c-107 1 -198 -1 -202 -4z"/>
<path d="M2540 1983 c0 -4 111 -290 247 -635 l246 -628 222 0 222 0 243 617
c133 339 245 625 248 635 4 17 -7 18 -196 18 -161 0 -201 -3 -205 -14 -3 -7
-72 -198 -152 -422 -81 -225 -151 -415 -155 -423 -5 -9 -12 0 -23 30 -20 60
-284 790 -292 812 -6 15 -26 17 -206 17 -109 0 -199 -3 -199 -7z"/>
</g>
</svg>
