<?xml version="1.0" standalone="no"?>
<!DOCTYPE svg PUBLIC "-//W3C//DTD SVG 20010904//EN"
 "http://www.w3.org/TR/2001/REC-SVG-20010904/DTD/svg10.dtd">
<svg version="1.0" xmlns="http://www.w3.org/2000/svg"
 width="112.000000pt" height="80.000000pt" viewBox="0 0 112.000000 80.000000"
 preserveAspectRatio="xMidYMid meet">
<metadata>
Created by potrace 1.16, written by Peter Selinger 2001-2019
</metadata>
<g transform="translate(0.000000,80.000000) scale(0.100000,-0.100000)"
fill="#ffffff" stroke="none">
<path d="M345 638 c-74 -27 -123 -105 -132 -208 -14 -171 67 -271 208 -258 85
9 140 64 146 150 3 41 -1 60 -16 86 -26 41 -77 72 -119 72 -42 0 -97 -23 -111
-47 -9 -16 -10 -15 -11 10 -1 97 88 153 145 91 20 -21 31 -25 69 -22 l45 3
-18 41 c-32 70 -131 110 -206 82z m99 -249 c33 -26 37 -88 6 -119 -27 -27 -83
-27 -110 0 -29 29 -27 84 5 115 30 30 64 32 99 4z"/>
<path d="M753 603 c-50 -34 -53 -38 -53 -80 l0 -44 44 31 c25 16 49 30 55 30
8 0 11 -60 11 -186 l0 -185 48 3 47 3 3 233 2 232 -52 -1 c-44 0 -62 -7 -105
-36z"/>
<path d="M622 264 c-12 -8 -22 -26 -22 -39 0 -52 65 -74 94 -33 21 30 20 44
-4 68 -24 24 -38 25 -68 4z"/>
</g>
</svg>
