<?xml version="1.0" standalone="no"?>
<!DOCTYPE svg PUBLIC "-//W3C//DTD SVG 20010904//EN"
 "http://www.w3.org/TR/2001/REC-SVG-20010904/DTD/svg10.dtd">
<svg version="1.0" xmlns="http://www.w3.org/2000/svg"
 width="978.000000pt" height="320.000000pt" viewBox="0 0 978.000000 320.000000"
 preserveAspectRatio="xMidYMid meet">
<metadata>
Created by potrace 1.16, written by Peter Selinger 2001-2019
</metadata>
<g transform="translate(0.000000,320.000000) scale(0.100000,-0.100000)"
fill="#ffffff" stroke="none">
<path d="M710 2471 c-349 -75 -619 -346 -691 -696 -127 -616 430 -1173 1046
-1046 329 68 581 301 682 628 24 79 27 103 27 243 0 140 -3 164 -27 243 -50
162 -124 283 -244 398 -211 203 -510 290 -793 230z m375 -126 c261 -70 462
-267 547 -535 19 -63 23 -96 23 -210 0 -114 -4 -147 -23 -210 -85 -270 -285
-465 -552 -537 -100 -27 -291 -24 -394 5 -138 40 -229 94 -337 202 -82 81
-102 109 -142 190 -66 135 -82 200 -82 350 0 150 16 215 82 350 40 81 60 109
142 190 127 127 244 188 431 224 49 9 246 -3 305 -19z"/>
<path d="M690 1601 l0 -311 63 35 c34 19 158 88 274 152 117 65 213 120 213
123 0 3 -93 57 -207 120 -113 63 -237 132 -275 153 l-68 39 0 -311z"/>
<path d="M8090 2350 l0 -130 160 0 160 0 0 130 0 130 -160 0 -160 0 0 -130z"/>
<path d="M2290 1760 l0 -662 328 5 c278 4 341 8 418 25 239 53 401 199 471
427 14 46 18 93 18 205 0 112 -4 159 -18 205 -70 229 -231 374 -471 427 -77
17 -140 21 -418 25 l-328 5 0 -662z m613 385 c76 -20 124 -45 170 -90 76 -74
114 -195 104 -333 -8 -114 -38 -186 -106 -253 -83 -81 -140 -101 -308 -107
l-133 -4 0 401 0 401 108 0 c63 0 131 -6 165 -15z"/>
<path d="M3642 2408 c2 -7 112 -304 244 -660 l239 -648 205 0 205 0 239 648
c131 356 241 653 244 660 3 10 -32 12 -168 10 l-172 -3 -171 -477 c-94 -263
-174 -478 -177 -478 -3 0 -77 199 -164 443 -88 243 -166 459 -174 480 l-14 37
-170 0 c-132 0 -169 -3 -166 -12z"/>
<path d="M5200 1760 l0 -660 265 0 c383 0 510 17 655 88 93 45 200 149 248
239 99 188 99 479 0 666 -43 80 -146 184 -228 230 -137 76 -285 97 -675 97
l-265 0 0 -660z m663 371 c156 -61 227 -177 227 -372 0 -268 -146 -399 -442
-399 l-108 0 0 401 0 401 133 -4 c105 -4 144 -9 190 -27z"/>
<path d="M6710 1761 l0 -661 170 0 170 0 0 250 0 250 61 0 c91 0 147 -18 190
-61 24 -24 71 -105 138 -238 l102 -201 179 0 179 0 -99 204 c-54 113 -114 229
-133 258 -39 61 -105 124 -150 143 l-30 13 48 21 c74 33 130 84 162 149 26 52
28 66 28 172 0 99 -3 121 -23 161 -42 86 -114 141 -235 177 -41 12 -123 16
-404 19 l-353 5 0 -661z m605 390 c52 -23 75 -68 75 -146 0 -126 -49 -163
-231 -172 l-109 -6 0 178 0 178 112 -7 c74 -4 125 -13 153 -25z"/>
<path d="M9223 2091 c-63 -22 -125 -63 -164 -110 l-29 -36 0 73 0 72 -160 0
-160 0 0 -685 0 -685 160 0 160 0 0 256 0 256 55 -50 c65 -60 121 -88 201
-103 230 -43 430 116 481 384 31 163 -3 352 -84 475 -45 67 -116 124 -188 151
-72 27 -198 28 -272 2z m117 -232 c78 -44 116 -149 108 -300 -9 -155 -69 -240
-180 -255 -50 -7 -107 7 -150 38 -99 69 -118 353 -32 466 42 54 80 72 153 72
46 0 74 -6 101 -21z"/>
<path d="M8090 1595 l0 -495 160 0 160 0 0 495 0 495 -160 0 -160 0 0 -495z"/>
</g>
</svg>
