<?xml version="1.0" standalone="no"?>
<!DOCTYPE svg PUBLIC "-//W3C//DTD SVG 20010904//EN"
 "http://www.w3.org/TR/2001/REC-SVG-20010904/DTD/svg10.dtd">
<svg version="1.0" xmlns="http://www.w3.org/2000/svg"
 width="1193.000000pt" height="320.000000pt" viewBox="0 0 1193.000000 320.000000"
 preserveAspectRatio="xMidYMid meet">
<metadata>
Created by potrace 1.16, written by Peter Selinger 2001-2019
</metadata>
<g transform="translate(0.000000,320.000000) scale(0.100000,-0.100000)"
fill="#ffffff" stroke="none">
<path d="M710 2471 c-349 -75 -619 -346 -691 -696 -99 -477 214 -946 696
-1046 221 -46 467 0 657 123 81 52 199 166 250 242 53 77 111 204 134 291 26
98 26 332 0 430 -23 87 -81 214 -134 291 -51 76 -169 190 -250 242 -190 123
-441 169 -662 123z m395 -131 c186 -59 332 -167 432 -322 56 -87 87 -161 107
-260 71 -345 -94 -687 -409 -846 -118 -59 -196 -77 -340 -77 -153 0 -240 21
-369 88 -114 58 -255 199 -313 313 -66 127 -87 216 -87 364 0 226 63 380 224
540 126 127 242 187 430 224 61 12 256 -3 325 -24z"/>
<path d="M690 1601 l0 -311 63 35 c34 19 158 88 274 152 117 65 213 120 213
123 0 4 -194 114 -472 268 l-78 43 0 -310z"/>
<path d="M8393 2470 c-281 -36 -454 -192 -485 -438 -30 -237 59 -406 267 -503
61 -28 141 -53 278 -85 105 -24 212 -52 237 -61 131 -50 170 -183 79 -274 -52
-52 -114 -69 -250 -69 -170 0 -336 41 -517 127 l-82 39 0 -183 0 -183 28 -11
c60 -23 233 -68 327 -85 138 -25 438 -25 545 -1 153 35 287 122 347 225 59
101 87 275 64 407 -25 144 -99 242 -230 308 -94 47 -164 68 -381 112 -201 41
-270 68 -300 117 -24 39 -26 107 -5 148 68 131 413 135 733 9 40 -16 75 -29
77 -29 3 0 4 80 3 177 l-3 177 -94 23 c-205 49 -486 72 -638 53z"/>
<path d="M2290 1601 l0 -851 273 0 c439 0 654 21 810 77 240 86 407 266 479
518 20 70 23 102 23 255 0 153 -3 185 -23 255 -47 162 -125 286 -241 382 -88
72 -148 106 -256 142 -145 48 -275 61 -692 68 l-373 6 0 -852z m795 489 c227
-58 345 -224 345 -485 0 -208 -65 -347 -202 -435 -89 -58 -192 -82 -362 -83
l-141 -2 -3 505 c-1 278 0 511 3 519 8 21 257 7 360 -19z"/>
<path d="M4020 2443 c0 -5 140 -387 312 -851 l312 -842 261 2 260 3 312 840
c172 462 312 843 313 848 0 4 -98 7 -218 7 l-218 0 -224 -626 c-124 -344 -226
-622 -228 -617 -2 4 -103 285 -225 623 l-222 615 -217 3 c-120 1 -218 -1 -218
-5z"/>
<path d="M6020 1601 l0 -851 273 0 c456 0 661 21 827 83 110 42 188 94 275
182 150 154 215 331 215 585 0 253 -69 439 -219 589 -78 79 -155 132 -249 170
-159 65 -288 80 -749 88 l-373 6 0 -852z m795 489 c229 -58 345 -224 345 -490
0 -168 -41 -282 -134 -375 -98 -98 -215 -136 -428 -138 l-138 -2 0 513 c0 281
0 515 0 519 0 13 279 -8 355 -27z"/>
<path d="M10058 2040 c-257 -44 -443 -193 -514 -415 -35 -107 -43 -273 -20
-395 45 -240 214 -416 463 -481 162 -42 405 -34 578 19 l60 18 3 167 2 167
-47 -30 c-81 -52 -173 -75 -294 -75 -101 0 -109 2 -175 35 -126 64 -180 169
-178 345 1 120 24 190 85 258 62 71 133 101 249 105 111 5 191 -13 284 -61 34
-18 64 -33 69 -35 4 -2 7 70 7 161 l0 165 -77 20 c-43 12 -105 26 -137 31 -68
12 -287 13 -358 1z"/>
<path d="M11670 2036 c-97 -27 -170 -79 -242 -169 l-38 -49 0 101 0 101 -205
0 -205 0 2 -632 3 -633 203 -3 202 -2 0 323 c0 190 4 348 11 383 22 120 93
214 191 250 78 30 222 20 321 -21 16 -7 17 4 15 176 l-3 184 -105 2 c-60 1
-124 -4 -150 -11z"/>
</g>
</svg>
