<?xml version="1.0" standalone="no"?>
<!DOCTYPE svg PUBLIC "-//W3C//DTD SVG 20010904//EN"
 "http://www.w3.org/TR/2001/REC-SVG-20010904/DTD/svg10.dtd">
<svg version="1.0" xmlns="http://www.w3.org/2000/svg"
 width="504.000000pt" height="320.000000pt" viewBox="0 0 504.000000 320.000000"
 preserveAspectRatio="xMidYMid meet">
<metadata>
Created by potrace 1.16, written by Peter Selinger 2001-2019
</metadata>
<g transform="translate(0.000000,320.000000) scale(0.100000,-0.100000)"
fill="#ffffff" stroke="none">
<path d="M0 1600 l0 -930 195 0 195 0 0 385 0 385 400 0 400 0 0 -385 0 -385
200 0 200 0 0 930 0 930 -200 0 -200 0 0 -385 0 -385 -397 2 -398 3 -3 383 -2
382 -195 0 -195 0 0 -930z"/>
<path d="M1810 1600 l0 -930 384 0 c415 0 486 6 635 56 158 53 319 179 407
320 159 255 189 678 69 977 -85 212 -268 382 -490 456 -136 45 -211 51 -626
51 l-379 0 0 -930z m865 561 c216 -78 307 -246 306 -561 0 -317 -91 -483 -306
-561 -53 -19 -86 -23 -267 -27 l-208 -4 0 592 0 592 208 -4 c181 -4 214 -8
267 -27z"/>
<path d="M3570 1601 l0 -931 195 0 195 0 0 330 0 330 144 0 144 0 175 -327
175 -328 216 -3 c119 -1 216 0 216 4 0 3 -85 162 -190 353 -104 191 -190 351
-190 357 0 5 28 25 61 44 202 115 298 369 243 638 -44 218 -194 371 -429 439
-52 15 -120 18 -507 21 l-448 3 0 -930z m821 585 c110 -40 169 -129 169 -255
0 -101 -16 -147 -70 -201 -67 -68 -120 -80 -348 -80 l-182 0 0 281 0 281 193
-4 c146 -4 203 -9 238 -22z"/>
</g>
</svg>
