<?xml version="1.0" standalone="no"?>
<!DOCTYPE svg PUBLIC "-//W3C//DTD SVG 20010904//EN"
 "http://www.w3.org/TR/2001/REC-SVG-20010904/DTD/svg10.dtd">
<svg version="1.0" xmlns="http://www.w3.org/2000/svg"
 width="1053.000000pt" height="320.000000pt" viewBox="0 0 1053.000000 320.000000"
 preserveAspectRatio="xMidYMid meet">
<metadata>
Created by potrace 1.16, written by Peter Selinger 2001-2019
</metadata>
<g transform="translate(0.000000,320.000000) scale(0.100000,-0.100000)"
fill="#ffffff" stroke="none">
<path d="M1205 2553 c-543 -35 -1048 -212 -1159 -404 -18 -31 -16 -30 28 14
114 114 341 198 663 247 262 40 734 37 1033 -6 513 -74 888 -241 1001 -444
l30 -55 -6 105 c-8 129 -25 170 -104 243 -206 190 -704 311 -1259 305 -97 -1
-199 -3 -227 -5z"/>
<path d="M4633 2519 c-22 -11 -54 -39 -70 -61 l-28 -41 -3 -282 -3 -282 -262
-6 c-301 -6 -374 -19 -515 -89 -191 -94 -311 -287 -312 -500 -1 -266 207 -500
514 -578 74 -19 111 -20 601 -20 l523 0 53 28 c64 33 112 97 128 172 7 32 11
192 11 420 l0 370 175 0 175 0 0 -267 c0 -297 8 -361 59 -470 36 -76 117 -160
189 -197 113 -57 91 -56 1042 -56 858 0 876 1 920 21 99 45 160 132 168 241 9
123 -2 143 -173 318 -164 167 -183 197 -171 273 15 95 80 137 210 137 115 0
126 10 126 115 l0 75 -490 0 c-463 0 -492 -1 -542 -20 -70 -26 -117 -66 -153
-131 -27 -48 -30 -63 -30 -139 0 -116 17 -143 190 -320 114 -115 145 -153 154
-185 20 -77 -13 -151 -84 -185 -41 -20 -57 -21 -267 -18 -217 3 -225 4 -273
28 -55 28 -107 95 -125 158 -6 21 -10 161 -10 330 l0 292 123 0 c154 0 157 2
157 113 l0 77 -140 0 -140 0 0 301 c0 283 -1 301 -17 295 -10 -4 -174 -75
-365 -158 l-348 -152 0 -143 0 -143 -180 0 -180 0 0 350 0 350 -297 0 c-281 0
-300 -1 -340 -21z m-103 -1262 c0 -292 -3 -396 -12 -405 -16 -16 -92 -15 -162
3 -156 41 -238 169 -239 375 -1 147 28 241 99 320 58 64 143 95 272 99 l42 1
0 -393z"/>
<path d="M1140 2300 c-466 -44 -850 -163 -1018 -316 l-62 -56 -17 32 c-40 71
-42 70 -43 -16 0 -117 20 -173 84 -237 318 -314 1384 -421 2149 -216 42 12 77
25 77 29 0 13 56 -6 152 -51 48 -23 85 -46 82 -50 -9 -15 -165 -70 -269 -95
-202 -48 -352 -65 -632 -71 -287 -6 -426 3 -663 43 -486 82 -856 253 -953 439
l-26 50 0 -85 c-1 -47 4 -103 10 -125 56 -200 434 -363 980 -421 220 -23 695
-15 894 15 266 41 469 101 632 185 l82 43 53 -42 c87 -69 87 -67 27 -115 -129
-101 -334 -170 -644 -217 -175 -26 -713 -26 -905 0 -568 77 -997 258 -1105
466 l-24 46 -1 -83 c0 -131 13 -166 89 -243 141 -140 422 -241 828 -296 101
-14 199 -17 463 -17 296 0 352 3 480 22 394 61 671 163 825 304 62 57 59 57
96 -17 l20 -40 -4 106 c-3 93 -7 112 -30 152 -189 321 -1157 487 -1967 337
-124 -24 -289 -67 -305 -80 -13 -10 -102 22 -200 73 l-50 25 58 27 c408 181
1282 188 1887 14 295 -85 529 -228 590 -360 l20 -44 -3 105 c-4 127 -19 162
-102 238 -139 127 -393 219 -755 273 -138 21 -191 24 -475 24 -255 0 -347 -4
-455 -18 -293 -40 -523 -101 -703 -184 -110 -52 -108 -52 -188 17 l-44 38 29
31 c33 34 152 99 253 137 441 166 1336 154 1883 -26 283 -92 466 -211 534
-345 l25 -50 1 85 c0 47 -5 103 -11 125 -54 193 -386 350 -890 420 -135 19
-615 28 -759 15z m450 -620 c212 -20 573 -88 627 -119 11 -5 -15 -14 -78 -25
-327 -58 -697 -60 -1074 -5 -236 34 -495 96 -458 110 31 11 216 38 333 49 124
10 487 5 650 -10z"/>
<path d="M9140 1445 l-785 -785 300 0 300 0 210 210 210 210 115 -115 115
-115 320 0 320 0 -275 275 -275 275 415 415 415 415 -300 0 -300 0 -785 -785z"/>
<path d="M8687 1768 l273 -273 160 160 160 160 -112 112 -113 113 -320 0 -320
0 272 -272z"/>
<path d="M5 1195 c3 -49 11 -106 17 -125 67 -214 472 -375 1053 -421 164 -13
516 -7 675 11 494 57 854 189 987 363 46 60 41 61 -19 2 -117 -112 -346 -197
-673 -247 -172 -26 -547 -35 -751 -18 -625 51 -1127 240 -1266 475 l-30 50 7
-90z"/>
</g>
</svg>
