<?xml version="1.0" standalone="no"?>
<!DOCTYPE svg PUBLIC "-//W3C//DTD SVG 20010904//EN"
 "http://www.w3.org/TR/2001/REC-SVG-20010904/DTD/svg10.dtd">
<svg version="1.0" xmlns="http://www.w3.org/2000/svg"
 width="686.000000pt" height="320.000000pt" viewBox="0 0 686.000000 320.000000"
 preserveAspectRatio="xMidYMid meet">
<metadata>
Created by potrace 1.16, written by Peter Selinger 2001-2019
</metadata>
<g transform="translate(0.000000,320.000000) scale(0.100000,-0.100000)"
fill="#ffffff" stroke="none">
<path d="M4213 2796 c-250 -48 -427 -171 -552 -383 -169 -288 -184 -814 -32
-1128 76 -159 170 -256 316 -326 117 -57 208 -72 385 -66 112 3 161 9 215 27
227 72 384 229 441 440 24 88 24 271 0 360 -53 195 -211 350 -416 406 -47 13
-102 18 -195 18 -150 1 -208 -13 -323 -75 l-73 -39 7 38 c44 261 166 394 388
422 127 16 335 -19 446 -75 69 -35 66 -44 60 147 l-5 172 -45 14 c-177 53
-471 76 -617 48z m214 -992 c36 -22 55 -44 78 -89 29 -57 30 -62 30 -199 0
-131 -2 -145 -26 -197 -42 -90 -110 -129 -223 -129 -172 0 -256 122 -243 355
7 124 20 166 72 222 52 57 100 74 192 70 59 -3 82 -10 120 -33z"/>
<path d="M80 2259 c0 -492 1 -521 18 -514 277 113 552 129 691 41 92 -59 133
-138 133 -256 0 -98 -26 -163 -89 -221 -153 -141 -428 -128 -755 37 -37 19
-70 34 -73 34 -3 0 -5 -83 -5 -184 l0 -185 57 -21 c204 -76 380 -104 613 -97
192 5 278 24 409 88 159 78 277 227 312 394 18 84 15 256 -5 335 -28 112 -72
188 -155 270 -84 84 -155 124 -281 160 -127 36 -385 38 -475 4 -13 -5 -15 14
-15 140 l0 146 405 0 405 0 0 175 0 175 -595 0 -595 0 0 -521z"/>
<path d="M1760 2605 l0 -175 445 0 c245 0 445 -2 445 -5 0 -2 -153 -340 -340
-750 -187 -410 -340 -748 -340 -750 0 -3 105 -5 233 -5 l232 0 363 794 362
794 0 136 0 136 -700 0 -700 0 0 -175z"/>
<path d="M6134 2336 c-94 -22 -179 -70 -258 -147 -39 -38 -72 -69 -73 -69 -2
0 -3 43 -3 95 l0 95 -220 0 -220 0 0 -960 0 -960 220 0 220 0 0 360 c0 198 2
360 4 360 2 0 32 -28 67 -62 112 -110 232 -158 394 -158 165 0 266 41 381 155
150 148 223 364 211 615 -14 283 -127 502 -318 618 -101 61 -279 87 -405 58z
m70 -328 c59 -18 128 -90 155 -163 62 -164 45 -402 -37 -527 -63 -97 -233
-138 -343 -83 -131 66 -194 241 -169 468 24 211 119 317 283 317 38 0 88 -6
111 -12z"/>
</g>
</svg>
