<?xml version="1.0" standalone="no"?>
<!DOCTYPE svg PUBLIC "-//W3C//DTD SVG 20010904//EN"
 "http://www.w3.org/TR/2001/REC-SVG-20010904/DTD/svg10.dtd">
<svg version="1.0" xmlns="http://www.w3.org/2000/svg"
 width="1200.000000pt" height="320.000000pt" viewBox="0 0 1200.000000 320.000000"
 preserveAspectRatio="xMidYMid meet">
<metadata>
Created by potrace 1.16, written by Peter Selinger 2001-2019
</metadata>
<g transform="translate(0.000000,320.000000) scale(0.100000,-0.100000)"
fill="#ffffff" stroke="none">
<path d="M1305 2874 c-316 -48 -543 -160 -756 -373 -188 -188 -299 -391 -355
-651 -26 -118 -26 -381 -1 -498 113 -518 490 -896 1007 -1008 118 -26 381 -26
498 -1 518 113 896 490 1008 1007 26 118 26 381 1 498 -59 269 -179 485 -374
673 -174 168 -372 275 -613 330 -83 19 -344 34 -415 23z m-380 -746 c119 -123
223 -226 231 -231 9 -5 25 1 47 17 18 14 60 38 92 53 53 25 72 28 155 28 86 0
102 -3 162 -32 124 -58 204 -161 231 -295 l13 -63 321 -3 c258 -2 323 -5 332
-16 28 -33 -25 -288 -88 -429 -58 -129 -182 -297 -220 -297 -9 0 -117 101
-241 225 l-226 225 -34 -26 c-106 -80 -249 -105 -369 -64 -148 50 -234 147
-271 305 l-16 70 -326 3 c-275 2 -327 5 -332 17 -8 22 11 170 34 259 23 91 91
239 148 322 46 68 120 154 132 154 5 0 106 -100 225 -222z"/>
<path d="M1354 1816 c-154 -72 -191 -266 -73 -385 93 -93 245 -93 338 0 97 98
93 250 -9 342 -78 70 -166 85 -256 43z"/>
<path d="M3477 2553 c-4 -3 -7 -435 -7 -960 l0 -953 245 0 245 0 0 330 0 330
125 0 125 0 165 -330 165 -330 274 0 274 0 -189 362 c-104 199 -189 364 -189
367 0 3 21 17 47 31 160 84 273 302 273 524 -1 359 -215 583 -595 626 -99 11
-948 14 -958 3z m903 -389 c60 -28 126 -101 140 -156 7 -24 10 -75 8 -115 -4
-58 -11 -82 -34 -120 -61 -98 -149 -126 -389 -121 l-140 3 -3 268 -2 269 187
-4 c164 -3 194 -6 233 -24z"/>
<path d="M5665 2110 c-168 -27 -281 -83 -390 -194 -135 -136 -192 -282 -202
-506 -15 -344 115 -601 362 -720 130 -63 187 -74 370 -74 185 0 257 14 375 72
143 70 281 239 305 375 l7 37 -210 0 c-197 0 -211 -1 -217 -19 -10 -31 -76
-93 -123 -113 -31 -14 -67 -20 -123 -20 -68 0 -87 4 -137 28 -84 42 -125 108
-147 237 l-6 37 487 0 486 0 -4 163 c-4 140 -9 173 -31 242 -72 218 -243 379
-464 436 -91 23 -253 32 -338 19z m218 -341 c73 -20 152 -115 172 -206 l7 -33
-261 0 c-293 0 -275 -6 -242 79 52 138 179 201 324 160z"/>
<path d="M7370 2107 c-125 -29 -230 -110 -289 -223 l-30 -59 -1 133 0 132
-235 0 -235 0 0 -725 0 -725 235 0 234 0 3 473 3 474 30 48 c79 127 275 129
345 4 l25 -44 3 -478 3 -477 224 0 225 0 0 453 c0 272 4 466 10 488 26 94 101
149 200 149 78 0 137 -31 170 -90 l25 -45 3 -477 3 -478 234 0 235 0 0 530 c0
350 -4 547 -11 582 -17 82 -58 158 -117 220 -100 105 -193 143 -347 141 -107
-1 -177 -19 -260 -67 -59 -35 -132 -118 -162 -183 l-26 -56 -22 60 c-53 147
-180 237 -348 248 -40 3 -96 -1 -127 -8z"/>
<path d="M8900 1573 c0 -561 3 -598 55 -708 36 -75 124 -168 188 -199 108 -53
243 -69 368 -46 122 23 236 107 298 220 l31 55 0 -127 0 -128 240 0 240 0 -2
723 -3 722 -235 0 -235 0 -5 -460 c-5 -460 -5 -460 -29 -508 -45 -92 -155
-141 -263 -117 -73 15 -110 42 -144 102 l-29 53 -3 468 -3 467 -234 0 -235 0
0 -517z"/>
<path d="M10354 2074 c3 -8 98 -171 211 -361 113 -190 205 -350 205 -356 0 -5
-94 -166 -210 -358 -115 -191 -210 -350 -210 -353 0 -3 108 -6 240 -6 l241 0
115 233 c63 127 118 233 122 235 4 1 60 -104 125 -233 l117 -235 256 0 c140 0
253 3 251 8 -2 4 -100 168 -216 364 l-211 357 215 356 c118 196 215 358 215
360 0 3 -112 5 -249 5 -187 0 -251 -3 -258 -12 -6 -7 -54 -110 -108 -228 -54
-118 -101 -219 -105 -223 -4 -4 -51 88 -104 205 -54 117 -104 223 -112 236
-14 22 -16 22 -275 22 -232 0 -260 -2 -255 -16z"/>
</g>
</svg>
