<?xml version="1.0" standalone="no"?>
<!DOCTYPE svg PUBLIC "-//W3C//DTD SVG 20010904//EN"
 "http://www.w3.org/TR/2001/REC-SVG-20010904/DTD/svg10.dtd">
<svg version="1.0" xmlns="http://www.w3.org/2000/svg"
 width="737.000000pt" height="320.000000pt" viewBox="0 0 737.000000 320.000000"
 preserveAspectRatio="xMidYMid meet">
<metadata>
Created by potrace 1.16, written by Peter Selinger 2001-2019
</metadata>
<g transform="translate(0.000000,320.000000) scale(0.100000,-0.100000)"
fill="#ffffff" stroke="none">
<path d="M3170 2466 c-81 -12 -206 -40 -325 -74 l-30 -8 -3 -186 -2 -185 127
64 c143 71 252 103 352 103 84 0 127 -12 187 -53 70 -47 104 -116 104 -211 -1
-146 -32 -184 -444 -546 l-335 -295 -1 -163 0 -162 618 2 617 3 3 157 3 158
-371 0 c-203 0 -370 3 -370 8 0 4 94 89 208 189 292 255 408 377 463 487 41
83 43 91 47 195 4 91 1 121 -16 178 -50 162 -176 273 -369 324 -101 27 -328
34 -463 15z"/>
<path d="M5054 2470 c-194 -25 -370 -119 -481 -259 -59 -75 -129 -218 -153
-313 -59 -236 -47 -538 29 -748 72 -197 211 -336 395 -397 73 -24 96 -27 231
-27 166 0 230 12 341 66 203 99 314 285 314 528 0 344 -246 565 -610 547 -116
-6 -193 -28 -274 -78 l-48 -30 7 47 c12 79 43 169 78 220 122 182 390 213 700
80 l38 -16 -3 157 -3 157 -60 18 c-139 43 -367 64 -501 48z m137 -908 c45 -23
59 -37 83 -85 55 -108 45 -319 -20 -404 -39 -51 -91 -73 -174 -73 -74 0 -128
19 -162 57 -79 87 -90 334 -19 443 57 89 188 116 292 62z"/>
<path d="M0 1600 l0 -850 220 0 220 0 0 360 0 360 320 0 320 0 2 -358 3 -357
218 -3 217 -2 0 850 0 850 -220 0 -220 0 0 -325 0 -325 -320 0 -320 0 0 325 0
325 -220 0 -220 0 0 -850z"/>
<path d="M6301 1943 l-341 -507 0 -188 0 -188 375 0 374 0 3 -153 3 -152 208
-3 207 -2 0 155 0 155 120 0 120 0 0 160 0 160 -120 0 -120 0 0 535 0 535
-244 0 -244 0 -341 -507z m406 -560 c-2 -2 -108 -2 -236 -1 l-232 3 233 346
233 346 3 -345 c1 -190 1 -347 -1 -349z"/>
<path d="M1970 970 l0 -220 205 0 205 0 0 220 0 220 -205 0 -205 0 0 -220z"/>
</g>
</svg>
