<?xml version="1.0" standalone="no"?>
<!DOCTYPE svg PUBLIC "-//W3C//DTD SVG 20010904//EN"
 "http://www.w3.org/TR/2001/REC-SVG-20010904/DTD/svg10.dtd">
<svg version="1.0" xmlns="http://www.w3.org/2000/svg"
 width="668.000000pt" height="320.000000pt" viewBox="0 0 668.000000 320.000000"
 preserveAspectRatio="xMidYMid meet">
<metadata>
Created by potrace 1.16, written by Peter Selinger 2001-2019
</metadata>
<g transform="translate(0.000000,320.000000) scale(0.100000,-0.100000)"
fill="#ffffff" stroke="none">
<path d="M5959 2466 c-297 -53 -512 -201 -624 -430 -75 -151 -89 -220 -89
-436 0 -159 3 -196 22 -265 84 -311 312 -521 642 -592 65 -14 125 -18 255 -17
189 1 283 19 438 84 l77 32 0 174 c0 96 -1 174 -3 174 -2 0 -38 -20 -80 -44
-125 -71 -220 -98 -368 -104 -136 -5 -197 6 -290 54 -97 49 -185 164 -224 294
-25 84 -31 258 -11 360 30 159 121 297 235 354 93 48 154 59 290 54 148 -6
243 -33 368 -104 42 -24 78 -44 80 -44 2 0 3 78 3 174 l0 174 -77 32 c-140 59
-251 81 -418 85 -98 3 -176 0 -226 -9z"/>
<path d="M0 1600 l0 -850 220 0 220 0 0 360 0 360 320 0 320 0 0 -360 0 -360
220 0 220 0 0 850 0 850 -220 0 -220 0 0 -325 0 -325 -320 0 -320 0 0 325 0
325 -220 0 -220 0 0 -850z"/>
<path d="M1950 1600 l0 -850 600 0 600 0 0 165 0 165 -382 2 -383 3 -3 193 -2
192 350 0 350 0 0 165 0 165 -347 2 -348 3 -3 158 -3 157 376 0 375 0 -2 163
-3 162 -587 3 -588 2 0 -850z"/>
<path d="M3340 2440 c0 -5 135 -375 301 -822 166 -447 306 -825 311 -841 l10
-27 260 2 261 3 313 845 c172 465 314 846 314 848 0 1 -99 2 -219 2 l-220 0
-19 -52 c-11 -29 -111 -309 -223 -622 -138 -387 -206 -564 -212 -555 -5 8
-106 286 -226 619 l-217 605 -217 3 c-139 1 -217 -1 -217 -8z"/>
</g>
</svg>
