<?xml version="1.0" encoding="UTF-8" standalone="no"?>
<svg
   version="1.0"
   width="732.000000pt"
   height="320.000000pt"
   viewBox="0 0 732.000000 320.000000"
   preserveAspectRatio="xMidYMid meet"
   id="svg4"
   sodipodi:docname="white-hbomax.svg"
   inkscape:version="1.4.4 (dcaf3e7d9e, 2026-05-05)"
   xmlns:inkscape="http://www.inkscape.org/namespaces/inkscape"
   xmlns:sodipodi="http://sodipodi.sourceforge.net/DTD/sodipodi-0.dtd"
   xmlns="http://www.w3.org/2000/svg"
   xmlns:svg="http://www.w3.org/2000/svg">
  <defs
     id="defs4">
    <radialGradient
       id="disney-plus_svg__a"
       cx="463.58899"
       cy="533.71301"
       r="374.05801"
       gradientTransform="matrix(1.0885105,0,0,1.0885105,61.352771,-397.39295)"
       gradientUnits="userSpaceOnUse">
      <stop
         offset="0.007"
         style="stop-color:#ffffff;stop-opacity:1;"
         id="stop1" />
      <stop
         offset="0.03"
         style="stop-color:#ffffff;stop-opacity:1;"
         id="stop2" />
      <stop
         offset="0.057"
         style="stop-color:#ffffff;stop-opacity:1;"
         id="stop3" />
      <stop
         offset="0.084"
         style="stop-color:#ffffff;stop-opacity:1;"
         id="stop4" />
      <stop
         offset="0.111"
         style="stop-color:#ffffff;stop-opacity:1;"
         id="stop5" />
      <stop
         offset="0.138"
         style="stop-color:#ffffff;stop-opacity:1;"
         id="stop6" />
      <stop
         offset="0.16500001"
         style="stop-color:#ffffff;stop-opacity:1;"
         id="stop7" />
      <stop
         offset="0.191"
         style="stop-color:#fffffe;stop-opacity:1;"
         id="stop8" />
      <stop
         offset="0.21600001"
         style="stop-color:#ffffff;stop-opacity:1;"
         id="stop9" />
      <stop
         offset="1"
         style="stop-color:#ffffff;stop-opacity:0;"
         id="stop10" />
    </radialGradient>
    <linearGradient
       id="SVGID_1_"
       gradientUnits="userSpaceOnUse"
       x1="1041.5187"
       y1="325.6485"
       x2="1660.9564"
       y2="325.6485"
       gradientTransform="matrix(0.46878148,0,0,-0.46878148,-593.76682,589.92314)">
		<stop
   offset="0"
   style="stop-color:#991EEB"
   id="stop1-7" />

		<stop
   offset="0.4"
   style="stop-color:#5822B4"
   id="stop2-5" />

		<stop
   offset="0.73"
   style="stop-color:#5822B4"
   id="stop3-3" />

		<stop
   offset="1"
   style="stop-color:#991EEB"
   id="stop4-5" />

	</linearGradient>
  </defs>
  <sodipodi:namedview
     id="namedview4"
     pagecolor="#505050"
     bordercolor="#ffffff"
     borderopacity="1"
     inkscape:showpageshadow="0"
     inkscape:pageopacity="0"
     inkscape:pagecheckerboard="1"
     inkscape:deskcolor="#505050"
     inkscape:document-units="pt"
     inkscape:zoom="0.88279674"
     inkscape:cx="276.39432"
     inkscape:cy="158.02052"
     inkscape:window-width="2560"
     inkscape:window-height="1380"
     inkscape:window-x="0"
     inkscape:window-y="0"
     inkscape:window-maximized="1"
     inkscape:current-layer="svg4" />
  <metadata
     id="metadata1">
Created by potrace 1.16, written by Peter Selinger 2001-2019
</metadata>
  <g
     transform="matrix(0.78776132,0,0,0.78776132,197.4498,-102.51856)"
     id="g4"
     style="stroke-width:0;stroke-dasharray:none;fill:#ffffff;fill-opacity:1">
	<path
   d="M 115.83151,326.41257 H 63.589504 v -74.49896 h -33.79759 v 74.49896 H -23.789632 V 134.2403 h 53.478504 v 71.71683 H 63.486463 V 134.2403 h 52.242007 z m 239.4683,0.82433 c 53.4785,0 97.16807,-44.5139 97.16807,-98.71369 0,-55.02413 -43.68957,-97.58024 -97.16807,-97.58024 -54.1998,0 -81.60882,39.36183 -88.20347,55.43629 0,-23.80257 -23.80257,-52.24201 -51.41768,-52.24201 h -89.23388 v 192.27532 h 83.0514 c 33.79759,0 57.60016,-28.8516 57.60016,-54.19979 7.52202,15.66229 34.10671,55.02412 88.20347,55.02412 z M 202.90153,249.1315 c 7.7281,0 13.91059,7.52202 13.91059,16.07446 0,8.9646 -6.18249,16.48663 -13.91059,16.48663 H 176.31684 V 249.1315 Z m 0,-72.12901 c 7.7281,0 13.91059,7.52203 13.91059,16.07446 0,8.55244 -6.18249,16.07447 -13.91059,16.07447 h -26.58469 v -32.14893 z m 35.13712,51.52072 c 6.18249,-0.41217 16.28055,-7.52203 20.09308,-11.74673 -1.44258,5.15208 -1.44258,21.43262 0,26.58469 -4.22469,-6.28552 -13.91059,-13.70451 -20.09308,-14.83796 z m 68.52256,0 c 0,-27.0999 22.05087,-48.94468 49.15076,-48.84164 27.20294,0.20608 48.84164,22.35999 48.53252,49.56293 -0.41217,26.79077 -22.05087,48.32643 -48.84164,48.32643 -26.99686,0 -48.84164,-21.84478 -48.84164,-49.04772 z m 48.7386,38.53749 c 20.81437,0 38.33141,-17.10487 38.33141,-38.53749 0,-21.43262 -17.51704,-38.33142 -38.33141,-38.33142 -21.43262,0 -38.5375,16.8988 -38.5375,38.33142 0,21.43262 17.10488,38.53749 38.5375,38.53749 z"
   id="path1"
   style="fill:#ffffff;fill-opacity:1;stroke-width:0;stroke-dasharray:none" />

	
		<linearGradient
   id="linearGradient8"
   gradientUnits="userSpaceOnUse"
   x1="1041.5187"
   y1="325.6485"
   x2="1660.9564"
   y2="325.6485"
   gradientTransform="matrix(0.4545,0,0,-0.4545,7.1986,243.317)">
		<stop
   offset="0"
   style="stop-color:#991EEB"
   id="stop5-6" />

		<stop
   offset="0.4"
   style="stop-color:#5822B4"
   id="stop6-2" />

		<stop
   offset="0.73"
   style="stop-color:#5822B4"
   id="stop7-3" />

		<stop
   offset="1"
   style="stop-color:#991EEB"
   id="stop8-9" />

	</linearGradient>

	<path
   class="st0"
   d="m 155.04729,410.43812 c -1.03143,-46.6203 -34.03694,-71.27129 -74.4687,-71.27129 -22.175582,0 -42.185173,7.42624 -55.799949,21.86615 -13.614776,-14.43991 -33.6243719,-21.86615 -55.799954,-21.86615 -40.43176,0 -73.437277,24.75414 -74.468697,71.37443 v 106.64908 c 0,9.79851 7.94195,17.63732 17.637321,17.63732 h 16.709043 c 1.650276,0 2.991125,-1.34084 2.991125,-2.99112 V 410.74755 c 0.721996,-23.00073 17.01847,-35.17151 37.131208,-35.17151 20.112737,0 36.409212,12.17078 37.1312077,35.17151 V 517.0872 c 0,9.79851 7.9419523,17.63732 17.6373233,17.63732 h 16.709044 c 1.650275,0 2.991125,-1.34085 2.991125,-2.99112 v -121.089 c 0.721995,-23.00072 17.018466,-35.1715 37.131203,-35.1715 20.11274,0 36.40921,12.17078 37.1312,35.1715 v 106.33966 c 0,9.79851 7.94196,17.63732 17.63733,17.63732 h 16.70904 c 1.65028,0 2.99113,-1.34085 2.99113,-2.99113 V 410.54126 c 0.10314,0.10314 0,0 0,-0.10314 z m 376.15976,-68.28017 h -28.36412 c -7.83881,0 -15.16191,3.91941 -19.59702,10.41737 l -31.35525,46.41401 c -4.12569,6.08539 -12.99592,6.08539 -17.12161,0 l -31.35524,-46.41401 c -4.33197,-6.49796 -11.75822,-10.41737 -19.59703,-10.41737 h -28.36411 c -1.75342,0 -2.78484,1.95971 -1.85656,3.4037 l 55.90309,82.92636 c 4.02255,5.98225 4.02255,13.82106 0,19.80331 l -55.90309,82.92637 c -1.03143,1.44399 0.10314,3.40369 1.85656,3.40369 h 28.36411 c 7.83881,0 15.16191,-3.91941 19.59703,-10.41737 L 434.76905,477.79 c 4.12569,-6.08539 12.99592,-6.08539 17.12161,0 l 31.35525,46.41401 c 4.33197,6.49796 11.75821,10.41737 19.59702,10.41737 h 28.36412 c 1.75342,0 2.78484,-1.9597 1.85656,-3.40369 l -56.00624,-82.82323 c -4.02255,-5.98225 -4.02255,-13.82106 0,-19.80331 l 55.9031,-82.92636 c 1.03142,-1.44399 0,-3.50684 -1.75342,-3.50684 z m -190.40058,0 h -16.70905 c -8.45766,0 -15.57447,5.98225 -17.32789,13.92421 -14.85249,-11.34565 -33.52123,-17.12162 -53.63397,-17.12162 -48.88942,0 -88.59919,34.03694 -88.59919,98.29456 0,64.25762 39.60662,98.29456 88.59919,98.29456 20.0096,0 38.47206,-5.67282 53.32454,-16.81219 0.82514,8.97338 8.35452,16.09019 17.63732,16.09019 h 16.70905 c 1.65027,0 2.99112,-1.34084 2.99112,-2.99112 V 345.14908 c -0.10314,-1.65028 -1.34085,-2.99113 -2.99112,-2.99113 z m -87.67091,156.87936 c -29.18925,0 -52.91197,-21.35045 -52.91197,-61.67907 0,-40.32861 23.72272,-61.67906 52.91197,-61.67906 29.18926,0 52.91197,21.35045 52.91197,61.67906 0,40.32862 -23.72271,61.67907 -52.91197,61.67907 z"
   id="path4"
   style="fill:#ffffff;stroke-width:0;stroke-dasharray:none;fill-opacity:1" />

</g>
</svg>
