<?xml version="1.0" standalone="no"?>
<!DOCTYPE svg PUBLIC "-//W3C//DTD SVG 20010904//EN"
 "http://www.w3.org/TR/2001/REC-SVG-20010904/DTD/svg10.dtd">
<svg version="1.0" xmlns="http://www.w3.org/2000/svg"
 width="1018.000000pt" height="320.000000pt" viewBox="0 0 1018.000000 320.000000"
 preserveAspectRatio="xMidYMid meet">
<metadata>
Created by potrace 1.16, written by Peter Selinger 2001-2019
</metadata>
<g transform="translate(0.000000,320.000000) scale(0.100000,-0.100000)"
fill="#ffffff" stroke="none">
<path d="M652 2675 c-17 -25 -32 -49 -32 -53 0 -4 118 -88 262 -186 l261 -179
18 24 19 24 19 -24 19 -25 44 29 c46 30 470 325 477 331 6 6 -63 104 -72 104
-5 0 -116 -74 -247 -165 l-238 -165 -233 161 c-128 89 -240 164 -249 166 -10
3 -28 -13 -48 -42z"/>
<path d="M2880 1580 l0 -880 225 0 225 0 0 370 0 370 335 0 335 0 0 -370 0
-370 228 0 227 0 -2 877 -3 878 -222 0 -223 0 -3 -332 -2 -333 -335 0 -335 0
0 335 0 335 -225 0 -225 0 0 -880z"/>
<path d="M4900 1579 l0 -881 418 5 c440 5 516 11 668 58 266 82 461 284 536
555 19 68 22 105 22 264 0 174 -2 191 -28 275 -80 261 -266 453 -516 534 -153
49 -419 70 -872 71 l-228 0 0 -881z m788 515 c203 -41 333 -161 377 -346 19
-83 19 -267 0 -342 -24 -91 -64 -162 -125 -220 -108 -103 -204 -135 -432 -143
l-158 -6 0 537 0 536 130 0 c80 0 161 -6 208 -16z"/>
<path d="M6697 2453 c-4 -3 -7 -82 -7 -175 l0 -168 290 0 290 0 0 -705 0 -705
230 0 230 0 0 705 0 705 290 0 290 0 0 175 0 175 -803 0 c-442 0 -807 -3 -810
-7z"/>
<path d="M8342 2445 c2 -8 147 -404 323 -880 l320 -865 272 0 271 0 17 43
c138 364 631 1704 628 1710 -2 4 -103 7 -224 7 l-220 0 -13 -32 c-26 -62 -446
-1238 -446 -1248 0 -44 -45 72 -247 633 l-231 642 -227 3 c-197 2 -226 0 -223
-13z"/>
<path d="M125 2208 c-40 -14 -94 -65 -111 -105 -11 -26 -14 -139 -14 -595 0
-552 0 -562 21 -606 13 -26 38 -54 62 -70 l41 -27 493 -3 493 -3 0 -94 0 -95
-175 0 -175 0 0 -65 0 -65 420 0 420 0 0 65 0 65 -175 0 -175 0 0 95 0 95 483
0 c446 0 485 2 522 19 48 22 69 44 90 94 13 31 15 115 15 599 0 552 0 562 -21
606 -13 26 -38 54 -62 70 l-41 27 -1040 2 c-708 1 -1051 -2 -1071 -9z m2089
-144 c14 -14 16 -78 16 -555 0 -527 0 -539 -20 -559 -20 -20 -29 -20 -1035
-18 -816 2 -1017 6 -1027 16 -10 10 -14 125 -16 549 -2 470 -1 539 13 559 l15
24 1020 0 c913 0 1020 -2 1034 -16z"/>
</g>
</svg>
