<?xml version="1.0" standalone="no"?>
<!DOCTYPE svg PUBLIC "-//W3C//DTD SVG 20010904//EN"
 "http://www.w3.org/TR/2001/REC-SVG-20010904/DTD/svg10.dtd">
<svg version="1.0" xmlns="http://www.w3.org/2000/svg"
 width="694.000000pt" height="320.000000pt" viewBox="0 0 694.000000 320.000000"
 preserveAspectRatio="xMidYMid meet">
<metadata>
Created by potrace 1.16, written by Peter Selinger 2001-2019
</metadata>
<g transform="translate(0.000000,320.000000) scale(0.100000,-0.100000)"
fill="#ffffff" stroke="none">
<path d="M2345 2806 c-280 -44 -444 -181 -475 -395 -11 -79 0 -187 25 -247 40
-97 132 -181 249 -228 l58 -24 -38 -12 c-124 -40 -247 -138 -292 -231 -55
-113 -63 -278 -22 -410 52 -169 185 -280 405 -341 70 -19 106 -22 295 -22 191
-1 225 2 304 22 123 31 206 73 279 142 110 103 151 208 150 385 0 123 -19 191
-72 269 -55 80 -155 150 -265 186 l-38 12 58 24 c171 69 263 187 279 360 8 80
-11 188 -45 254 -48 94 -147 173 -269 216 -145 50 -404 68 -586 40z m285 -297
c38 -8 63 -22 95 -53 53 -50 69 -103 62 -199 -6 -85 -40 -141 -107 -175 -39
-20 -57 -23 -137 -20 -83 3 -95 6 -134 33 -54 38 -82 93 -87 170 -12 185 115
285 308 244z m67 -783 c96 -45 139 -135 131 -278 -9 -161 -88 -243 -242 -255
-130 -10 -228 36 -279 131 -19 35 -22 57 -22 146 0 90 3 112 24 153 43 89 117
126 251 126 69 1 95 -4 137 -23z"/>
<path d="M4170 2805 c-303 -61 -496 -271 -570 -622 -27 -127 -37 -392 -21
-529 47 -388 218 -635 506 -731 74 -25 92 -27 250 -27 158 0 176 2 250 27 342
114 515 428 515 932 0 249 -41 444 -128 610 -54 102 -183 229 -284 279 -141
68 -355 94 -518 61z m296 -351 c39 -23 56 -43 82 -94 56 -111 66 -188 67 -500
0 -312 -11 -396 -68 -510 -46 -91 -93 -123 -192 -128 -90 -5 -132 8 -180 55
-49 47 -79 116 -102 228 -25 130 -26 571 0 697 42 210 121 292 273 286 58 -3
80 -9 120 -34z"/>
<path d="M376 2233 l-375 -558 -1 -207 0 -208 415 0 415 0 0 -170 0 -170 225
0 225 0 0 170 0 170 135 0 135 0 0 175 0 175 -135 0 -135 0 0 590 0 590 -265
0 -264 0 -375 -557z m454 -238 l0 -385 -260 0 c-143 0 -260 3 -260 6 0 8 510
764 515 764 3 0 5 -173 5 -385z"/>
<path d="M6170 2327 c-91 -31 -155 -71 -223 -139 -32 -32 -60 -58 -63 -58 -2
0 -4 43 -4 95 l0 95 -220 0 -220 0 0 -965 0 -965 220 0 220 0 0 367 0 366 70
-70 c113 -114 231 -163 395 -163 278 0 492 186 565 494 41 170 35 375 -15 533
-63 200 -211 360 -383 413 -93 29 -254 28 -342 -3z m134 -322 c77 -37 131
-114 157 -222 16 -67 16 -257 0 -323 -28 -116 -95 -202 -177 -231 -63 -22
-171 -17 -226 10 -128 61 -190 236 -167 465 18 174 85 277 209 317 41 14 161
4 204 -16z"/>
</g>
</svg>
