<?xml version="1.0" standalone="no"?>
<!DOCTYPE svg PUBLIC "-//W3C//DTD SVG 20010904//EN"
 "http://www.w3.org/TR/2001/REC-SVG-20010904/DTD/svg10.dtd">
<svg version="1.0" xmlns="http://www.w3.org/2000/svg"
 width="102.000000pt" height="80.000000pt" viewBox="0 0 102.000000 80.000000"
 preserveAspectRatio="xMidYMid meet">
<metadata>
Created by potrace 1.16, written by Peter Selinger 2001-2019
</metadata>
<g transform="translate(0.000000,80.000000) scale(0.100000,-0.100000)"
fill="#ffffff" stroke="none">
<path d="M200 600 l0 -40 115 0 115 0 -95 -190 c-52 -104 -95 -192 -95 -195 0
-4 21 -5 48 -3 l47 3 97 190 c77 150 97 199 98 233 l0 42 -165 0 -165 0 0 -40z"/>
<path d="M650 602 c-48 -32 -55 -42 -58 -74 -4 -45 4 -47 58 -13 22 14 42 25
45 25 2 0 6 -82 7 -182 l3 -183 48 -3 47 -3 0 235 0 236 -47 0 c-38 -1 -59 -8
-103 -38z"/>
<path d="M517 262 c-20 -22 -22 -63 -5 -80 16 -16 63 -15 75 1 21 26 21 46 2
71 -24 31 -49 33 -72 8z"/>
</g>
</svg>
