<?xml version="1.0" standalone="no"?>
<!DOCTYPE svg PUBLIC "-//W3C//DTD SVG 20010904//EN"
 "http://www.w3.org/TR/2001/REC-SVG-20010904/DTD/svg10.dtd">
<svg version="1.0" xmlns="http://www.w3.org/2000/svg"
 width="563.000000pt" height="320.000000pt" viewBox="0 0 563.000000 320.000000"
 preserveAspectRatio="xMidYMid meet">
<metadata>
Created by potrace 1.16, written by Peter Selinger 2001-2019
</metadata>
<g transform="translate(0.000000,320.000000) scale(0.100000,-0.100000)"
fill="#ffffff" stroke="none">
<path d="M0 2030 l0 -530 170 0 170 0 0 530 0 530 -170 0 -170 0 0 -530z"/>
<path d="M572 2028 l3 -533 148 -3 147 -3 0 386 0 385 33 0 32 0 187 -382 187
-383 123 -3 124 -3 189 386 c182 371 189 385 217 385 l28 0 2 -382 3 -383 150
0 150 0 3 533 2 532 -272 -2 -273 -3 -157 -310 c-86 -170 -159 -310 -163 -310
-4 0 -77 140 -163 310 l-157 310 -273 3 -272 2 2 -532z"/>
<path d="M2797 2358 c-189 -367 -437 -857 -437 -862 0 -3 79 -6 175 -6 l174 0
48 90 48 90 340 0 341 0 44 -90 44 -90 173 0 c121 0 173 3 173 11 0 6 -120
247 -266 535 l-265 524 -244 0 -244 0 -104 -202z m461 -237 c56 -110 102 -202
102 -205 0 -3 -97 -6 -215 -6 -138 0 -215 4 -215 10 0 12 177 369 192 388 6 6
16 12 22 12 6 0 57 -90 114 -199z"/>
<path d="M4030 2554 c0 -3 91 -113 203 -246 111 -132 203 -243 205 -247 1 -4
-82 -101 -184 -216 -102 -116 -213 -240 -246 -277 l-60 -68 220 0 219 0 168
191 c161 184 168 190 185 173 9 -11 83 -97 165 -191 l148 -173 219 0 220 0
-60 68 c-33 37 -144 161 -246 276 -102 116 -186 212 -186 215 0 4 92 115 205
248 113 133 205 245 205 248 0 3 -89 5 -197 5 l-198 0 -140 -167 c-77 -92
-145 -168 -150 -170 -6 -2 -73 73 -150 167 l-139 170 -203 0 c-112 0 -203 -3
-203 -6z"/>
<path d="M5489 2531 c-35 -36 -37 -69 -4 -105 48 -52 135 -17 135 54 0 39 -39
80 -75 80 -16 0 -38 -12 -56 -29z m105 -13 c23 -32 20 -55 -10 -84 -42 -43
-104 -15 -104 47 0 37 24 59 65 59 24 0 39 -7 49 -22z"/>
<path d="M5511 2478 c0 -24 3 -37 6 -30 7 18 43 15 43 -4 0 -8 4 -13 9 -10 4
3 8 22 7 43 -1 35 -3 38 -33 41 -33 3 -33 3 -32 -40z m49 17 c0 -8 -9 -15 -20
-15 -11 0 -20 7 -20 15 0 8 9 15 20 15 11 0 20 -7 20 -15z"/>
<path d="M0 995 l0 -345 245 0 245 0 0 25 0 25 -220 0 -220 0 0 135 0 135 200
0 200 0 0 25 0 25 -200 0 -200 0 0 130 0 130 210 0 210 0 0 30 0 30 -235 0
-235 0 0 -345z"/>
<path d="M647 1333 c-4 -3 -7 -159 -7 -345 l0 -338 25 0 25 0 2 282 3 283 229
-283 c126 -155 236 -282 243 -282 11 0 13 62 11 343 l-3 342 -25 0 -25 0 -5
-279 -5 -279 -229 281 c-126 155 -230 282 -231 282 -1 0 -5 -3 -8 -7z"/>
<path d="M1377 1333 c-4 -3 -7 -159 -7 -345 l0 -338 25 0 25 0 0 155 0 155
220 0 220 0 0 -155 0 -155 25 0 25 0 0 345 0 345 -25 0 -25 0 0 -165 0 -165
-220 0 -220 0 0 165 c0 153 -1 165 -18 165 -10 0 -22 -3 -25 -7z"/>
<path d="M2337 1313 c-14 -26 -253 -559 -283 -630 -14 -33 -14 -33 14 -33 26
0 32 7 65 83 l35 82 207 0 207 0 36 -82 c32 -75 38 -83 63 -83 l28 0 -20 48
c-11 26 -80 180 -153 342 -122 272 -134 295 -158 298 -21 3 -30 -3 -41 -25z
m133 -246 c45 -103 80 -190 78 -193 -3 -2 -84 -3 -180 -2 l-174 3 72 165 c41
91 81 183 89 205 20 47 9 64 115 -178z"/>
<path d="M2840 995 l0 -345 25 0 25 0 2 279 3 280 225 -276 c124 -152 231
-278 238 -281 9 -3 12 70 12 342 l0 346 -25 0 -25 0 -2 -284 -3 -285 -225 279
c-124 153 -231 281 -237 284 -10 4 -13 -67 -13 -339z"/>
<path d="M3765 1327 c-66 -22 -98 -43 -146 -94 -68 -72 -92 -144 -87 -258 7
-149 61 -241 176 -297 61 -30 74 -33 162 -33 82 0 103 4 150 26 30 14 66 35
80 47 23 19 24 22 9 37 -15 15 -20 14 -62 -13 -65 -41 -125 -56 -205 -50 -164
12 -262 126 -262 307 0 177 114 291 290 290 84 0 134 -14 185 -53 29 -22 38
-25 56 -16 l21 12 -21 22 c-12 13 -48 36 -79 51 -46 23 -73 29 -142 32 -52 2
-101 -2 -125 -10z"/>
<path d="M4270 995 l0 -345 240 0 240 0 0 25 0 25 -215 0 -215 0 0 135 0 135
200 0 200 0 0 25 0 25 -200 0 -200 0 0 130 0 130 210 0 210 0 0 30 0 30 -235
0 -235 0 0 -345z"/>
<path d="M4910 995 l0 -347 168 3 c159 4 170 5 224 32 148 73 221 251 172 418
-29 98 -89 162 -199 210 -43 19 -73 23 -207 27 l-158 5 0 -348z m366 268 c53
-28 99 -74 127 -127 18 -34 22 -57 22 -141 0 -112 -15 -153 -77 -215 -59 -59
-107 -74 -255 -78 l-133 -4 0 297 0 297 138 -4 c117 -3 143 -7 178 -25z"/>
</g>
</svg>
