<?xml version="1.0" standalone="no"?>
<!DOCTYPE svg PUBLIC "-//W3C//DTD SVG 20010904//EN"
 "http://www.w3.org/TR/2001/REC-SVG-20010904/DTD/svg10.dtd">
<svg version="1.0" xmlns="http://www.w3.org/2000/svg"
 width="363.000000pt" height="80.000000pt" viewBox="0 0 363.000000 80.000000"
 preserveAspectRatio="xMidYMid meet">
<metadata>
Created by potrace 1.16, written by Peter Selinger 2001-2019
</metadata>
<g transform="translate(0.000000,80.000000) scale(0.100000,-0.100000)"
fill="#ffffff" stroke="none">
<path d="M1736 701 c-37 -41 -1 -94 51 -75 37 13 44 55 11 78 -29 21 -41 20
-62 -3z"/>
<path d="M2260 700 c-24 -24 -24 -29 -4 -58 27 -39 94 -19 94 28 0 20 -35 50
-57 50 -7 0 -22 -9 -33 -20z"/>
<path d="M180 460 l0 -250 73 0 c88 0 141 22 185 76 106 128 69 335 -71 403
-32 15 -63 21 -115 21 l-72 0 0 -250z"/>
<path d="M734 691 c-102 -46 -158 -189 -124 -313 16 -55 69 -120 120 -145 34
-18 61 -23 117 -23 l73 0 0 250 0 250 -72 0 c-49 0 -86 -6 -114 -19z"/>
<path d="M1282 458 l3 -233 115 1 c95 1 123 5 155 22 82 41 117 106 117 215 0
92 -29 150 -97 192 -46 28 -55 30 -172 33 l-123 4 2 -234z m238 132 c65 -35
75 -190 16 -249 -21 -20 -37 -26 -91 -29 l-65 -4 0 152 0 153 60 -6 c34 -4 70
-11 80 -17z"/>
<path d="M2970 455 l0 -235 45 0 45 0 0 235 0 235 -45 0 -45 0 0 -235z"/>
<path d="M2420 615 c0 -41 -2 -45 -25 -45 -22 0 -25 -4 -25 -35 0 -31 3 -35
25 -35 l25 0 0 -109 c0 -100 2 -112 23 -137 18 -20 34 -28 73 -31 61 -5 73 3
67 44 -4 26 -10 32 -32 35 -26 3 -26 3 -29 101 l-3 97 31 0 c28 0 30 3 30 35
0 32 -2 35 -30 35 -29 0 -30 2 -30 45 l0 45 -50 0 -50 0 0 -45z"/>
<path d="M1941 562 c-58 -29 -75 -63 -79 -150 -2 -61 1 -84 16 -112 37 -69
135 -92 191 -44 l31 26 0 -45 c0 -30 -6 -49 -18 -60 -25 -22 -87 -22 -109 1
-13 12 -30 16 -60 14 -47 -3 -52 -14 -27 -51 37 -53 161 -69 240 -31 68 33 74
57 74 274 l0 186 -50 0 c-48 0 -50 -1 -50 -27 -1 -24 -2 -25 -11 -10 -13 22
-61 47 -91 47 -13 0 -38 -8 -57 -18z m138 -88 c31 -39 29 -117 -4 -149 -31
-32 -59 -32 -90 0 -33 32 -36 120 -5 153 29 31 73 29 99 -4z"/>
<path d="M2703 569 c-33 -10 -83 -61 -83 -85 0 -23 75 -18 110 7 34 26 75 20
85 -12 10 -30 -4 -39 -72 -49 -82 -11 -119 -32 -133 -74 -14 -45 -4 -80 32
-111 38 -32 113 -35 151 -5 25 20 25 20 30 -1 5 -17 12 -20 49 -17 l43 3 3
122 c3 152 -8 185 -70 213 -46 21 -94 24 -145 9z m117 -217 c0 -41 -30 -64
-77 -60 -31 2 -39 7 -41 27 -5 29 7 41 50 51 60 14 68 12 68 -18z"/>
<path d="M1720 394 l0 -175 48 3 47 3 3 173 2 172 -50 0 -50 0 0 -176z"/>
<path d="M2250 394 l0 -175 48 3 47 3 3 173 2 172 -50 0 -50 0 0 -176z"/>
<path d="M3250 510 l0 -60 -60 0 -60 0 0 -40 0 -40 60 0 60 0 0 -60 0 -60 40
0 40 0 0 60 0 60 65 0 65 0 0 40 0 40 -65 0 -65 0 0 60 0 60 -40 0 -40 0 0
-60z"/>
</g>
</svg>
