<?xml version="1.0" standalone="no"?>
<!DOCTYPE svg PUBLIC "-//W3C//DTD SVG 20010904//EN"
 "http://www.w3.org/TR/2001/REC-SVG-20010904/DTD/svg10.dtd">
<svg version="1.0" xmlns="http://www.w3.org/2000/svg"
 width="314.000000pt" height="80.000000pt" viewBox="0 0 314.000000 80.000000"
 preserveAspectRatio="xMidYMid meet">
<metadata>
Created by potrace 1.16, written by Peter Selinger 2001-2019
</metadata>
<g transform="translate(0.000000,80.000000) scale(0.100000,-0.100000)"
fill="#ffffff" stroke="none">
<path d="M140 400 l0 -250 70 0 c110 0 176 37 223 125 31 57 31 193 0 250 -47
88 -113 125 -223 125 l-70 0 0 -250z"/>
<path d="M689 627 c-49 -26 -102 -95 -119 -155 -32 -118 25 -258 124 -303 28
-13 65 -19 114 -19 l72 0 0 250 0 250 -73 0 c-58 0 -84 -5 -118 -23z"/>
<path d="M1698 639 c-26 -14 -23 -65 3 -79 52 -28 102 28 64 70 -20 22 -41 25
-67 9z"/>
<path d="M2175 630 c-38 -42 12 -98 64 -70 28 14 29 65 2 80 -29 15 -46 12
-66 -10z"/>
<path d="M1210 613 c0 -5 34 -108 76 -231 l77 -223 65 3 65 3 78 225 c43 124
78 226 79 228 0 1 -24 2 -54 2 l-55 0 -57 -177 -57 -178 -48 150 c-27 83 -51
162 -54 178 -6 25 -10 27 -61 27 -30 0 -54 -3 -54 -7z"/>
<path d="M1680 336 l0 -176 50 0 50 0 -2 173 -3 172 -47 3 -48 3 0 -175z"/>
<path d="M1894 496 c-48 -21 -77 -64 -70 -106 7 -47 43 -76 113 -90 70 -15 93
-26 93 -45 0 -36 -80 -47 -107 -15 -13 15 -30 20 -65 20 l-48 0 13 -32 c39
-100 247 -102 294 -3 32 66 -18 126 -116 140 -64 9 -90 27 -75 52 17 27 68 29
93 2 16 -18 27 -21 57 -16 47 8 50 11 30 42 -39 60 -137 83 -212 51z"/>
<path d="M2167 503 c-4 -3 -7 -82 -7 -175 l0 -168 50 0 50 0 0 175 0 175 -43
0 c-24 0 -47 -3 -50 -7z"/>
<path d="M2395 496 c-42 -18 -83 -69 -91 -112 -10 -54 1 -133 23 -162 39 -53
70 -67 142 -67 58 0 73 4 103 27 101 77 85 259 -25 312 -42 19 -110 20 -152 2z
m100 -62 c59 -23 59 -185 -1 -200 -64 -16 -94 16 -94 104 0 43 5 58 25 77 25
26 41 30 70 19z"/>
<path d="M2680 335 l0 -175 50 0 50 0 0 118 c0 130 9 152 62 152 48 0 58 -25
58 -153 l0 -117 50 0 50 0 0 125 c0 143 -12 185 -59 209 -55 29 -117 18 -153
-28 -17 -21 -18 -21 -18 12 0 31 -1 32 -45 32 l-45 0 0 -175z"/>
</g>
</svg>
