<?xml version="1.0" encoding="UTF-8" standalone="no"?>
<svg
   version="1.0"
   width="1228.000000pt"
   height="320.000000pt"
   viewBox="0 0 1228.000000 320.000000"
   preserveAspectRatio="xMidYMid meet"
   id="svg6"
   sodipodi:docname="white-webdl.svg"
   inkscape:version="1.4.4 (dcaf3e7d9e, 2026-05-05)"
   xml:space="preserve"
   xmlns:inkscape="http://www.inkscape.org/namespaces/inkscape"
   xmlns:sodipodi="http://sodipodi.sourceforge.net/DTD/sodipodi-0.dtd"
   xmlns="http://www.w3.org/2000/svg"
   xmlns:svg="http://www.w3.org/2000/svg"><defs
     id="defs6" /><sodipodi:namedview
     id="namedview6"
     pagecolor="#505050"
     bordercolor="#ffffff"
     borderopacity="1"
     inkscape:showpageshadow="0"
     inkscape:pageopacity="0"
     inkscape:pagecheckerboard="1"
     inkscape:deskcolor="#505050"
     inkscape:document-units="pt"
     inkscape:zoom="0.74419788"
     inkscape:cx="657.0833"
     inkscape:cy="139.07591"
     inkscape:window-width="2560"
     inkscape:window-height="1380"
     inkscape:window-x="0"
     inkscape:window-y="0"
     inkscape:window-maximized="1"
     inkscape:current-layer="svg6" /><metadata
     id="metadata1">
Created by potrace 1.16, written by Peter Selinger 2001-2019
</metadata><path
     d="M 392.80801,251.56702 342.83965,65.43488 h 40.97405 l 21.86116,92.44146 q 2.62334,11.49273 4.99684,22.98545 2.37349,11.49272 4.49715,22.98544 2.24858,11.49273 4.24731,23.11037 h -7.62017 q 2.24857,-11.61764 4.62207,-23.11037 2.3735,-11.49272 4.87191,-22.98544 2.49842,-11.49272 5.24668,-22.98545 l 23.11037,-92.44146 h 39.22516 l 22.86052,92.44146 q 2.74826,11.49273 5.24668,22.98545 2.62334,11.49272 4.99684,22.98544 2.37349,11.49273 4.62207,23.11037 h -7.87002 q 2.12366,-11.61764 4.24731,-23.11037 2.24858,-11.49272 4.62208,-22.98544 2.49842,-11.49272 4.99683,-22.98545 l 21.86116,-92.44146 h 41.09898 L 545.46135,251.56702 H 502.61348 L 476.13025,150.00633 q -2.74826,-11.11796 -5.62144,-24.73434 -2.74826,-13.61638 -6.62081,-30.60562 h 10.49336 q -3.74763,16.98924 -6.49589,30.60562 -2.74826,13.61638 -5.74636,24.73434 l -26.23339,101.56069 z"
     id="text5"
     style="font-weight:bold;font-size:255.838px;font-family:System-ui;-inkscape-font-specification:'System-ui Bold';letter-spacing:-3.75px;word-spacing:0px;fill:#ffffff;stroke:#ffffff;stroke-width:5;stroke-linecap:square"
     aria-label="W" /><path
     d="m 651.387,254.56512 q -19.98735,0 -34.85293,-8.74446 -14.74067,-8.86939 -22.98545,-24.4845 -8.11986,-15.61511 -8.11986,-35.60246 0,-20.23718 8.24478,-35.72737 8.3697,-15.61511 22.98545,-24.4845 14.61574,-8.86938 33.4788,-8.86938 14.61574,0 26.48323,4.99683 11.86748,4.87192 20.48702,14.11606 8.61955,9.11923 13.24162,21.61132 4.74699,12.49209 4.74699,27.60752 v 9.86875 H 598.54546 V 171.3678 h 98.81243 l -16.61448,5.62144 q 0,-9.99367 -3.62271,-17.23908 -3.62271,-7.24541 -10.36843,-11.11796 -6.62081,-3.99747 -15.86496,-3.99747 -9.11922,0 -15.74003,3.99747 -6.62081,3.87255 -10.24351,11.11796 -3.62271,7.24541 -3.62271,17.23908 v 15.98988 q 0,10.24351 3.62271,17.98861 3.74762,7.62017 10.74319,11.86748 6.99557,4.12239 16.86432,4.12239 7.24542,0 12.74193,-1.99873 5.62145,-2.12366 9.36907,-5.87129 3.87255,-3.87254 5.49652,-8.9943 h 33.60372 q -2.37349,13.11669 -11.11796,23.11036 -8.74446,9.99368 -21.98607,15.74004 -13.24162,5.62144 -29.23149,5.62144 z"
     id="text4"
     style="font-weight:bold;font-size:255.838px;font-family:System-ui;-inkscape-font-specification:'System-ui Bold';letter-spacing:-3.75px;word-spacing:0px;fill:#ffffff;stroke:#ffffff;stroke-width:5;stroke-linecap:square"
     aria-label="e" /><path
     d="m 806.66132,254.31528 q -8.61954,0 -16.11479,-2.49842 -7.49526,-2.49842 -13.36654,-7.62018 -5.74636,-5.24667 -9.61891,-12.86685 h -0.12492 v 20.23719 H 731.08418 V 65.43488 h 36.85167 V 137.889 h 0.12492 q 4.24731,-7.12049 9.99367,-11.74256 5.74636,-4.62208 12.99177,-6.87065 7.37033,-2.3735 15.86496,-2.3735 16.86432,0 29.60625,8.74446 12.86685,8.61954 19.98734,24.10974 7.24541,15.36527 7.24541,35.72737 0,20.61195 -7.12049,36.10214 -7.12049,15.49019 -19.86242,24.10973 -12.74193,8.61955 -30.10594,8.61955 z m -9.49398,-29.98102 q 8.9943,0 15.49019,-4.49715 6.6208,-4.62207 10.24351,-13.24162 3.74763,-8.74446 3.74763,-21.11163 0,-12.36717 -3.74763,-20.98671 -3.62271,-8.61954 -10.24351,-13.24161 -6.49589,-4.62208 -15.49019,-4.62208 -9.24415,0 -16.36464,4.87192 -6.99557,4.74699 -10.86812,13.49145 -3.74763,8.61955 -3.74763,20.48703 0,11.74257 3.74763,20.48703 3.87255,8.74446 10.86812,13.61638 7.12049,4.74699 16.36464,4.74699 z"
     id="text3"
     style="font-weight:bold;font-size:255.838px;font-family:System-ui;-inkscape-font-specification:'System-ui Bold';letter-spacing:-3.75px;word-spacing:0px;fill:#ffffff;stroke:#ffffff;stroke-width:5;stroke-linecap:square"
     aria-label="b" /><path
     d="M 946.82016,251.56702 H 898.72561 V 219.2125 h 46.09581 q 18.73814,0 30.98038,-6.99557 12.24225,-7.12049 18.23846,-20.61194 5.99624,-13.61638 5.99624,-33.22896 0,-19.61258 -5.99624,-33.10404 -5.99621,-13.49146 -18.23846,-20.48703 -12.11732,-6.995568 -30.60562,-6.995568 H 897.85116 V 65.43488 h 49.71852 q 27.98228,0 48.46931,11.367801 20.48701,11.242881 31.60501,32.104669 11.1179,20.86179 11.1179,49.46868 0,28.60688 -11.1179,49.59359 -11.118,20.86179 -31.72993,32.22959 -20.48703,11.36781 -49.09391,11.36781 z M 919.5874,65.43488 V 251.56702 H 881.11176 V 65.43488 Z"
     id="text2"
     style="font-weight:bold;font-size:255.838px;font-family:System-ui;-inkscape-font-specification:'System-ui Bold';letter-spacing:-3.75px;word-spacing:0px;fill:#ffffff;stroke:#ffffff;stroke-width:5;stroke-linecap:square"
     aria-label="D" /><path
     d="M 1056.7482,251.56702 V 65.43488 h 38.4756 V 218.5879 h 84.5715 v 32.97912 z"
     id="text1"
     style="font-weight:bold;font-size:255.838px;font-family:System-ui;-inkscape-font-specification:'System-ui Bold';letter-spacing:-3.75px;word-spacing:0px;fill:#ffffff;stroke:#ffffff;stroke-width:5;stroke-linecap:square"
     aria-label="L" /><g
     style="fill:#ffffff;fill-opacity:1"
     id="g6"
     transform="matrix(16.56906,0,0,16.56906,11.687286,1.4322531)"><path
       d="m 16.417,9.57 a 7.917,7.917 0 1 1 -8.144,-7.908 1.758,1.758 0 0 1 0.451,0 7.913,7.913 0 0 1 7.693,7.907 z M 5.85,15.838 q 0.254,0.107 0.515,0.193 A 11.772,11.772 0 0 1 4.793,10.111 H 1.713 A 6.816,6.816 0 0 0 5.85,15.838 Z M 2.226,6.922 A 6.727,6.727 0 0 0 1.715,9.004 h 3.078 a 11.83,11.83 0 0 1 1.55,-5.89 Q 6.094,3.197 5.85,3.3 A 6.834,6.834 0 0 0 2.226,6.922 Z m 8.87,2.082 A 14.405,14.405 0 0 0 10.835,6.694 9.847,9.847 0 0 0 10.122,4.434 C 9.675,3.482 9.113,2.861 8.625,2.767 a 8.468,8.468 0 0 0 -0.253,0 C 7.884,2.861 7.322,3.482 6.875,4.435 A 9.847,9.847 0 0 0 6.163,6.695 14.404,14.404 0 0 0 5.902,9.004 Z m -0.974,5.676 a 9.844,9.844 0 0 0 0.713,-2.26 14.413,14.413 0 0 0 0.26,-2.309 H 5.903 a 14.412,14.412 0 0 0 0.261,2.31 9.844,9.844 0 0 0 0.712,2.259 c 0.487,1.036 1.109,1.68 1.624,1.68 0.515,0 1.137,-0.644 1.623,-1.68 z m 4.652,-2.462 a 6.737,6.737 0 0 0 0.513,-2.107 h -3.082 a 11.77,11.77 0 0 1 -1.572,5.922 q 0.261,-0.086 0.517,-0.194 a 6.834,6.834 0 0 0 3.624,-3.621 z M 11.15,3.3 a 6.82,6.82 0 0 0 -0.496,-0.187 11.828,11.828 0 0 1 1.55,5.89 h 3.081 A 6.815,6.815 0 0 0 11.15,3.3 Z"
       id="path1-6"
       style="fill:#ffffff;fill-opacity:1" /></g></svg>
