<?xml version="1.0" standalone="no"?>
<!DOCTYPE svg PUBLIC "-//W3C//DTD SVG 20010904//EN"
 "http://www.w3.org/TR/2001/REC-SVG-20010904/DTD/svg10.dtd">
<svg version="1.0" xmlns="http://www.w3.org/2000/svg"
 width="608.000000pt" height="320.000000pt" viewBox="0 0 608.000000 320.000000"
 preserveAspectRatio="xMidYMid meet">
<metadata>
Created by potrace 1.16, written by Peter Selinger 2001-2019
</metadata>
<g transform="translate(0.000000,320.000000) scale(0.100000,-0.100000)"
fill="#ffffff" stroke="none">
<path d="M2045 2790 c-56 -12 -126 -37 -185 -66 -209 -103 -349 -312 -350
-522 l0 -42 222 2 221 3 12 55 c14 68 27 94 73 143 46 47 124 77 204 77 83 0
131 -16 183 -62 58 -51 79 -107 73 -195 -11 -146 -64 -205 -592 -668 l-365
-320 -1 -167 0 -168 730 0 730 0 0 190 0 190 -416 0 c-236 0 -414 4 -412 9 2
5 100 91 218 192 450 384 550 508 580 722 20 136 -16 280 -96 386 -81 108
-213 190 -373 233 -114 30 -337 34 -456 8z"/>
<path d="M3660 2795 c-344 -73 -564 -331 -631 -740 -19 -116 -16 -389 5 -500
24 -124 43 -188 81 -271 123 -270 341 -426 630 -452 387 -35 685 142 824 490
104 259 116 634 30 915 -28 89 -98 224 -153 295 -92 116 -241 213 -391 254
-82 22 -310 28 -395 9z m262 -381 c94 -31 166 -132 210 -292 19 -67 22 -104
22 -297 1 -197 -1 -229 -22 -309 -52 -206 -150 -306 -297 -306 -113 0 -193 56
-250 174 -60 126 -69 183 -69 436 0 245 12 318 70 437 68 140 202 203 336 157z"/>
<path d="M90 2590 l0 -190 471 0 c433 0 471 -1 465 -16 -5 -13 -774 -1484
-793 -1516 -2 -5 111 -8 251 -8 l255 0 385 768 386 767 0 193 0 192 -710 0
-710 0 0 -190z"/>
<path d="M5295 2258 c-86 -16 -185 -70 -245 -135 -31 -32 -63 -69 -72 -83 -16
-24 -17 -21 -17 88 l-1 112 -120 0 -120 0 2 -922 3 -923 115 0 115 0 3 344 2
343 45 -58 c219 -282 674 -246 864 70 82 136 113 262 113 456 0 146 -14 232
-56 343 -100 266 -360 417 -631 365z m223 -232 c73 -37 134 -101 170 -177 46
-99 57 -159 56 -309 -1 -117 -5 -146 -27 -216 -64 -194 -198 -293 -386 -282
-143 8 -250 83 -315 221 -47 100 -60 164 -60 292 1 241 93 411 262 482 50 21
69 23 152 20 80 -3 103 -8 148 -31z"/>
</g>
</svg>
