<?xml version="1.0" standalone="no"?>
<!DOCTYPE svg PUBLIC "-//W3C//DTD SVG 20010904//EN"
 "http://www.w3.org/TR/2001/REC-SVG-20010904/DTD/svg10.dtd">
<svg version="1.0" xmlns="http://www.w3.org/2000/svg"
 width="325.000000pt" height="80.000000pt" viewBox="0 0 325.000000 80.000000"
 preserveAspectRatio="xMidYMid meet">
<metadata>
Created by potrace 1.16, written by Peter Selinger 2001-2019
</metadata>
<g transform="translate(0.000000,80.000000) scale(0.100000,-0.100000)"
fill="#ffffff" stroke="none">
<path d="M140 400 l0 -250 70 0 c110 0 176 37 223 125 31 57 31 193 0 250 -47
88 -113 125 -223 125 l-70 0 0 -250z"/>
<path d="M689 627 c-49 -26 -102 -95 -119 -155 -32 -118 25 -258 124 -303 28
-13 65 -19 114 -19 l72 0 0 250 0 250 -73 0 c-58 0 -84 -5 -118 -23z"/>
<path d="M1356 608 c-21 -50 -146 -418 -146 -429 0 -5 22 -9 49 -9 l48 0 19
52 19 53 81 3 81 3 19 -53 19 -53 53 -3 c48 -3 53 -1 48 15 -3 10 -39 115 -80
233 l-74 215 -61 3 c-61 3 -62 3 -75 -30z m99 -158 c14 -40 25 -79 25 -87 0
-9 -16 -13 -56 -13 -41 0 -55 3 -51 13 2 6 14 47 27 90 13 42 25 76 27 74 1
-2 14 -37 28 -77z"/>
<path d="M1680 560 c0 -36 -2 -40 -25 -40 -22 0 -25 -4 -25 -35 0 -31 3 -35
25 -35 l25 0 0 -111 c0 -109 0 -111 29 -140 26 -25 37 -29 85 -29 39 0 56 4
55 13 -3 33 -16 62 -29 63 -8 1 -21 2 -27 2 -10 2 -13 29 -13 102 l0 100 30 0
c28 0 30 3 30 35 0 32 -2 35 -30 35 -28 0 -30 2 -30 40 l0 40 -50 0 -50 0 0
-40z"/>
<path d="M1880 345 l0 -175 50 0 50 0 0 116 c0 135 7 154 55 154 48 0 55 -19
55 -154 l0 -116 45 0 45 0 0 118 c0 130 9 152 61 152 44 0 49 -15 49 -147 l0
-123 51 0 50 0 -3 144 c-3 145 -3 145 -32 175 -25 26 -37 31 -79 31 -40 0 -54
-5 -76 -28 l-28 -27 -25 27 c-21 23 -34 28 -73 28 -40 0 -51 -5 -76 -31 l-29
-31 0 31 c0 30 -1 31 -45 31 l-45 0 0 -175z"/>
<path d="M2512 503 c-66 -32 -99 -118 -80 -208 25 -117 162 -170 265 -102 44
29 64 69 70 135 5 70 -24 135 -76 169 -41 28 -129 31 -179 6z m128 -73 c11
-11 22 -31 26 -45 10 -38 -2 -104 -22 -126 -37 -41 -105 -12 -118 52 -19 96
57 176 114 119z"/>
<path d="M2853 500 c-51 -30 -68 -84 -42 -132 13 -23 77 -53 136 -63 23 -4 48
-13 55 -22 10 -13 8 -18 -11 -34 -31 -25 -54 -24 -89 6 -26 22 -37 24 -71 19
-23 -4 -41 -8 -41 -11 0 -19 36 -66 63 -80 41 -21 142 -23 181 -3 67 34 89
112 44 156 -14 15 -51 31 -98 42 -63 15 -76 22 -78 40 -6 39 77 50 97 13 7
-12 20 -15 54 -13 38 3 44 7 40 23 -3 10 -21 32 -40 49 -30 27 -40 30 -101 30
-49 0 -76 -5 -99 -20z"/>
</g>
</svg>
