<?xml version="1.0" standalone="no"?>
<!DOCTYPE svg PUBLIC "-//W3C//DTD SVG 20010904//EN"
 "http://www.w3.org/TR/2001/REC-SVG-20010904/DTD/svg10.dtd">
<svg version="1.0" xmlns="http://www.w3.org/2000/svg"
 width="732.000000pt" height="320.000000pt" viewBox="0 0 732.000000 320.000000"
 preserveAspectRatio="xMidYMid meet">
<metadata>
Created by potrace 1.16, written by Peter Selinger 2001-2019
</metadata>
<g transform="translate(0.000000,320.000000) scale(0.100000,-0.100000)"
fill="#ffffff" stroke="none">
<path d="M2891 2458 c-4 -13 -148 -401 -319 -863 -171 -462 -314 -848 -317
-857 -7 -17 8 -18 221 -18 l229 0 55 160 55 160 356 0 356 0 54 -160 54 -160
228 0 c125 0 227 1 227 3 0 1 -146 396 -324 877 l-324 875 -271 3 -271 2 -9
-22z m398 -1086 c-66 -1 -173 -1 -238 0 l-119 3 112 325 c62 179 116 334 120
345 6 15 38 -68 126 -325 l118 -345 -119 -3z"/>
<path d="M3980 2403 c15 -43 157 -427 315 -853 158 -426 292 -787 297 -803
l10 -27 271 2 272 3 322 870 c177 479 322 873 323 878 0 4 -102 6 -227 5
l-226 -3 -231 -643 c-126 -353 -233 -639 -236 -635 -4 5 -109 295 -235 646
l-228 637 -228 0 -228 0 29 -77z"/>
<path d="M6273 2437 l-193 -40 0 -154 c0 -84 4 -153 8 -153 10 0 335 65 375
75 l27 7 0 -571 0 -571 -200 0 -200 0 0 -155 0 -155 615 0 615 0 0 155 0 155
-200 0 -200 0 0 725 0 725 -227 -1 c-225 -2 -231 -2 -420 -42z"/>
<path d="M422 2027 l-422 -422 428 -428 427 -427 425 425 425 425 -425 425
c-234 234 -427 425 -430 425 -3 0 -195 -190 -428 -423z m743 -117 l310 -310
-313 -313 -312 -312 -312 312 -313 313 310 310 c170 170 312 310 315 310 3 0
145 -140 315 -310z"/>
</g>
</svg>
