<?xml version="1.0" standalone="no"?>
<!DOCTYPE svg PUBLIC "-//W3C//DTD SVG 20010904//EN"
 "http://www.w3.org/TR/2001/REC-SVG-20010904/DTD/svg10.dtd">
<svg version="1.0" xmlns="http://www.w3.org/2000/svg"
 width="337.000000pt" height="320.000000pt" viewBox="0 0 337.000000 320.000000"
 preserveAspectRatio="xMidYMid meet">
<metadata>
Created by potrace 1.16, written by Peter Selinger 2001-2019
</metadata>
<g transform="translate(0.000000,320.000000) scale(0.100000,-0.100000)"
fill="#ffffff" stroke="none">
<path d="M0 1621 l0 -941 245 0 245 0 0 356 0 356 113 -4 c95 -3 121 -8 168
-30 85 -39 124 -96 276 -405 l134 -273 260 0 259 0 -156 313 c-86 171 -172
336 -192 365 -52 79 -119 142 -186 173 l-59 28 29 11 c121 45 222 127 268 218
35 69 56 161 56 248 0 274 -131 433 -412 496 -86 20 -130 22 -570 25 l-478 4
0 -940z m814 574 c116 -30 156 -87 156 -223 0 -131 -40 -199 -135 -228 -29 -9
-111 -18 -197 -21 l-148 -6 0 246 0 247 133 0 c87 0 153 -5 191 -15z"/>
<path d="M2030 2031 l0 -528 113 38 c291 99 516 90 646 -27 63 -56 91 -125 91
-223 0 -127 -56 -221 -162 -273 -170 -83 -411 -53 -690 88 -37 19 -70 34 -73
34 -3 0 -5 -85 -5 -188 l0 -189 93 -31 c394 -135 813 -120 1055 38 149 96 231
226 262 410 15 86 8 215 -15 305 -58 224 -235 384 -485 435 -137 28 -332 26
-432 -6 -17 -5 -18 6 -18 140 l0 146 410 0 410 0 0 180 0 180 -600 0 -600 0 0
-529z"/>
</g>
</svg>
