<?xml version="1.0" standalone="no"?>
<!DOCTYPE svg PUBLIC "-//W3C//DTD SVG 20010904//EN"
 "http://www.w3.org/TR/2001/REC-SVG-20010904/DTD/svg10.dtd">
<svg version="1.0" xmlns="http://www.w3.org/2000/svg"
 width="688.000000pt" height="320.000000pt" viewBox="0 0 688.000000 320.000000"
 preserveAspectRatio="xMidYMid meet">
<metadata>
Created by potrace 1.16, written by Peter Selinger 2001-2019
</metadata>
<g transform="translate(0.000000,320.000000) scale(0.100000,-0.100000)"
fill="#ffffff" stroke="none">
<path d="M395 2804 c-60 -8 -155 -24 -210 -36 l-100 -23 -3 -176 -2 -176 97
33 c244 83 502 86 618 6 110 -76 113 -252 5 -331 -61 -44 -151 -61 -329 -61
l-151 0 0 -155 0 -155 119 0 c340 0 481 -76 481 -258 0 -74 -12 -107 -53 -150
-77 -81 -176 -107 -378 -99 -160 6 -258 27 -406 90 l-83 35 0 -184 0 -183 65
-20 c277 -86 689 -94 933 -20 211 65 353 202 392 380 8 35 11 98 8 166 -4 96
-8 117 -36 176 -54 116 -143 195 -274 242 l-60 22 59 21 c177 65 273 204 273
397 -1 269 -173 421 -530 465 -112 13 -300 11 -435 -6z"/>
<path d="M2502 2810 c-297 -42 -503 -192 -632 -461 -70 -147 -100 -304 -100
-524 0 -233 31 -389 112 -554 88 -182 235 -305 428 -358 91 -25 357 -25 450 0
294 79 472 297 487 597 11 233 -72 416 -244 534 -110 75 -192 99 -354 104
-159 5 -224 -8 -341 -67 l-78 -39 0 27 c0 15 7 54 15 86 60 231 211 345 456
345 107 0 200 -19 323 -65 52 -19 97 -35 100 -35 3 0 6 76 6 169 l0 168 -72
21 c-168 49 -416 72 -556 52z m143 -989 c22 -10 55 -34 72 -54 95 -109 92
-400 -6 -511 -46 -53 -159 -78 -251 -56 -105 25 -165 117 -177 271 -13 173 41
310 142 355 45 20 172 17 220 -5z"/>
<path d="M4110 2806 c-333 -71 -532 -316 -585 -722 -36 -278 -3 -586 84 -778
89 -197 252 -340 446 -392 94 -25 294 -30 396 -9 324 65 526 319 580 730 15
117 6 444 -16 540 -46 205 -108 328 -225 446 -91 93 -172 140 -295 174 -83 22
-301 29 -385 11z m285 -342 c81 -42 134 -158 156 -344 15 -136 6 -526 -15
-630 -22 -105 -70 -197 -124 -235 -41 -28 -49 -30 -135 -30 -80 0 -96 3 -127
24 -75 50 -115 133 -142 295 -17 96 -17 528 0 626 28 166 81 262 166 302 55
25 164 21 221 -8z"/>
<path d="M6110 2327 c-92 -31 -156 -71 -222 -139 -32 -32 -59 -58 -60 -58 -2
0 -3 42 -3 92 l0 93 -222 3 -223 2 0 -965 0 -965 225 0 226 0 -3 364 -3 364
61 -60 c118 -118 237 -168 401 -168 277 0 490 187 563 494 41 170 35 375 -15
533 -63 200 -211 360 -383 413 -93 29 -254 28 -342 -3z m107 -312 c88 -26 155
-111 184 -232 16 -66 16 -256 0 -323 -28 -116 -95 -202 -177 -231 -22 -7 -70
-13 -109 -13 -122 0 -208 62 -257 183 -20 50 -23 73 -23 221 0 148 3 171 23
221 62 155 199 222 359 174z"/>
</g>
</svg>
