<?xml version="1.0" standalone="no"?>
<!DOCTYPE svg PUBLIC "-//W3C//DTD SVG 20010904//EN"
 "http://www.w3.org/TR/2001/REC-SVG-20010904/DTD/svg10.dtd">
<svg version="1.0" xmlns="http://www.w3.org/2000/svg"
 width="559.000000pt" height="320.000000pt" viewBox="0 0 559.000000 320.000000"
 preserveAspectRatio="xMidYMid meet">
<metadata>
Created by potrace 1.16, written by Peter Selinger 2001-2019
</metadata>
<g transform="translate(0.000000,320.000000) scale(0.100000,-0.100000)"
fill="#ffffff" stroke="none">
<path d="M519 2645 c-165 -31 -286 -92 -379 -192 -66 -70 -105 -146 -126 -241
-39 -187 8 -381 119 -490 100 -98 234 -152 523 -212 269 -56 347 -88 419 -172
99 -116 84 -347 -30 -446 -92 -82 -208 -116 -390 -115 -192 0 -340 36 -543
133 l-103 49 3 -142 3 -141 105 -33 c413 -131 819 -120 1065 28 155 93 245
269 245 479 0 228 -99 400 -287 498 -105 54 -171 74 -397 122 -338 72 -406
105 -451 224 -24 62 -17 194 13 252 40 78 127 140 238 167 211 54 451 16 752
-120 9 -4 12 26 12 130 l0 135 -112 31 c-170 46 -277 62 -448 67 -109 2 -178
-1 -231 -11z"/>
<path d="M1860 1604 l0 -1016 408 5 c314 3 428 8 497 20 507 91 745 343 795
842 19 192 -1 416 -52 575 -42 131 -95 218 -193 317 -80 79 -105 98 -197 142
-121 59 -281 103 -436 120 -56 6 -265 11 -462 11 l-360 0 0 -1016z m760 786
c261 -28 434 -118 541 -283 91 -140 135 -391 110 -632 -36 -356 -187 -548
-490 -625 -100 -25 -329 -42 -516 -38 l-130 3 -3 780 c-1 429 0 786 3 793 6
15 342 17 485 2z"/>
<path d="M4010 1606 l0 -1016 135 0 135 0 0 431 0 431 213 -4 c257 -5 297 -16
387 -107 69 -69 112 -144 282 -483 l133 -268 148 0 147 0 -172 337 c-94 186
-193 370 -219 408 -51 76 -137 163 -187 189 l-33 17 79 39 c178 89 256 230
256 460 -1 303 -130 478 -414 556 -56 15 -121 18 -477 21 l-413 4 0 -1015z
m787 770 c126 -40 201 -128 223 -258 24 -142 -6 -255 -90 -340 -49 -48 -68
-60 -131 -79 -67 -21 -95 -23 -294 -23 l-220 -1 -3 364 -2 363 232 -4 c179 -4
245 -9 285 -22z"/>
</g>
</svg>
