<?xml version="1.0" standalone="no"?>
<!DOCTYPE svg PUBLIC "-//W3C//DTD SVG 20010904//EN"
 "http://www.w3.org/TR/2001/REC-SVG-20010904/DTD/svg10.dtd">
<svg version="1.0" xmlns="http://www.w3.org/2000/svg"
 width="1332.000000pt" height="320.000000pt" viewBox="0 0 1332.000000 320.000000"
 preserveAspectRatio="xMidYMid meet">
<metadata>
Created by potrace 1.16, written by Peter Selinger 2001-2019
</metadata>
<g transform="translate(0.000000,320.000000) scale(0.100000,-0.100000)"
fill="#ffffff" stroke="none">
<path d="M1205 2553 c-543 -35 -1048 -212 -1159 -404 -18 -31 -16 -30 28 14
114 114 341 198 663 247 262 40 734 37 1033 -6 513 -74 888 -241 1001 -444
l30 -55 -6 105 c-8 129 -25 170 -104 243 -206 190 -704 311 -1259 305 -97 -1
-199 -3 -227 -5z"/>
<path d="M4633 2519 c-22 -11 -54 -39 -70 -61 l-28 -41 -3 -282 -3 -282 -262
-6 c-301 -6 -374 -19 -515 -89 -206 -101 -327 -314 -309 -543 19 -257 237
-477 537 -541 51 -11 179 -14 581 -14 l517 0 53 28 c64 33 112 97 128 172 7
32 11 192 11 420 l0 370 175 0 175 0 0 -267 c0 -297 8 -361 59 -470 36 -76
117 -160 189 -197 113 -57 91 -56 1042 -56 858 0 876 1 920 21 99 45 160 132
168 241 9 123 -2 143 -173 318 -164 167 -183 197 -171 273 15 95 80 137 210
137 115 0 126 10 126 115 l0 75 -490 0 c-463 0 -492 -1 -542 -20 -70 -26 -117
-66 -153 -131 -27 -48 -30 -63 -30 -139 0 -116 17 -143 190 -320 114 -115 145
-153 154 -185 20 -77 -13 -151 -84 -185 -41 -20 -57 -21 -267 -18 -217 3 -225
4 -273 28 -55 28 -107 95 -125 158 -6 21 -10 161 -10 330 l0 292 123 0 c154 0
157 2 157 113 l0 77 -140 0 -140 0 0 301 c0 283 -1 301 -17 295 -10 -4 -174
-75 -365 -158 l-348 -152 0 -143 0 -143 -180 0 -180 0 0 350 0 350 -297 0
c-281 0 -300 -1 -340 -21z m-103 -1262 c0 -292 -3 -396 -12 -405 -16 -16 -92
-15 -162 3 -156 41 -238 169 -239 375 -2 155 35 264 113 334 64 58 136 81 258
85 l42 1 0 -393z"/>
<path d="M1140 2300 c-466 -44 -850 -163 -1018 -316 l-62 -56 -17 32 c-40 71
-42 70 -43 -16 0 -117 20 -173 84 -237 318 -314 1384 -421 2149 -216 42 12 77
25 77 29 0 13 56 -6 152 -51 48 -23 85 -46 82 -50 -9 -15 -165 -70 -269 -95
-202 -48 -352 -65 -632 -71 -287 -6 -426 3 -663 43 -486 82 -856 253 -953 439
l-26 50 0 -85 c-1 -47 4 -103 10 -125 56 -200 434 -363 980 -421 220 -23 695
-15 894 15 266 41 469 101 632 185 l82 43 53 -42 c87 -69 87 -67 27 -115 -129
-101 -334 -170 -644 -217 -175 -26 -713 -26 -905 0 -568 77 -997 258 -1105
466 l-24 46 -1 -83 c0 -131 13 -166 89 -243 141 -140 422 -241 828 -296 101
-14 199 -17 463 -17 296 0 352 3 480 22 394 61 671 163 825 304 62 57 59 57
96 -17 l20 -40 -4 106 c-3 93 -7 112 -30 152 -189 321 -1157 487 -1967 337
-124 -24 -289 -67 -305 -80 -13 -10 -102 22 -200 73 l-50 25 58 27 c408 181
1282 188 1887 14 295 -85 529 -228 590 -360 l20 -44 -3 105 c-4 127 -19 162
-102 238 -139 127 -393 219 -755 273 -138 21 -191 24 -475 24 -255 0 -347 -4
-455 -18 -293 -40 -523 -101 -703 -184 -110 -52 -108 -52 -188 17 l-44 38 29
31 c33 34 152 99 253 137 441 166 1336 154 1883 -26 283 -92 466 -211 534
-345 l25 -50 1 85 c0 47 -5 103 -11 125 -54 193 -386 350 -890 420 -135 19
-615 28 -759 15z m450 -620 c212 -20 573 -88 627 -119 11 -5 -15 -14 -78 -25
-327 -58 -697 -60 -1074 -5 -236 34 -495 96 -458 110 31 11 216 38 333 49 124
10 487 5 650 -10z"/>
<path d="M11480 1360 l0 -520 55 0 55 0 1 458 0 457 132 -457 131 -458 71 0
72 0 126 458 126 457 0 -457 1 -458 65 0 65 0 0 520 0 521 -102 -3 -103 -3
-120 -447 c-66 -246 -123 -444 -126 -440 -4 4 -61 205 -127 447 l-119 440
-102 3 -101 3 0 -521z"/>
<path d="M12861 1848 c-25 -82 -291 -995 -291 -1002 0 -4 28 -6 62 -4 l61 3
37 130 37 130 176 3 176 2 20 -67 c11 -38 28 -97 38 -133 l19 -65 62 -3 61 -3
-12 43 c-7 24 -74 258 -148 520 l-134 478 -77 0 -76 0 -11 -32z m154 -376 l72
-267 -140 -3 c-77 -1 -142 0 -145 2 -2 3 26 127 63 276 37 149 70 268 73 265
3 -3 38 -126 77 -273z"/>
<path d="M8720 1625 l0 -215 -270 0 -270 0 0 -85 0 -85 270 0 270 0 0 -230 0
-230 225 0 225 0 0 230 0 230 95 0 95 0 0 -230 0 -230 230 0 230 0 0 530 0
530 -230 0 -230 0 0 -215 0 -215 -95 0 -95 0 0 215 0 215 -225 0 -225 0 0
-215z"/>
<path d="M10000 1310 l0 -530 339 0 c267 0 357 3 422 16 249 47 389 234 389
519 0 92 -23 205 -56 272 -34 70 -126 163 -194 196 -104 51 -163 57 -547 57
l-353 0 0 -530z m595 340 c19 -12 39 -36 48 -58 57 -142 43 -523 -21 -595 -16
-18 -100 -47 -139 -47 l-23 0 0 360 0 360 51 0 c34 0 63 -7 84 -20z"/>
<path d="M5 1195 c3 -49 11 -106 17 -125 67 -214 472 -375 1053 -421 164 -13
516 -7 675 11 494 57 854 189 987 363 46 60 41 61 -19 2 -117 -112 -346 -197
-673 -247 -172 -26 -547 -35 -751 -18 -625 51 -1127 240 -1266 475 l-30 50 7
-90z"/>
</g>
</svg>
