<?xml version="1.0" standalone="no"?>
<!DOCTYPE svg PUBLIC "-//W3C//DTD SVG 20010904//EN"
 "http://www.w3.org/TR/2001/REC-SVG-20010904/DTD/svg10.dtd">
<svg version="1.0" xmlns="http://www.w3.org/2000/svg"
 width="864.000000pt" height="320.000000pt" viewBox="0 0 864.000000 320.000000"
 preserveAspectRatio="xMidYMid meet">
<metadata>
Created by potrace 1.16, written by Peter Selinger 2001-2019
</metadata>
<g transform="translate(0.000000,320.000000) scale(0.100000,-0.100000)"
fill="#ffffff" stroke="none">
<path d="M673 2586 c-282 -54 -472 -204 -537 -425 -34 -114 -15 -295 41 -390
95 -163 250 -245 598 -317 264 -54 340 -81 397 -141 95 -101 48 -263 -97 -330
-103 -47 -295 -51 -415 -8 -100 35 -182 115 -196 192 l-6 33 -189 0 -189 0 0
-36 c0 -55 28 -152 63 -218 113 -213 357 -326 707 -326 234 0 406 45 544 144
109 78 182 184 209 302 l14 59 18 -55 c73 -222 225 -365 455 -427 90 -24 319
-24 410 0 162 43 314 154 380 278 l33 62 19 -61 c43 -143 171 -250 337 -283
86 -17 231 -7 303 20 78 30 169 99 204 154 16 26 32 46 37 47 4 0 7 -47 7
-105 l0 -105 196 0 195 0 -3 528 c-4 513 -4 529 -26 592 -56 164 -215 284
-426 321 -88 15 -311 6 -388 -15 -149 -41 -278 -135 -337 -246 -30 -56 -64
-176 -54 -192 2 -5 82 -8 178 -8 l173 0 7 28 c9 43 59 97 112 122 38 18 66 23
133 23 96 1 148 -19 194 -73 32 -39 40 -68 41 -150 l0 -65 -194 -12 c-225 -13
-261 -17 -359 -44 -189 -50 -300 -149 -339 -301 l-17 -68 -158 0 -157 0 -17
-35 c-20 -44 -74 -92 -133 -119 -66 -29 -217 -29 -282 0 -97 45 -167 152 -177
269 l-5 65 492 0 491 0 0 60 c0 103 -20 250 -46 329 -33 106 -87 192 -169 270
-124 117 -271 171 -464 171 -136 0 -226 -20 -330 -71 -184 -91 -324 -300 -347
-517 -9 -87 -13 -92 -36 -47 -30 57 -133 155 -204 192 -88 47 -216 86 -399
123 -236 47 -332 79 -389 129 -81 72 -69 219 24 293 87 69 266 90 402 48 104
-32 197 -130 198 -207 l0 -23 190 0 190 0 0 38 c0 113 -59 242 -154 338 -57
57 -90 80 -166 117 -52 25 -129 53 -170 62 -101 23 -323 29 -417 11z m1741
-801 c78 -38 144 -130 161 -227 l7 -38 -302 0 -302 0 7 33 c21 104 103 210
189 241 57 21 189 16 240 -9z m1404 -598 c-8 -127 -56 -200 -163 -249 -41 -19
-67 -23 -140 -23 -150 1 -215 52 -215 167 0 52 3 62 36 97 22 25 53 46 82 55
44 15 209 31 346 35 l59 1 -5 -83z"/>
<path d="M4300 1609 l0 -960 458 3 c455 4 458 4 552 30 318 86 498 268 593
599 l24 81 6 -94 c13 -192 75 -337 197 -458 121 -122 252 -176 450 -187 237
-13 447 63 571 206 43 49 116 190 121 231 l3 25 -176 3 -177 2 -10 -28 c-13
-39 -73 -96 -130 -123 -69 -34 -215 -34 -290 0 -96 43 -161 143 -177 274 l-7
57 491 0 491 0 0 108 c-1 308 -125 540 -351 651 -104 51 -193 71 -330 71 -202
0 -345 -55 -474 -185 -88 -88 -135 -164 -170 -280 l-22 -70 -6 140 c-6 150
-27 253 -72 364 -115 280 -361 453 -698 490 -53 6 -270 11 -482 11 l-385 0 0
-961z m854 606 c141 -38 250 -128 312 -258 53 -113 67 -194 62 -382 -4 -143
-8 -169 -33 -244 -36 -105 -92 -191 -159 -241 -112 -85 -216 -109 -468 -110
l-168 0 0 632 0 631 198 -6 c131 -4 217 -11 256 -22z m1608 -438 c76 -44 124
-115 146 -215 l10 -42 -300 0 -301 0 7 41 c15 93 84 184 171 226 43 21 61 24
136 21 71 -3 93 -9 131 -31z"/>
<path d="M7203 2047 c8 -13 108 -173 222 -356 l206 -332 -218 -347 c-120 -190
-219 -349 -221 -354 -2 -4 88 -8 200 -8 l203 1 130 244 c72 134 134 243 139
242 4 -2 67 -111 140 -244 l131 -242 212 -1 213 0 -78 128 c-43 70 -143 232
-221 359 l-143 233 208 327 c114 181 214 338 222 351 l15 22 -213 -2 -213 -3
-122 -233 c-67 -128 -124 -234 -127 -237 -3 -3 -62 103 -132 235 l-128 240
-220 0 -220 0 15 -23z"/>
</g>
</svg>
