<?xml version="1.0" standalone="no"?>
<!DOCTYPE svg PUBLIC "-//W3C//DTD SVG 20010904//EN"
 "http://www.w3.org/TR/2001/REC-SVG-20010904/DTD/svg10.dtd">
<svg version="1.0" xmlns="http://www.w3.org/2000/svg"
 width="518.000000pt" height="320.000000pt" viewBox="0 0 518.000000 320.000000"
 preserveAspectRatio="xMidYMid meet">
<metadata>
Created by potrace 1.16, written by Peter Selinger 2001-2019
</metadata>
<g transform="translate(0.000000,320.000000) scale(0.100000,-0.100000)"
fill="#ffffff" stroke="none">
<path d="M2830 1620 l0 -750 90 0 90 0 0 77 0 76 30 -41 c69 -96 164 -137 315
-137 87 0 107 4 158 27 32 15 84 52 116 83 112 107 161 244 161 450 0 259 -97
453 -267 533 -53 25 -68 27 -178 27 -111 0 -124 -2 -176 -28 -32 -15 -79 -51
-108 -81 l-51 -55 0 285 0 284 -90 0 -90 0 0 -750z m589 184 c116 -48 190
-203 191 -395 0 -190 -64 -335 -174 -391 -51 -26 -151 -35 -211 -18 -97 27
-179 134 -205 267 -19 95 -8 284 19 356 55 142 161 214 295 201 27 -3 65 -12
85 -20z"/>
<path d="M4090 2255 l0 -116 88 3 87 3 3 113 3 112 -91 0 -90 0 0 -115z"/>
<path d="M1756 2329 c-134 -15 -258 -77 -336 -168 -53 -60 -114 -185 -142
-286 -18 -69 -21 -108 -22 -280 -1 -177 2 -210 22 -290 77 -302 274 -465 562
-465 235 0 410 106 505 305 70 146 80 206 79 450 0 184 -3 220 -22 289 -89
324 -322 484 -646 445z m174 -269 c100 -51 135 -194 128 -517 -7 -274 -39
-381 -130 -430 -45 -24 -136 -22 -179 3 -97 57 -137 229 -126 544 9 250 43
356 132 400 52 26 124 26 175 0z"/>
<path d="M235 2289 c-49 -10 -123 -26 -162 -35 l-73 -15 0 -125 c0 -68 4 -124
8 -124 5 0 76 14 157 30 81 17 154 30 162 30 11 0 13 -79 11 -462 l-3 -463
-162 -3 -163 -2 0 -125 0 -125 505 0 505 0 0 125 0 125 -165 0 -165 0 0 595 0
595 -182 -1 c-138 -1 -205 -6 -273 -20z"/>
<path d="M4638 2100 l3 -149 -68 -3 -68 -3 0 -65 0 -65 65 -5 65 -5 5 -370 5
-370 28 -58 c52 -106 135 -137 364 -137 l143 0 0 75 0 75 -130 0 c-157 0 -193
11 -218 67 -14 33 -17 85 -20 381 l-4 342 186 0 186 0 0 70 0 70 -185 0 -185
0 0 150 0 150 -87 0 -88 0 3 -150z"/>
<path d="M4090 1410 l0 -540 90 0 90 0 0 540 0 540 -90 0 -90 0 0 -540z"/>
</g>
</svg>
