<?xml version="1.0" encoding="UTF-8" standalone="no"?>
<svg
   xml:space="preserve"
   viewBox="0 0 512 512"
   version="1.1"
   id="svg1"
   sodipodi:docname="color-max2.svg"
   inkscape:version="1.4.4 (dcaf3e7d9e, 2026-05-05)"
   xmlns:inkscape="http://www.inkscape.org/namespaces/inkscape"
   xmlns:sodipodi="http://sodipodi.sourceforge.net/DTD/sodipodi-0.dtd"
   xmlns="http://www.w3.org/2000/svg"
   xmlns:svg="http://www.w3.org/2000/svg"><defs
     id="defs1" /><sodipodi:namedview
     id="namedview1"
     pagecolor="#505050"
     bordercolor="#ffffff"
     borderopacity="1"
     inkscape:showpageshadow="0"
     inkscape:pageopacity="0"
     inkscape:pagecheckerboard="1"
     inkscape:deskcolor="#505050"
     inkscape:zoom="2.3300781"
     inkscape:cx="255.78541"
     inkscape:cy="256"
     inkscape:window-width="2560"
     inkscape:window-height="1380"
     inkscape:window-x="0"
     inkscape:window-y="0"
     inkscape:window-maximized="1"
     inkscape:current-layer="svg1" /><path
     d="M80.7 185.9c-14 0-28.2 6.2-46.3 20.2v-16.6H0v133h36.6v-82.7c16-12.6 23.3-16.6 29.3-16.6 7.1 0 11.8 4.4 11.8 15.5v83.8h36.6v-82.9c16-12.4 23.1-16.4 29.3-16.4 7.1 0 11.8 4.4 11.8 15.5v83.8H192v-96.7c0-29.9-17.1-39.9-33.5-39.9-14 0-28.2 5.8-46.8 20-6.2-14.9-19.2-20-31-20m185.4 0c-36.4 0-66.5 31.3-66.5 70.1s30.2 70.1 66.5 70.1c18 0 33.5-6.6 45.5-21.1v17.5h34.8v-133h-34.8V207c-12-14.4-27.5-21.1-45.5-21.1m86.7 3.6c15.1 23.5 32.2 44.6 52.1 65.6-20 21.9-37 44.8-52.1 67.4h44.1c10.4-16.9 22.2-32.2 35.7-46.6 13.3 14.4 24.4 29.7 34.8 46.6H512c-15.3-23.3-31.9-45.5-51.9-67.4 19.7-21.1 36.6-42.8 51.9-65.6h-43.7c-10.9 16.9-22.6 31-35.7 45-13.3-14-25.1-28.2-35.7-45zm-81.2 27.3c21.7 0 39.2 17.5 39.2 39.2s-17.5 39.2-39.2 39.2-39.2-17.5-39.2-39.2 17.5-39.2 39.2-39.2m0 8.8c-16.6 0-30.2 13.5-30.2 30.4s13.5 30.4 30.2 30.4 30.2-13.5 30.2-30.4-13.5-30.4-30.2-30.4"
     style="fill:#002be7;stroke-width:2;stroke-dasharray:none;stroke:#ffffff;stroke-opacity:1"
     id="path1" /></svg>
