<?xml version="1.0" encoding="UTF-8" standalone="no"?>
<svg
   version="1.0"
   width="921.000000pt"
   height="320.000000pt"
   viewBox="0 0 921.000000 320.000000"
   preserveAspectRatio="xMidYMid meet"
   id="svg6"
   sodipodi:docname="color-HDR10Plus.svg"
   inkscape:version="1.4.4 (dcaf3e7d9e, 2026-05-05)"
   xmlns:inkscape="http://www.inkscape.org/namespaces/inkscape"
   xmlns:sodipodi="http://sodipodi.sourceforge.net/DTD/sodipodi-0.dtd"
   xmlns:xlink="http://www.w3.org/1999/xlink"
   xmlns="http://www.w3.org/2000/svg"
   xmlns:svg="http://www.w3.org/2000/svg">
  <defs
     id="defs6">
    <linearGradient
       id="linearGradient20"
       inkscape:collect="always">
      <stop
         style="stop-color:#000000;stop-opacity:1;"
         offset="0"
         id="stop19" />
      <stop
         style="stop-color:#fab387;stop-opacity:1"
         offset="1"
         id="stop20" />
    </linearGradient>
    <linearGradient
       id="linearGradient18"
       inkscape:collect="always">
      <stop
         style="stop-color:#000000;stop-opacity:1;"
         offset="0"
         id="stop17" />
      <stop
         style="stop-color:#cba6f7;stop-opacity:1"
         offset="1"
         id="stop18" />
    </linearGradient>
    <linearGradient
       id="linearGradient16"
       inkscape:collect="always">
      <stop
         style="stop-color:#000000;stop-opacity:1;"
         offset="0"
         id="stop15" />
      <stop
         style="stop-color:#cba6f7;stop-opacity:1"
         offset="1"
         id="stop16" />
    </linearGradient>
    <linearGradient
       id="linearGradient14"
       inkscape:collect="always">
      <stop
         style="stop-color:#000000;stop-opacity:1;"
         offset="0"
         id="stop13" />
      <stop
         style="stop-color:#cba6f7;stop-opacity:1"
         offset="1"
         id="stop14" />
    </linearGradient>
    <linearGradient
       id="linearGradient12"
       inkscape:collect="always">
      <stop
         style="stop-color:#000000;stop-opacity:1;"
         offset="0"
         id="stop11" />
      <stop
         style="stop-color:#cba6f7;stop-opacity:1"
         offset="1"
         id="stop12" />
    </linearGradient>
    <linearGradient
       id="linearGradient6"
       inkscape:collect="always">
      <stop
         style="stop-color:#000000;stop-opacity:1;"
         offset="0"
         id="stop6" />
      <stop
         style="stop-color:#cba6f7;stop-opacity:1"
         offset="1"
         id="stop7" />
    </linearGradient>
    <linearGradient
       inkscape:collect="always"
       xlink:href="#linearGradient6"
       id="linearGradient7"
       x1="362.80673"
       y1="2187.1646"
       x2="7875.9292"
       y2="856.87323"
       gradientUnits="userSpaceOnUse" />
    <linearGradient
       inkscape:collect="always"
       xlink:href="#linearGradient18"
       id="linearGradient8"
       x1="362.80673"
       y1="2187.1646"
       x2="7875.9292"
       y2="856.87323"
       gradientUnits="userSpaceOnUse" />
    <linearGradient
       inkscape:collect="always"
       xlink:href="#linearGradient16"
       id="linearGradient9"
       x1="362.80673"
       y1="2187.1646"
       x2="7875.9292"
       y2="856.87323"
       gradientUnits="userSpaceOnUse" />
    <linearGradient
       inkscape:collect="always"
       xlink:href="#linearGradient14"
       id="linearGradient10"
       x1="362.80673"
       y1="2187.1646"
       x2="7875.9292"
       y2="856.87323"
       gradientUnits="userSpaceOnUse" />
    <linearGradient
       inkscape:collect="always"
       xlink:href="#linearGradient12"
       id="linearGradient11"
       x1="362.80673"
       y1="2187.1646"
       x2="7875.9292"
       y2="856.87323"
       gradientUnits="userSpaceOnUse" />
    <linearGradient
       inkscape:collect="always"
       xlink:href="#linearGradient20"
       id="linearGradient19"
       x1="7921.2803"
       y1="2255.1909"
       x2="9017.2588"
       y2="1302.8231"
       gradientUnits="userSpaceOnUse" />
  </defs>
  <sodipodi:namedview
     id="namedview6"
     pagecolor="#505050"
     bordercolor="#ffffff"
     borderopacity="1"
     inkscape:showpageshadow="0"
     inkscape:pageopacity="0"
     inkscape:pagecheckerboard="1"
     inkscape:deskcolor="#505050"
     inkscape:document-units="pt"
     inkscape:zoom="0.99226384"
     inkscape:cx="574.94789"
     inkscape:cy="146.63439"
     inkscape:window-width="2560"
     inkscape:window-height="1380"
     inkscape:window-x="0"
     inkscape:window-y="0"
     inkscape:window-maximized="1"
     inkscape:current-layer="svg6" />
  <metadata
     id="metadata1">
Created by potrace 1.16, written by Peter Selinger 2001-2019
</metadata>
  <g
     transform="translate(0.000000,320.000000) scale(0.100000,-0.100000)"
     fill="#ffffff"
     stroke="none"
     id="g6"
     style="fill:#cba6f7;fill-opacity:1">
    <path
       d="M0 1600 l0 -930 195 0 195 0 0 385 0 385 400 0 400 0 0 -385 0 -385 200 0 200 0 0 930 0 930 -200 0 -200 0 0 -385 0 -385 -397 2 -398 3 -3 383 -2 382 -195 0 -195 0 0 -930z"
       id="path1"
       style="fill-opacity:1;stroke:url(#linearGradient11);fill:#cba6f7" />
    <path
       d="M1810 1600 l0 -930 384 0 c415 0 486 6 635 56 158 53 319 179 407 320 159 255 189 678 69 977 -85 212 -268 382 -490 456 -136 45 -211 51 -626 51 l-379 0 0 -930z m865 561 c216 -78 307 -246 306 -561 0 -317 -91 -483 -306 -561 -53 -19 -86 -23 -267 -27 l-208 -4 0 592 0 592 208 -4 c181 -4 214 -8 267 -27z"
       id="path2"
       style="fill-opacity:1;stroke:url(#linearGradient10);fill:#cba6f7" />
    <path
       d="M3570 1601 l0 -931 195 0 195 0 0 330 0 330 144 0 144 0 175 -327 175 -328 216 -3 c119 -1 216 0 216 4 0 3 -85 162 -190 353 -104 191 -190 351 -190 357 0 5 28 25 61 44 202 115 298 369 243 638 -44 218 -194 371 -429 439 -52 15 -120 18 -507 21 l-448 3 0 -930z m821 585 c110 -40 169 -129 169 -255 0 -101 -16 -147 -70 -201 -67 -68 -120 -80 -348 -80 l-182 0 0 281 0 281 193 -4 c146 -4 203 -9 238 -22z"
       id="path3"
       style="fill-opacity:1;stroke:url(#linearGradient9);fill:#cba6f7" />
    <path
       d="M5360 2325 l0 -195 45 0 45 0 0 -720 0 -720 220 0 220 0 0 915 0 915 -265 0 -265 0 0 -195z"
       id="path4"
       style="fill-opacity:1;stroke:url(#linearGradient8);fill:#cba6f7" />
    <path
       d="M6555 2505 c-259 -41 -406 -174 -463 -416 -15 -64 -17 -131 -17 -499 1 -408 2 -428 23 -505 59 -211 169 -322 382 -382 60 -16 112 -18 625 -18 550 0 561 1 640 23 267 75 358 211 372 555 l6 147 -211 0 -210 0 -4 -134 c-3 -117 -6 -138 -24 -162 -11 -15 -31 -31 -45 -34 -13 -4 -249 -4 -524 -1 -568 7 -556 5 -591 84 -18 38 -19 72 -19 442 0 384 1 401 20 435 12 19 38 44 60 55 39 19 65 20 777 25 l736 5 -18 54 c-67 187 -222 298 -463 331 -115 15 -951 11 -1052 -5z"
       id="path5"
       style="fill-opacity:1;stroke:url(#linearGradient7);fill:#cba6f7" />
    <path
       d="M8250 2235 l0 -265 -275 0 -275 0 0 -205 0 -205 275 0 275 0 2 -267 3 -268 208 -3 207 -2 0 270 0 270 265 0 265 0 0 205 0 205 -265 0 -265 0 0 265 0 265 -210 0 -210 0 0 -265z"
       id="path6"
       style="fill:#f9e2af;fill-opacity:1;stroke:url(#linearGradient19)" />
  </g>
</svg>
