<?xml version="1.0" encoding="UTF-8" standalone="no"?>
<svg
   version="1.0"
   width="1228.000000pt"
   height="320.000000pt"
   viewBox="0 0 1228.000000 320.000000"
   preserveAspectRatio="xMidYMid meet"
   id="svg6"
   sodipodi:docname="color-webrip.svg"
   inkscape:version="1.4.4 (dcaf3e7d9e, 2026-05-05)"
   xml:space="preserve"
   xmlns:inkscape="http://www.inkscape.org/namespaces/inkscape"
   xmlns:sodipodi="http://sodipodi.sourceforge.net/DTD/sodipodi-0.dtd"
   xmlns="http://www.w3.org/2000/svg"
   xmlns:svg="http://www.w3.org/2000/svg"><defs
     id="defs6" /><sodipodi:namedview
     id="namedview6"
     pagecolor="#505050"
     bordercolor="#ffffff"
     borderopacity="1"
     inkscape:showpageshadow="0"
     inkscape:pageopacity="0"
     inkscape:pagecheckerboard="1"
     inkscape:deskcolor="#505050"
     inkscape:document-units="pt"
     inkscape:zoom="0.74419788"
     inkscape:cx="657.0833"
     inkscape:cy="139.07591"
     inkscape:window-width="2560"
     inkscape:window-height="1380"
     inkscape:window-x="0"
     inkscape:window-y="0"
     inkscape:window-maximized="1"
     inkscape:current-layer="svg6" /><metadata
     id="metadata1">
Created by potrace 1.16, written by Peter Selinger 2001-2019
</metadata><g
     style="fill:#eba0ac;fill-opacity:1"
     id="g6"
     transform="matrix(16.56906,0,0,16.56906,11.687286,1.4322531)"><path
       d="m 16.417,9.57 a 7.917,7.917 0 1 1 -8.144,-7.908 1.758,1.758 0 0 1 0.451,0 7.913,7.913 0 0 1 7.693,7.907 z M 5.85,15.838 q 0.254,0.107 0.515,0.193 A 11.772,11.772 0 0 1 4.793,10.111 H 1.713 A 6.816,6.816 0 0 0 5.85,15.838 Z M 2.226,6.922 A 6.727,6.727 0 0 0 1.715,9.004 h 3.078 a 11.83,11.83 0 0 1 1.55,-5.89 Q 6.094,3.197 5.85,3.3 A 6.834,6.834 0 0 0 2.226,6.922 Z m 8.87,2.082 A 14.405,14.405 0 0 0 10.835,6.694 9.847,9.847 0 0 0 10.122,4.434 C 9.675,3.482 9.113,2.861 8.625,2.767 a 8.468,8.468 0 0 0 -0.253,0 C 7.884,2.861 7.322,3.482 6.875,4.435 A 9.847,9.847 0 0 0 6.163,6.695 14.404,14.404 0 0 0 5.902,9.004 Z m -0.974,5.676 a 9.844,9.844 0 0 0 0.713,-2.26 14.413,14.413 0 0 0 0.26,-2.309 H 5.903 a 14.412,14.412 0 0 0 0.261,2.31 9.844,9.844 0 0 0 0.712,2.259 c 0.487,1.036 1.109,1.68 1.624,1.68 0.515,0 1.137,-0.644 1.623,-1.68 z m 4.652,-2.462 a 6.737,6.737 0 0 0 0.513,-2.107 h -3.082 a 11.77,11.77 0 0 1 -1.572,5.922 q 0.261,-0.086 0.517,-0.194 a 6.834,6.834 0 0 0 3.624,-3.621 z M 11.15,3.3 a 6.82,6.82 0 0 0 -0.496,-0.187 11.828,11.828 0 0 1 1.55,5.89 h 3.081 A 6.815,6.815 0 0 0 11.15,3.3 Z"
       id="path1-6"
       style="fill:#eba0ac;fill-opacity:1" /><path
       d="M 355.1783,246.22502 308.88298,73.774984 h 37.96216 l 20.2542,85.646326 q 2.4305,10.64792 4.62953,21.29584 2.19903,10.64793 4.16658,21.29585 2.08329,10.64792 3.9351,21.41158 h -7.06004 q 2.08329,-10.76366 4.28232,-21.41158 2.19903,-10.64792 4.51379,-21.29585 2.31477,-10.64792 4.86101,-21.29584 l 21.41158,-85.646326 h 36.34182 l 21.18011,85.646326 q 2.54624,10.64792 4.86101,21.29584 2.4305,10.64793 4.62953,21.29585 2.19902,10.64792 4.28231,21.41158 h -7.29151 q 1.96755,-10.76366 3.9351,-21.41158 2.08329,-10.64792 4.28232,-21.29585 2.31477,-10.64792 4.62953,-21.29584 l 20.2542,-85.646326 h 38.07789 L 496.61047,246.22502 H 456.91224 L 432.37573,152.1298 q -2.54624,-10.30071 -5.20822,-22.91618 -2.54625,-12.61547 -6.13413,-28.35588 h 9.72201 q -3.47215,15.74041 -6.01839,28.35588 -2.54624,12.61547 -5.32396,22.91618 L 395.108,246.22502 Z"
       id="text7"
       style="font-weight:bold;font-size:237.032px;font-family:System-ui;-inkscape-font-specification:'System-ui Bold';letter-spacing:-3.47435px;word-spacing:0px;fill:#eba0ac;stroke:#eba0ac;stroke-width:0;stroke-linecap:square"
       aria-label="W"
       transform="matrix(0.06035345,0,0,0.06035345,-0.70536808,-0.08644142)" /><path
       d="M 553.43576,246.22502 V 73.774984 h 123.72422 v 30.554906 h -88.07683 v 39.92971 h 81.47974 v 29.74473 h -81.47974 v 41.66579 h 88.07683 v 30.5549 z"
       id="text5"
       style="font-weight:bold;font-size:237.032px;font-family:System-ui;-inkscape-font-specification:'System-ui Bold';letter-spacing:-3.47435px;word-spacing:0px;fill:#eba0ac;stroke:#eba0ac;stroke-width:0;stroke-linecap:square"
       aria-label="E"
       transform="matrix(0.06035345,0,0,0.06035345,-0.70536808,-0.08644142)" /><path
       d="M 694.05563,246.22502 V 73.774984 h 69.09575 q 18.51813,0 31.48081,5.555437 13.07843,5.555438 19.79125,15.50893 6.71282,9.953489 6.71282,23.263399 0,9.95349 -3.81936,17.70795 -3.70363,7.63873 -10.64793,12.73121 -6.94429,5.09249 -16.43483,7.52299 v 0.23148 q 10.53218,0.9259 18.98108,6.13413 8.44889,5.09248 13.3099,14.00433 4.97675,8.91185 4.97675,21.1801 0,14.35155 -6.9443,25.34669 -6.82856,10.99513 -20.36994,17.12926 -13.54138,6.13413 -33.10115,6.13413 z m 34.83722,-28.00866 h 33.21689 q 13.77285,0 21.41158,-5.90265 7.63873,-5.90266 7.63873,-16.66632 0,-7.17577 -3.35641,-12.38399 -3.35641,-5.32396 -9.72202,-8.10168 -6.36561,-2.89346 -15.39319,-2.89346 h -33.79558 z m 0,-72.79938 h 31.59655 q 7.8702,0 13.42564,-2.66198 5.67118,-2.66198 8.68037,-7.52299 3.12494,-4.97675 3.12494,-11.57383 0,-10.06923 -6.71282,-15.97188 -6.71282,-5.90265 -18.51813,-5.90265 h -31.59655 z"
       id="text4"
       style="font-weight:bold;font-size:237.032px;font-family:System-ui;-inkscape-font-specification:'System-ui Bold';letter-spacing:-3.47435px;word-spacing:0px;fill:#eba0ac;stroke:#eba0ac;stroke-width:0;stroke-linecap:square"
       aria-label="B"
       transform="matrix(0.06035345,0,0,0.06035345,-0.70536808,-0.08644142)" /><path
       d="M 843.3558,246.22502 V 73.774984 h 68.98001 q 19.44404,0 33.56411,6.944297 14.2358,6.828558 21.87453,19.559769 7.75447,12.61547 7.75447,30.09195 0,17.01353 -8.10168,29.51326 -8.10168,12.49974 -22.80045,19.3283 -14.58302,6.71282 -34.37426,6.71282 h -45.48515 v -28.58736 h 45.48515 q 9.3748,0 16.20335,-3.35641 6.82856,-3.35641 10.53219,-9.3748 3.70362,-6.13413 3.70362,-14.23581 0,-8.33315 -3.70362,-14.23581 -3.70363,-6.01839 -10.53219,-9.3748 -6.82855,-3.35641 -16.31909,-3.35641 h -31.1336 v 142.82104 z m 97.79885,0 -39.46676,-77.89186 h 37.38347 l 40.27692,77.89186 z"
       id="text3"
       style="font-weight:bold;font-size:237.032px;font-family:System-ui;-inkscape-font-specification:'System-ui Bold';letter-spacing:-3.47435px;word-spacing:0px;fill:#eba0ac;stroke:#eba0ac;stroke-width:0;stroke-linecap:square"
       aria-label="R"
       transform="matrix(0.06035345,0,0,0.06035345,-0.70536808,-0.08644142)" /><path
       d="M 1029.6922,73.774984 V 246.22502 H 994.04483 V 73.774984 Z"
       id="text2"
       style="font-weight:bold;font-size:237.032px;font-family:System-ui;-inkscape-font-specification:'System-ui Bold';letter-spacing:-3.47435px;word-spacing:0px;fill:#eba0ac;stroke:#eba0ac;stroke-width:0;stroke-linecap:square"
       aria-label="I"
       transform="matrix(0.06035345,0,0,0.06035345,-0.70536808,-0.08644142)" /><path
       d="M 1051.9118,246.22502 V 73.774984 h 68.0541 q 19.444,0 33.5641,6.944297 14.12,6.828558 21.7588,19.559769 7.7544,12.61547 7.7544,30.09195 0,17.36074 -7.7544,30.09196 -7.7545,12.61547 -22.106,19.55977 -14.2358,6.94429 -33.6799,6.94429 h -47.7999 v -29.86047 h 45.9481 q 9.4906,0 16.3191,-3.24068 6.8286,-3.35641 10.5322,-9.3748 3.7036,-6.01839 3.7036,-14.12007 0,-8.33315 -3.7036,-14.23581 -3.7036,-5.90265 -10.5322,-9.14332 -6.8285,-3.35641 -16.3191,-3.35641 h -30.0919 v 142.58956 z"
       id="text1"
       style="font-weight:bold;font-size:237.032px;font-family:System-ui;-inkscape-font-specification:'System-ui Bold';letter-spacing:-3.47435px;word-spacing:0px;fill:#eba0ac;stroke:#eba0ac;stroke-width:0;stroke-linecap:square"
       aria-label="P"
       transform="matrix(0.06035345,0,0,0.06035345,-0.70536808,-0.08644142)" /></g></svg>
