<svg width="1152" height="427" viewBox="0 0 1152 427" fill="none" xmlns="http://www.w3.org/2000/svg">
<path d="M178.267 267.603C178.267 289.388 170.431 306.672 154.759 319.454C139.198 332.237 117.079 338.628 88.4018 338.628C62.5038 338.628 39.4956 333.737 19.3773 323.956V275.939C30.937 281.052 42.9412 285.665 55.3901 289.777C67.839 293.89 80.1767 295.946 92.4033 295.946C105.074 295.946 114.078 293.501 119.413 288.61C124.859 283.719 127.582 277.551 127.582 270.104C127.582 263.99 125.526 258.766 121.414 254.431C117.301 250.096 111.632 246.039 104.408 242.26C97.2939 238.481 89.2355 234.424 80.2323 230.089C74.5636 227.422 68.3947 224.198 61.7257 220.419C55.0567 216.529 48.7211 211.805 42.7189 206.247C36.7168 200.69 31.7706 193.965 27.8803 186.074C24.1012 178.071 22.2117 168.512 22.2117 157.397C22.2117 135.5 29.6032 118.494 44.3862 106.379C59.1692 94.1521 79.2875 88.0388 104.741 88.0388C117.412 88.0388 129.472 89.5393 140.921 92.5404C152.48 95.4303 164.54 99.654 177.1 105.212L160.427 145.393C149.201 140.835 139.142 137.334 130.25 134.889C121.358 132.332 112.299 131.054 103.074 131.054C93.2925 131.054 85.7898 133.333 80.5657 137.89C75.3417 142.447 72.7296 148.394 72.7296 155.73C72.7296 164.399 76.5643 171.235 84.2337 176.237C91.9031 181.127 103.407 187.241 118.746 194.577C131.195 200.468 141.81 206.636 150.591 213.083C159.483 219.419 166.318 226.921 171.098 235.591C175.877 244.15 178.267 254.82 178.267 267.603Z" fill="#B4BEFE"/>
<path d="M178.26 267.602C178.26 254.821 175.871 244.152 171.092 235.594C166.313 226.926 159.478 219.424 150.586 213.089C141.806 206.642 131.192 200.473 118.744 194.583C103.405 187.247 91.8996 181.134 84.2299 176.243C76.5587 171.24 72.723 164.401 72.723 155.729C72.7231 148.392 75.3354 142.443 80.5609 137.885C85.7866 133.326 93.2915 131.048 103.074 131.048C112.3 131.048 121.36 132.326 130.252 134.883C139.143 137.327 149.2 140.828 160.423 145.384L177.091 105.215C164.534 99.6586 152.477 95.4359 140.919 92.5466C129.472 89.5458 117.411 88.0456 104.741 88.0456C79.2883 88.0457 59.1714 94.1583 44.39 106.384C29.6089 118.497 22.2181 135.502 22.2181 157.397C22.2182 168.511 24.1076 178.069 27.8861 186.071C31.776 193.962 36.7226 200.686 42.724 206.243C48.7257 211.8 55.0605 216.524 61.7289 220.414C68.3976 224.193 74.5664 227.415 80.2347 230.083C89.238 234.418 97.2968 238.475 104.411 242.255C111.636 246.034 117.305 250.091 121.418 254.426C125.532 258.763 127.589 263.988 127.589 270.103C127.589 277.552 124.865 283.723 119.417 288.615C114.08 293.507 105.075 295.953 92.4037 295.953C80.1764 295.953 67.8375 293.897 55.3881 289.784C42.9424 285.672 30.9411 281.06 19.3842 275.949V323.951C39.5005 333.73 62.5061 338.621 88.4017 338.621C117.078 338.621 139.195 332.23 154.754 319.449C170.425 306.668 178.26 289.386 178.26 267.602ZM72.7367 155.729C72.7367 164.397 76.57 171.231 84.2377 176.231L85.7201 177.163C93.3592 181.891 104.369 187.694 118.748 194.571C131.197 200.462 141.813 206.631 150.594 213.078C159.487 219.414 166.324 226.917 171.104 235.588C175.884 244.147 178.274 254.819 178.274 267.602C178.274 289.39 170.437 306.676 154.763 319.46C139.2 332.243 117.079 338.635 88.4017 338.635C62.5028 338.634 39.4937 333.743 19.3744 323.962L19.3617 323.956H19.3705V275.954L19.3773 275.939L19.3802 275.932C30.9397 281.045 42.9433 285.659 55.392 289.771C67.8402 293.884 80.1779 295.939 92.4037 295.939C105.074 295.939 114.075 293.494 119.409 288.605C124.853 283.716 127.576 277.548 127.576 270.103C127.576 263.992 125.52 258.77 121.409 254.436C117.297 250.102 111.629 246.045 104.405 242.266C97.2911 238.487 89.232 234.43 80.2289 230.095C74.5602 227.428 68.3909 224.205 61.722 220.426C55.0527 216.535 48.7166 211.81 42.7142 206.253C36.7115 200.695 31.765 193.969 27.8744 186.077C24.0948 178.073 22.2045 168.513 22.2045 157.397C22.2045 135.499 29.5974 118.491 44.3822 106.374C59.1667 94.146 79.2863 88.032 104.741 88.032C117.412 88.032 129.473 89.5327 140.922 92.5339C152.482 95.4239 164.543 99.6481 177.103 105.206L177.367 105.322L177.106 105.215L160.099 146.201L160.424 145.398C149.9 141.126 140.402 137.782 131.929 135.366L130.248 134.895C121.357 132.339 112.298 131.061 103.074 131.061C93.2934 131.061 85.7921 133.34 80.5697 137.895C75.3475 142.451 72.7368 148.395 72.7367 155.729Z" fill="#B4BEFE"/>
<path d="M271.837 145.393C297.624 145.393 317.965 152.728 332.859 167.4C347.864 182.072 355.367 202.969 355.367 230.089V254.765H235.157C235.713 269.103 239.992 280.385 247.995 288.61C256.109 296.724 267.335 300.781 281.674 300.781C293.567 300.781 304.46 299.558 314.352 297.113C324.245 294.668 334.415 291 344.863 286.109V325.457C335.637 330.014 325.967 333.348 315.853 335.46C305.849 337.572 293.678 338.628 279.34 338.628C260.666 338.628 244.105 335.182 229.655 328.291C215.317 321.399 204.035 310.896 195.81 296.78C187.696 282.664 183.639 264.879 183.639 243.427C183.639 210.86 191.753 186.407 207.981 170.068C224.209 153.618 245.494 145.393 271.837 145.393ZM272.17 181.572C262.278 181.572 254.053 184.74 247.495 191.075C241.048 197.411 237.325 207.359 236.324 220.919H307.683C307.572 209.693 304.571 200.356 298.68 192.909C292.9 185.351 284.064 181.572 272.17 181.572Z" fill="#B4BEFE"/>
<path d="M355.36 230.089C355.36 202.97 347.857 182.075 332.854 167.405C317.961 152.735 297.623 145.399 271.837 145.399C245.496 145.399 224.212 153.624 207.986 170.072C191.76 186.41 183.646 210.862 183.646 243.428C183.646 264.879 187.703 282.662 195.816 296.776L196.596 298.089C204.749 311.544 215.769 321.61 229.659 328.285C244.107 335.176 260.667 338.621 279.339 338.621C293.677 338.621 305.848 337.565 315.851 335.453C325.964 333.342 335.632 330.007 344.856 325.451V286.119C334.411 291.008 324.244 294.675 314.354 297.12C304.461 299.565 293.568 300.788 281.674 300.788C267.335 300.788 256.106 296.731 247.991 288.615C240.013 280.416 235.737 269.181 235.158 254.91V254.758H355.36V230.089ZM235.158 254.91V254.938L235.151 254.765C235.153 254.813 235.156 254.862 235.158 254.91ZM272.17 181.565C284.065 181.565 292.903 185.345 298.685 192.905C304.507 200.266 307.506 209.472 307.683 220.522V220.926H236.415L236.331 220.919L236.324 220.919L236.318 220.919C237.318 207.358 241.042 197.407 247.491 191.07C254.05 184.734 262.276 181.565 272.17 181.565ZM307.69 220.919C307.688 220.786 307.685 220.654 307.683 220.522V220.24L307.69 220.919ZM272.17 181.579C262.28 181.579 254.056 184.746 247.499 191.08C241.055 197.413 237.333 207.357 236.332 220.913H307.676C307.564 209.691 304.563 200.358 298.674 192.914C292.896 185.358 284.062 181.579 272.17 181.579ZM355.373 254.765L355.367 254.765L355.367 254.771H235.164C235.721 269.105 240 280.383 248 288.605L248.77 289.354C256.817 296.968 267.785 300.774 281.674 300.774C293.567 300.774 304.459 299.552 314.351 297.106C323.625 294.814 333.142 291.447 342.905 287.006L344.847 286.109H344.869V325.47L344.866 325.463C335.64 330.02 325.969 333.355 315.854 335.467C305.85 337.579 293.678 338.635 279.339 338.635C260.665 338.635 244.103 335.189 229.653 328.297C215.313 321.405 204.03 310.9 195.804 296.783C187.689 282.666 183.632 264.88 183.632 243.428C183.632 210.86 191.746 186.404 207.976 170.063C224.205 153.612 245.493 145.386 271.837 145.386C297.625 145.386 317.968 152.722 332.864 167.395C347.87 182.069 355.373 202.967 355.373 230.089V254.765Z" fill="#B4BEFE"/>
<path d="M449.603 145.059C474.612 145.059 493.786 150.505 507.124 161.398C520.462 172.291 527.131 188.852 527.131 211.083V335.293H491.618L481.782 309.951H480.448C472.445 320.066 463.997 327.402 455.105 331.959C446.325 336.405 434.154 338.628 418.592 338.628C402.031 338.628 388.248 333.848 377.244 324.289C366.352 314.619 360.905 299.725 360.905 279.607C360.905 259.822 367.852 245.261 381.746 235.925C395.64 226.477 416.481 221.253 444.268 220.252L476.613 219.252V211.083C476.613 201.301 474.057 194.132 468.944 189.575C463.831 185.018 456.717 182.739 447.603 182.739C438.6 182.739 429.763 184.017 421.093 186.574C412.424 189.13 403.754 192.354 395.084 196.244L378.245 161.898C388.137 156.674 399.197 152.562 411.423 149.561C423.761 146.56 436.488 145.059 449.603 145.059ZM476.613 248.929L456.939 249.596C440.489 250.041 429.041 252.986 422.594 258.433C416.258 263.879 413.09 271.048 413.09 279.94C413.09 287.721 415.369 293.278 419.926 296.613C424.483 299.836 430.43 301.448 437.766 301.448C448.659 301.448 457.829 298.225 465.276 291.778C472.834 285.331 476.613 276.161 476.613 264.268V248.929Z" fill="#B4BEFE"/>
<path d="M527.124 211.083C527.124 188.854 520.456 172.295 507.12 161.404C493.784 150.512 474.612 145.066 449.604 145.066C436.488 145.066 423.762 146.566 411.425 149.567C399.201 152.567 388.144 156.679 378.254 161.901L395.087 196.235C403.755 192.346 412.424 189.124 421.092 186.568C429.762 184.011 438.599 182.732 447.603 182.732C456.718 182.732 463.834 185.011 468.948 189.57C474.063 194.129 476.62 201.3 476.62 211.083V219.469L476.613 219.259L444.269 220.259C416.482 221.26 395.642 226.483 381.75 235.93C367.858 245.265 360.912 259.824 360.912 279.607C360.912 299.724 366.358 314.616 377.249 324.285C388.252 333.842 402.033 338.622 418.593 338.622C434.153 338.622 446.323 336.398 455.103 331.953C463.993 327.396 472.44 320.061 480.442 309.947L480.448 309.94V309.944H481.799L481.782 309.951L481.788 309.949L491.623 335.287H527.124V211.083ZM476.606 264.268V248.936L456.939 249.603C440.49 250.048 429.044 252.993 422.599 258.438C416.265 263.883 413.098 271.05 413.098 279.94C413.098 287.719 415.376 293.275 419.931 296.608C424.486 299.83 430.431 301.441 437.766 301.441C448.657 301.441 457.826 298.219 465.271 291.773C472.828 285.328 476.606 276.16 476.606 264.268ZM476.62 264.268C476.62 276.163 472.84 285.334 465.28 291.783C457.832 298.231 448.66 301.455 437.766 301.455C430.429 301.455 424.481 299.843 419.923 296.619C415.363 293.282 413.084 287.722 413.084 279.94C413.084 271.046 416.253 263.875 422.59 258.427C429.038 252.979 440.489 250.034 456.939 249.589L476.613 248.922L476.415 248.929H476.62V264.268ZM527.138 335.293L527.131 335.293L527.131 335.3H491.602L491.618 335.293L491.612 335.295L481.777 309.958H480.451C472.448 320.072 464.001 327.407 455.108 331.964C446.326 336.411 434.154 338.634 418.593 338.634C402.03 338.634 388.246 333.855 377.24 324.294C366.346 314.623 360.898 299.726 360.898 279.607C360.898 259.82 367.846 245.258 381.742 235.919C395.637 226.471 416.48 221.246 444.268 220.246L476.606 219.246V211.083C476.606 201.302 474.05 194.135 468.939 189.58C463.828 185.024 456.716 182.746 447.603 182.746C438.6 182.746 429.765 184.024 421.096 186.581C412.426 189.137 403.756 192.36 395.087 196.25L394.907 196.331L395.078 196.247L378.238 161.901L378.141 161.701L378.241 161.891C388.134 156.667 399.195 152.555 411.422 149.554C423.76 146.553 436.487 145.052 449.604 145.052C474.613 145.052 493.788 150.499 507.128 161.393C520.468 172.287 527.138 188.851 527.138 211.083V335.293Z" fill="#B4BEFE"/>
<path d="M762.251 211.083C762.251 252.208 750.525 283.219 727.072 304.116C703.73 324.901 671.052 335.293 629.037 335.293H560.013V91.54H636.54C662.104 91.54 684.279 96.0972 703.063 105.212C721.848 114.215 736.409 127.608 746.746 145.393C757.083 163.065 762.251 184.962 762.251 211.083ZM708.565 212.416C708.565 185.407 702.619 165.566 690.726 152.895C678.944 140.224 661.771 133.888 639.207 133.888H611.698V292.612H633.872C683.668 292.612 708.565 265.88 708.565 212.416Z" fill="#B4BEFE"/>
<path d="M762.244 211.083C762.244 184.963 757.076 163.067 746.74 145.396C736.404 127.613 721.844 114.22 703.06 105.218C684.277 96.104 662.104 91.5469 636.54 91.5469H560.019V335.287H629.037C671.051 335.287 703.727 324.894 727.067 304.11C750.518 283.216 762.244 252.207 762.244 211.083ZM708.559 212.416C708.558 185.407 702.612 165.569 690.721 152.899C678.94 140.23 661.77 133.896 639.208 133.896H611.704V292.604H633.872C658.769 292.604 677.44 285.923 689.888 272.559C702.335 259.194 708.559 239.147 708.559 212.416ZM708.572 212.416C708.572 239.149 702.348 259.2 689.897 272.567C677.447 285.935 658.771 292.618 633.872 292.618H611.697L611.698 292.612L611.691 292.611V133.889L611.698 133.888L611.697 133.882H639.208C661.772 133.882 678.947 140.218 690.73 152.891C702.625 165.564 708.572 185.406 708.572 212.416ZM762.258 211.083C762.258 252.21 750.531 283.222 727.076 304.12C703.733 324.907 671.053 335.3 629.037 335.3H560.013V335.293L560.006 335.293V91.54H560.013V91.5332H636.54C662.105 91.5332 684.281 96.0903 703.066 105.205C721.852 114.209 736.414 127.603 746.752 145.389C757.09 163.063 762.258 184.962 762.258 211.083Z" fill="#B4BEFE"/>
<path d="M862.157 145.393C887.943 145.393 908.284 152.728 923.178 167.4C938.184 182.072 945.686 202.969 945.686 230.089V254.765H825.477C826.033 269.103 830.312 280.385 838.315 288.61C846.429 296.724 857.655 300.781 871.993 300.781C883.887 300.781 894.779 299.558 904.672 297.113C914.564 294.668 924.734 291 935.183 286.109V325.457C925.957 330.014 916.287 333.348 906.172 335.46C896.169 337.572 883.998 338.628 869.659 338.628C850.986 338.628 834.424 335.182 819.975 328.291C805.636 321.399 794.355 310.896 786.13 296.78C778.016 282.664 773.959 264.879 773.959 243.427C773.959 210.86 782.073 186.407 798.301 170.068C814.529 153.618 835.814 145.393 862.157 145.393ZM862.49 181.572C852.598 181.572 844.372 184.74 837.815 191.075C831.368 197.411 827.644 207.359 826.644 220.919H898.003C897.892 209.693 894.89 200.356 888.999 192.909C883.22 185.351 874.383 181.572 862.49 181.572Z" fill="#B4BEFE"/>
<path d="M945.679 230.089C945.679 202.97 938.177 182.075 923.173 167.405C908.281 152.735 887.942 145.399 862.157 145.399C835.816 145.399 814.532 153.624 798.305 170.072C782.079 186.41 773.965 210.862 773.965 243.428C773.965 264.879 778.022 282.662 786.135 296.776L786.916 298.089C795.068 311.544 806.089 321.61 819.978 328.285C834.427 335.176 850.987 338.621 869.66 338.621C883.998 338.621 896.168 337.565 906.17 335.453C916.283 333.342 925.951 330.007 935.175 325.451V286.119C924.73 291.008 914.563 294.675 904.673 297.12C894.78 299.565 883.887 300.788 871.994 300.788C857.654 300.788 846.426 296.731 838.31 288.615C830.333 280.416 826.056 269.181 825.477 254.91V254.758H945.679V230.089ZM825.477 254.91V254.938L825.47 254.765C825.472 254.813 825.475 254.862 825.477 254.91ZM862.49 181.565C874.384 181.565 883.223 185.345 889.004 192.905C894.827 200.266 897.825 209.472 898.003 220.522V220.926H826.735L826.651 220.919L826.644 220.919L826.637 220.919C827.638 207.358 831.362 197.407 837.81 191.07C844.369 184.734 852.596 181.565 862.49 181.565ZM898.009 220.919C898.008 220.786 898.005 220.654 898.003 220.522V220.24L898.009 220.919ZM862.49 181.579C852.599 181.579 844.375 184.746 837.819 191.08C831.375 197.413 827.653 207.357 826.652 220.913H897.996C897.883 209.691 894.882 200.358 888.994 192.914C883.215 185.358 874.381 181.579 862.49 181.579ZM945.693 254.765L945.686 254.765L945.686 254.771H825.484C826.041 269.105 830.32 280.383 838.32 288.605L839.089 289.354C847.137 296.968 858.105 300.774 871.994 300.774C883.886 300.774 894.779 299.552 904.67 297.106C913.944 294.814 923.462 291.447 933.224 287.006L935.167 286.109H935.189V325.47L935.185 325.463C925.959 330.02 916.289 333.355 906.173 335.467C896.169 337.579 883.998 338.635 869.66 338.635C850.986 338.635 834.423 335.189 819.972 328.297C805.633 321.405 794.349 310.9 786.124 296.783C778.009 282.666 773.952 264.88 773.952 243.428C773.952 210.86 782.066 186.404 798.295 170.063C814.525 153.612 835.813 145.386 862.157 145.386C887.945 145.386 908.288 152.722 923.183 167.395C938.19 182.069 945.693 202.967 945.693 230.089V254.765Z" fill="#B4BEFE"/>
<path d="M1001.74 240.093L941.721 148.894H999.409L1035.59 208.248L1072.1 148.894H1129.79L1069.1 240.093L1132.62 335.293H1074.77L1035.59 271.437L996.241 335.293H938.554L1001.74 240.093Z" fill="#B4BEFE"/>
<path d="M1132.62 335.281V335.3H1074.76L1074.76 335.297L1035.59 271.449L996.247 335.297L996.241 335.306V335.3H938.563L938.554 335.293L938.548 335.289L1001.73 240.092L941.722 148.906V148.887H999.42L999.414 148.891L1035.59 208.235L1072.1 148.89L1072.1 148.881V148.887H1129.78L1129.78 148.891L1129.79 148.894L1129.79 148.898L1069.11 240.092L1132.62 335.281ZM1001.75 240.089L1001.76 240.103L1001.75 240.097L938.566 335.286H996.237L1035.58 271.446L1035.58 271.441L1035.59 271.437L1035.59 271.434L1074.77 335.286H1132.61L1069.09 240.097L1069.09 240.083L1069.09 240.089L1129.78 148.901H1072.1L1035.59 208.252L1035.6 208.24L1035.59 208.248L1035.58 208.252L999.405 148.901H941.734L1001.75 240.089Z" fill="#B4BEFE"/>
</svg>
