<svg width="1638" height="427" viewBox="0 0 1638 427" fill="none" xmlns="http://www.w3.org/2000/svg">
<path d="M523.744 335.423L457.12 87.2465H511.752L540.9 210.502C543.232 220.718 545.452 230.933 547.562 241.149C549.672 251.365 551.671 261.581 553.558 271.796C555.557 282.012 557.445 292.283 559.222 302.61H549.061C551.06 292.283 553.114 282.012 555.224 271.796C557.334 261.581 559.499 251.365 561.72 241.149C563.941 230.933 566.273 220.718 568.716 210.502L599.529 87.2465H651.83L682.31 210.502C684.753 220.718 687.085 230.933 689.306 241.149C691.638 251.365 693.858 261.581 695.968 271.796C698.078 282.012 700.132 292.283 702.131 302.61H691.638C693.525 292.283 695.413 282.012 697.301 271.796C699.3 261.581 701.354 251.365 703.464 241.149C705.684 230.933 707.905 220.718 710.126 210.502L739.274 87.2465H794.073L727.282 335.423H670.151L634.84 200.008C632.397 190.126 629.899 179.133 627.345 167.029C624.902 154.926 621.96 141.323 618.517 126.222H632.508C629.177 141.323 626.29 154.926 623.847 167.029C621.404 179.133 618.85 190.126 616.185 200.008L581.208 335.423H523.744Z" fill="#F38BA8"/>
<path d="M514.388 83.9135L544.144 209.735L544.15 209.76C546.487 219.998 548.712 230.237 550.827 240.475C552.095 246.618 553.323 252.762 554.511 258.905C555.809 252.75 557.124 246.595 558.462 240.441C560.688 230.203 563.026 219.965 565.474 209.727L565.482 209.694L596.927 83.9135H654.439L685.546 209.702L685.552 209.727C687.998 219.954 690.333 230.181 692.556 240.408L693.427 244.247C694.493 248.972 695.533 253.697 696.551 258.422C697.749 252.44 698.963 246.457 700.199 240.475L700.203 240.457L700.206 240.441C702.427 230.225 704.648 220.009 706.869 209.793L706.882 209.735L736.637 83.9135H798.422L729.836 338.756H667.576L631.615 200.849L631.61 200.829L631.604 200.808C629.643 192.873 627.649 184.232 625.62 174.887C623.621 184.251 621.551 192.915 619.404 200.876L583.789 338.756H521.188L452.773 83.9135H514.388ZM526.3 332.089H578.625L612.958 199.175L612.962 199.158L612.967 199.141C615.61 189.34 618.148 178.417 620.579 166.37C621.095 163.814 621.632 161.192 622.187 158.503C620.165 148.845 617.859 138.332 615.267 126.962L614.338 122.888H636.658L635.763 126.94C633.254 138.314 630.999 148.833 628.996 158.497C629.554 161.178 630.092 163.792 630.607 166.341L631.559 170.816C633.776 181.136 635.949 190.599 638.077 199.208L672.727 332.089H724.727L789.724 90.5795H741.912L713.383 211.21L706.721 241.857C704.619 252.038 702.57 262.219 700.578 272.401L700.579 272.402C700.407 273.329 700.236 274.257 700.065 275.185C701.885 284.074 703.667 293.004 705.404 301.977L706.171 305.944H687.64L688.359 302.011C689.997 293.05 691.636 284.131 693.274 275.253C693.083 274.325 692.895 273.397 692.704 272.47C690.598 262.277 688.383 252.084 686.056 241.891L686.052 241.874L686.048 241.857C683.834 231.672 681.51 221.487 679.075 211.302L649.22 90.5795H602.132L571.95 211.31C569.515 221.492 567.19 231.675 564.977 241.857C562.759 252.061 560.596 262.266 558.489 272.47C558.246 273.644 558.007 274.819 557.766 275.995C559.425 284.639 561.006 293.322 562.506 302.045L563.177 305.944H545.021L545.788 301.977C547.475 293.262 549.203 284.587 550.969 275.951C550.743 274.779 550.517 273.607 550.288 272.436L550.284 272.419L550.281 272.402C548.397 262.209 546.403 252.016 544.298 241.824C542.195 231.639 539.98 221.454 537.656 211.269L509.114 90.5795H461.466L526.3 332.089ZM695.637 299.277H698.084C697.665 297.127 697.242 294.979 696.818 292.833C696.424 294.979 696.031 297.127 695.637 299.277ZM554.238 293.517C553.859 295.435 553.483 297.355 553.108 299.277H555.26C554.924 297.355 554.582 295.435 554.238 293.517ZM622.691 129.555C623.693 133.99 624.651 138.291 625.565 142.459C626.458 138.291 627.392 133.99 628.364 129.555H622.691Z" fill="#F38BA8"/>
<path d="M868.516 339.42C850.75 339.42 835.259 335.534 822.045 327.761C808.943 319.877 798.727 308.995 791.398 295.115C784.181 281.235 780.572 265.411 780.572 247.645C780.572 229.656 784.236 213.778 791.565 200.008C799.004 186.128 809.22 175.246 822.212 167.362C835.204 159.479 850.083 155.537 866.85 155.537C879.842 155.537 891.613 157.757 902.161 162.199C912.71 166.53 921.816 172.803 929.477 181.02C937.139 189.126 943.024 198.731 947.133 209.836C951.352 220.94 953.462 233.21 953.462 246.646V259.804H798.061V228.49H929.811L907.658 235.986C907.658 227.102 906.048 219.441 902.828 213C899.607 206.56 894.999 201.619 889.003 198.176C883.118 194.623 876.067 192.846 867.85 192.846C859.744 192.846 852.748 194.623 846.863 198.176C840.978 201.619 836.425 206.56 833.205 213C829.985 219.441 828.375 227.102 828.375 235.986V257.306C828.375 266.411 829.985 274.406 833.205 281.29C836.536 288.064 841.311 293.338 847.529 297.114C853.748 300.778 861.243 302.61 870.015 302.61C876.455 302.61 882.119 301.722 887.004 299.945C892.001 298.057 896.165 295.448 899.496 292.117C902.939 288.675 905.382 284.677 906.825 280.124H951.63C949.52 291.784 944.579 302.055 936.806 310.938C929.033 319.821 919.262 326.817 907.491 331.925C895.721 336.922 882.729 339.42 868.516 339.42Z" fill="#F38BA8"/>
<path d="M825.041 235.986C825.041 234.573 825.081 233.186 825.16 231.824H801.394V256.47H825.041V235.986ZM867.85 196.179C860.242 196.179 853.865 197.843 848.586 201.03L848.566 201.041L848.546 201.053C843.251 204.15 839.134 208.595 836.186 214.491C834.594 217.675 833.415 221.225 832.666 225.157H903.366C902.617 221.225 901.438 217.675 899.846 214.491C896.906 208.611 892.746 204.169 887.343 201.067L887.312 201.049L887.28 201.03C882.008 197.847 875.579 196.179 867.85 196.179ZM956.795 263.137H831.954C832.494 269.399 833.927 274.955 836.207 279.843C839.264 286.048 843.6 290.821 849.234 294.249C854.837 297.547 861.716 299.277 870.015 299.277C876.139 299.277 881.39 298.433 885.828 296.826C890.44 295.083 894.185 292.714 897.139 289.76C900.211 286.688 902.369 283.15 903.648 279.117L904.385 276.791H955.621L954.911 280.718C952.694 292.969 947.487 303.794 939.315 313.133C931.189 322.42 921.002 329.696 908.819 334.983L908.806 334.988L908.794 334.994C896.568 340.184 883.127 342.753 868.516 342.753C850.251 342.753 834.158 338.754 820.355 330.634L820.341 330.625L820.327 330.617C806.689 322.411 796.055 311.074 788.451 296.671L788.446 296.662L788.441 296.653C780.944 282.237 777.239 265.874 777.239 247.645C777.239 229.194 781 212.762 788.622 198.442L788.626 198.434C796.337 184.049 806.962 172.718 820.483 164.513C834.049 156.281 849.538 152.204 866.85 152.204C880.226 152.204 892.445 154.491 903.455 159.126C914.423 163.633 923.915 170.172 931.9 178.731L932.643 179.528C940.269 187.809 946.138 197.539 950.259 208.679C954.633 220.2 956.795 232.869 956.795 246.646V263.137ZM831.708 256.47H950.129V246.646C950.129 233.562 948.075 221.7 944.017 211.02L944.012 211.006L944.006 210.993C940.044 200.284 934.39 191.07 927.055 183.31L927.047 183.302L927.039 183.293C919.711 175.433 911.007 169.434 900.896 165.283L900.881 165.277L900.868 165.271C890.78 161.024 879.457 158.87 866.85 158.87C850.628 158.87 836.358 162.677 823.941 170.212C811.481 177.774 801.675 188.204 794.506 201.574C787.471 214.791 783.905 230.118 783.905 247.645C783.905 264.941 787.414 280.218 794.346 293.558L795.015 294.802C802.012 307.563 811.585 317.574 823.756 324.9C836.377 332.318 851.258 336.086 868.516 336.086C882.322 336.086 894.856 333.663 906.164 328.867L907.223 328.4C918.104 323.517 927.109 316.959 934.297 308.744C940.786 301.328 945.185 292.912 947.512 283.458H909.165C907.514 287.576 905.071 291.256 901.853 294.474C898.145 298.182 893.562 301.031 888.182 303.063L888.163 303.071L888.143 303.078C882.817 305.014 876.754 305.944 870.015 305.944C860.776 305.944 852.668 304.011 845.837 299.986L845.818 299.974L845.799 299.963C839.017 295.845 833.815 290.082 830.214 282.761L830.2 282.732L830.186 282.703C827.447 276.847 825.824 270.312 825.264 263.137H794.727V225.157H825.894C826.721 220.204 828.155 215.648 830.224 211.509C833.709 204.539 838.684 199.109 845.14 195.323L845.752 194.961C852.109 191.287 859.516 189.513 867.85 189.513C876.537 189.513 884.196 191.392 890.686 195.299C897.264 199.081 902.313 204.516 905.809 211.509C907.878 215.648 909.312 220.204 910.138 225.157H929.811L930.879 231.648L904.325 240.632V235.986C904.325 234.56 904.28 233.173 904.194 231.824H831.838C831.752 233.173 831.708 234.56 831.708 235.986V256.47Z" fill="#F38BA8"/>
<path d="M1075.55 339.087C1067.89 339.087 1060.72 337.977 1054.06 335.756C1047.4 333.535 1041.46 330.148 1036.24 325.596C1031.13 320.932 1026.86 315.213 1023.41 308.44H1023.25V335.423H974.779V87.2465H1023.91V183.852H1024.08C1027.86 177.523 1032.3 172.304 1037.41 168.195C1042.51 164.087 1048.29 161.033 1054.73 159.034C1061.28 156.925 1068.33 155.87 1075.88 155.87C1090.87 155.87 1104.03 159.756 1115.36 167.529C1126.79 175.191 1135.68 185.906 1142.01 199.675C1148.45 213.333 1151.67 229.212 1151.67 247.312C1151.67 265.634 1148.5 281.679 1142.17 295.448C1135.84 309.217 1127.02 319.932 1115.69 327.594C1104.36 335.256 1090.98 339.087 1075.55 339.087ZM1062.89 299.112C1070.88 299.112 1077.77 297.114 1083.54 293.116C1089.43 289.008 1093.98 283.122 1097.2 275.461C1100.53 267.688 1102.2 258.305 1102.2 247.312C1102.2 236.319 1100.53 226.991 1097.2 219.33C1093.98 211.668 1089.43 205.783 1083.54 201.674C1077.77 197.566 1070.88 195.511 1062.89 195.511C1054.67 195.511 1047.4 197.677 1041.07 202.007C1034.85 206.227 1030.02 212.223 1026.58 219.996C1023.25 227.658 1021.58 236.763 1021.58 247.312C1021.58 257.75 1023.25 266.855 1026.58 274.628C1030.02 282.401 1034.85 288.452 1041.07 292.783C1047.4 297.003 1054.67 299.112 1062.89 299.112Z" fill="#F38BA8"/>
<path d="M1148.33 247.312C1148.33 229.608 1145.18 214.231 1138.99 201.097L1138.98 201.068C1132.88 187.799 1124.38 177.584 1113.5 170.298L1113.49 170.288L1113.47 170.278C1102.75 162.921 1090.26 159.204 1075.88 159.204C1068.64 159.204 1061.94 160.214 1055.75 162.207L1055.73 162.212L1055.72 162.218C1049.66 164.096 1044.27 166.954 1039.49 170.792C1034.73 174.624 1030.54 179.529 1026.94 185.56L1025.97 187.185H1020.58V90.5795H978.112V332.089H1019.91V305.107H1025.46L1026.39 306.93C1029.66 313.366 1033.69 318.743 1038.46 323.105C1043.33 327.353 1048.88 330.513 1055.12 332.593C1061.41 334.691 1068.21 335.753 1075.55 335.753C1090.41 335.753 1103.12 332.075 1113.82 324.833C1124.59 317.549 1133.04 307.333 1139.14 294.056C1145.24 280.805 1148.33 265.252 1148.33 247.312ZM1098.86 247.312C1098.86 236.639 1097.25 227.791 1094.14 220.659L1094.13 220.622C1091.11 213.447 1086.93 208.101 1081.64 204.408L1081.62 204.399L1081.61 204.39C1076.47 200.734 1070.28 198.844 1062.89 198.844C1055.29 198.844 1048.69 200.835 1042.95 204.758L1042.94 204.765C1037.31 208.59 1032.85 214.066 1029.63 221.345C1026.53 228.489 1024.92 237.114 1024.92 247.312C1024.92 257.384 1026.52 266.013 1029.63 273.278L1029.93 273.955C1033.13 280.895 1037.48 286.21 1042.94 290.026C1048.68 293.84 1055.29 295.779 1062.89 295.779C1070.3 295.779 1076.5 293.935 1081.65 290.375C1086.93 286.682 1091.12 281.339 1094.13 274.169L1094.13 274.159L1094.14 274.148C1097.25 266.894 1098.86 257.983 1098.86 247.312ZM1105.53 247.312C1105.53 258.627 1103.82 268.482 1100.27 276.774C1096.84 284.913 1091.93 291.33 1085.45 295.849L1085.44 295.857C1079.03 300.292 1071.47 302.446 1062.89 302.446C1054.07 302.446 1046.14 300.17 1039.22 295.556L1039.19 295.538L1039.17 295.518C1032.39 290.798 1027.19 284.239 1023.53 275.978L1023.52 275.959L1023.52 275.941C1019.97 267.668 1018.25 258.098 1018.25 247.312C1018.25 236.422 1019.97 226.842 1023.52 218.666L1023.53 218.657L1023.53 218.646C1027.08 210.638 1032.08 204.272 1038.57 199.687L1039.2 199.248C1046.12 194.516 1054.06 192.178 1062.89 192.178C1071.47 192.178 1079.05 194.392 1085.45 198.941C1091.92 203.457 1096.83 209.869 1100.26 218L1100.59 218.773C1103.92 226.806 1105.53 236.352 1105.53 247.312ZM1155 247.312C1155 266.016 1151.77 282.553 1145.2 296.84C1138.65 311.101 1129.44 322.315 1117.56 330.355C1105.61 338.437 1091.56 342.42 1075.55 342.42C1067.56 342.42 1060.04 341.262 1053.01 338.918C1045.93 336.56 1039.6 332.955 1034.05 328.108L1034.02 328.082L1033.99 328.057C1031.3 325.595 1028.83 322.864 1026.58 319.87V338.756H971.446V83.9135H1027.25V173.575C1029.72 170.595 1032.41 167.934 1035.32 165.598C1040.59 161.356 1046.53 158.175 1053.1 156.053L1053.74 155.851C1060.64 153.632 1068.03 152.537 1075.88 152.537C1091.47 152.537 1105.29 156.585 1117.21 164.759C1129.2 172.791 1138.46 183.998 1145.02 198.253C1151.71 212.436 1155 228.817 1155 247.312Z" fill="#F38BA8"/>
<path d="M1262.43 335.423H1198.3V292.283H1259.76C1276.42 292.283 1290.19 289.174 1301.07 282.956C1311.95 276.627 1320.06 267.466 1325.39 255.473C1330.72 243.37 1333.38 228.601 1333.38 211.168C1333.38 193.735 1330.72 179.022 1325.39 167.029C1320.06 155.037 1311.95 145.932 1301.07 139.713C1290.3 133.495 1276.7 130.386 1260.26 130.386H1197.13V87.2465H1263.43C1288.3 87.2465 1309.84 92.2989 1328.05 102.404C1346.26 112.397 1360.31 126.666 1370.19 145.21C1380.07 163.754 1385.02 185.74 1385.02 211.168C1385.02 236.596 1380.07 258.638 1370.19 277.293C1360.31 295.837 1346.21 310.161 1327.89 320.266C1309.67 330.37 1287.86 335.423 1262.43 335.423ZM1226.12 87.2465V335.423H1174.82V87.2465H1226.12Z" fill="#F38BA8"/>
<path d="M1330.05 211.168C1330.05 194.056 1327.43 179.834 1322.34 168.383C1317.28 157.007 1309.65 148.457 1299.42 142.608L1299.41 142.604L1299.4 142.6C1289.28 136.754 1276.29 133.719 1260.26 133.719H1229.45V288.95H1259.76C1276.01 288.95 1289.16 285.916 1299.4 280.072C1309.64 274.111 1317.28 265.499 1322.34 254.12C1327.43 242.553 1330.05 228.274 1330.05 211.168ZM1201.63 332.089H1222.78V295.617H1201.63V332.089ZM1178.15 332.089H1194.97V288.95H1222.78V133.719H1193.8V90.5795H1178.15V332.089ZM1200.47 127.052H1222.78V90.5795H1200.47V127.052ZM1336.72 211.168C1336.72 228.924 1334 244.178 1328.44 256.817L1328.43 256.828C1322.83 269.431 1314.26 279.14 1302.75 285.837L1302.73 285.844L1302.72 285.85C1291.2 292.436 1276.81 295.617 1259.76 295.617H1229.45V332.089H1262.43C1287.41 332.089 1308.65 327.127 1326.27 317.351L1326.28 317.347L1327.1 316.885C1344.45 307.122 1357.82 293.421 1367.25 275.725C1376.83 257.641 1381.68 236.16 1381.68 211.168C1381.68 186.173 1376.83 164.748 1367.25 146.778C1357.67 128.799 1344.08 115.004 1326.45 105.326L1326.43 105.318C1308.81 95.5365 1287.84 90.5795 1263.43 90.5795H1229.45V127.052H1260.26C1277.09 127.052 1291.31 130.234 1302.72 136.819C1314.25 143.406 1322.83 153.067 1328.43 165.675C1334 178.209 1336.72 193.414 1336.72 211.168ZM1388.35 211.168C1388.35 237.03 1383.32 259.629 1373.14 278.853L1373.13 278.861C1362.95 297.969 1348.39 312.761 1329.5 323.179L1329.5 323.18C1310.7 333.614 1288.3 338.756 1262.43 338.756H1171.48V83.9135H1263.43C1288.75 83.9135 1310.86 89.0583 1329.65 99.4809C1348.44 109.79 1362.95 124.533 1373.13 143.642C1383.32 162.76 1388.35 185.307 1388.35 211.168Z" fill="#F38BA8"/>
<path d="M1409 335.423V87.2465H1460.3V291.451H1573.06V335.423H1409Z" fill="#F38BA8"/>
<path d="M1463.63 83.9135V288.118H1576.39V338.756H1405.66V83.9135H1463.63ZM1412.33 332.089H1569.73V294.784H1456.97V90.5795H1412.33V332.089Z" fill="#F38BA8"/>
<path d="M378.269 213.331C378.294 247.715 368.183 281.344 349.201 310.014C330.219 338.684 303.207 361.123 271.543 374.526C239.878 387.929 204.965 391.701 171.168 385.372C137.372 379.042 106.19 362.891 81.5221 338.938C56.8539 314.984 39.7932 284.291 32.4727 250.695C25.1522 217.099 27.8966 182.09 40.3629 150.045C52.8292 118.001 74.4643 90.3409 102.564 70.5241C130.663 50.7074 163.981 39.6126 198.351 38.6267C201.658 38.1989 205.007 38.1989 208.314 38.6267C253.808 39.892 297.014 58.8489 328.751 91.4683C360.487 124.088 378.252 167.82 378.269 213.331ZM144.822 351.804C148.563 353.38 152.355 354.801 156.199 356.068C133.285 316.301 121.304 271.178 121.47 225.283H53.4268C55.6467 252.709 65.3395 279.004 81.4522 301.309C97.565 323.615 119.482 341.079 144.822 351.804ZM64.76 154.831C58.5624 169.461 54.751 184.99 53.4709 200.827H121.47C121.332 155.207 133.138 110.347 155.713 70.7044C152.046 71.9268 148.415 73.2965 144.822 74.8135C108.767 90.094 80.0603 118.785 64.76 154.831ZM260.717 200.827C260.173 183.688 258.244 166.622 254.951 149.794C251.729 132.578 246.44 115.814 239.199 99.8659C229.324 78.8343 216.908 65.1151 206.127 63.0384C204.264 63.0106 202.401 63.0106 200.538 63.0384C189.757 65.1151 177.341 78.8343 167.466 99.888C160.232 115.837 154.951 132.601 151.737 149.816C148.444 166.637 146.516 183.696 145.97 200.827H260.717ZM239.199 326.221C246.441 310.274 251.73 293.51 254.951 276.293C258.235 259.472 260.156 242.413 260.695 225.283H145.993C146.537 242.421 148.466 259.488 151.759 276.315C154.974 293.523 160.255 310.28 167.488 326.221C178.247 349.109 191.988 363.336 203.366 363.336C214.743 363.336 228.484 349.109 239.221 326.221H239.199ZM341.971 271.831C348.238 257.029 352.065 241.309 353.305 225.283H285.217C285.394 271.194 273.411 316.333 250.488 356.112C254.332 354.845 258.139 353.417 261.91 351.826C297.96 336.551 326.666 307.868 341.971 271.831ZM261.91 74.8135C258.312 73.295 254.657 71.9169 250.952 70.6823C273.529 110.324 285.335 155.185 285.195 200.805H353.26C350.954 173.475 341.225 147.295 325.126 125.091C309.027 102.887 287.168 85.5019 261.91 74.8135Z" fill="#F38BA8"/>
</svg>
