<?xml version="1.0" encoding="UTF-8" standalone="no"?>
<svg
   xml:space="preserve"
   viewBox="0 0 512 512"
   version="1.1"
   id="svg1"
   sodipodi:docname="color-HBO.svg"
   inkscape:version="1.4.4 (dcaf3e7d9e, 2026-05-05)"
   xmlns:inkscape="http://www.inkscape.org/namespaces/inkscape"
   xmlns:sodipodi="http://sodipodi.sourceforge.net/DTD/sodipodi-0.dtd"
   xmlns="http://www.w3.org/2000/svg"
   xmlns:svg="http://www.w3.org/2000/svg"><defs
     id="defs1" /><sodipodi:namedview
     id="namedview1"
     pagecolor="#505050"
     bordercolor="#ffffff"
     borderopacity="1"
     inkscape:showpageshadow="0"
     inkscape:pageopacity="0"
     inkscape:pagecheckerboard="1"
     inkscape:deskcolor="#505050"
     inkscape:zoom="2.3300781"
     inkscape:cx="255.78541"
     inkscape:cy="256"
     inkscape:window-width="2560"
     inkscape:window-height="1380"
     inkscape:window-x="0"
     inkscape:window-y="0"
     inkscape:window-maximized="1"
     inkscape:current-layer="svg1" /><path
     d="M150.3 360.5H94.2v-80.3H57.8v80.3H0V153.6h57.8v76.9h36.4v-76.9h56.1zm257.1-63.6c22.8 0 41.2-18.5 41.2-41.3s-18.5-41.3-41.2-41.3c-22.8 0-41.2 18.5-41.2 41.3-.1 22.8 18.4 41.3 41.2 41.3m-52.5-41.3c0-29 23.5-52.6 52.4-52.6 29 0 52.4 23.5 52.4 52.6 0 29-23.5 52.6-52.4 52.6-28.9-.1-52.4-23.6-52.4-52.6m-73 0c6.5-.8 17.3-8.3 21.1-13-1.3 5.9-1.4 22.9.1 28.8-4.3-6.7-14.6-15-21.2-15.8m-37.7-55.7c8.2 0 14.7 8.2 14.7 17.4 0 9.3-6.5 17.5-14.7 17.5h-28.3v-34.9zm-.1 77.6c8.2 0 14.7 8.2 14.7 17.4 0 9.3-6.5 17.4-14.7 17.4h-28.3v-34.9h28.3zm163.2 84c57.7 0 104.7-48.1 104.7-105.9 0-59.1-47-105-104.7-105-57.6 0-87.1 42.5-94.4 59.7.1-25.9-25.2-56.3-54.9-56.3h-95.5v206.5h89c35.9 0 61.4-31.2 61.5-57.9 8.3 16.8 36.7 58.9 94.3 58.9"
     style="fill-rule:evenodd;clip-rule:evenodd;fill:#002be7;fill-opacity:1;stroke:#ffffff;stroke-opacity:1"
     id="path1" /></svg>
