<?xml version="1.0" encoding="UTF-8" standalone="no"?>
<svg
   version="1.0"
   width="764.000000pt"
   height="320.000000pt"
   viewBox="0 0 764.000000 320.000000"
   preserveAspectRatio="xMidYMid meet"
   id="svg5"
   sodipodi:docname="color-1080p.svg"
   inkscape:version="1.4.4 (dcaf3e7d9e, 2026-05-05)"
   xmlns:inkscape="http://www.inkscape.org/namespaces/inkscape"
   xmlns:sodipodi="http://sodipodi.sourceforge.net/DTD/sodipodi-0.dtd"
   xmlns:xlink="http://www.w3.org/1999/xlink"
   xmlns="http://www.w3.org/2000/svg"
   xmlns:svg="http://www.w3.org/2000/svg">
  <defs
     id="defs5">
    <linearGradient
       id="linearGradient5"
       inkscape:collect="always">
      <stop
         style="stop-color:#000000;stop-opacity:1;"
         offset="0"
         id="stop5" />
      <stop
         style="stop-color:#f9e2af;stop-opacity:1"
         offset="1"
         id="stop6" />
    </linearGradient>
    <linearGradient
       inkscape:collect="always"
       xlink:href="#linearGradient5"
       id="linearGradient6"
       x1="164.50517"
       y1="2738.1201"
       x2="7447.0229"
       y2="479.33746"
       gradientUnits="userSpaceOnUse" />
  </defs>
  <sodipodi:namedview
     id="namedview5"
     pagecolor="#505050"
     bordercolor="#ffffff"
     borderopacity="1"
     inkscape:showpageshadow="0"
     inkscape:pageopacity="0"
     inkscape:pagecheckerboard="1"
     inkscape:deskcolor="#505050"
     inkscape:document-units="pt"
     inkscape:zoom="1.185373"
     inkscape:cx="500.68627"
     inkscape:cy="287.25135"
     inkscape:window-width="2560"
     inkscape:window-height="1380"
     inkscape:window-x="0"
     inkscape:window-y="0"
     inkscape:window-maximized="1"
     inkscape:current-layer="svg5" />
  <metadata
     id="metadata1">
Created by potrace 1.16, written by Peter Selinger 2001-2019
</metadata>
  <g
     transform="translate(0.000000,320.000000) scale(0.100000,-0.100000)"
     fill="#ffffff"
     stroke="none"
     id="g5"
     style="fill-opacity:1;stroke:url(#linearGradient6);fill:#f9e2af">
    <path
       d="M1928 2800 c-247 -42 -439 -185 -552 -414 -85 -169 -116 -323 -116 -569 1 -358 79 -588 264 -773 154 -154 317 -216 563 -216 247 1 453 93 594 266 276 337 293 1038 35 1400 -117 164 -292 274 -487 305 -73 12 -231 12 -301 1z m276 -404 c52 -30 88 -71 121 -137 102 -200 106 -646 10 -866 -29 -65 -94 -136 -149 -163 -63 -30 -157 -28 -224 6 -63 31 -95 68 -139 159 -55 117 -67 192 -67 425 0 177 3 217 22 292 43 173 117 272 232 309 48 16 146 3 194 -25z"
       id="path1"
       style="fill-opacity:1;stroke:url(#linearGradient6);fill:#f9e2af" />
    <path
       d="M3528 2794 c-170 -30 -315 -102 -411 -203 -130 -136 -162 -320 -84 -476 45 -90 176 -190 295 -225 23 -7 42 -16 42 -20 0 -4 -24 -12 -52 -19 -90 -20 -197 -80 -263 -146 -141 -142 -174 -339 -88 -524 32 -67 134 -176 208 -220 148 -90 328 -132 560 -132 296 0 505 67 661 214 191 178 203 474 28 652 -28 28 -78 68 -110 88 -61 36 -168 77 -204 77 -33 0 -23 17 14 24 65 12 179 78 236 135 157 158 157 392 1 563 -96 105 -251 182 -428 213 -105 18 -301 18 -405 -1z m332 -345 c89 -39 133 -107 133 -204 0 -96 -52 -174 -143 -213 -44 -19 -172 -20 -224 -3 -155 53 -205 265 -89 372 82 77 212 96 323 48z m17 -799 c95 -40 163 -137 163 -229 0 -177 -197 -299 -399 -247 -129 33 -200 112 -208 233 -4 61 -2 74 24 123 32 61 94 110 172 135 64 21 182 14 248 -15z"
       id="path2"
       style="fill-opacity:1;stroke:url(#linearGradient6);fill:#f9e2af" />
    <path
       d="M5227 2800 c-164 -29 -281 -92 -402 -214 -72 -72 -100 -109 -137 -181 -87 -171 -128 -358 -128 -586 0 -219 39 -411 115 -564 140 -281 380 -426 704 -426 186 -1 315 35 446 122 244 164 375 466 375 867 0 385 -113 668 -335 837 -143 109 -254 145 -455 150 -74 2 -156 0 -183 -5z m269 -398 c149 -76 227 -319 210 -657 -13 -263 -76 -429 -191 -500 -61 -38 -162 -47 -230 -21 -157 60 -251 332 -231 671 18 302 102 476 256 526 41 14 142 3 186 -19z"
       id="path3"
       style="fill-opacity:1;stroke:url(#linearGradient6);fill:#f9e2af" />
    <path
       d="M337 2613 l-247 -168 0 -209 0 -208 28 18 c15 9 124 82 242 161 l215 143 3 -745 2 -745 240 0 240 0 0 960 0 960 -238 0 -239 0 -246 -167z"
       id="path4"
       style="fill-opacity:1;stroke:url(#linearGradient6);fill:#f9e2af" />
    <path
       d="M6828 2254 c-119 -28 -219 -95 -284 -190 l-39 -57 -3 117 -3 116 -114 0 -115 0 0 -925 0 -925 115 0 115 0 0 351 0 351 43 -59 c54 -72 105 -114 189 -153 206 -96 467 -42 620 129 61 68 131 208 155 308 27 116 24 378 -5 488 -65 241 -224 405 -437 450 -86 18 -162 18 -237 -1z m224 -221 c57 -26 131 -93 164 -148 50 -86 66 -152 71 -296 9 -218 -34 -356 -138 -454 -78 -72 -125 -90 -244 -90 -93 0 -105 2 -167 33 -150 73 -238 248 -238 472 0 250 104 428 288 497 55 20 205 12 264 -14z"
       id="path5"
       style="fill-opacity:1;stroke:url(#linearGradient6);fill:#f9e2af" />
  </g>
</svg>
