<?xml version="1.0" encoding="UTF-8" standalone="no"?>
<svg
   version="1.0"
   width="814.000000pt"
   height="320.000000pt"
   viewBox="0 0 814.000000 320.000000"
   preserveAspectRatio="xMidYMid meet"
   id="svg5"
   sodipodi:docname="color-HDR10.svg"
   inkscape:version="1.4.4 (dcaf3e7d9e, 2026-05-05)"
   xmlns:inkscape="http://www.inkscape.org/namespaces/inkscape"
   xmlns:sodipodi="http://sodipodi.sourceforge.net/DTD/sodipodi-0.dtd"
   xmlns:xlink="http://www.w3.org/1999/xlink"
   xmlns="http://www.w3.org/2000/svg"
   xmlns:svg="http://www.w3.org/2000/svg">
  <defs
     id="defs5">
    <linearGradient
       id="linearGradient5"
       inkscape:collect="always">
      <stop
         style="stop-color:#000000;stop-opacity:1;"
         offset="0"
         id="stop5" />
      <stop
         style="stop-color:#000000;stop-opacity:0;"
         offset="1"
         id="stop6" />
    </linearGradient>
    <linearGradient
       inkscape:collect="always"
       xlink:href="#linearGradient5"
       id="linearGradient6"
       x1="174.77753"
       y1="2411.1392"
       x2="7368.9985"
       y2="956.23444"
       gradientUnits="userSpaceOnUse" />
  </defs>
  <sodipodi:namedview
     id="namedview5"
     pagecolor="#505050"
     bordercolor="#ffffff"
     borderopacity="1"
     inkscape:showpageshadow="0"
     inkscape:pageopacity="0"
     inkscape:pagecheckerboard="1"
     inkscape:deskcolor="#505050"
     inkscape:document-units="pt"
     inkscape:zoom="1.5877327"
     inkscape:cx="501.02892"
     inkscape:cy="182.33548"
     inkscape:window-width="2560"
     inkscape:window-height="1380"
     inkscape:window-x="0"
     inkscape:window-y="0"
     inkscape:window-maximized="1"
     inkscape:current-layer="svg5" />
  <metadata
     id="metadata1">
Created by potrace 1.16, written by Peter Selinger 2001-2019
</metadata>
  <g
     transform="translate(0.000000,320.000000) scale(0.100000,-0.100000)"
     fill="#ffffff"
     stroke="none"
     id="g5"
     style="fill-opacity:1;stroke:url(#linearGradient6);fill:#cba6f7">
    <path
       d="M0 1600 l0 -930 195 0 195 0 0 385 0 385 400 0 400 0 0 -385 0 -385 200 0 200 0 0 930 0 930 -200 0 -200 0 0 -385 0 -385 -397 2 -398 3 -3 383 -2 382 -195 0 -195 0 0 -930z"
       id="path1"
       style="fill-opacity:1;stroke:url(#linearGradient6);fill:#cba6f7" />
    <path
       d="M1810 1600 l0 -930 384 0 c415 0 486 6 635 56 158 53 319 179 407 320 159 255 189 678 69 977 -85 212 -268 382 -490 456 -136 45 -211 51 -626 51 l-379 0 0 -930z m865 561 c216 -78 307 -246 306 -561 0 -317 -91 -483 -306 -561 -53 -19 -86 -23 -267 -27 l-208 -4 0 592 0 592 208 -4 c181 -4 214 -8 267 -27z"
       id="path2"
       style="fill-opacity:1;stroke:url(#linearGradient6);fill:#cba6f7" />
    <path
       d="M3570 1601 l0 -931 195 0 195 0 0 330 0 330 144 0 144 0 175 -327 175 -328 216 -3 c119 -1 216 0 216 4 0 3 -85 162 -190 353 -104 191 -190 351 -190 357 0 5 28 25 61 44 202 115 298 369 243 638 -44 218 -194 371 -429 439 -52 15 -120 18 -507 21 l-448 3 0 -930z m821 585 c110 -40 169 -129 169 -255 0 -101 -16 -147 -70 -201 -67 -68 -120 -80 -348 -80 l-182 0 0 281 0 281 193 -4 c146 -4 203 -9 238 -22z"
       id="path3"
       style="fill-opacity:1;stroke:url(#linearGradient6);fill:#cba6f7" />
    <path
       d="M5360 2325 l0 -195 45 0 45 0 0 -725 0 -725 220 0 220 0 0 920 0 920 -265 0 -265 0 0 -195z"
       id="path4"
       style="fill-opacity:1;stroke:url(#linearGradient6);fill:#cba6f7" />
    <path
       d="M6585 2504 c-195 -27 -271 -60 -365 -161 -129 -138 -143 -212 -143 -748 0 -534 15 -611 145 -751 70 -74 145 -115 258 -141 66 -16 139 -18 625 -18 599 0 627 2 752 59 67 31 180 142 211 206 55 116 57 138 57 645 0 504 -3 544 -55 645 -32 63 -133 163 -199 199 -117 62 -140 64 -726 66 -291 2 -543 1 -560 -1z m1025 -405 c46 -21 86 -69 102 -122 17 -58 16 -705 0 -764 -17 -58 -54 -98 -110 -120 -43 -16 -86 -18 -497 -18 -485 0 -502 2 -557 53 -59 55 -63 83 -63 462 0 264 3 356 14 393 17 59 74 113 128 122 21 4 45 8 53 10 8 2 213 3 455 2 380 -2 445 -4 475 -18z"
       id="path5"
       style="fill-opacity:1;stroke:url(#linearGradient6);fill:#cba6f7" />
  </g>
</svg>
