<?xml version="1.0" encoding="UTF-8" standalone="no"?>
<svg
   version="1.0"
   width="732.000000pt"
   height="320.000000pt"
   viewBox="0 0 732.000000 320.000000"
   preserveAspectRatio="xMidYMid meet"
   id="svg4"
   sodipodi:docname="color-paramount-plus.svg"
   inkscape:version="1.4.4 (dcaf3e7d9e, 2026-05-05)"
   xmlns:inkscape="http://www.inkscape.org/namespaces/inkscape"
   xmlns:sodipodi="http://sodipodi.sourceforge.net/DTD/sodipodi-0.dtd"
   xmlns="http://www.w3.org/2000/svg"
   xmlns:svg="http://www.w3.org/2000/svg">
  <defs
     id="defs4">
    <radialGradient
       id="disney-plus_svg__a"
       cx="463.58899"
       cy="533.71301"
       r="374.05801"
       gradientTransform="matrix(1.0885105,0,0,1.0885105,61.352771,-397.39295)"
       gradientUnits="userSpaceOnUse">
      <stop
         offset="0.007"
         style="stop-color:#ffffff;stop-opacity:1;"
         id="stop1" />
      <stop
         offset="0.03"
         style="stop-color:#ffffff;stop-opacity:1;"
         id="stop2" />
      <stop
         offset="0.057"
         style="stop-color:#ffffff;stop-opacity:1;"
         id="stop3" />
      <stop
         offset="0.084"
         style="stop-color:#ffffff;stop-opacity:1;"
         id="stop4" />
      <stop
         offset="0.111"
         style="stop-color:#ffffff;stop-opacity:1;"
         id="stop5" />
      <stop
         offset="0.138"
         style="stop-color:#ffffff;stop-opacity:1;"
         id="stop6" />
      <stop
         offset="0.16500001"
         style="stop-color:#ffffff;stop-opacity:1;"
         id="stop7" />
      <stop
         offset="0.191"
         style="stop-color:#fffffe;stop-opacity:1;"
         id="stop8" />
      <stop
         offset="0.21600001"
         style="stop-color:#ffffff;stop-opacity:1;"
         id="stop9" />
      <stop
         offset="1"
         style="stop-color:#ffffff;stop-opacity:0;"
         id="stop10" />
    </radialGradient>
    <linearGradient
       id="SVGID_1_"
       gradientUnits="userSpaceOnUse"
       x1="1041.5187"
       y1="325.6485"
       x2="1660.9564"
       y2="325.6485"
       gradientTransform="matrix(0.46878148,0,0,-0.46878148,-593.76682,589.92314)">
		<stop
   offset="0"
   style="stop-color:#991EEB"
   id="stop1-7" />

		<stop
   offset="0.4"
   style="stop-color:#5822B4"
   id="stop2-5" />

		<stop
   offset="0.73"
   style="stop-color:#5822B4"
   id="stop3-3" />

		<stop
   offset="1"
   style="stop-color:#991EEB"
   id="stop4-5" />

	</linearGradient>
  </defs>
  <sodipodi:namedview
     id="namedview4"
     pagecolor="#505050"
     bordercolor="#ffffff"
     borderopacity="1"
     inkscape:showpageshadow="0"
     inkscape:pageopacity="0"
     inkscape:pagecheckerboard="1"
     inkscape:deskcolor="#505050"
     inkscape:document-units="pt"
     inkscape:zoom="1.2484631"
     inkscape:cx="376.46286"
     inkscape:cy="202.24867"
     inkscape:window-width="2560"
     inkscape:window-height="1380"
     inkscape:window-x="0"
     inkscape:window-y="0"
     inkscape:window-maximized="1"
     inkscape:current-layer="svg4" />
  <metadata
     id="metadata1">
Created by potrace 1.16, written by Peter Selinger 2001-2019
</metadata>
  <g
     id="Layer_2_1_"
     transform="matrix(0.91986291,0,0,0.91986291,-0.84556911,46.682089)"
     style="display:none;fill:#ffffff;fill-opacity:1;stroke-width:0;stroke-dasharray:none">
	<g
   id="Ebene_1"
   style="fill:#ffffff;fill-opacity:1;stroke:#ffffff;stroke-width:0;stroke-dasharray:none;stroke-opacity:1"
   transform="matrix(0.98434266,0,0,0.98434266,6.2652846,1.9285818)">
		<path
   style="fill:#ffffff;fill-opacity:1;stroke:#ffffff;stroke-width:0;stroke-dasharray:none;stroke-opacity:1"
   d="m 396.5,246.3 v -0.4 c 0.4,-0.5 1.1,-0.8 1.7,-0.7 2.9,-0.1 5.7,-0.1 8.6,0 0.6,0 1.3,0.2 1.7,0.7 v 0.4 z"
   id="path1-2" />

		<path
   style="fill:#ffffff;fill-opacity:1;stroke:#ffffff;stroke-width:0;stroke-dasharray:none;stroke-opacity:1"
   d="m 408.5,245.9 c -4,-0.1 -8,-0.1 -12,0 -5.5,-0.3 -11,-0.5 -16.5,-0.9 -14.6,-1.1 -29.1,-3.3 -43.3,-6.6 -49.1,-11.4 -92.2,-34.3 -129.8,-67.6 -3.5,-3.1 -6.8,-6.3 -10.2,-9.5 -0.8,-0.7 -1.5,-1.7 -1.9,-2.7 -0.6,-1.4 -0.3,-2.9 0.7,-4 1,-1.1 2.6,-1.5 4,-0.9 0.9,0.4 1.8,0.8 2.6,1.3 35.9,22.2 75.1,38.4 116.2,48 13.8,3.2 27.7,5.7 41.7,7.5 20.1,2.5 40.4,3.4 60.6,2.7 10.9,-0.3 21.7,-1.3 32.5,-2.7 25.2,-3.2 50.1,-8.9 74.2,-16.9 12.7,-4.2 25.1,-9 37.2,-14.6 1.8,-1 4,-1.3 6,-0.8 3.3,0.8 5.3,4.2 4.5,7.5 -0.1,0.4 -0.3,0.9 -0.5,1.3 -0.8,1.5 -1.9,2.8 -3.3,3.8 -11.5,9 -23.9,16.9 -37,23.5 -24.7,12.5 -51.1,21.4 -78.3,26.5 -15.7,2.8 -31.5,4.5 -47.4,5.1 z"
   id="path2" />

		<path
   style="fill:#ffffff;fill-opacity:1;stroke:#ffffff;stroke-width:0;stroke-dasharray:none;stroke-opacity:1"
   d="m 260.4,43.2 c 2.5,-1.5 5.1,-3.1 7.8,-4.5 7,-3.6 14.8,-5.4 22.7,-5 5.7,0.3 10.9,1.9 14.9,6.1 3.8,3.9 5.2,8.7 5.6,13.9 0.1,1.1 0.1,2.2 0.1,3.4 v 51.8 c 0,4.5 -0.6,5.1 -5.1,5.1 h -12.2 c -0.8,0 -1.6,0 -2.4,-0.1 -1.2,-0.1 -2.2,-1.1 -2.4,-2.3 -0.2,-1.1 -0.2,-2.2 -0.2,-3.3 V 62 c 0.1,-1.9 -0.1,-3.7 -0.6,-5.5 -0.8,-3.1 -3.6,-5.3 -6.8,-5.5 -5.9,-0.4 -11.8,0.8 -17.2,3.3 -0.8,0.2 -1.3,1 -1.2,1.8 v 52.6 c 0,1 0,1.9 -0.2,2.9 0,1.4 -1.1,2.4 -2.5,2.4 0,0 0,0 0,0 -1.5,0.1 -3,0.1 -4.6,0.1 h -10.6 c -3.7,0 -4.5,-0.9 -4.5,-4.6 V 62.2 c 0,-1.7 -0.1,-3.5 -0.5,-5.2 -0.7,-3.4 -3.6,-5.8 -7,-6 -6,-0.4 -12.1,0.8 -17.5,3.4 -0.8,0.2 -1.3,1.1 -1.1,1.9 v 53.3 c 0,3.7 -0.8,4.5 -4.5,4.5 H 197 c -3.5,0 -4.4,-1 -4.4,-4.4 V 40.3 c 0,-0.8 0.1,-1.6 0.3,-2.4 0.4,-1.2 1.6,-1.9 2.8,-1.9 h 12.5 c 1.8,0 2.9,1.1 3.5,2.8 0.5,1.4 0.8,2.7 1.3,4.2 1,0 1.6,-0.7 2.3,-1.1 5.5,-3.4 11.3,-6.3 17.8,-7.5 5,-1 10,-1 15,0 4.7,1 8.9,3.8 11.6,7.8 0.2,0.3 0.4,0.5 0.6,0.7 -0.1,0.1 0,0.1 0.1,0.3 z"
   id="path3" />

		
		<path
   style="fill:#ffffff;fill-opacity:1;stroke:#ffffff;stroke-width:0;stroke-dasharray:none;stroke-opacity:1"
   d="m 112.6,47 c 0.7,-0.2 1.3,-0.6 1.7,-1.2 1.8,-1.8 3.7,-3.5 5.7,-5.1 5.2,-4 11.7,-6 18.2,-5.5 2.6,0.1 3.5,0.9 3.7,3.4 0.2,3.4 0.1,6.9 0.1,10.3 0.1,1.4 0,2.7 -0.2,4.1 -0.4,1.8 -1.1,2.5 -2.9,2.7 -1.4,0.1 -2.7,0 -4.1,-0.1 -6.7,-0.6 -13.2,0.7 -19.5,2.8 -1.4,0.5 -1.4,1.5 -1.4,2.6 v 48 c 0,0.9 0,1.7 -0.1,2.6 -0.1,1.3 -1.1,2.3 -2.4,2.3 -0.7,0.1 -1.5,0.1 -2.2,0.1 h -13 c -0.7,0 -1.5,0 -2.2,-0.1 -1.3,-0.1 -2.3,-1.2 -2.4,-2.5 -0.1,-0.8 -0.1,-1.6 -0.1,-2.4 V 41 c 0,-4.6 0.5,-5.1 5.1,-5.1 h 9.6 c 2.6,0 3.8,0.9 4.5,3.4 0.7,2.5 1.3,5 1.9,7.7 z"
   id="path5" />

		<path
   style="fill:#ffffff;fill-opacity:1;stroke:#ffffff;stroke-width:0;stroke-dasharray:none;stroke-opacity:1"
   d="m 580.4,148.4 c 6.6,0.2 13.1,0.6 19.5,2.3 1.8,0.5 3.5,1.1 5.2,1.9 2.3,0.9 3.8,3.1 4.1,5.5 0.4,2.8 0.5,5.7 0.3,8.6 -1.3,17.1 -6.6,33.6 -15.4,48.3 -3.2,5.3 -7.1,10.1 -11.6,14.3 -0.9,0.9 -2,1.6 -3.2,2 -1.9,0.5 -3.1,-0.5 -3.2,-2.4 0.1,-1 0.3,-2 0.7,-3 3.5,-9.4 6.9,-18.7 9.6,-28.4 1.6,-5.3 2.7,-10.7 3.4,-16.2 0.2,-2 0.3,-4 0.1,-6 -0.1,-3.4 -2.3,-6.3 -5.6,-7.3 -3.1,-1 -6.3,-1.6 -9.6,-1.8 -9.2,-0.4 -18.4,0 -27.5,1.2 l -12.1,1.5 c -1.3,0.1 -2.5,0 -3.2,-1.2 -0.7,-1.2 -0.4,-2.4 0.3,-3.6 0.8,-1.1 1.8,-2.1 3,-2.8 7.4,-5.3 15.7,-8.5 24.5,-10.6 6.8,-1.4 13.7,-2.1 20.7,-2.3 z"
   id="path6" />

		
		<path
   style="fill:#ffffff;fill-opacity:1;stroke:#ffffff;stroke-width:0;stroke-dasharray:none;stroke-opacity:1"
   d="M 151.6,74.8 V 39.3 c 0.1,-2.4 1,-3.3 3.4,-3.4 5.2,-0.1 10.4,-0.1 15.6,0 2.3,0 3,0.7 3.2,3 0.1,0.9 0.1,1.7 0.1,2.6 v 66.6 c 0,1.1 -0.1,2.2 -0.2,3.3 -0.1,1.3 -1.1,2.2 -2.4,2.3 -0.6,0.1 -1.1,0.1 -1.7,0.1 h -13.9 c -0.5,0 -0.9,0 -1.4,-0.1 -1.4,-0.1 -2.6,-1.2 -2.7,-2.6 -0.1,-0.8 -0.1,-1.6 -0.1,-2.4 0.1,-11.1 0.1,-22.5 0.1,-33.9 z"
   id="path8" />

		<path
   style="fill:#ffffff;fill-opacity:1;stroke:#ffffff;stroke-width:0;stroke-dasharray:none;stroke-opacity:1"
   d="m 163.2,0.1 c 1.6,-0.1 3.2,0.2 4.7,0.7 5.4,1.8 8.2,6.5 7.7,12.6 -0.4,5.2 -4.3,9.4 -9.5,10.2 -2.2,0.4 -4.5,0.4 -6.7,0 -5.7,-1.1 -9.9,-5.3 -9.5,-12.5 0.6,-7.1 5.3,-11 13.3,-11 z"
   id="path9" />

		
		<path
   style="fill:#ffffff;fill-opacity:1;stroke:#ffffff;stroke-width:0;stroke-dasharray:none;stroke-opacity:1"
   d="M 76.7,66.6 C 76.3,61.4 74.9,56.3 72.8,51.6 68.7,43 62.4,36.7 52.8,34.5 c -11,-2.4 -20.9,0 -29.9,6.7 -0.6,0.6 -1.3,1.1 -2.1,1.5 -0.2,-0.1 -0.4,-0.2 -0.4,-0.3 -0.3,-1 -0.5,-2 -0.8,-3 C 18.8,36.9 17.8,36 15.1,36 12.1,36 9,36.1 6,36 3.7,35.9 1.6,36.2 0,38 c 0,35 0,70.1 0.1,105 1.3,2.1 3.3,2.5 5.6,2.4 3.6,-0.1 7.2,0 10.8,0 6.3,0 6.3,0 6.3,-6.2 v -28.5 c 0,-0.7 -0.3,-1.5 0.4,-2.1 5,3.9 11.1,6.3 17.4,6.9 8.8,0.9 16.8,-1.3 23.5,-7.3 C 69,103.7 72.6,97.9 74.5,91.5 77.2,83.3 77.4,75 76.7,66.6 Z M 52.8,87.3 c -0.7,3.1 -2.3,5.9 -4.6,8 -2.6,2.2 -5.8,3.5 -9.2,3.5 C 33.9,99.1 28.9,98 24.4,95.6 23.3,95.1 22.6,94 22.7,92.8 V 74.7 c 0,-6 0.1,-12 0,-18 -0.1,-1.4 0.7,-2.6 2,-3.1 5.5,-2.6 11.2,-3.8 17.2,-2.6 4.2,0.6 7.8,3.3 9.5,7.2 1.5,3.2 2.4,6.7 2.6,10.2 0.6,6.4 0.6,12.8 -1.2,18.9 z"
   id="path11" />

		
		
		
		<path
   style="fill:#ffffff;fill-opacity:1;stroke:#ffffff;stroke-width:0;stroke-dasharray:none;stroke-opacity:1"
   d="m 348,81.3 c 7.5,1.4 15.2,1.5 22.7,0.3 4.4,-0.6 8.6,-1.9 12.5,-4 4.5,-2.6 7.8,-6.2 9.2,-11.2 3.5,-12.6 -1.9,-25.3 -15,-30 -6.4,-2.1 -13.2,-2.8 -19.9,-1.9 -15.8,1.8 -26.1,10.5 -30.8,25.6 -3.3,10.3 -2.9,20.8 -0.2,31.2 3.5,13.3 12.3,21.2 25.6,24 7.6,1.7 15.3,1.4 22.9,0.2 4,-0.7 8,-1.7 11.8,-3.2 2.3,-0.9 3.5,-2.3 3.4,-4.9 -0.1,-2.4 0,-4.9 0,-7.4 0,-3 -1.2,-3.9 -4.1,-3.2 -2.9,0.7 -5.7,1.3 -8.6,1.9 -6.2,1.3 -12.6,1.3 -18.8,0.2 -8.5,-1.7 -14,-9 -13.5,-18 0.9,0.1 1.9,0.2 2.8,0.4 z M 345.5,66 c 0.3,-2.4 1,-4.7 1.9,-6.9 3,-7.3 9.3,-9.8 15.7,-9.4 1.8,0.1 3.6,0.5 5.3,1.2 2.6,1.1 4.3,3.5 4.6,6.3 0.3,1.7 0.2,3.5 -0.3,5.2 -1.2,3.6 -4.1,5.1 -7.6,5.8 -2.1,0.5 -4.3,0.7 -6.5,0.5 -3.9,0 -7.9,-0.3 -11.8,-0.9 -1.5,-0.2 -1.5,-0.2 -1.3,-1.8 z"
   id="path15" />

		
	</g>
<g
   id="g5"
   style="fill:#ffffff;fill-opacity:1;stroke-width:0;stroke-dasharray:none">
  <path
     style="fill:#ffffff;fill-opacity:1;stroke:#ffffff;stroke-width:0;stroke-dasharray:none;stroke-opacity:1"
     d="m 467.7,93 c 0.6,-2 1.2,-3.9 1.8,-5.9 4.6,-15.5 9.2,-30.9 13.8,-46.4 l 0.6,-1.8 c 0.5,-1.8 2.2,-2.9 4,-2.9 h 15.2 c 3.8,0 4.6,1.1 3.3,4.7 l -6,15.9 c -6.7,17.4 -13.4,34.9 -20.1,52.3 -0.2,0.6 -0.5,1.2 -0.7,1.8 -0.7,2.1 -2.8,3.5 -5,3.3 -4.4,-0.1 -8.8,-0.1 -13.2,0 -3.1,0.1 -4.9,-1.3 -6,-4.1 -2.5,-6.6 -5.1,-13.3 -7.6,-19.9 -6,-15.7 -12.1,-31.4 -18.1,-47.2 -0.6,-1.2 -1,-2.6 -1.3,-3.9 -0.3,-2 0.4,-3 2.4,-3 5.7,-0.1 11.4,0 17,0 2.4,0 3.5,1.6 4.1,3.7 1.1,3.8 2.2,7.7 3.4,11.5 4.1,13.9 8.1,27.9 12.2,41.8 -0.1,0.1 0,0.1 0.2,0.1 z"
     id="path4-7"
     transform="matrix(0.98434269,0,0,0.98434269,6.2652846,1.9285821)" />
  <path
     style="fill:#ffffff;fill-opacity:1;stroke:#ffffff;stroke-width:0;stroke-dasharray:none;stroke-opacity:1"
     d="m 538.5,75 v 36 c -0.2,2 -1.1,2.9 -3.1,3 -5.4,0.1 -10.7,0.1 -16.1,0 -2,0 -2.9,-1 -3.1,-2.9 -0.1,-0.6 -0.1,-1.3 -0.1,-1.9 V 40 c 0.1,-3.1 0.9,-4 4,-4 h 14.4 c 3.1,0 4,0.9 4,4 z"
     id="path7"
     transform="matrix(0.98434269,0,0,0.98434269,6.2652846,1.9285821)" />
  <path
     style="fill:#ffffff;fill-opacity:1;stroke:#ffffff;stroke-width:0;stroke-dasharray:none;stroke-opacity:1"
     d="m 527.4,0.1 c 2,-0.2 4,0.2 5.9,1 3.9,1.5 6.6,5.1 6.8,9.3 0.8,9.1 -5.3,13.7 -13.4,13.5 -1.1,0 -2.2,-0.2 -3.3,-0.4 -6.2,-1.5 -9.4,-6.3 -8.8,-13.2 0.5,-5.5 4.8,-9.6 10.7,-10.1 0.7,-0.1 1.4,-0.2 2.1,-0.1 z"
     id="path10"
     transform="matrix(0.98434269,0,0,0.98434269,6.2652846,1.9285821)" />
  <path
     style="fill:#ffffff;fill-opacity:1;stroke:#ffffff;stroke-width:0;stroke-dasharray:none;stroke-opacity:1"
     d="m 800.1,82.2 c 0,0 0,-0.1 0,0 0,-0.1 0,-0.1 0,0 z"
     id="path12"
     transform="matrix(0.98434269,0,0,0.98434269,6.2652846,1.9285821)" />
  <path
     style="fill:#ffffff;fill-opacity:1;stroke:#ffffff;stroke-width:0;stroke-dasharray:none;stroke-opacity:1"
     d="m 800.2,68.8 v 0.4 c -0.4,-0.4 -0.6,-1 -0.4,-1.5 v -0.8 c 0,0 0,-0.1 0.1,-0.1 h -0.1 v -1 h 0.2 c 0,-0.1 -0.1,-0.1 -0.1,-0.2 -0.2,-1.9 -0.6,-3.8 -1.1,-5.6 C 795.1,46.8 786.8,38.1 773.3,34.7 767,33.2 760.6,33 754.2,34 c -13.5,2 -23.2,9.2 -27.9,22 -4.6,12.2 -4.5,25.6 0.1,37.8 4,11.1 12,18.1 23.5,21 6.1,1.5 12.5,1.9 18.8,1 21,-2.5 29.7,-18.4 31.1,-32.2 h -0.1 v -1.4 c -0.1,-0.6 -0.2,-1.1 0.4,-1.5 v 0.2 c 0,-0.1 0.1,-0.3 0.2,-0.4 V 69 c 0,-0.1 -0.1,-0.1 -0.1,-0.2 z m -24,19 c -0.6,2.1 -1.5,4 -2.8,5.8 -2.2,3.1 -5.7,5.1 -9.5,5.4 -1.9,0.2 -3.8,0.2 -5.7,-0.2 -4.2,-0.8 -7.7,-3.6 -9.4,-7.5 -1.5,-3.1 -2.4,-6.5 -2.7,-9.9 -0.5,-5.9 -0.6,-11.8 0.8,-17.6 0.5,-2.3 1.5,-4.6 2.7,-6.6 2.2,-3.6 6,-5.9 10.2,-6.2 1.9,-0.2 3.8,-0.2 5.7,0.2 4,0.8 7.3,3.4 9.1,7.1 1.7,3.5 2.7,7.4 2.9,11.3 0.1,1.8 0.2,3.6 0.1,5.4 0.3,4.4 -0.2,8.7 -1.4,12.8 z"
     id="path13"
     transform="matrix(0.98434269,0,0,0.98434269,6.2652846,1.9285821)" />
  <path
     style="fill:#ffffff;fill-opacity:1;stroke:#ffffff;stroke-width:0;stroke-dasharray:none;stroke-opacity:1"
     d="M 624.9,0.8 H 611 c -3.8,0 -4.5,0.7 -4.5,4.5 v 32.4 c 0,0.7 0.3,1.4 -0.2,2.1 -0.9,-0.1 -1.4,-0.7 -2.1,-1.1 -10.4,-6.1 -21.3,-7.2 -32.3,-2.1 -7.7,3.6 -12.5,10.1 -15.6,17.8 -3,7.4 -3.7,15.2 -3.5,23.1 0,7.4 1.7,14.7 5,21.3 3.8,7.3 9.3,12.9 17.3,15.3 10.9,3.4 21.1,1.7 30.4,-5.2 0.7,-0.4 1.1,-1.1 2,-1.3 0.5,1.1 0.9,2.3 1.1,3.5 0.4,1.6 1.8,2.7 3.5,2.7 h 2.4 c 3.6,0 7.1,0.1 10.6,0 2.8,0 3.6,-0.9 3.7,-3.8 V 4.6 c -0.1,-3.1 -0.9,-3.8 -3.9,-3.8 z m -18.3,73.6 v 18.2 c 0.2,1.2 -0.5,2.3 -1.6,2.8 -4.8,2.7 -10.3,3.8 -15.7,3 -4.6,-0.5 -8.6,-3.3 -10.7,-7.4 -1.6,-3.2 -2.5,-6.6 -2.8,-10.1 -0.8,-6.3 -0.3,-12.7 1.2,-18.8 0.5,-1.7 1.1,-3.3 2,-4.9 2.1,-3.9 6.1,-6.4 10.5,-6.7 5.3,-0.5 10.6,0.5 15.4,2.7 1.2,0.4 1.9,1.6 1.8,2.9 -0.2,6.2 -0.1,12.2 -0.1,18.3 z"
     id="path14"
     transform="matrix(0.98434269,0,0,0.98434269,6.2652846,1.9285821)" />
  <path
     style="fill:#ffffff;fill-opacity:1;stroke:#ffffff;stroke-width:0;stroke-dasharray:none;stroke-opacity:1"
     d="m 685.3,82.3 c 5.8,-0.4 11.6,-1.5 16.8,-4.3 5.3,-2.6 9,-7.5 10.1,-13.3 0.7,-3.6 0.7,-7.4 -0.1,-11 -2.1,-9 -7.8,-14.6 -16.4,-17.5 -4.8,-1.5 -9.9,-2.1 -14.9,-1.9 -16.8,0.4 -29.6,8.9 -34.8,25.7 -3.5,11.1 -3,22.4 0.4,33.5 3.5,11.4 11.5,18.3 22.9,21.4 4.9,1.2 10,1.7 15,1.5 7.3,-0.1 14.6,-1.5 21.5,-4.1 2.9,-1.1 3.6,-2.1 3.6,-5.2 v -7.2 c -0.1,-2.9 -1.3,-3.9 -4.2,-3.2 -2.2,0.6 -4.3,1.1 -6.5,1.6 -6.7,1.6 -13.7,1.9 -20.5,0.7 -6.8,-1.3 -11.4,-5.2 -13.2,-12 -0.5,-2 -0.9,-4 -1.1,-6.1 0.5,0 1,0 1.4,0.2 6.6,1.2 13.3,1.7 20,1.2 z m -20.9,-16 c 0.7,-3.9 1.6,-7.7 4,-10.9 3.7,-4.9 8.8,-6.3 14.6,-5.7 0.5,0 0.9,0.2 1.4,0.2 7,1.1 8.7,6.7 7.4,12.1 -1,4 -4.3,5.5 -8,6.2 -2,0.4 -4.1,0.6 -6.2,0.5 -4.1,-0.1 -8.1,-0.4 -12.1,-1 -0.9,-0.1 -1.3,-0.5 -1.1,-1.4 z"
     id="path16"
     transform="matrix(0.98434269,0,0,0.98434269,6.2652846,1.9285821)" />
</g>

</g>
  <path
     d="m 321.85574,260.79959 c -2.03502,-0.86098 -5.32236,-4.53966 0.15654,-14.79303 l 12.67973,-26.53351 c 0.39135,-0.7827 -0.5479,-1.80021 -1.09578,-1.09578 l -11.11434,11.1926 c -5.24408,5.4789 -14.16686,20.89808 -15.8888,23.71579 l -13.46243,22.30694 c 1.01751,0 1.80021,0.78271 1.87848,1.72194 q 0,0.46962 -0.23481,0.93924 l -12.28838,20.66327 c -2.97426,5.16582 2.42636,8.68797 3.1308,7.51392 19.33267,-31.15145 30.60354,-28.72508 30.60354,-28.72508 l 6.49641,-14.94955 c 0.31308,-0.78271 0,-1.64368 -0.70442,-1.95675 z M 365.84345,0.31716217 c -110.67372,0 -200.37108,89.69736983 -200.37108,200.29282783 -0.0783,42.81366 13.69724,84.53155 39.21324,118.89206 8.37489,-3.60042 13.07108,-9.07931 16.4367,-13.22762 l 37.33476,-47.6664 c 0.7827,-1.01752 1.80021,-1.80021 2.97426,-2.26983 l 5.63543,-2.42637 61.36365,-77.80033 8.92278,-6.96604 18.31516,-25.43773 c 0.46962,-0.62616 1.01752,-1.25232 1.72195,-1.72194 l 7.98354,-5.79197 c 1.95674,-1.40887 4.61792,-1.48713 6.65294,-0.0782 l 9.70547,6.80948 c 5.16582,3.60042 9.31413,8.45315 12.13184,14.01032 l 38.74364,68.0166 c 0.62615,1.33058 1.72194,2.3481 3.05252,2.89598 7.59219,3.75696 12.21012,4.46139 22.22867,15.26265 4.61792,5.00927 24.96811,27.78583 53.45838,63.08558 4.14831,5.63544 9.70548,10.1751 16.1236,13.07108 25.43775,-34.36056 39.13499,-76.00017 39.05672,-118.73557 C 566.21454,90.014532 476.51717,0.31716217 365.84345,0.31716217 M 219.47863,211.64606 l -12.99281,-4.22658 -8.06181,11.03606 v -13.61898 l -12.91453,-4.22657 12.9928,-4.22658 v -13.61897 l 8.06181,11.03606 12.99281,-4.22657 -8.0618,11.03606 z m -3.05253,44.61387 -4.22657,12.9928 -4.22658,-12.9928 h -13.61897 l 11.03606,-7.98354 -4.22657,-12.99281 11.03606,8.0618 11.03607,-8.0618 -4.22658,12.99281 11.03606,8.06181 H 216.4261 Z m 2.58292,-103.31635 4.22658,12.99282 -11.03607,-8.06181 -11.03606,8.06181 4.22657,-12.99282 -11.03606,-8.06181 h 13.61897 l 4.22658,-12.9928 4.22657,12.9928 h 13.61898 z m 21.99386,-29.4295 -7.98354,-11.03606 -12.99282,4.22658 8.06181,-11.03607 -8.06181,-11.036071 12.99282,4.226577 8.06181,-11.036062 v 13.618976 l 12.9928,4.22658 -12.9928,4.22658 z M 275.12857,75.7694 270.90199,88.762213 266.67542,75.7694 h -13.61898 l 11.03607,-8.061805 -4.22658,-12.992814 11.03606,7.983536 11.03607,-8.061805 -4.22658,12.992813 11.03606,8.061805 z m 43.04847,-21.915587 -8.06179,11.036063 V 51.270904 l -12.99282,-4.226578 12.99282,-4.226577 V 29.198777 l 8.06179,11.036063 12.99282,-4.226578 -8.06181,11.036064 8.06181,11.036064 z m 54.4759,-12.523194 4.22658,12.992813 -11.03607,-8.061806 -11.03606,8.061806 4.22658,-12.992813 -11.03607,-8.061805 h 13.61897 l 4.22658,-12.992813 4.22658,12.992813 H 383.689 Z m 48.91872,9.940285 v 13.618972 l -8.06181,-11.036063 -12.99281,4.226577 8.06181,-11.036064 -8.06181,-11.036064 12.99281,4.226578 8.06181,-11.036063 v 13.618972 l 12.99282,4.226577 z m 90.63661,138.303026 12.99281,4.22657 8.06181,-11.03606 v 13.61897 l 12.99281,4.22658 -12.99281,4.22657 v 13.61898 l -8.06181,-11.03606 -12.99281,4.22658 8.0618,-11.03607 z M 460.7849,88.762213 456.55833,75.7694 h -13.61898 l 11.03607,-8.061805 -4.22657,-12.992814 11.03605,8.061807 11.03607,-7.983536 -4.22657,12.992812 11.03606,8.061806 h -13.61898 z m 29.9774,34.751867 v -13.61897 l -12.99281,-4.22658 12.99281,-4.22658 V 87.822974 l 8.06181,11.036062 12.9928,-4.226577 -8.0618,11.036071 8.0618,11.03607 -12.9928,-4.22658 z m 24.4985,21.36769 4.22658,-12.9928 4.22657,12.9928 h 13.61897 l -11.03606,8.06181 4.22658,12.99282 -11.03606,-8.06181 -11.03607,8.06181 4.22658,-12.99282 -11.03606,-8.06181 z m 8.45315,111.37816 -4.22657,12.9928 -4.22658,-12.9928 h -13.61897 l 11.03606,-8.06181 -4.22658,-12.99281 11.03607,8.06181 11.03606,-8.06181 -4.22658,12.99281 11.03606,8.06181 z m -85.31425,60.03306 c 0.93924,-1.40887 2.50464,-5.2441 -0.39135,-12.36666 l -8.84451,-23.87234 c -1.17404,-3.05253 1.40887,-4.85274 3.20908,-2.89599 0,0 16.74976,19.33269 21.05461,27.39448 l 8.29662,13.69726 c 7.12256,0.46961 26.76832,1.0175 45.63138,1.0175 -1.87847,-1.87848 -3.67868,-3.9135 -5.24409,-6.10506 -32.24721,-39.91768 -52.67568,-62.14634 -52.91049,-62.38115 -6.49641,-7.12257 -9.54893,-8.45316 -14.55821,-10.72299 -0.70443,-0.31308 -1.48713,-0.70442 -2.34809,-1.09577 v 6.02679 c 0.0782,0.39134 -0.23481,0.78269 -0.62617,0.86096 -0.31308,0 -0.62616,-0.15654 -0.7827,-0.46962 l -47.35332,-83.20096 -0.15654,-0.23481 c -1.95675,-3.9135 -4.85274,-7.27911 -8.45315,-9.78374 l -4.61793,-3.20908 -22.62001,52.1278 c 2.73944,0 4.85273,2.19156 4.931,4.85273 0,0.70443 -0.15654,1.3306 -0.39135,1.95675 l -20.89808,48.29257 h 19.17614 c 7.43564,0 14.71475,1.40885 21.60251,4.22657 l 5.08755,2.03502 c 0,0 -15.26265,31.38626 -15.26265,47.90122 0,2.97425 0.46962,6.02679 1.25233,8.8445 h 35.1432 l -1.64366,-9.86202 c 13.77551,3.20907 27.70756,5.4789 41.71788,6.96604"
     style="fill:#0064ff;stroke:#ffffff;stroke-width:3;stroke-dasharray:none;stroke-opacity:1"
     id="path1" />
</svg>
