<?xml version="1.0" encoding="UTF-8" standalone="no"?>
<svg
   version="1.0"
   width="732.000000pt"
   height="320.000000pt"
   viewBox="0 0 732.000000 320.000000"
   preserveAspectRatio="xMidYMid meet"
   id="svg4"
   sodipodi:docname="color-hulu.svg"
   inkscape:version="1.4.4 (dcaf3e7d9e, 2026-05-05)"
   xmlns:inkscape="http://www.inkscape.org/namespaces/inkscape"
   xmlns:sodipodi="http://sodipodi.sourceforge.net/DTD/sodipodi-0.dtd"
   xmlns="http://www.w3.org/2000/svg"
   xmlns:svg="http://www.w3.org/2000/svg">
  <defs
     id="defs4">
    <radialGradient
       id="disney-plus_svg__a"
       cx="463.58899"
       cy="533.71301"
       r="374.05801"
       gradientTransform="matrix(1.0885105,0,0,1.0885105,61.352771,-397.39295)"
       gradientUnits="userSpaceOnUse">
      <stop
         offset="0.007"
         style="stop-color:#ffffff;stop-opacity:1;"
         id="stop1" />
      <stop
         offset="0.03"
         style="stop-color:#ffffff;stop-opacity:1;"
         id="stop2" />
      <stop
         offset="0.057"
         style="stop-color:#ffffff;stop-opacity:1;"
         id="stop3" />
      <stop
         offset="0.084"
         style="stop-color:#ffffff;stop-opacity:1;"
         id="stop4" />
      <stop
         offset="0.111"
         style="stop-color:#ffffff;stop-opacity:1;"
         id="stop5" />
      <stop
         offset="0.138"
         style="stop-color:#ffffff;stop-opacity:1;"
         id="stop6" />
      <stop
         offset="0.16500001"
         style="stop-color:#ffffff;stop-opacity:1;"
         id="stop7" />
      <stop
         offset="0.191"
         style="stop-color:#fffffe;stop-opacity:1;"
         id="stop8" />
      <stop
         offset="0.21600001"
         style="stop-color:#ffffff;stop-opacity:1;"
         id="stop9" />
      <stop
         offset="1"
         style="stop-color:#ffffff;stop-opacity:0;"
         id="stop10" />
    </radialGradient>
  </defs>
  <sodipodi:namedview
     id="namedview4"
     pagecolor="#505050"
     bordercolor="#ffffff"
     borderopacity="1"
     inkscape:showpageshadow="0"
     inkscape:pageopacity="0"
     inkscape:pagecheckerboard="1"
     inkscape:deskcolor="#505050"
     inkscape:document-units="pt"
     inkscape:zoom="0.88279674"
     inkscape:cx="276.39432"
     inkscape:cy="158.02052"
     inkscape:window-width="2560"
     inkscape:window-height="1380"
     inkscape:window-x="0"
     inkscape:window-y="0"
     inkscape:window-maximized="1"
     inkscape:current-layer="svg4" />
  <metadata
     id="metadata1">
Created by potrace 1.16, written by Peter Selinger 2001-2019
</metadata>
  <path
     d="m 162.13632,129.39177 c 12.18594,9.89212 18.20723,25.23207 18.20723,46.30659 v 105.37258 h -57.77571 v -97.63092 q 0,-6.45139 -4.73102,-11.1824 -4.73101,-4.73101 -11.18239,-4.73101 H 72.820513 c -4.300921,0 -7.885023,1.577 -10.895668,4.73101 -3.010645,3.15401 -4.587649,6.88148 -4.587649,11.1824 v 97.63092 H -1.0119734 V 38.929055 H 57.337196 v 78.850235 c 0.860184,-0.28673 3.010645,-0.86019 6.451382,-1.86374 3.297373,-0.86018 7.741659,-1.43364 13.189493,-1.43364 h 37.418019 c 19.64087,0.14337 35.69764,5.01774 47.74023,14.90986 m 183.79271,-14.76649 h 58.34917 v 102.0752 c 0,19.21078 -5.30447,34.6941 -15.77005,46.44995 -10.46558,11.89922 -24.65862,17.77714 -42.57912,17.77714 h -57.48899 c -20.07097,0 -36.12774,-5.5912 -48.02696,-16.63023 -12.04258,-11.03903 -18.06387,-26.95244 -18.06387,-47.59686 v -102.0752 h 58.34917 v 97.63091 c 0,4.30092 1.57701,7.88502 4.58765,10.89567 3.01065,3.01064 6.73811,4.58765 10.89567,4.58765 h 33.69055 c 4.30092,0 8.02839,-1.57701 11.1824,-4.58765 3.15401,-3.01065 4.73101,-6.73811 4.73101,-10.89567 z M 448.57769,38.929055 h 58.34917 V 281.07094 h -58.34917 z m 284.43428,75.696225 v 102.0752 c 0,19.21078 -5.30447,34.6941 -15.77005,46.44995 -10.46557,11.89922 -24.65861,17.77714 -42.57912,17.77714 h -57.05889 c -20.3577,0 -36.55784,-5.5912 -48.60042,-16.63023 -12.04258,-11.03903 -18.06387,-26.95244 -18.06387,-47.59686 v -102.0752 h 58.34917 v 97.63091 c 0,4.30092 1.57701,7.88502 4.58765,10.89567 3.01065,3.01064 6.73811,4.58765 10.89567,4.58765 h 34.26401 c 4.30092,0 7.88502,-1.57701 10.89567,-4.58765 3.01064,-3.01065 4.58765,-6.73811 4.58765,-10.89567 v -97.63091 z"
     style="fill:#1ce783;stroke-width:1.43364"
     id="path1" />
</svg>
