<?xml version="1.0" encoding="UTF-8" standalone="no"?>
<svg
   version="1.0"
   width="1228.000000pt"
   height="320.000000pt"
   viewBox="0 0 1228.000000 320.000000"
   preserveAspectRatio="xMidYMid meet"
   id="svg6"
   sodipodi:docname="color-webdl.svg"
   inkscape:version="1.4.4 (dcaf3e7d9e, 2026-05-05)"
   xmlns:inkscape="http://www.inkscape.org/namespaces/inkscape"
   xmlns:sodipodi="http://sodipodi.sourceforge.net/DTD/sodipodi-0.dtd"
   xmlns:xlink="http://www.w3.org/1999/xlink"
   xmlns="http://www.w3.org/2000/svg"
   xmlns:svg="http://www.w3.org/2000/svg">
  <defs
     id="defs6">
    <linearGradient
       id="linearGradient6"
       inkscape:collect="always">
      <stop
         style="stop-color:#000000;stop-opacity:1;"
         offset="0"
         id="stop6" />
      <stop
         style="stop-color:#f38ba8;stop-opacity:1"
         offset="1"
         id="stop7" />
    </linearGradient>
    <linearGradient
       inkscape:collect="always"
       xlink:href="#linearGradient6"
       id="linearGradient7"
       x1="355.94202"
       y1="2742.3604"
       x2="11990.161"
       y2="474.50104"
       gradientUnits="userSpaceOnUse" />
  </defs>
  <sodipodi:namedview
     id="namedview6"
     pagecolor="#505050"
     bordercolor="#ffffff"
     borderopacity="1"
     inkscape:showpageshadow="0"
     inkscape:pageopacity="0"
     inkscape:pagecheckerboard="1"
     inkscape:deskcolor="#505050"
     inkscape:document-units="pt"
     inkscape:zoom="0.73747964"
     inkscape:cx="665.10311"
     inkscape:cy="160.6824"
     inkscape:window-width="2560"
     inkscape:window-height="1380"
     inkscape:window-x="0"
     inkscape:window-y="0"
     inkscape:window-maximized="1"
     inkscape:current-layer="svg6" />
  <metadata
     id="metadata1">
Created by potrace 1.16, written by Peter Selinger 2001-2019
</metadata>
  <g
     transform="translate(0.000000,320.000000) scale(0.100000,-0.100000)"
     fill="#ffffff"
     stroke="none"
     id="g6"
     style="fill-opacity:1;stroke:url(#linearGradient7);fill:#f38ba8">
    <path
       d="M1335 2874 c-316 -48 -543 -160 -756 -373 -188 -188 -299 -391 -355 -651 -26 -118 -26 -381 -1 -498 113 -518 490 -896 1007 -1008 118 -26 381 -26 498 -1 518 113 896 490 1008 1007 26 118 26 381 1 498 -59 269 -179 485 -374 673 -174 168 -372 275 -613 330 -83 19 -344 34 -415 23z m206 -220 c96 -49 215 -272 274 -517 28 -116 55 -301 55 -383 l0 -54 -392 0 -391 0 6 103 c25 392 180 783 342 858 40 19 58 17 106 -7z m-476 -136 c-97 -209 -155 -432 -177 -675 l-12 -143 -233 0 c-192 0 -233 2 -233 14 0 44 36 193 66 269 99 258 280 456 530 582 49 24 92 44 96 45 4 0 -13 -42 -37 -92z m888 47 c247 -124 427 -320 527 -571 31 -77 69 -227 70 -271 l0 -23 -233 0 -233 0 -11 133 c-22 251 -80 475 -176 680 -25 53 -43 97 -39 97 4 0 47 -20 95 -45z m-1066 -1197 c22 -252 80 -476 176 -680 25 -54 44 -98 41 -98 -16 0 -144 66 -206 105 -191 124 -333 297 -418 511 -31 77 -69 227 -70 272 l0 22 233 0 233 0 11 -132z m983 79 c0 -131 -43 -368 -96 -526 -50 -150 -107 -255 -179 -327 -91 -92 -138 -93 -226 -5 -64 65 -113 148 -164 279 -61 160 -114 422 -115 570 l0 62 390 0 390 0 0 -53z m675 1 c-40 -294 -218 -576 -466 -741 -71 -47 -205 -117 -223 -117 -3 0 16 43 40 97 97 205 155 430 176 671 l12 142 234 0 234 0 -7 -52z"
       id="path1"
       style="fill-opacity:1;stroke:url(#linearGradient7);fill:#f38ba8" />
    <path
       d="M3420 2548 c0 -7 111 -439 247 -960 l248 -948 241 0 240 0 148 563 c130 493 164 615 166 584 0 -6 284 -1088 296 -1129 5 -17 25 -18 244 -18 219 0 239 1 244 17 8 25 496 1894 496 1899 0 2 -112 4 -249 4 -229 0 -250 -1 -255 -17 -3 -10 -62 -292 -131 -628 -69 -335 -127 -614 -129 -620 -6 -16 -8 -7 -156 600 -78 319 -146 599 -152 623 l-10 42 -204 0 -203 0 -11 -38 c-5 -21 -75 -306 -156 -633 -80 -327 -147 -595 -149 -597 -2 -2 -6 5 -9 15 -5 17 -256 1241 -256 1249 0 2 -112 4 -250 4 -192 0 -250 -3 -250 -12z"
       id="path2"
       style="fill-opacity:1;stroke:url(#linearGradient7);fill:#f38ba8" />
    <path
       d="M7357 2554 c-4 -4 -7 -436 -7 -961 l0 -953 240 0 240 0 0 123 0 122 30 -51 c63 -111 174 -189 308 -215 82 -16 219 -6 296 20 260 91 401 379 383 781 -13 297 -101 498 -269 609 -153 103 -369 116 -534 33 -69 -35 -153 -120 -186 -187 l-23 -47 -5 363 -5 364 -231 3 c-127 1 -233 -1 -237 -4z m870 -856 c86 -57 132 -155 140 -298 11 -188 -51 -331 -166 -386 -23 -11 -60 -18 -101 -18 -125 0 -208 68 -251 207 -18 57 -20 86 -17 185 3 102 7 125 32 178 31 69 72 114 131 144 61 31 177 25 232 -12z"
       id="path3"
       style="fill-opacity:1;stroke:url(#linearGradient7);fill:#f38ba8" />
    <path
       d="M8960 1600 l0 -960 438 0 c530 0 626 11 787 92 225 114 360 287 432 553 25 95 27 112 27 325 0 212 -2 231 -27 323 -81 301 -269 497 -560 581 -131 38 -251 46 -693 46 l-404 0 0 -960z m855 545 c167 -44 273 -158 321 -345 25 -95 22 -310 -4 -412 -37 -138 -95 -226 -190 -286 -82 -53 -147 -66 -332 -66 l-165 -1 -3 563 -2 562 158 0 c109 0 176 -5 217 -15z"
       id="path4"
       style="fill-opacity:1;stroke:url(#linearGradient7);fill:#f38ba8" />
    <path
       d="M10787 2553 c-4 -3 -7 -435 -7 -960 l0 -953 640 0 640 0 0 195 0 195 -395 0 -395 0 0 765 0 765 -238 0 c-131 0 -242 -3 -245 -7z"
       id="path5"
       style="fill-opacity:1;stroke:url(#linearGradient7);fill:#f38ba8" />
    <path
       d="M6435 2110 c-235 -38 -407 -155 -509 -350 -53 -101 -77 -197 -83 -341 -13 -276 48 -460 202 -614 125 -125 269 -182 485 -192 302 -13 528 86 655 287 28 45 75 160 75 185 0 13 -31 15 -210 15 l-209 0 -15 -29 c-22 -42 -94 -100 -140 -112 -55 -15 -154 -14 -202 1 -84 27 -142 95 -169 197 -27 104 -81 93 471 93 l486 0 -5 158 c-6 176 -18 236 -75 352 -27 56 -57 95 -117 155 -93 93 -182 145 -302 176 -91 23 -253 32 -338 19z m217 -342 c78 -23 158 -121 170 -208 l3 -25 -257 -3 -258 -2 0 22 c1 30 34 103 67 146 52 69 175 100 275 70z"
       id="path6"
       style="fill-opacity:1;stroke:url(#linearGradient7);fill:#f38ba8" />
  </g>
</svg>
