<?xml version="1.0" encoding="UTF-8" standalone="no"?>
<svg
   xml:space="preserve"
   viewBox="0 0 512 512"
   version="1.1"
   id="svg7"
   sodipodi:docname="color-peacock.svg"
   inkscape:version="1.4.4 (dcaf3e7d9e, 2026-05-05)"
   xmlns:inkscape="http://www.inkscape.org/namespaces/inkscape"
   xmlns:sodipodi="http://sodipodi.sourceforge.net/DTD/sodipodi-0.dtd"
   xmlns="http://www.w3.org/2000/svg"
   xmlns:svg="http://www.w3.org/2000/svg"><defs
     id="defs7" /><sodipodi:namedview
     id="namedview7"
     pagecolor="#505050"
     bordercolor="#ffffff"
     borderopacity="1"
     inkscape:showpageshadow="0"
     inkscape:pageopacity="0"
     inkscape:pagecheckerboard="1"
     inkscape:deskcolor="#505050"
     inkscape:zoom="2.3300781"
     inkscape:cx="255.78541"
     inkscape:cy="256"
     inkscape:window-width="2560"
     inkscape:window-height="1380"
     inkscape:window-x="0"
     inkscape:window-y="0"
     inkscape:window-maximized="1"
     inkscape:current-layer="svg7" /><path
     d="M421.7 357.4c-18 0-32.7 14.7-32.7 32.7s14.7 32.7 32.7 32.7 32.7-14.7 32.7-32.7-14.7-32.7-32.7-32.7"
     style="fill:#069de0"
     id="path1" /><path
     d="M421.7 268.1c-18 0-32.7 14.7-32.7 32.7s14.7 32.7 32.7 32.7 32.7-14.7 32.7-32.7c-.4-18.4-14.7-32.7-32.7-32.7"
     style="fill:#6e55dc"
     id="path2" /><path
     d="M421.7 446.6c-18 0-32.7 14.7-32.7 32.7s14.7 32.7 32.7 32.7 32.7-14.7 32.7-32.7-14.7-32.7-32.7-32.7"
     style="fill:#05ac3f"
     id="path3" /><path
     d="M421.7 178.5c-18 0-32.7 14.7-32.7 32.7s14.7 32.7 32.7 32.7 32.7-14.7 32.7-32.7c-.4-18-14.7-32.7-32.7-32.7"
     style="fill:#ef1541"
     id="path4" /><path
     d="M421.7 89.3c-18 0-32.7 14.7-32.7 32.7s14.7 32.7 32.7 32.7 32.7-14.7 32.7-32.7c-.4-18.1-14.7-32.7-32.7-32.7"
     style="fill:#ff7112"
     id="path5" /><path
     d="M421.7 0c-18 0-32.7 14.7-32.7 32.7s14.7 32.7 32.7 32.7 32.7-14.7 32.7-32.7C454 14.7 439.7 0 421.7 0"
     style="fill:#fccc12"
     id="path6" /><path
     d="M192.9 20.2C114.4 20.2 50.6 84 50.6 162.5v329.2h67.5V309l24.8 26.2 99.2-39c56.5-22 93.2-73 93.2-133.6-.1-78.5-63.9-142.4-142.4-142.4m25.3 216.3-100.1 39V162.6c0-45.5 34-78 74.8-78s74.8 33 74.8 78c0 28.4-13.7 59.7-49.5 73.9"
     id="path7"
     style="fill:#ffffff;fill-opacity:1" /></svg>
