<?xml version="1.0" encoding="UTF-8" standalone="no"?>
<svg
   version="1.0"
   width="864.000000pt"
   height="320.000000pt"
   viewBox="0 0 864.000000 320.000000"
   preserveAspectRatio="xMidYMid meet"
   id="svg3"
   sodipodi:docname="color-hbo-max.svg"
   inkscape:version="1.4.4 (dcaf3e7d9e, 2026-05-05)"
   xml:space="preserve"
   xmlns:inkscape="http://www.inkscape.org/namespaces/inkscape"
   xmlns:sodipodi="http://sodipodi.sourceforge.net/DTD/sodipodi-0.dtd"
   xmlns="http://www.w3.org/2000/svg"
   xmlns:svg="http://www.w3.org/2000/svg"><defs
     id="defs3"><linearGradient
       id="swatch7"
       inkscape:swatch="solid"><stop
         style="stop-color:#b4befe;stop-opacity:1;"
         offset="0"
         id="stop7" /></linearGradient><linearGradient
       id="SVGID_1_"
       gradientUnits="userSpaceOnUse"
       x1="1041.5187"
       y1="325.6485"
       x2="1660.9564"
       y2="325.6485"
       gradientTransform="matrix(0.4545,0,0,-0.4545,7.1986,243.317)">
		<stop
   offset="0"
   style="stop-color:#991EEB"
   id="stop1" />
		<stop
   offset="0.4"
   style="stop-color:#5822B4"
   id="stop2" />
		<stop
   offset="0.73"
   style="stop-color:#5822B4"
   id="stop3" />
		<stop
   offset="1"
   style="stop-color:#991EEB"
   id="stop4" />
	</linearGradient></defs><sodipodi:namedview
     id="namedview3"
     pagecolor="#505050"
     bordercolor="#ffffff"
     borderopacity="1"
     inkscape:showpageshadow="0"
     inkscape:pageopacity="0"
     inkscape:pagecheckerboard="1"
     inkscape:deskcolor="#505050"
     inkscape:document-units="pt"
     inkscape:zoom="0.74792502"
     inkscape:cx="649.79776"
     inkscape:cy="304.17488"
     inkscape:window-width="2560"
     inkscape:window-height="1380"
     inkscape:window-x="0"
     inkscape:window-y="0"
     inkscape:window-maximized="1"
     inkscape:current-layer="svg3"
     showgrid="false"><inkscape:grid
       id="grid1"
       units="pt"
       originx="0"
       originy="0"
       spacingx="1"
       spacingy="1"
       empcolor="#0099e5"
       empopacity="0.30196078"
       color="#0099e5"
       opacity="0.14901961"
       empspacing="5"
       enabled="true"
       visible="false" /></sodipodi:namedview><metadata
     id="metadata1">
Created by potrace 1.16, written by Peter Selinger 2001-2019
</metadata><g
     transform="matrix(0.78566157,0,0,0.78566157,-0.12870997,85.126452)"
     id="g4"
     style="stroke-width:0;stroke-dasharray:none">
	<path
   d="M 135.5,189.8 H 84.8 V 117.5 H 52 v 72.3 H 0 V 3.3 H 51.9 V 72.9 H 84.7 V 3.3 h 50.7 z m 232.4,0.8 c 51.9,0 94.3,-43.2 94.3,-95.8 0,-53.4 -42.4,-94.7 -94.3,-94.7 -52.6,0 -79.2,38.2 -85.6,53.8 0,-23.1 -23.1,-50.7 -49.9,-50.7 h -86.6 v 186.6 h 80.6 c 32.8,0 55.9,-28 55.9,-52.6 7.3,15.2 33.1,53.4 85.6,53.4 z M 220,114.8 c 7.5,0 13.5,7.3 13.5,15.6 0,8.7 -6,16 -13.5,16 h -25.8 v -31.6 z m 0,-70 c 7.5,0 13.5,7.3 13.5,15.6 0,8.3 -6,15.6 -13.5,15.6 H 194.2 V 44.8 Z m 34.1,50 c 6,-0.4 15.8,-7.3 19.5,-11.4 -1.4,5 -1.4,20.8 0,25.8 -4.1,-6.1 -13.5,-13.3 -19.5,-14.4 z m 66.5,0 c 0,-26.3 21.4,-47.5 47.7,-47.4 26.4,0.2 47.4,21.7 47.1,48.1 -0.4,26 -21.4,46.9 -47.4,46.9 -26.2,0 -47.4,-21.2 -47.4,-47.6 z m 47.3,37.4 c 20.2,0 37.2,-16.6 37.2,-37.4 0,-20.8 -17,-37.2 -37.2,-37.2 -20.8,0 -37.4,16.4 -37.4,37.2 0,20.8 16.6,37.4 37.4,37.4 z"
   id="path1"
   style="stroke-width:0;stroke-dasharray:none" />
	
		<linearGradient
   id="linearGradient8"
   gradientUnits="userSpaceOnUse"
   x1="1041.5187"
   y1="325.6485"
   x2="1660.9564"
   y2="325.6485"
   gradientTransform="matrix(0.4545,0,0,-0.4545,7.1986,243.317)">
		<stop
   offset="0"
   style="stop-color:#991EEB"
   id="stop5" />
		<stop
   offset="0.4"
   style="stop-color:#5822B4"
   id="stop6" />
		<stop
   offset="0.73"
   style="stop-color:#5822B4"
   id="stop7-3" />
		<stop
   offset="1"
   style="stop-color:#991EEB"
   id="stop8" />
	</linearGradient>
	<path
   class="st0"
   d="M 733.2,69.3 C 732.2,24.1 700.2,0.2 661,0.2 639.5,0.2 620.1,7.4 606.9,21.4 593.7,7.4 574.3,0.2 552.8,0.2 c -39.2,0 -71.2,24 -72.2,69.2 v 103.4 c 0,9.5 7.7,17.1 17.1,17.1 h 16.2 c 1.6,0 2.9,-1.3 2.9,-2.9 V 69.6 c 0.7,-22.3 16.5,-34.1 36,-34.1 19.5,0 35.3,11.8 36,34.1 v 103.1 c 0,9.5 7.7,17.1 17.1,17.1 h 16.2 c 1.6,0 2.9,-1.3 2.9,-2.9 V 69.5 c 0.7,-22.3 16.5,-34.1 36,-34.1 19.5,0 35.3,11.8 36,34.1 v 103.1 c 0,9.5 7.7,17.1 17.1,17.1 h 16.2 c 1.6,0 2.9,-1.3 2.9,-2.9 V 69.4 c 0.1,0.1 0,0 0,-0.1 z M 1097.9,3.1 h -27.5 c -7.6,0 -14.7,3.8 -19,10.1 l -30.4,45 c -4,5.9 -12.6,5.9 -16.6,0 L 974,13.2 C 969.8,6.9 962.6,3.1 955,3.1 h -27.5 c -1.7,0 -2.7,1.9 -1.8,3.3 l 54.2,80.4 c 3.9,5.8 3.9,13.4 0,19.2 l -54.2,80.4 c -1,1.4 0.1,3.3 1.8,3.3 H 955 c 7.6,0 14.7,-3.8 19,-10.1 l 30.4,-45 c 4,-5.9 12.6,-5.9 16.6,0 l 30.4,45 c 4.2,6.3 11.4,10.1 19,10.1 h 27.5 c 1.7,0 2.7,-1.9 1.8,-3.3 l -54.3,-80.3 c -3.9,-5.8 -3.9,-13.4 0,-19.2 l 54.2,-80.4 c 1,-1.4 0,-3.4 -1.7,-3.4 z m -184.6,0 H 897.1 C 888.9,3.1 882,8.9 880.3,16.6 865.9,5.6 847.8,0 828.3,0 c -47.4,0 -85.9,33 -85.9,95.3 0,62.3 38.4,95.3 85.9,95.3 19.4,0 37.3,-5.5 51.7,-16.3 0.8,8.7 8.1,15.6 17.1,15.6 h 16.2 c 1.6,0 2.9,-1.3 2.9,-2.9 V 6 c -0.1,-1.6 -1.3,-2.9 -2.9,-2.9 z m -85,152.1 C 800,155.2 777,134.5 777,95.4 c 0,-39.1 23,-59.8 51.3,-59.8 28.3,0 51.3,20.7 51.3,59.8 0,39.1 -23,59.8 -51.3,59.8 z"
   id="path4"
   style="fill:url(#SVGID_1_);stroke-width:0;stroke-dasharray:none" />
</g><path
     style="fill:#ffffff;fill-opacity:1;stroke:#ffffff;stroke-width:0;stroke-linecap:square;stroke-dasharray:none"
     d="M 0.33425811,214.5937 V 116.99034 H 27.074907 53.815555 v 36.43413 36.43414 h 17.381422 17.381421 v -36.43414 -36.43413 h 26.406392 26.40639 v 97.60336 97.60337 H 115.32457 89.257952 l -0.172644,-37.93829 -0.172651,-37.9383 -17.548551,-0.17822 -17.548551,-0.17824 v 38.11653 38.11652 H 27.074907 0.33425811 Z"
     id="path2"
     transform="scale(0.75)" /><path
     style="fill:#ffffff;fill-opacity:1;stroke:#ffffff;stroke-width:0;stroke-linecap:square;stroke-dasharray:none"
     d="m 372.75822,312.16526 c -10.82589,-1.35884 -23.09927,-5.09007 -32.72299,-9.94811 -15.61602,-7.88294 -33.16224,-24.94442 -41.44792,-40.30286 -1.33904,-2.48207 -2.61871,-4.51796 -2.8437,-4.5242 -0.22498,-0.006 -0.6087,1.93724 -0.8527,4.31883 -1.95426,19.0747 -17.65572,38.98049 -36.33321,46.06203 -10.84858,4.11322 -9.07844,3.98677 -59.507,4.25104 l -46.29474,0.24262 v -97.63714 -97.63713 l 46.29474,0.0233 c 50.47358,0.0254 52.40675,0.14553 61.0941,3.79557 12.42959,5.22236 24.32141,16.90055 30.36795,29.82242 2.1954,4.69171 4.63716,13.61097 4.63716,16.9386 0,2.86596 0.84338,2.85526 1.88451,-0.0239 1.99615,-5.52027 10.40858,-16.841 18.44531,-24.82212 17.60426,-17.48246 37.28388,-26.51296 61.84015,-28.37693 18.34655,-1.39262 36.53882,2.20072 52.72032,10.41331 9.48276,4.81278 16.61978,10.05788 24.90344,18.30188 13.75078,13.68496 22.54079,30.1255 26.80691,50.13872 1.98773,9.32489 2.17146,27.93034 0.36638,37.10265 -4.30374,21.86891 -13.37255,38.92598 -28.79008,54.14981 -13.56882,13.39834 -30.48023,22.50341 -49.07576,26.42226 -7.53076,1.58705 -23.81094,2.25358 -31.49287,1.28935 z m -136.772,-46.20342 c 7.49469,-4.14822 10.92801,-15.55065 7.07744,-23.50487 -1.84856,-3.81862 -5.87171,-7.50309 -9.2028,-8.42808 -1.42969,-0.397 -8.80871,-0.71091 -16.76022,-0.713 l -14.20597,-0.004 v 17.10102 17.10102 l 15.543,-0.22116 c 12.94387,-0.18418 15.87838,-0.40679 17.54855,-1.3312 z m 161.59755,-4.5251 c 16.24001,-4.15349 29.6191,-16.53739 34.91708,-32.31979 9.42269,-28.0697 -6.59196,-57.54075 -35.19884,-64.77482 -7.88653,-1.99434 -20.04716,-1.53541 -27.61254,1.04208 -7.74331,2.6381 -13.97878,6.56106 -19.72123,12.40734 -10.38174,10.56944 -15.3221,23.50151 -14.44238,37.80493 1.37486,22.35384 15.89766,40.09486 37.50619,45.81747 6.52819,1.72887 17.83997,1.73937 24.55172,0.0228 z m -111.45883,-47.087 v -13.61428 l -2.96748,2.61208 c -3.82033,3.36279 -9.50301,6.77629 -13.77446,8.27408 l -3.37161,1.18227 5.24511,2.62526 c 3.82997,1.91696 6.54332,3.94267 10.05678,7.50813 2.64641,2.68557 4.81166,4.91523 4.81166,4.9548 z m -48.72515,-23.32123 c 9.20341,-6.17931 9.57486,-21.18171 0.69861,-28.21577 l -2.56744,-2.03459 -16.31814,-0.20035 -16.31815,-0.20034 v 16.41186 16.41187 h 15.63458 15.63458 z"
     id="path3"
     transform="scale(0.75)" /><path
     style="fill:#ffffff;fill-opacity:1;stroke:#ffffff;stroke-width:0;stroke-linecap:square;stroke-dasharray:none"
     d="m 375.37185,250.30406 c -6.94079,-1.83116 -12.04548,-4.84006 -17.44376,-10.28204 -5.58009,-5.62526 -8.52551,-10.75843 -10.36883,-18.0704 -1.47031,-5.83238 -1.0073,-16.1648 0.97177,-21.68566 3.99206,-11.1363 12.68191,-19.83252 23.87786,-23.89534 4.92535,-1.78733 15.54614,-2.41578 20.95423,-1.23989 13.38528,2.91039 25.63446,14.60168 29.14583,27.8184 1.29075,4.85832 1.45272,13.59155 0.34148,18.41234 -3.11409,13.50969 -14.66277,25.43283 -28.09666,29.00767 -4.63978,1.23468 -14.58188,1.20129 -19.38192,-0.0651 z"
     id="path5"
     transform="scale(0.75)" /></svg>
