<?xml version="1.0" encoding="UTF-8" standalone="no"?>
<svg
   version="1.0"
   width="668.000000pt"
   height="320.000000pt"
   viewBox="0 0 668.000000 320.000000"
   preserveAspectRatio="xMidYMid meet"
   id="svg4"
   sodipodi:docname="color-HEVC.svg"
   inkscape:version="1.4.4 (dcaf3e7d9e, 2026-05-05)"
   xmlns:inkscape="http://www.inkscape.org/namespaces/inkscape"
   xmlns:sodipodi="http://sodipodi.sourceforge.net/DTD/sodipodi-0.dtd"
   xmlns:xlink="http://www.w3.org/1999/xlink"
   xmlns="http://www.w3.org/2000/svg"
   xmlns:svg="http://www.w3.org/2000/svg">
  <defs
     id="defs4">
    <linearGradient
       id="linearGradient6"
       inkscape:collect="always">
      <stop
         style="stop-color:#a6da95;stop-opacity:1"
         offset="1"
         id="stop6" />
      <stop
         style="stop-color:#ffffff;stop-opacity:0;"
         offset="1"
         id="stop7" />
    </linearGradient>
    <linearGradient
       id="linearGradient4"
       inkscape:collect="always">
      <stop
         style="stop-color:#a6da95;stop-opacity:1"
         offset="0"
         id="stop4" />
      <stop
         style="stop-color:#a6da95;stop-opacity:1"
         offset="1"
         id="stop5" />
    </linearGradient>
    <linearGradient
       inkscape:collect="always"
       xlink:href="#linearGradient4"
       id="linearGradient5"
       x1="186.07034"
       y1="2277.4011"
       x2="6357.4033"
       y2="920.63824"
       gradientUnits="userSpaceOnUse" />
    <linearGradient
       inkscape:collect="always"
       xlink:href="#linearGradient6"
       id="linearGradient8"
       gradientUnits="userSpaceOnUse"
       x1="108.04104"
       y1="794.6853"
       x2="6696.0059"
       y2="2508.083" />
  </defs>
  <sodipodi:namedview
     id="namedview4"
     pagecolor="#505050"
     bordercolor="#ffffff"
     borderopacity="1"
     inkscape:showpageshadow="0"
     inkscape:pageopacity="0"
     inkscape:pagecheckerboard="1"
     inkscape:deskcolor="#505050"
     inkscape:document-units="pt"
     inkscape:zoom="0.96737606"
     inkscape:cx="394.36576"
     inkscape:cy="311.66783"
     inkscape:window-width="2560"
     inkscape:window-height="1380"
     inkscape:window-x="0"
     inkscape:window-y="0"
     inkscape:window-maximized="1"
     inkscape:current-layer="svg4" />
  <metadata
     id="metadata1">
Created by potrace 1.16, written by Peter Selinger 2001-2019
</metadata>
  <g
     transform="translate(0.000000,320.000000) scale(0.100000,-0.100000)"
     fill="#ffffff"
     stroke="none"
     id="g4"
     style="fill-opacity:1;stroke:url(#linearGradient5);fill:url(#linearGradient8)">
    <path
       d="M5959 2466 c-297 -53 -512 -201 -624 -430 -75 -151 -89 -220 -89 -436 0 -159 3 -196 22 -265 84 -311 312 -521 642 -592 65 -14 125 -18 255 -17 189 1 283 19 438 84 l77 32 0 174 c0 96 -1 174 -3 174 -2 0 -38 -20 -80 -44 -125 -71 -220 -98 -368 -104 -136 -5 -197 6 -290 54 -97 49 -185 164 -224 294 -25 84 -31 258 -11 360 30 159 121 297 235 354 93 48 154 59 290 54 148 -6 243 -33 368 -104 42 -24 78 -44 80 -44 2 0 3 78 3 174 l0 174 -77 32 c-140 59 -251 81 -418 85 -98 3 -176 0 -226 -9z"
       id="path1"
       style="fill-opacity:1;stroke:url(#linearGradient5);fill:url(#linearGradient8)" />
    <path
       d="M0 1600 l0 -850 220 0 220 0 0 360 0 360 320 0 320 0 0 -360 0 -360 220 0 220 0 0 850 0 850 -220 0 -220 0 0 -325 0 -325 -320 0 -320 0 0 325 0 325 -220 0 -220 0 0 -850z"
       id="path2"
       style="fill-opacity:1;stroke:url(#linearGradient5);fill:url(#linearGradient8)" />
    <path
       d="M1950 1600 l0 -850 600 0 600 0 0 165 0 165 -382 2 -383 3 -3 193 -2 192 350 0 350 0 0 165 0 165 -347 2 -348 3 -3 158 -3 157 376 0 375 0 -2 163 -3 162 -587 3 -588 2 0 -850z"
       id="path3"
       style="fill-opacity:1;stroke:url(#linearGradient5);fill:url(#linearGradient8)" />
    <path
       d="M3340 2440 c0 -5 135 -375 301 -822 166 -447 306 -825 311 -841 l10 -27 260 2 261 3 313 845 c172 465 314 846 314 848 0 1 -99 2 -219 2 l-220 0 -19 -52 c-11 -29 -111 -309 -223 -622 -138 -387 -206 -564 -212 -555 -5 8 -106 286 -226 619 l-217 605 -217 3 c-139 1 -217 -1 -217 -8z"
       id="path4"
       style="fill-opacity:1;stroke:url(#linearGradient5);fill:url(#linearGradient8)" />
  </g>
</svg>
